<svg xmlns="http://www.w3.org/2000/svg" width="68" height="68" viewBox="0 0 68 68">
    <defs>
        <filter id="prefix__타원_6" width="68" height="68" x="0" y="0" filterUnits="userSpaceOnUse">
            <feOffset dy="3"/>
            <feGaussianBlur result="blur" stdDeviation="3"/>
            <feFlood flood-opacity=".161"/>
            <feComposite in2="blur" operator="in"/>
            <feComposite in="SourceGraphic"/>
        </filter>
    </defs>
    <g id="prefix__btn_top" transform="translate(-286 -2496)">
        <g transform="translate(286 2496)">
            <circle id="prefix__타원_6-2" cx="25" cy="25" r="25" data-name="타원 6" transform="translate(9 6)" style="fill:#5f66f1"/>
        </g>
        <path id="prefix__icon_top" d="M13.253 7.61l-5.628 5.643a.457.457 0 01-.646 0L1.35 7.61a.457.457 0 010-.646l.75-.746a.451.451 0 01.65.008l3.559 3.692V.456A.458.458 0 016.765 0H7.83a.458.458 0 01.456.456v9.462l3.564-3.693a.458.458 0 01.65-.008l.745.745a.45.45 0 01.008.646z" transform="rotate(180 163.801 1263.3)" style="fill:#fff"/>
        <text id="prefix__TOP" transform="translate(312 2538)" style="font-size:8px;font-family:NotoSansCJKkr-Medium,Noto Sans CJK KR;font-weight:500;fill:#fff">
            <tspan x="0" y="0">TOP</tspan>
        </text>
    </g>
</svg>
