<svg xmlns="http://www.w3.org/2000/svg" width="18" height="18" viewBox="0 0 18 18">
    <defs>
        <style>
            .prefix__cls-2{fill:#333}
        </style>
    </defs>
    <g id="prefix__icon_addFriend" transform="translate(.119 .776)">
        <path id="prefix__사각형_209" d="M0 0H18V18H0z" data-name="사각형 209" transform="translate(-.119 -.775)" style="fill:none"/>
        <g id="prefix__btn_addFriend_off" transform="translate(-1.491 .048)">
            <path id="prefix__패스_18" d="M9.216 13.9H1.1v-1.495c.5-.709 2.7-1.5 3.9-1.931.519-.183.958-.344 1.265-.483l.322-.146V7.717l-.234-.161a4.072 4.072 0 01-1.595-3.35A2.893 2.893 0 017.863 1.1a2.893 2.893 0 013.109 3.109 4.072 4.072 0 01-1.595 3.35l-.234.161v2.125l.322.146c.329.146.863.395 1.463.695a.551.551 0 00.739-.249.545.545 0 00-.249-.739c-.446-.219-.856-.417-1.178-.563V8.28a5.25 5.25 0 001.829-4.074A3.981 3.981 0 007.863 0a3.981 3.981 0 00-4.206 4.206A5.273 5.273 0 005.486 8.28v.841c-.241.1-.541.2-.863.315C2.436 10.225.578 10.964.059 12L0 12.12v2.875h9.216a.549.549 0 100-1.1z" class="prefix__cls-2" data-name="패스 18" transform="translate(2)"/>
            <path id="prefix__패스_19" d="M21.064 15.859h-3.108V12.75h-1.1v3.109H13.75v1.1h3.109v3.109h1.1v-3.112h3.109z" class="prefix__cls-2" data-name="패스 19" transform="translate(-1.693 -3.424)"/>
        </g>
    </g>
</svg>
