<svg xmlns="http://www.w3.org/2000/svg" width="22" height="22" viewBox="0 0 22 22">
    <g id="prefix__icon_mypage" transform="translate(-152 -114)">
        <path id="prefix__사각형_3" d="M0 0H22V22H0z" data-name="사각형 3" transform="translate(152 114)" style="fill:none"/>
        <path id="prefix__user-light" d="M13.143 11.789c-1.2 0-1.781.655-3.755.655s-2.548-.655-3.755-.655A5.57 5.57 0 000 17.291v1.7a1.989 1.989 0 002.012 1.965h14.752a1.989 1.989 0 002.012-1.965v-1.7a5.57 5.57 0 00-5.633-5.502zm4.291 7.2a.665.665 0 01-.671.655H2.012a.665.665 0 01-.671-.655v-1.7A4.245 4.245 0 015.633 13.1c.821 0 1.639.655 3.755.655s2.934-.655 3.755-.655a4.245 4.245 0 014.291 4.192zm-8.046-8.51a5.3 5.3 0 005.364-5.24A5.3 5.3 0 009.388 0a5.3 5.3 0 00-5.365 5.24 5.3 5.3 0 005.365 5.239zm0-9.169a3.984 3.984 0 014.023 3.93 4.024 4.024 0 01-8.047 0 3.984 3.984 0 014.024-3.93z" transform="translate(153.466 114.521)" style="fill:#b2b2b2;stroke:#b2b2b2;stroke-width:.5px"/>
    </g>
</svg>
