<svg xmlns="http://www.w3.org/2000/svg" width="26" height="24" viewBox="0 0 26 24">
    <defs>
        <style>
            .prefix__cls-1{fill:#3b1c1c}
        </style>
    </defs>
    <g id="prefix__icon_kakao" transform="translate(499.13 -132.55)">
        <path id="prefix__패스_1492" d="M-493.117 151.5c-.2-.114-.4-.221-.594-.334a11.391 11.391 0 01-4.1-3.847 8.36 8.36 0 01-1.305-4.956 8.605 8.605 0 011.661-4.578 11.517 11.517 0 013.926-3.406 14.766 14.766 0 015.85-1.756 15.8 15.8 0 017.24.962 12.428 12.428 0 015.164 3.591 8.923 8.923 0 012.011 4.189 8.246 8.246 0 01-1.067 5.758 11.051 11.051 0 01-4.079 3.961 14.632 14.632 0 01-5.706 1.885 16.152 16.152 0 01-4.013 0c-.111-.014-.224-.018-.35-.027l-.583.392-4.484 3.027a1.841 1.841 0 01-.228.145.382.382 0 01-.563-.357 1.292 1.292 0 01.061-.3q.558-2.09 1.119-4.179l.04-.17zm12.972-9.133c-.005-.1-.015-.205-.016-.313 0-.541.006-1.083-.006-1.624a.524.524 0 00-.584-.555.544.544 0 00-.587.56c-.005.079 0 .158 0 .237v4.869c.012.405.223.627.593.622a.569.569 0 00.583-.639c.005-.417 0-.835 0-1.252v-.345a2.118 2.118 0 01.5-.46c.515.7 1.019 1.394 1.529 2.082a3.548 3.548 0 00.389.466.631.631 0 00.808.006.529.529 0 00.08-.706 2.7 2.7 0 00-.209-.307c-.314-.413-.63-.824-.945-1.236-.272-.357-.542-.715-.832-1.1.186-.18.359-.34.523-.509.425-.436.852-.87 1.264-1.318a.469.469 0 00.042-.695.593.593 0 00-.769-.1 1.605 1.605 0 00-.252.224c-.338.348-.664.707-1.01 1.047s-.717.687-1.101 1.045zm-7.406 2.533c.037.1.074.189.106.282.073.213.13.433.218.64a.574.574 0 00.731.314.516.516 0 00.333-.679 2.212 2.212 0 00-.073-.225l-1.69-4.6a1.652 1.652 0 00-.16-.334.875.875 0 00-1.461-.074 1.678 1.678 0 00-.237.444c-.409 1.062-.81 2.127-1.213 3.192-.192.506-.387 1.011-.571 1.519a.581.581 0 00.689.78.569.569 0 00.438-.424c.09-.276.185-.552.279-.832zm-6.353-3.887v4.33a2.5 2.5 0 00.007.3.566.566 0 00.6.521.567.567 0 00.59-.532 2.777 2.777 0 00.007-.3v-4.32h.409c.315 0 .632.012.946-.007a.484.484 0 00.493-.53.524.524 0 00-.479-.556 1.7 1.7 0 00-.236-.007h-3.481a1.434 1.434 0 00-.269.014.523.523 0 00-.434.56.487.487 0 00.47.518 2.866 2.866 0 00.338.007zm9.662 3.978v-.4-3.918a2.148 2.148 0 00-.014-.337.525.525 0 00-.472-.457c-.446-.064-.714.176-.716.665q-.007 2.415 0 4.83c0 .512.211.719.719.721h2.128a.915.915 0 00.266-.029.508.508 0 00.393-.454.507.507 0 00-.529-.6c-.461-.014-.923 0-1.385-.006-.119.006-.239-.006-.389-.016z" class="prefix__cls-1" data-name="패스 1492"/>
        <path id="prefix__패스_1493" d="M-360.409 257.533l.921 2.79h-1.924l.917-2.793z" class="prefix__cls-1" data-name="패스 1493" transform="translate(-128.398 -116.521)"/>
    </g>
</svg>
