<svg xmlns="http://www.w3.org/2000/svg" width="22" height="22" viewBox="0 0 22 22">
    <defs>
        <style>
            .prefix__cls-1{fill:none}.prefix__cls-2{fill:#5f66f1}
        </style>
    </defs>
    <g id="prefix__icon_search" transform="translate(-260 -10)">
        <path id="prefix__사각형_2" d="M0 0h22v22H0z" class="prefix__cls-1" data-name="사각형 2" transform="translate(260 10)"/>
        <g id="prefix__패스_13" data-name="패스 13">
            <path id="prefix__패스_1" d="M7.894 0A7.894 7.894 0 110 7.894 7.894 7.894 0 017.894 0z" class="prefix__cls-1" data-name="패스 1" transform="translate(261.215 11.215)"/>
            <path id="prefix__패스_2" d="M7.894 2a5.894 5.894 0 105.894 5.894A5.9 5.9 0 007.894 2m0-2A7.894 7.894 0 110 7.894 7.894 7.894 0 017.894 0z" class="prefix__cls-2" data-name="패스 2" transform="translate(261.215 11.215)"/>
        </g>
        <path id="prefix__패스_3" d="M1 0h8a1 1 0 010 2H1a1 1 0 010-2z" class="prefix__cls-2" data-name="패스 3" transform="rotate(45 109.65 342.247)"/>
    </g>
</svg>
