<svg xmlns="http://www.w3.org/2000/svg" width="18" height="18" viewBox="0 0 18 18">
    <g id="prefix__icon_setting_friends" transform="translate(-1611.382 -159.182)">
        <path id="prefix__사각형_413" d="M0 0H18V18H0z" data-name="사각형 413" transform="translate(1611.382 159.182)" style="fill:none;opacity:.996"/>
        <path id="prefix__user-light" d="M10.311 9.249c-.944 0-1.4.514-2.946.514s-2-.514-2.946-.514A4.37 4.37 0 000 13.565V14.9a1.561 1.561 0 001.578 1.542h11.574A1.561 1.561 0 0014.73 14.9v-1.335a4.37 4.37 0 00-4.419-4.316zm3.367 5.651a.522.522 0 01-.526.514H1.578a.522.522 0 01-.526-.514v-1.335a3.331 3.331 0 013.367-3.289 16.037 16.037 0 002.946.514 16.1 16.1 0 002.946-.514 3.331 3.331 0 013.367 3.289zM7.365 8.222a4.16 4.16 0 004.209-4.111A4.16 4.16 0 007.365 0a4.16 4.16 0 00-4.209 4.111 4.16 4.16 0 004.209 4.111zm0-7.194a3.125 3.125 0 013.156 3.083 3.157 3.157 0 01-6.313 0 3.125 3.125 0 013.157-3.083z" transform="translate(1612.844 159.582)" style="fill:#333"/>
    </g>
</svg>
