<svg xmlns="http://www.w3.org/2000/svg" width="22" height="22" viewBox="0 0 22 22">
    <g id="prefix__img_clock" transform="translate(-15 -387)">
        <g id="prefix__alarm-clock-duotone" transform="translate(14 387)">
            <path id="prefix__패스_35" d="M51.331 80.637l-1.669-1.674a9.326 9.326 0 10-14.924 0l-1.67 1.674a.671.671 0 000 .946l.942.945a.665.665 0 00.939 0l1.669-1.676a9.248 9.248 0 0011.156 0l1.669 1.676a.665.665 0 00.939 0l.942-.945a.669.669 0 00.007-.946zm-5.37-4.453l-.836 1.045a.669.669 0 01-.94.1l-2.7-2.158a1.672 1.672 0 01-.627-1.305v-5.185a.669.669 0 01.669-.669h1.337a.669.669 0 01.669.669v4.707l2.32 1.855a.669.669 0 01.1.941z" data-name="패스 35" transform="translate(-30.541 -61.325)" style="opacity:.4;fill:#fff"/>
            <path id="prefix__패스_36" d="M1 4.012a3.974 3.974 0 00.637 2.142l6.074-5.081A3.989 3.989 0 001 4.012zm14.315 9.906L13 12.063V7.356a.669.669 0 00-.669-.669h-1.342a.669.669 0 00-.669.669v5.189a1.672 1.672 0 00.627 1.305l2.7 2.157a.669.669 0 00.94-.1l.836-1.045a.669.669 0 00-.108-.944zM18.32 0a3.974 3.974 0 00-2.714 1.072l6.074 5.082A3.992 3.992 0 0018.32 0z" data-name="패스 36" style="fill:#fff"/>
        </g>
        <path id="prefix__사각형_107" d="M0 0H22V22H0z" data-name="사각형 107" transform="translate(15 387)" style="fill:none"/>
    </g>
</svg>
