<svg xmlns="http://www.w3.org/2000/svg" width="22.609" height="22" viewBox="0 0 22.609 22">
    <defs>
        <style>
            .prefix__cls-1{fill:#333}
        </style>
    </defs>
    <g id="prefix__icon_url" transform="translate(-472.391 39.408)">
        <path id="prefix__패스_1496" d="M529.255-34.878c-.016.061-.03.122-.047.182a1.038 1.038 0 01-.259.452l-.872.876-2.9 2.9-1.485 1.485a1.367 1.367 0 01-.483.346.467.467 0 01-.246.036.428.428 0 01-.321-.26.791.791 0 01-.083-.31c-.009-.239-.018-.479-.019-.718v-2.668a.684.684 0 00-.085-.01c-.308 0-.615 0-.923.015-.279.01-.559.025-.837.052s-.578.072-.865.115a8.679 8.679 0 00-1.085.24 8.2 8.2 0 00-1.448.557 6.411 6.411 0 00-1.28.838 5.558 5.558 0 00-1.074 1.219 5.463 5.463 0 00-.774 1.944 4.488 4.488 0 00-.05 1.527 3.11 3.11 0 00.248.908.509.509 0 01.056.243.435.435 0 01-.119.281.267.267 0 01-.223.061.435.435 0 01-.31-.134 1.666 1.666 0 01-.293-.406 8.9 8.9 0 01-.552-1.207 9.036 9.036 0 01-.43-1.579 8.483 8.483 0 01-.109-1.969 9.178 9.178 0 01.117-.924 6.671 6.671 0 01.284-1.1 7.593 7.593 0 011.05-2.023 7.794 7.794 0 01.993-1.12 8.361 8.361 0 011.679-1.208 9.7 9.7 0 012.175-.867c.335-.089.676-.155 1.016-.222.23-.046.463-.084.7-.114.218-.028.437-.047.656-.058.379-.019.758-.029 1.137-.04h.346v-.12-2.857a2.677 2.677 0 01.039-.428.547.547 0 01.362-.464h.144c.077.03.156.056.23.091a1.389 1.389 0 01.376.293q.955.953 1.908 1.907l3.13 3.13.2.2a1.114 1.114 0 01.3.525l.035.148z" class="prefix__cls-1" data-name="패스 1496" transform="translate(-34.255 2)"/>
        <path id="prefix__패스_1497" d="M474-14.082a.922.922 0 00.023-.111 3.881 3.881 0 01.391-1.381 4.222 4.222 0 011.042-1.338 4.559 4.559 0 011.657-.918 5.138 5.138 0 011.063-.215c.149-.013.3-.014.448-.014h2.484a.966.966 0 01.663.232.8.8 0 01.23.915.907.907 0 01-.854.55h-2.568a2.744 2.744 0 00-1.149.242 2.52 2.52 0 00-1.551 1.878 2.568 2.568 0 00-.047.489v11.809a2.42 2.42 0 00.613 1.644 2.755 2.755 0 001.527.884 3.463 3.463 0 00.736.069h12.675a3 3 0 001.339-.28 2.548 2.548 0 001.48-1.9 2.55 2.55 0 00.03-.452c0-1.275.006-2.551 0-3.826a.876.876 0 01.665-.834.911.911 0 011.17.76v.052c0 1.337.012 2.673-.005 4.01a3.963 3.963 0 01-1.3 2.88 4.554 4.554 0 01-1.845 1.071 4.31 4.31 0 01-1.067.2.672.672 0 00-.106.022h-13.42a.563.563 0 00-.092-.021 4.8 4.8 0 01-.689-.1 4.593 4.593 0 01-1.8-.8 4.258 4.258 0 01-1.374-1.655 3.717 3.717 0 01-.318-1.067c-.015-.11-.035-.219-.053-.329z" class="prefix__cls-1" data-name="패스 1497" transform="translate(-1.609 -19.756)"/>
    </g>
</svg>
