<svg xmlns="http://www.w3.org/2000/svg" width="18" height="18" viewBox="0 0 18 18">
    <g id="prefix__icon_setting_alarm" transform="translate(-31 -584.027)">
        <g id="prefix__사각형_415" data-name="사각형 415" style="stroke:#707070;opacity:0;fill:none">
            <path d="M0 0H18V18H0z" style="stroke:none" transform="translate(31 584.027)"/>
            <path d="M0.5 0.5H17.5V17.5H0.5z" style="fill:none" transform="translate(31 584.027)"/>
        </g>
        <path id="prefix__ic_setting_alarm" d="M1625.29 364.168a1.76 1.76 0 01.03-.318h-5.053c-.128 0-.187-.106-.25-.218a.356.356 0 010-.358l1.218-2.036a5.893 5.893 0 00.8-3.078l.059-1.815a5.118 5.118 0 013.489-4.837v-1.133a1.479 1.479 0 112.957 0l-.054 1.118a5.407 5.407 0 013.6 4.871v1.8a5.886 5.886 0 00.791 3.078l1.218 2.036a.356.356 0 01.005.357c-.063.112-.113.218-.24.218h-5.06a1.776 1.776 0 11-3.519.318zm.891-.019a.887.887 0 101.774 0 1.658 1.658 0 01.056-.3h-1.892a1.472 1.472 0 01.062.3zm-3.253-7.785v1.8a7.13 7.13 0 01-.887 3.593l-.887 1.2h11.828l-.887-1.2a7.134 7.134 0 01-.887-3.593v-1.8c-.41-2.374-1.793-4.192-4.14-4.192s-3.753 1.861-4.14 4.192zm4.731-5.054v-.935a.591.591 0 10-1.183 0v.935a4.765 4.765 0 011.183 0z" transform="translate(-1587.386 235.765)" style="fill:#333;stroke:#333;stroke-width:.1px"/>
    </g>
</svg>
