<svg xmlns="http://www.w3.org/2000/svg" width="27.34" height="26.027" viewBox="0 0 27.34 26.027">
    <defs>
        <style>
            .prefix__cls-1{fill:#262626}
        </style>
    </defs>
    <g id="prefix__icon_cash" transform="translate(-754.484 -95.286)">
        <path id="prefix__패스_1453" d="M824.251 151.229a2.591 2.591 0 01-.172.978 1.888 1.888 0 01-.5.717 2.214 2.214 0 01-.809.444 3.747 3.747 0 01-1.128.152h-.548v2.094a.141.141 0 01-.033.091.229.229 0 01-.109.066 1.063 1.063 0 01-.2.04 3.457 3.457 0 01-.646 0 1.067 1.067 0 01-.205-.04.214.214 0 01-.107-.066.15.15 0 01-.03-.091v-5.9a.474.474 0 01.124-.357.454.454 0 01.327-.119h1.546q.233 0 .444.018a4.7 4.7 0 01.5.076 2.239 2.239 0 01.6.215 1.774 1.774 0 01.514.4 1.655 1.655 0 01.324.563 2.2 2.2 0 01.108.719zm-1.394.1a1.176 1.176 0 00-.122-.568.841.841 0 00-.3-.33.991.991 0 00-.373-.134 2.855 2.855 0 00-.4-.028h-.568v2.225h.6a1.45 1.45 0 00.535-.086.915.915 0 00.352-.241 1.044 1.044 0 00.208-.37 1.493 1.493 0 00.068-.471z" class="prefix__cls-1" data-name="패스 1453" transform="translate(-48.554 -39.88)"/>
        <path id="prefix__패스_1457" d="M775.008 103.7v-3.9c0-2.933-5.287-4.516-10.262-4.516-5.1 0-10.262 1.551-10.262 4.516v11.453h.03c.4 2.655 5.283 4.105 9.975 4.156a8.916 8.916 0 0012.66 4.814v-.007a.874.874 0 10-.9-1.5 7.116 7.116 0 01-3.355.84 7.2 7.2 0 116.07-3.355.875.875 0 101.45.98 8.921 8.921 0 00-5.405-13.484zm-18.773 7.2v-1.126a16.415 16.415 0 007.754 1.9c-.018.234-.031.47-.031.709a8.977 8.977 0 00.092 1.271c-4.792-.141-7.815-1.68-7.815-2.754zm8.068-.969c-4.939-.09-8.068-1.665-8.068-2.76v-1.126c1.966 1.254 5.3 1.913 8.511 1.913.132 0 .263-.006.394-.008a8.875 8.875 0 00-.84 1.979zm8.954-6.488v.016c-.121 0-.242-.009-.364-.009a8.9 8.9 0 00-6.381 2.69c-.578.045-1.171.068-1.764.068-5.2 0-8.511-1.637-8.511-2.764V102.4c1.966 1.254 5.3 1.913 8.511 1.913s6.544-.659 8.511-1.913zm-8.511-.876c-5.2 0-8.511-1.637-8.511-2.764s3.316-2.764 8.511-2.764 8.511 1.637 8.511 2.764-3.315 2.763-8.511 2.763z" class="prefix__cls-1" data-name="패스 1457"/>
    </g>
</svg>
