<svg xmlns="http://www.w3.org/2000/svg" width="18" height="18" viewBox="0 0 18 18">
    <g id="prefix__icon_setting_point" transform="translate(-29 -434)">
        <g id="prefix__사각형_414" data-name="사각형 414" style="stroke:#707070;opacity:0;fill:none">
            <path d="M0 0H18V18H0z" style="stroke:none" transform="translate(29 434)"/>
            <path d="M0.5 0.5H17.5V17.5H0.5z" style="fill:none" transform="translate(29 434)"/>
        </g>
        <path id="prefix__ic_setting_backup" d="M1627.721 252.878c-3.848 0-6.75 1.32-6.75 3.071V266.6c0 1.752 2.9 3.075 6.75 3.075s6.75-1.32 6.75-3.075v-10.651c0-1.749-2.902-3.071-6.75-3.071zm5.917 10.174c0 1.056-2.43 2.235-5.917 2.235s-5.917-1.176-5.917-2.235v-2.026c1.13.939 3.3 1.549 5.917 1.549s4.79-.61 5.917-1.549zm0-3.551c0 1.056-2.43 2.235-5.917 2.235s-5.917-1.176-5.917-2.235v-2.026c1.13.939 3.3 1.549 5.917 1.549s4.79-.61 5.917-1.549zm-5.917-5.782c3.487 0 5.917 1.176 5.917 2.235s-2.43 2.235-5.917 2.235-5.917-1.176-5.917-2.235 2.43-2.236 5.917-2.236zm0 15.117c-3.487 0-5.917-1.176-5.917-2.235v-2.026c1.13.939 3.3 1.549 5.917 1.549s4.79-.61 5.917-1.549v2.025c0 1.059-2.429 2.235-5.917 2.235z" transform="translate(-1589.871 181.722)" style="fill:#333;stroke:#333;stroke-width:.1px"/>
    </g>
</svg>
