<svg xmlns="http://www.w3.org/2000/svg" width="24" height="24" viewBox="0 0 24 24">
    <defs>
        <style>
            .prefix__cls-1{fill:#262626}
        </style>
    </defs>
    <g id="prefix__icon_box" transform="translate(-567.794 14.928)">
        <path id="prefix__패스_1447" d="M589.518-14.928H570.07a2.279 2.279 0 00-2.276 2.276V6.8a2.279 2.279 0 002.276 2.276h14.056a.881.881 0 000-1.761H570.07a.516.516 0 01-.515-.515v-19.452a.516.516 0 01.515-.515h6.456V-7.3a.881.881 0 00.881.881h4.776a.881.881 0 00.881-.881v-5.87h6.456a.516.516 0 01.515.515V6.8a.516.516 0 01-.515.515h-1.54a.881.881 0 100 1.761h1.538a2.279 2.279 0 002.276-2.276v-19.452a2.279 2.279 0 00-2.276-2.276zM581.3-8.177h-3.015v-4.99h3.015z" class="prefix__cls-1" data-name="패스 1447"/>
        <path id="prefix__사각형_117" d="M0 0H5.637V1.069H0z" class="prefix__cls-1" data-name="사각형 117" transform="translate(582.936 1.071)"/>
        <path id="prefix__사각형_118" d="M0 0H4.007V1.069H0z" class="prefix__cls-1" data-name="사각형 118" transform="translate(584.566 3.401)"/>
    </g>
</svg>
