<svg xmlns="http://www.w3.org/2000/svg" width="68" height="68" viewBox="0 0 68 68">
    <defs>
        <style>
            .prefix__cls-3{fill:#fff}
        </style>
    </defs>
    <g id="prefix__img_mypage" transform="translate(-94 -493.161)">
        <g id="prefix__타원_206" data-name="타원 206" transform="translate(94 493.161)" style="fill:#5f66f1;stroke:#5f66f1">
            <circle cx="34" cy="34" r="34" style="stroke:none"/>
            <circle cx="34" cy="34" r="33.5" style="fill:none"/>
        </g>
        <g id="prefix__그룹_945" data-name="그룹 945" transform="translate(-.693 2.661)">
            <path id="prefix__user-light" d="M20.486 18.376c-1.875 0-2.776 1.021-5.853 1.021s-3.972-1.021-5.853-1.021A8.682 8.682 0 000 26.951v2.654a3.1 3.1 0 003.136 3.063H26.13a3.1 3.1 0 003.136-3.063v-2.654a8.682 8.682 0 00-8.78-8.575zm6.689 11.23a1.036 1.036 0 01-1.045 1.021H3.136a1.036 1.036 0 01-1.046-1.021v-2.655a6.617 6.617 0 016.69-6.533c1.28 0 2.554 1.021 5.853 1.021s4.573-1.021 5.853-1.021a6.617 6.617 0 016.689 6.534zM14.633 16.334a8.265 8.265 0 008.362-8.167A8.265 8.265 0 0014.633 0a8.265 8.265 0 00-8.362 8.167 8.265 8.265 0 008.362 8.167zm0-14.292A6.209 6.209 0 0120.9 8.167a6.273 6.273 0 01-12.542 0 6.209 6.209 0 016.275-6.125z" transform="translate(113.693 508.5)" style="stroke:#fff;stroke-width:.5px;fill:#fff"/>
            <circle id="prefix__타원_207" cx="7" cy="7" r="7" class="prefix__cls-3" data-name="타원 207" transform="translate(121 509.161)"/>
            <path id="prefix__패스_1" d="M129.54 532.595l-.3.014-4.069.194-2.5-.208-2.342-.52c.052 0-1.561-.208-1.561-.208a3.786 3.786 0 00-1.821.208 13.428 13.428 0 00-1.977 1.509c0-.1-1.665 1.925-1.665 1.925a7.446 7.446 0 00-.937 1.561c-.155.563.164 1.517 0 2.134a9.9 9.9 0 00.208 2.185 2.737 2.737 0 00.728 1.4s2.348.261 2.914.416 4-.018 5.88 0 5.1-.615 5.984-.416 3.065-.317 3.746 0a13.263 13.263 0 002.966.416l2.237-.416.937-.208.624-1.2-.26-1.4v-3.955l-.728-1.925a5.188 5.188 0 00-1.405-1.3c-.675-.327-1.282-.452-2.029-.729s-.41.05-1.353-.208a8.358 8.358 0 00-1.925-.26l-.936.468z" class="prefix__cls-3" data-name="패스 1" transform="translate(2.729 -3.264)"/>
        </g>
    </g>
</svg>
