<svg xmlns="http://www.w3.org/2000/svg" width="129.865" height="22.499" viewBox="0 0 129.865 22.499">
    <defs>
        <style>
            .prefix__cls-2{fill:#121943}.prefix__cls-3{fill:#5f66f1}
        </style>
    </defs>
    <g id="prefix__logo" transform="translate(-48 -226)">
        <g id="prefix__그룹_3" data-name="그룹 3" transform="translate(48 227.019)">
            <g id="prefix__그룹_2" data-name="그룹 2">
                <path id="prefix__패스_1" d="M79.76 257.7a3.248 3.248 0 00-1.66 6.045 3.224 3.224 0 001.66.47 3.261 3.261 0 003.258-3.257 3.294 3.294 0 00-3.258-3.258z" data-name="패스 1" transform="translate(-67.413 -248.609)" style="fill:none"/>
                <path id="prefix__패스_2" d="M60.346 236.812a4.709 4.709 0 013.247 1.3 7.9 7.9 0 10-6.678 6.678 4.724 4.724 0 013.431-7.977z" class="prefix__cls-2" data-name="패스 2" transform="translate(-48 -229.196)"/>
                <g id="prefix__그룹_1" data-name="그룹 1" transform="translate(9.089 9.089)">
                    <path id="prefix__패스_3" d="M83.017 260.956a3.294 3.294 0 00-3.257-3.256 3.248 3.248 0 00-1.66 6.045 3.224 3.224 0 001.66.47 3.261 3.261 0 003.257-3.259z" class="prefix__cls-3" data-name="패스 3" transform="translate(-76.502 -257.698)"/>
                </g>
            </g>
        </g>
        <g id="prefix__그룹_4" data-name="그룹 4" transform="translate(69.491 226)">
            <path id="prefix__패스_4" d="M127.628 233.563a5.77 5.77 0 01-5.877 5.756h-2.519v5.281h-3.838v-16.794h6.357a5.77 5.77 0 015.877 5.757zm-3.838 0a2.052 2.052 0 00-2.039-2.159h-2.519v4.317h2.519a2.052 2.052 0 002.038-2.158z" class="prefix__cls-2" data-name="패스 4" transform="translate(-115.394 -227.23)"/>
            <path id="prefix__패스_5" d="M155.262 248.129a6.356 6.356 0 116.357 6.332 6.286 6.286 0 01-6.357-6.332zm9.115 0a2.759 2.759 0 10-2.758 2.83 2.69 2.69 0 002.758-2.83z" class="prefix__cls-2" data-name="패스 5" transform="translate(-142.549 -236.76)"/>
            <path id="prefix__패스_6" d="M200.394 228.159a2.159 2.159 0 112.159 2.159 2.181 2.181 0 01-2.159-2.159zm.36 3.214h3.6v11.993h-3.6z" class="prefix__cls-2" data-name="패스 6" transform="translate(-173.289 -226)"/>
            <path id="prefix__패스_7" d="M232.594 246.762v7.364H229v-6.836a1.978 1.978 0 00-2.086-2.182c-1.32 0-2.231.767-2.231 2.47v6.549h-3.6v-11.994h3.6v1.128a4.1 4.1 0 013.43-1.463c2.419.002 4.481 1.726 4.481 4.964z" class="prefix__cls-2" data-name="패스 7" transform="translate(-187.38 -236.76)"/>
            <path id="prefix__패스_8" d="M268.672 239.131v4.246c0 1.031.888 1.127 2.471 1.031v3.262c-4.7.48-6.069-.936-6.069-4.294V233.4l3.6-1.079v3.358h2.471v3.454z" class="prefix__cls-2" data-name="패스 8" transform="translate(-217.344 -230.304)"/>
            <path id="prefix__패스_9" d="M305.379 242.133v11.393c0 4.03-3.142 5.733-6.332 5.733-2.495 0-4.581-.935-5.685-2.9l3.07-1.775a2.741 2.741 0 002.734 1.511 2.39 2.39 0 002.71-2.566v-1.1a4.26 4.26 0 01-3.5 1.559 6.1 6.1 0 010-12.185 4.26 4.26 0 013.5 1.559v-1.223zm-3.5 5.756a2.9 2.9 0 10-2.9 2.783 2.715 2.715 0 002.897-2.783z" class="prefix__cls-3" data-name="패스 9" transform="translate(-236.007 -236.76)"/>
            <path id="prefix__패스_10" d="M348.414 242.1v4.078c-1.487-.24-3.6.36-3.6 2.734v5.421h-3.6v-11.996h3.6v2.135a3.6 3.6 0 013.6-2.372z" class="prefix__cls-3" data-name="패스 10" transform="translate(-269.207 -236.964)"/>
            <path id="prefix__패스_11" d="M378.945 242.133v11.993h-3.6V253a4.505 4.505 0 01-3.574 1.463c-3.142 0-5.733-2.759-5.733-6.332s2.591-6.332 5.733-6.332a4.5 4.5 0 013.574 1.463v-1.127zm-3.6 6a2.855 2.855 0 10-2.854 2.926 2.739 2.739 0 002.857-2.93z" class="prefix__cls-3" data-name="패스 11" transform="translate(-286.115 -236.76)"/>
            <path id="prefix__패스_12" d="M427.688 238.6c0 3.574-2.591 6.332-5.733 6.332a4.506 4.506 0 01-3.574-1.463v1.131h-3.6v-16.79h3.6v5.924a4.5 4.5 0 013.574-1.463c3.145-.004 5.733 2.755 5.733 6.329zm-3.6 0a2.855 2.855 0 10-2.854 2.926 2.739 2.739 0 002.857-2.926z" class="prefix__cls-3" data-name="패스 12" transform="translate(-319.314 -227.23)"/>
        </g>
    </g>
</svg>
