<?xml version="1.0" encoding="utf-8"?>
<!-- Generator: Adobe Illustrator 21.0.2, SVG Export Plug-In . SVG Version: 6.00 Build 0)  -->
<svg version="1.1" id="Layer_1" xmlns="http://www.w3.org/2000/svg" xmlns:xlink="http://www.w3.org/1999/xlink" x="0px" y="0px"
	 viewBox="0 0 300 300" style="enable-background:new 0 0 300 300;" xml:space="preserve">
<style type="text/css">
	.st0{fill:none;stroke:#000000;stroke-width:2;stroke-miterlimit:10;}
	.st1{fill:none;stroke:#FFFFFF;stroke-width:4;stroke-miterlimit:10;}
	.st2{fill:#FFFFFF;}
	.st3{fill:#F19CB7;}
	.st4{fill:#F4DC30;}
</style>
<path class="st0" d="M-9,158.2"/>
<path class="st0" d="M37.6,116.4"/>
<rect x="61.9" y="64.9" transform="matrix(0.7071 0.7071 -0.7071 0.7071 153.8339 -61.9546)" class="st1" width="179.6" height="179.6"/>
<rect x="23.4" y="113.3" class="st1" width="256.6" height="82.9"/>
<g>
	<path class="st2" d="M82.8,168.9c2.6,0,4.5-0.5,5.8-1.5c1.3-1,2-2.2,2-3.6v-0.6c0-1.6-0.7-2.8-2-3.6c-1.3-0.8-3.5-1.5-6.5-2.1
		c-1.6-0.3-3-0.7-4.3-1.1c-1.3-0.4-2.4-1-3.3-1.6c-0.9-0.7-1.6-1.4-2.1-2.4c-0.5-0.9-0.8-2-0.8-3.3v-0.8c0-1.1,0.2-2.2,0.7-3.2
		c0.5-1,1.2-1.9,2.1-2.7c0.9-0.8,2.1-1.4,3.6-1.8c1.4-0.4,3.1-0.7,5.1-0.7c2.4,0,4.5,0.3,6.3,0.9c1.8,0.6,3.3,1.4,4.6,2.4l-1.8,3
		c-1.3-0.9-2.7-1.6-4-2c-1.4-0.5-3.1-0.7-5.1-0.7c-2.4,0-4.2,0.5-5.4,1.4c-1.2,1-1.9,2.1-1.9,3.5v0.6c0,1.4,0.7,2.4,2.1,3.2
		c1.4,0.8,3.3,1.4,5.8,1.9c3.9,0.7,6.7,1.8,8.4,3.2c1.7,1.4,2.6,3.3,2.6,5.8v0.9c0,1.2-0.3,2.4-0.9,3.4c-0.6,1.1-1.4,2-2.5,2.7
		c-1,0.8-2.3,1.3-3.7,1.8s-2.9,0.6-4.6,0.6c-2.6,0-4.9-0.3-6.9-1c-2-0.7-3.8-1.6-5.2-2.7l1.9-3.2c1.4,1,3,1.8,4.6,2.4
		C79.1,168.6,80.9,168.9,82.8,168.9z"/>
	<path class="st2" d="M105.8,168.4v16.3h-4v-44h4l0,4.4c0.9-1.6,2.3-2.8,3.9-3.7s3.5-1.3,5.5-1.3c1.9,0,3.6,0.3,5.1,0.9
		c1.5,0.6,2.9,1.5,3.9,2.6c1.1,1.2,1.9,2.6,2.5,4.2c0.6,1.7,0.9,3.6,0.9,5.7v5.6c0,2.1-0.3,4.1-0.9,5.7c-0.6,1.7-1.5,3.1-2.6,4.2
		c-1.1,1.1-2.4,2-4,2.6c-1.5,0.6-3.2,0.9-5,0.9c-2.2,0-4.1-0.4-5.7-1.3C107.9,170.5,106.7,169.5,105.8,168.4L105.8,168.4z
		 M123.6,154.1c0-3.4-0.8-6-2.4-7.8c-1.6-1.8-3.7-2.7-6.4-2.7c-1.1,0-2.2,0.2-3.3,0.6c-1.1,0.4-2.1,1-2.9,1.7
		c-0.9,0.8-1.6,1.7-2.1,2.7c-0.5,1.1-0.8,2.3-0.8,3.7v9.2c0,0.9,0.2,1.8,0.7,2.7s1.1,1.7,1.9,2.4c0.8,0.7,1.8,1.3,2.9,1.7
		c1.1,0.4,2.3,0.6,3.7,0.6c2.7,0,4.8-0.9,6.4-2.8c1.6-1.9,2.4-4.5,2.4-7.8V154.1z"/>
	<path class="st2" d="M151.9,144.7c-1.1-0.4-2.4-0.6-3.8-0.6c-1.3,0-2.5,0.3-3.5,0.8c-1.1,0.5-1.9,1.2-2.7,2.1
		c-0.7,0.9-1.3,2-1.7,3.2c-0.4,1.2-0.6,2.6-0.6,4.1v17.9h-4v-31.5h4l0,5.6c0.4-0.7,0.8-1.5,1.3-2.2c0.5-0.7,1.2-1.4,1.9-2
		s1.6-1.1,2.6-1.4c1-0.4,2-0.5,3.2-0.5c0.9,0,1.7,0,2.4,0.1c0.7,0.1,1.4,0.3,2.1,0.5L151.9,144.7z"/>
	<path class="st2" d="M158.4,130.1h4.4v4.4h-4.4V130.1z M158.6,140.6h4v31.5h-4V140.6z"/>
	<path class="st2" d="M185.7,140c3.6,0,6.4,1,8.4,3c2,2,3,4.6,3,7.9v21.2h-4v-20.2c0-1.1-0.1-2.2-0.4-3.2c-0.2-1-0.7-1.9-1.3-2.6
		c-0.6-0.8-1.4-1.4-2.4-1.8c-1-0.4-2.3-0.6-3.9-0.6c-1.3,0-2.5,0.2-3.6,0.7c-1.1,0.5-2,1.1-2.8,1.9c-0.8,0.8-1.4,1.6-1.8,2.6
		c-0.4,0.9-0.7,1.9-0.7,2.8v20.5h-4v-31.5h4l0,4.4c0.4-0.6,0.8-1.2,1.4-1.8c0.6-0.6,1.3-1.1,2.1-1.6c0.8-0.5,1.7-0.8,2.7-1.1
		C183.3,140.2,184.5,140,185.7,140z"/>
	<path class="st2" d="M226.6,167.4L226.6,167.4c-1,1.6-2.3,2.8-4,3.5c-1.7,0.7-3.5,1.1-5.3,1.1c-1.8,0-3.5-0.3-5-0.9
		c-1.5-0.6-2.8-1.5-4-2.6c-1.1-1.1-2-2.6-2.6-4.2c-0.6-1.7-0.9-3.6-0.9-5.7v-5c0-2.1,0.3-4.1,0.9-5.7c0.6-1.7,1.5-3.1,2.6-4.2
		c1.1-1.1,2.4-2,4-2.6c1.5-0.6,3.2-0.9,5-0.9c2.3,0,4.3,0.4,5.9,1.3c1.6,0.9,2.8,1.9,3.6,3.1v-3.9h4v31c0,4.5-1.2,7.9-3.5,10.1
		c-2.3,2.3-5.4,3.4-9.4,3.4c-2.2,0-4.2-0.3-5.9-0.9c-1.7-0.6-3.3-1.4-4.6-2.4l1.8-3.1c0.7,0.5,1.4,0.9,2.1,1.3
		c0.7,0.3,1.3,0.6,2,0.8c0.7,0.2,1.4,0.4,2.1,0.4c0.7,0.1,1.6,0.1,2.4,0.1c2.9,0,5.1-0.8,6.6-2.4c1.5-1.6,2.2-4,2.2-7.3V167.4z
		 M208.7,157.9c0,3.4,0.8,6,2.4,7.8c1.6,1.8,3.7,2.7,6.4,2.7c1.3,0,2.5-0.2,3.6-0.5c1.1-0.3,2.1-0.8,2.9-1.5c0.8-0.7,1.5-1.5,2-2.6
		c0.5-1,0.7-2.3,0.7-3.7v-8.9c0-0.9-0.2-1.9-0.7-2.8c-0.4-0.9-1.1-1.8-1.9-2.5c-0.8-0.8-1.8-1.4-2.9-1.8s-2.3-0.7-3.7-0.7
		c-2.7,0-4.8,0.9-6.4,2.8c-1.6,1.9-2.4,4.5-2.4,7.8V157.9z"/>
</g>
<g>
	<rect x="157.8" y="129.3" class="st2" width="5.7" height="5.4"/>
	<g>
		<path class="st3" d="M160.7,122.7c0,0-2.6,2.3-2.5,4.6c0.1,2.4,2.5,3.1,2.5,3.1V122.7z"/>
		<path class="st3" d="M160.7,122.7c0,0,2.6,2.3,2.5,4.6c-0.1,2.4-2.5,3.1-2.5,3.1V122.7z"/>
	</g>
	<g>
		<path class="st3" d="M152.1,129c0,0,3.1-1.7,5.3-0.8c2.3,0.9,2.1,3.4,2.1,3.4L152.1,129z"/>
		<path class="st3" d="M152.1,129c0,0,1.3,3.2,3.6,3.9c2.4,0.7,3.8-1.3,3.8-1.3L152.1,129z"/>
	</g>
	<g>
		<path class="st3" d="M169.3,129c0,0-3.1-1.7-5.3-0.8c-2.3,0.9-2.1,3.4-2.1,3.4L169.3,129z"/>
		<path class="st3" d="M169.3,129c0,0-1.3,3.2-3.6,3.9c-2.4,0.7-3.8-1.3-3.8-1.3L169.3,129z"/>
	</g>
	<g>
		<path class="st3" d="M154.9,138.9c0,0,3.5,0,5-1.8c1.6-1.9,0.2-4,0.2-4L154.9,138.9z"/>
		<path class="st3" d="M154.9,138.9c0,0-0.4-3.4,1.3-5.1c1.7-1.8,4-0.6,4-0.6L154.9,138.9z"/>
	</g>
	<g>
		<path class="st3" d="M166.5,138.9c0,0-3.5,0-5-1.8c-1.6-1.9-0.2-4-0.2-4L166.5,138.9z"/>
		<path class="st3" d="M166.5,138.9c0,0,0.4-3.4-1.3-5.1c-1.7-1.8-4-0.6-4-0.6L166.5,138.9z"/>
	</g>
	<ellipse class="st4" cx="160.7" cy="131.8" rx="2.6" ry="2.6"/>
</g>
</svg>
