<svg xmlns="http://www.w3.org/2000/svg" width="18" height="18" viewBox="0 0 18 18">
    <g id="prefix__icon_setting_CS" transform="translate(-32 -735.397)">
        <g id="prefix__사각형_416" data-name="사각형 416" style="stroke:#707070;opacity:0;fill:none">
            <path d="M0 0H18V18H0z" style="stroke:none" transform="translate(32 735.397)"/>
            <path d="M0.5 0.5H17.5V17.5H0.5z" style="fill:none" transform="translate(32 735.397)"/>
        </g>
        <path id="prefix__ic_setting_CS" d="M1633.742 460.407v-.66a6.075 6.075 0 00-1.553-4.138 5.324 5.324 0 00-3.974-1.731h-.538a5.324 5.324 0 00-3.974 1.731 6.074 6.074 0 00-1.553 4.138v.66a2.356 2.356 0 00-2.179 2.359v1.034a2.351 2.351 0 002.333 2.363h1.314a.432.432 0 00.427-.433v-4.9a.431.431 0 00-.427-.433H1623v-.653a4.738 4.738 0 014.669-5h.538a4.736 4.736 0 014.669 5v.653h-.613a.431.431 0 00-.427.433v4.892a.431.431 0 00.427.433h.6a2.867 2.867 0 01-2.422 2.9 1.5 1.5 0 00-1.428-1.05h-1.068a1.521 1.521 0 100 3.041h1.073a1.507 1.507 0 001.446-1.118 4.013 4.013 0 001.449-.5 3.828 3.828 0 001.809-3.275 2.353 2.353 0 002.19-2.359v-1.032a2.344 2.344 0 00-2.17-2.355zm-10.545 4.884h-.887a1.489 1.489 0 01-1.478-1.5v-1.032a1.488 1.488 0 011.478-1.5h.887zm5.823 4.891h-1.073a.653.653 0 010-1.306h1.073a.653.653 0 010 1.306zm6.043-6.388a1.489 1.489 0 01-1.478 1.5h-.887v-4.026h.887a1.488 1.488 0 011.478 1.5z" transform="translate(-1586.744 281.736)" style="fill:#333;stroke:#333;stroke-width:.1px"/>
    </g>
</svg>
