<svg version="1.1" xmlns="http://www.w3.org/2000/svg" width="33" height="32" viewBox="0 0 33 32">
<title>icon_star_off</title>
<path fill="rgba(255,255,255,0)" stroke="#c7c7c7" stroke-linejoin="miter" stroke-linecap="butt" stroke-miterlimit="4" stroke-width="1.7537" d="M14.989 1.929l-3.858 7.813-8.621 1.257c-0.922 0.135-1.622 0.921-1.622 1.87 0 0.53 0.218 1.008 0.569 1.351l0 0 6.236 6.077-1.475 8.593c-0.017 0.094-0.026 0.202-0.026 0.313 0 1.042 0.845 1.887 1.887 1.887 0.325 0 0.63-0.082 0.897-0.227l-0.010 0.005 7.716-4.053 7.716 4.053c0.254 0.135 0.555 0.215 0.875 0.215 1.043 0 1.889-0.846 1.889-1.889 0-0.111-0.010-0.22-0.028-0.326l0.002 0.011-1.475-8.593 6.236-6.077c0.352-0.343 0.57-0.822 0.57-1.352 0-0.949-0.7-1.735-1.612-1.869l-0.010-0.001-8.621-1.257-3.849-7.802c-0.316-0.627-0.956-1.050-1.693-1.050s-1.377 0.423-1.688 1.039l-0.005 0.011z"></path>
</svg>