<svg xmlns="http://www.w3.org/2000/svg" width="17.143" height="20" viewBox="0 0 17.143 20">
    <path id="prefix__icon_download_big" d="M15.558 40.933l-6.607 6.625a.536.536 0 01-.759 0l-6.607-6.625a.536.536 0 010-.759l.875-.874a.53.53 0 01.763.009l4.183 4.335V32.536A.537.537 0 017.942 32h1.25a.537.537 0 01.536.536v11.107l4.183-4.335a.538.538 0 01.763-.009l.875.875a.528.528 0 01.009.759zm1.049 8.746H.536a.537.537 0 00-.536.535v1.25A.537.537 0 00.536 52h16.071a.537.537 0 00.536-.536v-1.25a.537.537 0 00-.536-.535z" transform="translate(0 -32)" style="fill:#fff"/>
</svg>
