<svg xmlns="http://www.w3.org/2000/svg" width="23.383" height="26.62" viewBox="0 0 23.383 26.62">
    <path id="prefix__icon_shopping" d="M182.5 25.119a1.911 1.911 0 00-1.91-1.91h-4.32v-1.026h-.014a4.9 4.9 0 00-9.782 0h-.014v1.026h-4.087a1.911 1.911 0 00-1.91 1.91l-.672 17.146a1.911 1.911 0 001.91 1.91h13.745a.814.814 0 000-1.627H162.1a.572.572 0 01-.572-.573l.117-3.05h19.682l.117 3.05a.572.572 0 01-.572.573h-1.478a.815.815 0 000 1.629h1.874a1.911 1.911 0 001.91-1.91zm-14.384-2.781h.009a3.245 3.245 0 016.48 0h.009v.871h-6.5zm-6.414 14.968l.494-11.893a.572.572 0 01.572-.573H180.2a.572.572 0 01.572.573l.494 11.893z" transform="translate(-159.793 -17.556)" style="fill:#262626"/>
</svg>
