<svg xmlns="http://www.w3.org/2000/svg" width="18" height="18" viewBox="0 0 18 18">
    <defs>
        <style>
            .prefix__cls-2{fill:#333;stroke:#333;stroke-width:.2px}
        </style>
    </defs>
    <g id="prefix__icon_setting_out" transform="translate(-1624.968 -640.663)">
        <g id="prefix__사각형_418" data-name="사각형 418" style="stroke:#707070;opacity:0;fill:none">
            <path d="M0 0H18V18H0z" style="stroke:none" transform="translate(1624.968 640.663)"/>
            <path d="M0.5 0.5H17.5V17.5H0.5z" style="fill:none" transform="translate(1624.968 640.663)"/>
        </g>
        <path id="prefix__Shape_2" d="M1637.585 658.921h-6.536a1.809 1.809 0 01-1.188-1.188v-12.775a1.809 1.809 0 011.188-1.188h6.536c.392 0 .557.005.594-.3.053-.433-.317-.594-.709-.594h-6.376a2.124 2.124 0 00-2.125 2.117v12.7a2.124 2.124 0 002.125 2.117h6.376c.392 0 .706-.206.709-.594.003-.247-.201-.295-.594-.295z" class="prefix__cls-2" data-name="Shape 2" transform="translate(-2.812 -1.447)"/>
        <path id="prefix__Shape_3" d="M1654.519 662.081l-3.033-3.056a.492.492 0 00-.7-.005l-.01.01c-.193.2-.172.245.025.442l2.377 2.377h-8.616c-.276 0-.594.016-.594.3s.021.594.3.594h8.913l-2.377 2.674c-.2.2-.218.242-.025.442a.492.492 0 00.695.015l.01-.01 3.033-3.056a.517.517 0 000-.725z" class="prefix__cls-2" data-name="Shape 3" transform="translate(-13.358 -12.693)"/>
    </g>
</svg>
