<svg xmlns="http://www.w3.org/2000/svg" width="10.79" height="8.231" viewBox="0 0 10.79 8.231">
    <path id="prefix__icon_answer" d="M8.069 8.19a.583.583 0 0 1-.186-.119.566.566 0 0 1-.131-.187.615.615 0 0 1-.052-.246V6.494H3.881a3.905 3.905 0 0 1-2.064-.588 3.936 3.936 0 0 1-.562-.423 3.876 3.876 0 0 1-.8-1.015 3.8 3.8 0 0 1-.421-1.212.066.066 0 0 0 0-.013C.009 3.1 0 2.806 0 2.8V0h1.558v2.924l.006.123a2.355 2.355 0 0 0 2.306 1.9H7.7V3.8a.614.614 0 0 1 .049-.246.562.562 0 0 1 .131-.186.59.59 0 0 1 .4-.159.565.565 0 0 1 .213.041.581.581 0 0 1 .193.129l1.93 1.93a.579.579 0 0 1 0 .818l-1.93 1.93a.584.584 0 0 1-.186.133.563.563 0 0 1-.212.041.585.585 0 0 1-.219-.041z" style="fill:#b1b1b1"/>
</svg>
