<svg xmlns="http://www.w3.org/2000/svg" width="26.858" height="20.825" viewBox="0 0 26.858 20.825">
    <path id="prefix__icon_coupon" d="M578.3 112.614h-23.713a1.576 1.576 0 00-1.575 1.574v5.258a2.309 2.309 0 001 1.829 2.021 2.021 0 01.005 3.5 2.31 2.31 0 00-1.007 1.832v5.258a1.576 1.576 0 001.575 1.574H578.3a1.576 1.576 0 001.574-1.574v-5.258a2.312 2.312 0 00-1.007-1.832 2.022 2.022 0 010-3.5 2.312 2.312 0 001.008-1.832v-.612-.031a.848.848 0 10-1.7 0v.643a.679.679 0 01-.22.4 3.716 3.716 0 000 6.36.679.679 0 01.22.4v5.137h-5.928v-17.43h5.928v.632a.845.845 0 001.688 0v-.753a1.576 1.576 0 00-1.563-1.575zm-7.5 19.13h-16.092v-5.137a.677.677 0 01.219-.4 3.715 3.715 0 000-6.361.677.677 0 01-.219-.4v-5.136h16.085z" transform="translate(-553.012 -112.614)" style="fill:#262626"/>
</svg>
