<svg xmlns="http://www.w3.org/2000/svg" width="24" height="18" viewBox="0 0 24 18">
    <path id="prefix__icon_message" d="M237.129 18h-3.8a2.6 2.6 0 01-2.722-2.815c-.01-4.035-.011-8.193 0-12.359a2.6 2.6 0 012.657-2.813h10.776c3.06 0 5.543-.006 7.814-.019h.016a2.638 2.638 0 011.94.836 2.94 2.94 0 01.787 2.055c-.024 2.867-.02 5.781-.015 8.6v3.63A2.633 2.633 0 01251.857 18H242.5zm-3.9-1.7h18.737l-6.948-7.944-.037.012c-.033.011-.06.018-.082.024a.29.29 0 00-.1.04q-.381.272-.76.547l-.6.434a1.622 1.622 0 01-.841.418c-.219 0-.444-.135-.835-.418-.352-.255-.706-.509-1.065-.766l-.535-.384zm13.053-8.963l6.671 7.629V2.489zm-14.055 7.628l6.6-7.664-6.6-4.823zM234.249 1.9l.035.034 8.316 6.05 8.376-6.1-.092-.184H234.31z" transform="translate(-230.598)" style="fill:#333"/>
</svg>
