<svg xmlns="http://www.w3.org/2000/svg" width="17.168" height="12.876" viewBox="0 0 17.168 12.876">
    <path id="prefix__icon_back" d="M13.949 76.876h-2.817a.4.4 0 01-.4-.4v-.8a.4.4 0 01.4-.4h2.817a1.61 1.61 0 001.609-1.609v-6.448a1.61 1.61 0 00-1.609-1.609h-2.817a.4.4 0 01-.4-.4v-.8a.4.4 0 01.4-.4h2.817a3.22 3.22 0 013.219 3.219v6.438a3.22 3.22 0 01-3.219 3.209zM5.6 64.654l-.657.657a.4.4 0 00.007.573l3.792 3.682H.4a.4.4 0 00-.4.4v.939a.4.4 0 00.4.4h8.345l-3.793 3.683a.4.4 0 00-.007.573l.657.657a.4.4 0 00.57 0l5.512-5.5a.4.4 0 000-.57l-5.512-5.5a.406.406 0 00-.572.006z" transform="rotate(180 8.584 38.438)" style="fill:#b1b1b1"/>
</svg>
