<svg xmlns="http://www.w3.org/2000/svg" width="286" height="55" viewBox="0 0 286 55">
    <g>
        <path d="M0 0H3V55H0z" data-name="사각형 49" transform="translate(-2873 -159) translate(2873 159)"/>
        <path d="M0 0H3V55H0z" data-name="사각형 94" transform="translate(-2873 -159) translate(3019 159)"/>
        <path d="M0 0H5V55H0z" data-name="사각형 50" transform="translate(-2873 -159) translate(2878 159)"/>
        <path d="M0 0H5V55H0z" data-name="사각형 93" transform="translate(-2873 -159) translate(3024 159)"/>
        <path d="M0 0H2V55H0z" data-name="사각형 51" transform="translate(-2873 -159) translate(2887 159)"/>
        <path d="M0 0H2V55H0z" data-name="사각형 92" transform="translate(-2873 -159) translate(3033 159)"/>
        <path d="M0 0H2V55H0z" data-name="사각형 52" transform="translate(-2873 -159) translate(2895 159)"/>
        <path d="M0 0H2V55H0z" data-name="사각형 91" transform="translate(-2873 -159) translate(3041 159)"/>
        <path d="M0 0H2V55H0z" data-name="사각형 69" transform="translate(-2873 -159) translate(2983 159)"/>
        <path d="M0 0H2V55H0z" data-name="사각형 72" transform="translate(-2873 -159) translate(3129 159)"/>
        <path d="M0 0H3V55H0z" data-name="사각형 53" transform="translate(-2873 -159) translate(2899 159)"/>
        <path d="M0 0H3V55H0z" data-name="사각형 90" transform="translate(-2873 -159) translate(3045 159)"/>
        <path d="M0 0H3V55H0z" data-name="사각형 68" transform="translate(-2873 -159) translate(2987 159)"/>
        <path d="M0 0H3V55H0z" data-name="사각형 73" transform="translate(-2873 -159) translate(3133 159)"/>
        <path d="M0 0H3V55H0z" data-name="사각형 54" transform="translate(-2873 -159) translate(2904 159)"/>
        <path d="M0 0H3V55H0z" data-name="사각형 89" transform="translate(-2873 -159) translate(3050 159)"/>
        <path d="M0 0H3V55H0z" data-name="사각형 67" transform="translate(-2873 -159) translate(2992 159)"/>
        <path d="M0 0H3V55H0z" data-name="사각형 74" transform="translate(-2873 -159) translate(3138 159)"/>
        <path d="M0 0H3V55H0z" data-name="사각형 55" transform="translate(-2873 -159) translate(2909 159)"/>
        <path d="M0 0H3V55H0z" data-name="사각형 88" transform="translate(-2873 -159) translate(3055 159)"/>
        <path d="M0 0H3V55H0z" data-name="사각형 66" transform="translate(-2873 -159) translate(2997 159)"/>
        <path d="M0 0H3V55H0z" data-name="사각형 75" transform="translate(-2873 -159) translate(3143 159)"/>
        <path d="M0 0H3V55H0z" data-name="사각형 71" transform="translate(-2873 -159) translate(3010 159)"/>
        <path d="M0 0H3V55H0z" data-name="사각형 76" transform="translate(-2873 -159) translate(3156 159)"/>
        <path d="M0 0H4V55H0z" data-name="사각형 56" transform="translate(-2873 -159) translate(2917 159)"/>
        <path d="M0 0H4V55H0z" data-name="사각형 87" transform="translate(-2873 -159) translate(3063 159)"/>
        <path d="M0 0H4V55H0z" data-name="사각형 64" transform="translate(-2873 -159) translate(2967 159)"/>
        <path d="M0 0H4V55H0z" data-name="사각형 79" transform="translate(-2873 -159) translate(3113 159)"/>
        <path d="M0 0H4V55H0z" data-name="사각형 65" transform="translate(-2873 -159) translate(2975 159)"/>
        <path d="M0 0H4V55H0z" data-name="사각형 77" transform="translate(-2873 -159) translate(3121 159)"/>
        <path d="M0 0H4V55H0z" data-name="사각형 70" transform="translate(-2873 -159) translate(3004 159)"/>
        <path d="M0 0H4V55H0z" data-name="사각형 78" transform="translate(-2873 -159) translate(3150 159)"/>
        <path d="M0 0H4V55H0z" data-name="사각형 59" transform="translate(-2873 -159) translate(2935 159)"/>
        <path d="M0 0H4V55H0z" data-name="사각형 84" transform="translate(-2873 -159) translate(3081 159)"/>
        <path d="M0 0H2V55H0z" data-name="사각형 57" transform="translate(-2873 -159) translate(2923 159)"/>
        <path d="M0 0H2V55H0z" data-name="사각형 86" transform="translate(-2873 -159) translate(3069 159)"/>
        <path d="M0 0H2V55H0z" data-name="사각형 60" transform="translate(-2873 -159) translate(2943 159)"/>
        <path d="M0 0H2V55H0z" data-name="사각형 83" transform="translate(-2873 -159) translate(3089 159)"/>
        <path d="M0 0H2V55H0z" data-name="사각형 61" transform="translate(-2873 -159) translate(2949 159)"/>
        <path d="M0 0H2V55H0z" data-name="사각형 82" transform="translate(-2873 -159) translate(3095 159)"/>
        <path d="M0 0H2V55H0z" data-name="사각형 62" transform="translate(-2873 -159) translate(2955 159)"/>
        <path d="M0 0H2V55H0z" data-name="사각형 80" transform="translate(-2873 -159) translate(3101 159)"/>
        <path d="M0 0H2V55H0z" data-name="사각형 63" transform="translate(-2873 -159) translate(2961 159)"/>
        <path d="M0 0H2V55H0z" data-name="사각형 81" transform="translate(-2873 -159) translate(3107 159)"/>
        <path d="M0 0H2V55H0z" data-name="사각형 58" transform="translate(-2873 -159) translate(2929 159)"/>
        <path d="M0 0H2V55H0z" data-name="사각형 85" transform="translate(-2873 -159) translate(3075 159)"/>
    </g>
</svg>
