<svg xmlns="http://www.w3.org/2000/svg" width="75.254" height="73" viewBox="0 0 75.254 73">
    <defs>
        <style>
            .prefix__cls-2{fill:#fff}.prefix__cls-3{fill:#222}
        </style>
    </defs>
    <g id="prefix__btn_add_camp_ads" transform="translate(-1932 -615)">
        <g id="prefix__Group_1177" data-name="Group 1177" transform="translate(600.137 367.815)">
            <g id="prefix__Rectangle_1099" data-name="Rectangle 1099" transform="translate(1331.863 247.185)" style="stroke:#222;stroke-width:4px;fill:none">
                <rect width="57" height="61" rx="15" style="stroke:none"/>
                <rect width="53" height="57" x="2" y="2" rx="13" style="fill:none"/>
            </g>
            <path id="prefix__Path_1489" d="M1385.065 262.82l-29.55 45.7h25.72s16.422-32.348 17.38-43.771-13.55-1.929-13.55-1.929z" class="prefix__cls-2" data-name="Path 1489" transform="translate(4)"/>
            <g id="prefix__Forma_1_copy_7" data-name="Forma 1 copy 7" transform="translate(5)">
                <path id="prefix__Path_1179" d="M1365.949 318.185h-.034a.4.4 0 0 1-.366-.4v-.04l.011-.125-.005-.125-.477-12.195a.468.468 0 0 1 .05-.122l22.253-36.686a3.806 3.806 0 0 1 1.168-.157 14.7 14.7 0 0 1 6.478 2.044 13 13 0 0 1 4.8 4.1c.122.219.392.754.237 1.009l-22.563 37.2a.455.455 0 0 1-.084.1L1366.392 318l-.106.05-.1.062a.479.479 0 0 1-.132.058.486.486 0 0 1-.105.015z" class="prefix__cls-2" data-name="Path 1179"/>
                <path id="prefix__Path_1180" d="M1367.472 315.28l8.581-4.056 21.857-36.037a6.463 6.463 0 0 0-.722-.812 14.383 14.383 0 0 0-2.671-1.986 13.6 13.6 0 0 0-5.913-2.054l-21.5 35.449.371 9.5m-1.523 4.9c-.062 0-.124 0-.186-.007a2.4 2.4 0 0 1-2.214-2.389c0-.072 0-.144.009-.217l-.483-12.367a2.478 2.478 0 0 1 .342-1.06l22.564-37.2a4.9 4.9 0 0 1 2.57-.612c5.822 0 15.5 6.445 13.226 10.191l-22.563 37.2a2.462 2.462 0 0 1-.779.8l-11.188 5.288a2.411 2.411 0 0 1-1.3.374z" class="prefix__cls-3" data-name="Path 1180"/>
            </g>
            <g id="prefix__Group_1706" data-name="Group 1706" transform="translate(-604.137 -365.815)">
                <path id="prefix__Path_2242" d="M353.185 129.879a10.691 10.691 0 0 0-.228-2.226 9.277 9.277 0 0 0-.279-1.03c-.026-.078-.051-.157-.081-.235l-.053-.138a8.862 8.862 0 0 0-2.355-3.372 11.687 11.687 0 0 0-7.4-2.71c-.253-.012-.509-.019-.77-.019h-2.083l-5.455 9.956v9.729h7.507a11.945 11.945 0 0 0 8.134-2.729 9.306 9.306 0 0 0 2.773-4.78h.011c.007-.026.009-.053.014-.079l.005-.018a10.618 10.618 0 0 0 .256-2.289zm-9.523 4.99a5.572 5.572 0 0 1-1.5.127h-2.222V125h.021v-.018h2.231c.2 0 .4.009.6.023a9.064 9.064 0 0 1 2.04.459 4.586 4.586 0 0 1 2.784 4.5v.057a4.541 4.541 0 0 1-3.224 4.644l-.729.205z" class="prefix__cls-3" data-name="Path 2242" transform="translate(1627.341 513.819)"/>
                <path id="prefix__Path_2243" d="M343.213 120.151h-5.385l-11.168 19.687H333l1.868-3.335h3.993v-4.124h-1.683l3.1-5.534 3.773-6.688z" class="prefix__cls-3" data-name="Path 2243" transform="translate(1621.341 513.818)"/>
            </g>
        </g>
    </g>
</svg>
