<svg xmlns="http://www.w3.org/2000/svg" width="62.908" height="62.908" viewBox="0 0 62.908 62.908">
    <g id="prefix__coins-regular" style="fill:#222">
        <path d="M23.59 62.408c-6.235 0-12.09-1.008-16.486-2.84-2.108-.877-3.756-1.893-4.899-3.018C1.074 55.435.5 54.267.5 53.079V25.556c0-2.377 2.274-4.192 4.181-5.295 2.782-1.61 6.627-2.81 11.12-3.474l.426-.063V9.829c0-1.188.574-2.356 1.705-3.47 1.143-1.126 2.791-2.141 4.899-3.02C27.227 1.51 33.082.5 39.318.5c6.235 0 12.09 1.009 16.487 2.84 2.107.878 3.755 1.893 4.898 3.019 1.131 1.114 1.705 2.282 1.705 3.47v27.523c0 2.376-2.273 4.188-4.18 5.29-2.78 1.604-6.625 2.803-11.12 3.467l-.427.063v6.907c0 1.188-.574 2.356-1.705 3.47-1.143 1.126-2.79 2.142-4.898 3.02-4.397 1.83-10.252 2.84-16.487 2.84zM5.399 46.982V52.81l.12.14c.637.746 2.467 1.896 5.688 2.885 2.49.765 6.66 1.677 12.385 1.677 5.724 0 9.894-.912 12.384-1.677 3.221-.989 5.05-2.139 5.689-2.885l.12-.14V46.982l-.714.337c-4.44 2.093-10.81 3.294-17.48 3.294-6.669 0-13.04-1.2-17.48-3.294l-.712-.337zm0-12.529V41.013l.12.14c.637.747 2.467 1.897 5.688 2.886 2.49.765 6.66 1.676 12.385 1.676 5.724 0 9.894-.911 12.384-1.676 3.221-.99 5.05-2.139 5.689-2.885l.12-.14v-6.559l-.747.422c-4.43 2.504-10.789 3.94-17.446 3.94-6.68 0-13.04-1.436-17.446-3.94l-.747-.424zm52.113-3.2l-.715.34c-2.504 1.187-5.854 2.115-9.688 2.684l-.427.063V41.226l.585-.101c5.472-.946 9.084-2.686 10.125-3.903l.12-.14V31.254zM23.59 21.125c-4.777 0-9.276.622-12.668 1.753-1.68.56-3.007 1.218-3.944 1.956-1.05.827-1.581 1.731-1.581 2.688 0 .957.532 1.862 1.581 2.688.937.738 2.264 1.396 3.944 1.957 3.392 1.13 7.891 1.753 12.668 1.753 4.776 0 9.275-.623 12.667-1.753 1.68-.56 3.007-1.219 3.944-1.957 1.05-.826 1.582-1.73 1.582-2.688 0-.957-.533-1.86-1.582-2.688-.937-.738-2.264-1.396-3.944-1.956-3.392-1.13-7.89-1.753-12.667-1.753zm33.92-2.413l-.748.426c-2.707 1.544-6.336 2.704-10.495 3.357l-.757.118.414.646c.502.782.756 1.555.756 2.297v3.875l.585-.101c5.472-.947 9.084-2.687 10.125-3.903l.12-.14v-6.575zM39.318 5.398c-4.777 0-9.276.622-12.668 1.753-1.68.56-3.007 1.218-3.944 1.956-1.05.827-1.581 1.731-1.581 2.688 0 1.726 1.767 3.273 5.11 4.476l.07.025.074.004c3.949.2 7.748.826 10.987 1.81l.061.018.064.003.452.02c.445.02.904.042 1.375.042 4.776 0 9.275-.623 12.667-1.754 1.68-.56 3.007-1.218 3.944-1.956 1.05-.827 1.582-1.73 1.582-2.688 0-.957-.533-1.86-1.582-2.688-.937-.738-2.264-1.396-3.944-1.956-3.392-1.13-7.89-1.753-12.667-1.753z" style="stroke:none"/>
        <path d="M39.318 1c-6.172 0-11.958.995-16.295 2.801-4.001 1.667-6.296 3.864-6.296 6.028V17.155l-.854.127c-4.367.644-8.253 1.856-10.941 3.411-1.303.754-2.304 1.569-2.976 2.421C1.32 23.92 1 24.74 1 25.556V53.08c0 2.164 2.295 4.361 6.296 6.028 4.337 1.806 10.123 2.801 16.295 2.801 6.17 0 11.958-.995 16.294-2.801 4.001-1.667 6.296-3.864 6.296-6.028V45.74l.854-.126c4.37-.645 8.256-1.854 10.942-3.406 1.303-.752 2.304-1.565 2.976-2.416.634-.803.955-1.624.955-2.44V9.829c0-2.164-2.295-4.361-6.296-6.028C51.276 1.995 45.49 1 39.318 1m0 17.693c-.483 0-.948-.022-1.398-.042l-.45-.02-.127-.006-.122-.037c-3.2-.972-6.959-1.59-10.867-1.789l-.149-.007-.14-.05c-4.496-1.618-5.44-3.583-5.44-4.947 0-2.069 2.029-3.839 5.867-5.118 3.442-1.148 7.997-1.78 12.826-1.78 4.829 0 9.383.632 12.825 1.78 3.839 1.28 5.868 3.05 5.868 5.118 0 2.07-2.03 3.84-5.868 5.119-3.442 1.147-7.996 1.779-12.825 1.779m6.863 11.332v-4.468c0-.646-.228-1.328-.677-2.028l-.828-1.29L46.19 22c4.1-.643 7.67-1.783 10.324-3.297l1.496-.853V25.472l-.24.28c-1.097 1.282-4.826 3.103-10.42 4.07l-1.17.203m-22.59 4.395c-4.83 0-9.384-.632-12.826-1.78-3.838-1.279-5.867-3.049-5.867-5.118 0-2.069 2.029-3.839 5.867-5.118 3.442-1.147 7.997-1.78 12.826-1.78 4.828 0 9.383.633 12.825 1.78 3.839 1.28 5.868 3.05 5.868 5.118 0 2.07-2.03 3.84-5.868 5.119-3.442 1.147-7.997 1.779-12.825 1.779m22.59 7.4V33.91l.853-.127c3.786-.561 7.088-1.475 9.548-2.642l1.429-.677v6.804l-.24.28c-1.097 1.283-4.826 3.103-10.42 4.07l-1.17.203m-22.59-3.502c6.574 0 12.843-1.413 17.2-3.876l1.493-.844v7.6l-.24.28c-.886 1.036-3.1 2.172-5.922 3.04-2.523.774-6.745 1.697-12.531 1.697-5.787 0-10.009-.923-12.532-1.698-2.823-.867-5.036-2.003-5.922-3.038l-.24-.281v-7.604l1.495.849c4.334 2.462 10.603 3.875 17.199 3.875m0 11.795c6.598 0 12.891-1.183 17.266-3.247l1.427-.672v6.8l-.24.28c-.886 1.036-3.1 2.171-5.922 3.038-2.523.775-6.745 1.699-12.531 1.699-5.787 0-10.009-.924-12.532-1.699-2.823-.867-5.036-2.002-5.922-3.038l-.24-.28v-6.8l1.427.672c4.375 2.064 10.668 3.247 17.267 3.247M39.318 0c13.024 0 23.59 4.399 23.59 9.83v27.522c0 4.276-6.573 7.9-15.727 9.252v6.475c0 5.43-10.566 9.83-23.59 9.83S0 58.508 0 53.078V25.556c0-4.275 6.573-7.912 15.727-9.264V9.83C15.727 4.4 26.294 0 39.317 0zm0 17.693c9.768 0 17.693-2.642 17.693-5.898s-7.925-5.897-17.693-5.897-17.693 2.641-17.693 5.897c0 1.548 1.843 2.95 4.78 4.006 4.128.209 7.912.86 11.106 1.83.603.025 1.192.062 1.807.062zm7.863 11.144c5.541-.958 8.957-2.715 9.83-3.735v-5.53c-2.802 1.598-6.512 2.765-10.665 3.417.528.823.835 1.683.835 2.567v3.281zm-23.59 4.583c9.768 0 17.693-2.642 17.693-5.898s-7.925-5.897-17.693-5.897-17.693 2.641-17.693 5.897c0 3.256 7.925 5.898 17.693 5.898zm23.59 7.212c5.541-.958 8.957-2.715 9.83-3.735v-4.853c-2.618 1.24-6.02 2.162-9.83 2.728v5.86zm-23.59-1.314c-7.053 0-13.368-1.549-17.693-4.006v5.517c1.228 1.437 7.42 4.386 17.693 4.386 10.271 0 16.464-2.949 17.693-4.386v-5.517c-4.325 2.445-10.64 4.006-17.693 4.006zm0 11.795c-7.053 0-13.368-1.302-17.693-3.342v4.853c1.228 1.438 7.42 4.387 17.693 4.387 10.271 0 16.464-2.95 17.693-4.387v-4.853c-4.325 2.04-10.64 3.342-17.693 3.342z" style="fill:#fff;stroke:none"/>
    </g>
</svg>
