<svg xmlns="http://www.w3.org/2000/svg" width="84.387" height="30.746" viewBox="0 0 84.387 30.746">
  <defs>
    <style>
      .cls-1 {
        fill: #f03157;
      }
    </style>
  </defs>
  <path id="img_cosmetic_04" class="cls-1" d="M493.806,414.866a5.012,5.012,0,0,0-1.977-.062c-2.6-.882-5.341-1.436-7.583-3.165a19.712,19.712,0,0,1-2.053-1.665l6.24-3.11a17.945,17.945,0,0,0,2.859,2.1A10.683,10.683,0,0,0,499,410.2a5.1,5.1,0,0,0,1.255-.433,2.038,2.038,0,0,0,1.3-2.486,3.115,3.115,0,0,0-1.852-1.309c-2.066-.707-4.194-1.2-6.3-1.755a35.836,35.836,0,0,1-6.768-2.441,5.264,5.264,0,0,1-3.042-6.285,5.625,5.625,0,0,1,2.31-3.139,13.471,13.471,0,0,1,6.146-2.4,27.7,27.7,0,0,1,10.39.41,19.005,19.005,0,0,1,6.641,3.164c-1.891,1.092-3.679,2.12-5.46,3.159a.725.725,0,0,1-.9-.077,16.811,16.811,0,0,0-2.478-1.462,9.116,9.116,0,0,0-6.381-.633,5.3,5.3,0,0,0-.527.166,1.9,1.9,0,0,0-1.451,1.635c-.073.859.527,1.344,1.206,1.69a18.915,18.915,0,0,0,4.211,1.375c2.3.557,4.628,1.009,6.887,1.746a12.736,12.736,0,0,1,4.192,2.478,4.769,4.769,0,0,1,1.629,3.05,4.971,4.971,0,0,1-2.158,5.469,14.657,14.657,0,0,1-6.352,2.447,45.311,45.311,0,0,1-6.312.428h-.1A7.848,7.848,0,0,1,493.806,414.866Zm30.127-.716a14.459,14.459,0,0,1-8.68-4.277,9.074,9.074,0,0,1-2.716-5.628,10.637,10.637,0,0,1,2.155-9.059A12.573,12.573,0,0,1,521.026,391a23.256,23.256,0,0,1,14.826.28,11.45,11.45,0,0,1,7.546,7.491,5.5,5.5,0,0,1,.356,2.152.1.1,0,0,1,.013.163,4.036,4.036,0,0,1,.01,2.134.287.287,0,0,1-.03.351q-.023.334-.046.667a9.751,9.751,0,0,1-2.026,4.8,13.728,13.728,0,0,1-8.359,4.884,23.1,23.1,0,0,1-5.077.537A32.463,32.463,0,0,1,523.933,414.15ZM522,396.363a6.678,6.678,0,0,0-1.946,2.562,7.765,7.765,0,0,0-.615,3.234c0,.013,0,.027,0,.04,0,.032,0,.064,0,.1,0,.072,0,.145.006.218,0,.046,0,.092,0,.138.021.446.064.894.121,1.343a7.5,7.5,0,0,0,2.4,4.015,8.974,8.974,0,0,0,12.3-.059,7.94,7.94,0,0,0,2.364-3.928c.054-.567.1-1.133.1-1.7,0-.042,0-.083,0-.125,0-.012,0-.023,0-.036a8.313,8.313,0,0,0-.212-1.962,6.95,6.95,0,0,0-1.91-3.39A8.961,8.961,0,0,0,522,396.363Zm26.723,17.806V403.8c-.074-4.112-.063-8.226-.009-12.339-.046-.14.016-.186.15-.17h6.865v22.879Zm-77.332,0V391.308h6.988v22.857Zm.066-25.542a9.191,9.191,0,0,1-.066-2.441v-1.918h6.722a5.2,5.2,0,0,1,.061,1.92c.012.691.028,1.381.032,2.071a1.589,1.589,0,0,1-.105.368Zm77.281-.008V384.26h6.974v4.356Z" transform="translate(-471.346 -384.26)"/>
</svg>
