<svg xmlns="http://www.w3.org/2000/svg" width="211" height="17.996" viewBox="0 0 211 17.996">
  <path id="img_cosmetic_02" d="M560.023,319.034a5.07,5.07,0,0,1-2.942-3.727c-.067-.34-.4-.974.33-1,.587-.017,1.507-.437,1.74.332a4.23,4.23,0,0,0,2.935,3.041,9.11,9.11,0,0,0,5.947-.054,3.373,3.373,0,0,0,.585-.294,2.677,2.677,0,0,0,1.472-2.553,2.422,2.422,0,0,0-1.91-2.214,40.1,40.1,0,0,0-5.552-1.052,11.7,11.7,0,0,1-2.645-.751c-3.488-1.532-2.939-5.844-.715-7.348a6.716,6.716,0,0,1,1.869-.931,11.559,11.559,0,0,1,6.751.039,5.094,5.094,0,0,1,3.692,3.7c.151.569.123.848-.617.877a1.676,1.676,0,0,1-1.881-1.071c-1.288-2.578-7.024-2.977-8.817-.7a2.282,2.282,0,0,0,1.138,3.749,26.5,26.5,0,0,0,4.379.877,21.489,21.489,0,0,1,3.462.766,4.2,4.2,0,0,1,3.059,3.535,4.451,4.451,0,0,1-2.12,4.431A9.879,9.879,0,0,1,564.893,320,12.165,12.165,0,0,1,560.023,319.034Zm36.324-.52c-1.91-2.357-3.925-4.633-5.9-6.938-.252-.294-.521-.574-.835-.919-.889.759-1.733,1.5-2.606,2.215a1.279,1.279,0,0,0-.369,1.169c.006,1.591-.043,3.184.019,4.774.031.811-.417.791-.888.771-.079,0-.159-.007-.236-.006-.558,0-1.108.143-1.1-.791q.065-7.807,0-15.614c-.006-.825.412-.818.871-.811a3.176,3.176,0,0,0,.343-.008c.692-.069,1.026.1,1.009.891-.05,2.32-.018,4.642-.018,6.958.414.206.557-.165.761-.337,2.369-1.986,4.8-3.913,7.061-6.008a4.577,4.577,0,0,1,4.485-1.413c.058.4-.382.477-.608.675-2.13,1.862-4.261,3.724-6.438,5.532-.549.456-.5.694-.073,1.2,2.709,3.154,5.379,6.341,8.252,9.742a11.27,11.27,0,0,0-1.283.008,3.054,3.054,0,0,1-.41.029A2.518,2.518,0,0,1,596.347,318.514Zm-134.532-.165c.049-2.495.017-4.991.017-7.487,0-2.539.025-5.078-.016-7.616-.011-.684.2-.882.884-.876,1.406.012,2.813.009,4.22.005,1.8,0,3.6-.009,5.405.021a4.954,4.954,0,0,1-.08,9.9q-3.625.056-7.252-.006c-.75-.012-.971.2-.943.947.065,1.719-.016,3.443.038,5.163.026.826-.109,1.195-1.108,1.225l-.11,0C461.875,319.628,461.8,319.186,461.816,318.349Zm2.234-13.143c.068,1.416.045,2.839-.01,4.256-.024.633.182.831.811.812,1.185-.037,2.372-.01,3.558-.01v-.006c1.231,0,2.461.006,3.691,0a2.517,2.517,0,0,0,2.327-1.43,2.948,2.948,0,0,0-2.608-4.443c-1.323-.034-2.646-.028-3.97-.021-.961,0-1.923.009-2.884,0h-.06C464.305,304.36,464.015,304.481,464.05,305.207Zm-17.408,13.305c-.382-.91-.932-1.75-1.339-2.651a1.118,1.118,0,0,0-1.2-.747q-3.889.047-7.78,0a1.044,1.044,0,0,0-1.1.694,28.354,28.354,0,0,0-1.236,2.557,1.674,1.674,0,0,1-2.094,1.222c-.255-.037-.516-.038-.893-.064.695-1.426,1.353-2.774,2.009-4.124q2.906-5.986,5.8-11.978c.29-.6.514-1.087,1.391-1.074a1.44,1.44,0,0,1,1.461.988c2.488,5.113,5,10.213,7.5,15.321.127.261.366.494.287.833a1.19,1.19,0,0,1-.631.089,1.835,1.835,0,0,0-.4.012,2.2,2.2,0,0,1-.38.036C447.348,319.623,446.939,319.22,446.642,318.512Zm-9.987-5.5h7.234l-3.646-7.636Zm64.226,5.074c-.977-1.676-1.966-3.346-2.922-5.033a1.207,1.207,0,0,0-1.212-.76c-1.535.048-3.074.041-4.609,0-.636-.015-.833.195-.823.81.033,1.89-.042,3.784.034,5.673.038.938-.52.818-1.089.8-.094,0-.19,0-.284.005-.485.021-.937.042-.93-.825.044-5.158.037-10.316,0-15.474-.005-.779.3-.92,1-.914,1.457.012,2.915.009,4.372.007,1.7,0,3.408-.006,5.111.015a4.675,4.675,0,0,1,4.7,3.9,4.919,4.919,0,0,1-3.137,5.732c-.325.116-.661.205-1.063.329l4.1,7.094a12.859,12.859,0,0,1-1.519.157C501.77,319.608,501.564,319.257,500.881,318.085Zm-9.563-12.966c.026,1.459.038,2.92,0,4.378-.019.652.255.794.85.777.833-.024,1.666-.019,2.5-.014.351,0,.7,0,1.052,0,1.14,0,2.28.02,3.42-.005a2.589,2.589,0,0,0,2.822-2.711c.054-1.9-.862-3.083-2.655-3.147-1.5-.054-3-.046-4.507-.039-.909,0-1.818.009-2.727,0h-.022C491.486,304.362,491.308,304.58,491.318,305.119ZM628.7,319.6c-.747-.02-1.185-.041-1.174-1.016.058-5.034.021-10.069.039-15.1,0-.373-.282-.923.367-1.081a1.279,1.279,0,0,1,1.353.564c2.6,3.085,5.229,6.148,7.849,9.218l2.5,2.927c.027-.558.059-.914.059-1.269q.006-5.035,0-10.069c0-1.4,0-1.407,1.4-1.389.218,0,.436.036.654.055l.248.029v17.046l-.257.014q0-8.544.009-17.088a2.353,2.353,0,0,0-.441,1.708q-.012,6.835,0,13.67a2.35,2.35,0,0,0,.432,1.71c-.772.243-1.2-.2-1.652-.722q-4.72-5.556-9.472-11.087c-.193-.226-.389-.451-.668-.775a1.729,1.729,0,0,0-.134,1.025c-.008,3.528-.041,7.057.019,10.585.015.863-.291,1.05-1.007,1.05Zm-111.012-.97q.064-7.67,0-15.341c-.006-.812.247-1.048,1.047-1,.7.041,1.243-.036,1.212.981-.078,2.576-.026,5.156-.026,7.735,0,2.535-.053,5.073.026,7.606.031,1-.471.968-1.19.989l-.139,0C517.97,319.6,517.68,319.434,517.687,318.633Zm15.8-.061c.045-2.538.017-5.078.017-7.617s.057-5.081-.027-7.617c-.035-1.034.527-.921,1.213-.971.824-.06,1.031.224,1.023,1.013-.039,4.389.01,8.78-.042,13.169-.011.886.279,1.085,1.112,1.074,1.414-.019,2.828-.016,4.242-.014,1.575,0,3.151.005,4.726-.02.84-.014,1,.262,1.02,1.03.018.839-.292.988-1.062.981-3.736-.034-7.474-.041-11.21,0h-.044C533.649,319.6,533.472,319.326,533.485,318.571Zm78.26.141q.066-7.8,0-15.594c-.006-.844.442-.829.918-.813.1,0,.211.007.314,0,.6-.034,1.095-.069,1.075.82-.057,2.577-.02,5.155-.02,7.732,0,2.621-.046,5.242.023,7.861.024.886-.431.879-.98.872h-.17l-.294,0C612.119,319.593,611.737,319.524,611.744,318.712Z" transform="translate(-431 -302.002)"/>
</svg>
