<svg xmlns="http://www.w3.org/2000/svg" width="194.478" height="21.566" viewBox="0 0 194.478 21.566">
  <path id="img_cosmetic_10" d="M112.619,20.317a9.237,9.237,0,0,1-5.759-8.756c-.113-4.065,1.277-7.511,4.982-9.655,4.05-2.345,8.359-1.9,12.764-1.184V6.114c-1.12-.2-2.165-.407-3.213-.581a7.239,7.239,0,0,0-4.7.744,5.085,5.085,0,0,0-3.047,4.7,5.162,5.162,0,0,0,3.029,4.534c2.026,1.115,4.159.883,6.3.5.525-.094,1.038-.259,1.635-.412v5.353a31.534,31.534,0,0,1-5.7.615A15.245,15.245,0,0,1,112.619,20.317Zm46.448.641a9.558,9.558,0,0,1-7.512-9.647c-.077-5.11,2.6-9.033,7.3-10.469a20.986,20.986,0,0,1,10.4-.086V6.083c-1.107-.193-2.13-.385-3.159-.547a7.28,7.28,0,0,0-5.315,1.086,4.967,4.967,0,0,0,.073,8.6c2.125,1.381,4.426,1.211,6.756.8.513-.091,1.017-.238,1.614-.381v5.321a28.362,28.362,0,0,1-5.475.6A17.587,17.587,0,0,1,159.067,20.957ZM7.282,21.451A20.437,20.437,0,0,1,.418,19.8v-4.9c1.844.584,3.672,1.253,5.55,1.722a15.345,15.345,0,0,0,3.382.3,1.554,1.554,0,0,0,.685-3.01c-.8-.39-1.67-.633-2.5-.966a41.258,41.258,0,0,1-4.614-1.926A5.051,5.051,0,0,1,.014,6.064a5.564,5.564,0,0,1,3.5-4.818A14.148,14.148,0,0,1,11.968.468c1.466.228,2.9.656,4.5,1.028V6.533c-2.143-.55-4.25-1.124-6.378-1.61a3.255,3.255,0,0,0-1.758.085A2.074,2.074,0,0,0,7.148,6.083c-.09.274.452.927.856,1.148a16.449,16.449,0,0,0,2.494.98c1.184.416,2.417.713,3.557,1.221a5.553,5.553,0,0,1,3.675,5.425,5.934,5.934,0,0,1-3.754,5.777,11.273,11.273,0,0,1-4.712.913C8.606,21.548,7.945,21.51,7.282,21.451Zm125.986-.9a9.3,9.3,0,0,1-6.752-8.758C126.131,5.239,129.863.82,136.433.1a14.271,14.271,0,0,1,6.553.709c3.728,1.375,6.119,3.958,6.552,7.969a16.319,16.319,0,0,1-.207,5.131c-.871,4.026-4.193,6.692-8.609,7.2-.892.1-1.792.126-2.688.185-.011.048-.021.1-.032.144A40.263,40.263,0,0,1,133.268,20.548ZM135.31,6.67a6.25,6.25,0,0,0,.023,8.024,3.627,3.627,0,0,0,5.521.023,6.033,6.033,0,0,0,1.508-4.439,5.6,5.6,0,0,0-1.41-3.578,3.636,3.636,0,0,0-5.643-.031Zm-97.6,14.655L34.8,11.311l-.277-.049c-.911,3.316-1.822,6.633-2.751,10.013H24.854c-2.164-6.763-4.348-13.591-6.59-20.6h7.383c.894,3.629,1.8,7.3,2.7,10.966l.3,0L31.5.646h6.569c.928,3.6,1.881,7.3,2.833,10.993l.315-.041c.851-3.622,1.7-7.245,2.575-10.953h7.289c-2.155,6.91-4.283,13.739-6.447,20.68ZM179.181,20.9c-6.61-1.43-8.482-6.668-7.953-11.537.524-4.812,3.614-8,8.368-9a15.579,15.579,0,0,1,6.928.1C192.141,1.8,195.289,6.8,194.3,12.714a9.562,9.562,0,0,1-8.877,8.4c-.889.1-1.787.127-2.96.207C181.543,21.206,180.341,21.151,179.181,20.9Zm.482-13.835a6.377,6.377,0,0,0,.1,7.338,3.691,3.691,0,0,0,5.988.074,8.054,8.054,0,0,0,1.54-3.922,17.689,17.689,0,0,0-1.473-3.529,3.651,3.651,0,0,0-3-1.707A3.975,3.975,0,0,0,179.663,7.065ZM48.253,21.1,57.149.563h6.744l8.554,20.511H65.136l-1.87-4.705H57.236L55.451,21.1ZM60.074,8.107,58.956,11.7h2.73c-.465-1.319-.869-2.466-1.272-3.613ZM97.5,21.1V.64h6.689V21.1Zm-10.941-.009L80.442,11.18l-.371.089v9.8H73.344V.558c2.136,0,4.27-.052,6.4.047.391.019.844.591,1.114,1.007,1.561,2.4,3.073,4.833,4.607,7.251.279.44.577.867.866,1.3l.334-.1V.663h6.626V21.087Z"/>
</svg>
