<svg xmlns="http://www.w3.org/2000/svg" width="118" height="55" viewBox="0 0 118 55">
  <path id="img_cosmetic_08" d="M700.952,528.9a27.258,27.258,0,0,1-10.141-12.787,25.711,25.711,0,0,1-1.724-11.582,26.739,26.739,0,0,1,9.078-18.235,29,29,0,0,1,27.6-6.036,27.6,27.6,0,0,1,17.381,14.891,25.822,25.822,0,0,1,2.35,14.336,26.668,26.668,0,0,1-8.738,17.034,27.891,27.891,0,0,1-13.1,6.783,32,32,0,0,1-6.694.7A28.523,28.523,0,0,1,700.952,528.9Zm-4.8-36.179c-.232,0-.465.032-.737.053a4.043,4.043,0,0,0,.068.488c.28,1.006.562,2.012.853,3.015q2.265,7.8,4.535,15.6,1.819,6.261,3.633,12.525c.184.635.208.658.914.661q2.713.009,5.425.008a1.735,1.735,0,0,0,.265-.051c.1-.273.216-.562.3-.86q.93-3.256,1.848-6.515,1.26-4.449,2.521-8.9.816-2.873,1.645-5.741c.051-.176.045-.407.43-.4.751,2.441,1.426,4.939,2.13,7.427s1.417,5,2.129,7.5,1.424,4.987,2.142,7.5h6.452c3.1-10.7,6.185-21.419,9.3-32.241-.315-.035-.477-.067-.64-.068-1.471,0-2.941-.007-4.412,0-.629,0-.641.021-.825.674q-.54,1.931-1.076,3.86-1.394,5.019-2.786,10.037-1.227,4.422-2.459,8.843a2.912,2.912,0,0,1-.32.545,7.52,7.52,0,0,1-.645-1.979c-.7-2.553-1.376-5.11-2.058-7.667q-1.032-3.868-2.058-7.739-.8-2.99-1.617-5.974c-.163-.594-.179-.6-.787-.6q-2.568-.007-5.135,0c-.655,0-.681.029-.845.643q-1.105,4.153-2.211,8.306-1.913,7.141-3.837,14.28a4.84,4.84,0,0,1-.26.622l-.175,0a6.8,6.8,0,0,1-.284-.705q-1.513-5.4-3.016-10.8-1.628-5.819-3.261-11.639c-.187-.669-.211-.7-.879-.7s-1.358,0-2.037,0Q697.27,492.716,696.155,492.719Zm48.213,36.831c-.165,0-.33-.032-.582-.057v-4.935c1.077-.095,2.142-.084,3.207-.073.535.006,1.07.011,1.607,0,.031.268.061.409.062.55,0,1.264.006,2.529,0,3.794,0,.687-.031.717-.677.72q-.687,0-1.373,0Q745.489,529.556,744.368,529.551Zm50.167-2.795c-.29-.214-.574-.438-.862-.655-.015-.011-.046,0-.134,0a2.756,2.756,0,0,0-.073.958c-.039.447-.084.516-.511.523-.819.013-1.638.015-2.457,0-.5-.01-.57-.092-.591-.612-.015-.388,0-.777,0-1.166V503.343c0-.988,0-.988,1-.989h2.521c.017.327.042.584.042.842q0,3.426,0,6.854c0,.257.021.514.039.936.345-.257.574-.414.787-.59a7.72,7.72,0,0,1,9.284-.069,8.674,8.674,0,0,1,3.044,4.995,13.19,13.19,0,0,1-.415,7.677,7.674,7.674,0,0,1-4.088,4.6,7.993,7.993,0,0,1-3.18.7A7.323,7.323,0,0,1,794.536,526.756Zm-.148-12.325a8.61,8.61,0,0,0-.924,4.293,11.2,11.2,0,0,0,.1,1.16,10.656,10.656,0,0,0,.389,1.7,4.491,4.491,0,0,0,6.219,2.858,4.446,4.446,0,0,0,2.383-2.61,7.807,7.807,0,0,0,.552-2.476,9.045,9.045,0,0,0-.492-4.011,4.367,4.367,0,0,0-3.828-3.093,5.318,5.318,0,0,0-.535-.027A4.285,4.285,0,0,0,794.388,514.431Zm-22.1,12.824a4.451,4.451,0,0,1-2.239-3.549,8.493,8.493,0,0,1,.062-2.39,4.675,4.675,0,0,1,1.972-2.87,8.041,8.041,0,0,1,3.8-1.488c1.286-.192,2.585-.29,3.872-.48a12.45,12.45,0,0,0,1.889-.471,1.321,1.321,0,0,0,1.006-1.55,2.468,2.468,0,0,0-1.29-1.915,4.9,4.9,0,0,0-2.216-.592,5.684,5.684,0,0,0-2.9.435,2.835,2.835,0,0,0-1.869,2.395.751.751,0,0,1-.072.2c-.009.021-.031.036-.078.087H771.1a2.214,2.214,0,0,1-.072-1.451,4.8,4.8,0,0,1,1.969-3.12,9.385,9.385,0,0,1,7.137-1.647,9.224,9.224,0,0,1,3.21,1.061,5.14,5.14,0,0,1,2.942,4.881c-.031,2.748,0,5.5-.01,8.245a12.073,12.073,0,0,0,.42,3.968,1.914,1.914,0,0,1,.04.385,2.28,2.28,0,0,1-.431.094c-.844.007-1.688.011-2.531,0-.556-.007-.6-.034-.773-.57-.15-.454-.261-.92-.408-1.443a2.926,2.926,0,0,0-.392.237,9.639,9.639,0,0,1-5.094,2.417,8.794,8.794,0,0,1-1.2.085A7.1,7.1,0,0,1,772.288,527.255Zm10.082-8.513a19.743,19.743,0,0,1-4.43.988,7.4,7.4,0,0,0-3.423,1.27,1.887,1.887,0,0,0-.783,2.042,1.838,1.838,0,0,0,1.488,1.6,6.516,6.516,0,0,0,6.5-2.03,4.43,4.43,0,0,0,.878-3.837c-.111-.014-.167-.032-.2-.032A.076.076,0,0,0,782.37,518.742Zm-28.354,8.744c-.724,0-.747-.026-.747-.806q0-8.059,0-16.117v-8.106h3.495c.023.332.062.639.062.945q0,9.772,0,19.544v1.008c.356.023.636.055.915.055q5.169,0,10.338,0h.895v3.407a6.446,6.446,0,0,1-.644.066q-4.169,0-8.338,0Z" transform="translate(-688.999 -479)"/>
</svg>
