<svg xmlns="http://www.w3.org/2000/svg" width="190.637" height="23.175" viewBox="0 0 190.637 23.175">
  <path id="img_cosmetic_06" d="M61.311,23.112a2,2,0,0,1-1.214-.89c-2.729-4.028-5.415-8.087-8.116-12.135a2.538,2.538,0,0,0-.931-.906V23.06H46.094V.037c1.563,0,3.13-.044,4.691.038.307.016.647.479.877.806Q55.7,6.644,59.717,12.428a2.42,2.42,0,0,0,.948.877V.1h5.022V23.154c-.861,0-1.682.022-2.483.022C62.564,23.175,61.937,23.162,61.311,23.112Zm69.252-.027a11.335,11.335,0,0,1-11.069-11.6,11.145,11.145,0,1,1,22.282.158,11.307,11.307,0,0,1-11.049,11.442ZM130.626,5.1a6.377,6.377,0,0,0-6.254,6.516,6.276,6.276,0,1,0,12.545-.032A6.392,6.392,0,0,0,130.666,5.1Zm-99,17.986A11.31,11.31,0,0,1,20.516,11.539,11.305,11.305,0,0,1,31.739.108,11.336,11.336,0,0,1,42.8,11.588a11.33,11.33,0,0,1-11.13,11.494Zm-6.259-11.52a6.277,6.277,0,1,0,12.547.065A6.363,6.363,0,0,0,31.686,5.1h-.06A6.41,6.41,0,0,0,25.369,11.562ZM110.71,23.072V9.912l-.309-.124-5.482,6.643L99.29,9.651l-.235.062V23.045H93.9V.029c1.614,0,3.151-.043,4.682.035.325.016.692.419.935.731,1.753,2.249,3.478,4.521,5.293,6.891.3-.329.562-.579.781-.866,1.556-2.03,3.078-4.088,4.675-6.082A2.046,2.046,0,0,1,111.59.051c1.364-.09,2.736-.032,4.2-.032V23.072ZM6.826,23.065V5.2H0V.175H18.582V5.14h-6.74V23.065ZM168.1,23.054c-.03-.513-.077-.968-.078-1.424-.007-2.332-.049-4.666.017-7a5.23,5.23,0,0,0-.944-3.237c-2.193-3.259-4.3-6.578-6.442-9.876-.2-.316-.385-.649-.707-1.2,1.775,0,3.374-.036,4.969.034.276.012.581.437.792.733,1.41,1.983,2.8,3.983,4.195,5.973.237.338.5.658.829,1.1,1.517-2.3,3-4.483,4.405-6.721A2.077,2.077,0,0,1,177.246.255c1.357.1,2.725.025,4.3.025-.362.59-.586.987-.839,1.362-2.29,3.4-4.614,6.778-6.853,10.215a4.56,4.56,0,0,0-.681,2.254c-.077,2.927-.031,5.858-.031,8.943Zm-22.847-.016V.1h5.012V17.872h10.794v5.165Zm-68.015-.01a47.4,47.4,0,0,1,.029-4.945,12.217,12.217,0,0,0-2.72-9.415,80.38,80.38,0,0,1-4.429-6.73c-.3-.457-.575-.924-1.007-1.622C70.883.315,72.442.273,74,.35c.317.016.679.431.907.749C76.319,3.072,77.7,5.071,79.1,7.06c.239.341.491.673.816,1.118,1.408-2.131,2.849-4.093,4.047-6.2A2.937,2.937,0,0,1,87.185.256,34.364,34.364,0,0,0,90.743.28c-.315.529-.509.891-.735,1.228-2.288,3.4-4.555,6.808-6.89,10.169a4.365,4.365,0,0,0-.809,2.748c.052,2.414.018,4.831.018,7.246v1.356Zm101.8-6.044a5.93,5.93,0,0,1,5.783-5.9,5.809,5.809,0,0,1,5.819,5.94,5.767,5.767,0,0,1-5.8,5.94A5.886,5.886,0,0,1,179.036,16.984Zm5.364.979a27.919,27.919,0,0,0-.007,3.069c.009.187.32.359.492.538.135-.174.381-.344.386-.521.035-1.184.018-2.368.018-3.553l-.3-.157C184.784,17.546,184.413,17.742,184.4,17.962Zm-3.964-.6a4.518,4.518,0,0,0,2.657,3.875V17.45c-.44-.032-.807-.071-1.173-.081-.178-.005-.355-.007-.542-.007C181.094,17.362,180.79,17.366,180.436,17.366Zm6.207-2.109v5.826a4.088,4.088,0,0,0,2.624-3.183c.329-1.991,0-2.731-1.53-2.731A8.187,8.187,0,0,0,186.643,15.257Zm-5.98.543c1.819.458,4.16.255,4.626-.49a11.568,11.568,0,0,0-2.27-.247C181.8,15.064,180.909,15.324,180.664,15.8ZM182,13.7h5.741a3.929,3.929,0,0,0-5.741,0Z"/>
</svg>
