<svg xmlns="http://www.w3.org/2000/svg" width="153.398" height="34.03" viewBox="0 0 153.398 34.03">
  <path id="img_cosmetic_05" d="M771.52,412.3a1.725,1.725,0,1,1,1.725,1.73A1.728,1.728,0,0,1,771.52,412.3ZM640.8,408.555a10.3,10.3,0,0,1,8.677-10.25c2.111-.326,3.914.094,5.048,2.546.372-.952.579-1.484.854-2.187h3.586c-.188.729-.333,1.312-.487,1.892-.828,3.129-1.684,6.252-2.471,9.391a18.059,18.059,0,0,0-.266,2.552c3.1.721,3.265-2.151,4.753-3.518a5.368,5.368,0,0,1-3.346,4.495,4.71,4.71,0,0,1-5.359-1.886A20.633,20.633,0,0,1,648.5,413.6a5.908,5.908,0,0,1-2.131.4A5.558,5.558,0,0,1,640.8,408.555Zm6.808-8.021a7.7,7.7,0,0,0-1.284,1.637,14.592,14.592,0,0,0-2.014,7.138c0,.319-.013.638,0,.956.112,2.275,1.5,3.366,3.7,2.594a7.646,7.646,0,0,0,3.089-2.193,11.946,11.946,0,0,0,2.635-7.713c.041-1.454-.216-2.941-1.862-3.591a3.581,3.581,0,0,0-1.323-.266A4.232,4.232,0,0,0,647.605,400.534Zm106.427,5.352c1.2-4.153,5.953-7.668,10.369-7.664a6.156,6.156,0,0,1,6.281,7.712c-.893,4.016-5.337,7.931-10.371,8.058l-.2,0A6.151,6.151,0,0,1,754.033,405.886Zm10.342,5.423a14.748,14.748,0,0,0,2.795-9.594c-.076-1.727-1.122-2.544-2.9-2.576a4.925,4.925,0,0,0-4.5,2.39,16.724,16.724,0,0,0-2.453,8.154c-.136,2.268,1.06,3.325,3.61,3.306A3.947,3.947,0,0,0,764.375,411.309Zm-26.082-.228a7.694,7.694,0,0,1-.868-3.942c.424-5.406,5.817-9.537,11.334-8.873,2.211.266,3.769,1.7,3.516,3.426a3.357,3.357,0,0,1-1.091,1.81,1.149,1.149,0,0,1-1.842-.172,1.335,1.335,0,0,1,.427-1.954,9.577,9.577,0,0,1,1.139-.568c-.575-1.5-1.767-1.681-2.964-1.663a5.059,5.059,0,0,0-4.332,2.461,14.264,14.264,0,0,0-2.346,7.837c.007,2.946,2.708,4.477,5.358,3.033a13.915,13.915,0,0,0,2.525-2.206c.393-.364.741-.775,1.24-1.3.14.446.267.632.216.721-1.368,2.406-3.281,4.139-6.231,4.286-.192.009-.382.014-.571.014C741.5,413.988,739.419,413.256,738.293,411.081Zm-27.838,2.127a5.813,5.813,0,0,1-2.65-6.345,10.064,10.064,0,0,1,6.825-8.045c3.281-1.221,4.624-.86,6.914,1.747l.7-1.769h3.607c-.487,1.912-.943,3.747-1.422,5.576-.551,2.1-1.106,4.206-1.691,6.3-.214.767-.364,1.666.5,1.911a2.718,2.718,0,0,0,1.989-.625,7.543,7.543,0,0,0,1.311-1.8c.224-.323.446-.647.826-1.2a5,5,0,0,1-3.521,4.549,4.391,4.391,0,0,1-5.067-2.095l-1.2.973a6.777,6.777,0,0,1-4.243,1.591A5.672,5.672,0,0,1,710.455,413.207Zm5.329-13.584a7.5,7.5,0,0,0-2.372,2.323,15.007,15.007,0,0,0-2.29,7.358c-.116,1.362.013,2.763,1.418,3.468a3.657,3.657,0,0,0,3.966-.616,9.3,9.3,0,0,0,2.069-2.212,13.132,13.132,0,0,0,2.08-6.757c0-.318.023-.638,0-.954a3.091,3.091,0,0,0-2.986-3.144A3.846,3.846,0,0,0,715.784,399.623Zm-89.107,14.309c-3.961-.281-5.644-3.528-4.952-6.789.836-3.942,1.953-7.827,2.961-11.733q1.987-7.707,3.992-15.409h3.6c-.942,3.644-1.874,7.292-2.828,10.933-.8,3.061-1.63,6.117-2.486,9.322a21.992,21.992,0,0,1,3.532-1.939c4.477-1.458,8.469,1.731,7.92,6.38-.693,5.862-5.209,9.269-10.756,9.27Q627.172,413.967,626.676,413.932Zm4.8-15a7.518,7.518,0,0,0-2.89,1.679c-2.461,2.349-3.331,5.393-3.567,8.653,0,.372-.021.745,0,1.115.144,2.178,1.64,3.361,3.767,2.723a6.375,6.375,0,0,0,2.972-1.806,14.775,14.775,0,0,0,3.115-10.145,2.386,2.386,0,0,0-2.482-2.361A3.134,3.134,0,0,0,631.474,398.936Zm54.95,13.824a2.267,2.267,0,0,1-.712-1.919c.913-4.029,1.971-8.026,2.992-12.069h3.724c-1.024,3.924-2.005,7.716-3.006,11.5-.22.83-.624,1.8.315,2.3,1.073.576,1.855-.241,2.447-1.031.575-.767,1.044-1.611,1.56-2.421l.412.276a5.851,5.851,0,0,1-3.119,3.873,4.346,4.346,0,0,1-1.885.442A4.575,4.575,0,0,1,686.424,412.759Zm13.45.91a7.462,7.462,0,0,1-1.446-.242,2.285,2.285,0,0,1-1.826-3.146q2.5-9.453,5-18.9,1.5-5.686,2.986-11.376h3.6q-3.861,14.692-7.722,29.385a6.427,6.427,0,0,0-.411,1.689c.013.522.194,1.28.563,1.486a1.767,1.767,0,0,0,1.589-.269,12.983,12.983,0,0,0,1.666-2.119c.237-.319.449-.657.787-1.155.231,2.31-2.243,4.659-4.55,4.659Q699.993,413.678,699.874,413.669Zm-23.5-.48a2.055,2.055,0,0,1-1.347-2.82c.63-2.523,1.268-5.044,1.9-7.568a7.072,7.072,0,0,0,.248-1.244c.1-1.546-.772-2.383-2.309-1.973a9.316,9.316,0,0,0-3.167,1.526,10.736,10.736,0,0,0-3.785,6.173c-.522,2.049-1.055,4.1-1.576,6.116h-3.993l3.779-14.652h3.989c-.259,1.041-.5,2.029-.75,3.019l.247.2c.332-.343.647-.7,1-1.027,1.57-1.436,3.216-2.74,5.538-2.711,3.128.039,4.934,2.214,4.255,5.187-.555,2.433-1.156,4.855-1.787,7.27-.2.776-.391,1.658.493,1.9a2.684,2.684,0,0,0,1.97-.65,7.985,7.985,0,0,0,1.268-1.828c.231-.337.5-.65.75-.975a4.7,4.7,0,0,1-4.647,4.526A4.893,4.893,0,0,1,676.375,413.189ZM691.8,394.245c-.833-.032-1.5-.406-1.516-1.313s1.175-1.772,2.349-1.769c.878-.017,1.5.259,1.455,1.254a2.175,2.175,0,0,1-2.2,1.83Z" transform="translate(-621.573 -380.001)"/>
</svg>
