<svg xmlns="http://www.w3.org/2000/svg" width="220" height="38" viewBox="0 0 220 38">
  <path id="img_cosmetic_11" d="M586.776,624v-9.692a11.267,11.267,0,0,1,0-22.512V586h10.2v.9h-9.288v4.879a11.46,11.46,0,0,1,10.8,8.139l-.862.31a10.543,10.543,0,0,0-9.937-7.549v10.177h6.188v.9h-6.188v9.668a10.553,10.553,0,0,0,9.858-7.281l.85.339a11.468,11.468,0,0,1-10.708,7.843V624Zm-9.861-20.949a10.467,10.467,0,0,0,9.861,10.354V592.7A10.466,10.466,0,0,0,576.916,603.051Zm203.509,8.468,1.922-1.92a9.852,9.852,0,0,0,6.1,2.154c2.7,0,4.2-1.058,4.2-2.52,0-1.774-1.558-2.268-3.673-3.029l-3.012-1.123c-2.18-.732-4.572-2.075-4.572-4.749,0-2.831,2.995-4.97,7.209-4.97a10.53,10.53,0,0,1,6.706,2.276l-1.69,1.778a8.34,8.34,0,0,0-5.158-1.619c-2.245,0-3.756.884-3.756,2.37,0,1.576,1.842,2.152,3.723,2.773l2.9,1.085c2.676.888,4.677,2.216,4.677,4.868,0,2.916-2.893,5.295-7.732,5.295A12.327,12.327,0,0,1,780.424,611.519Zm-25.009-6.827c0-5.921,3.413-9.33,8.3-9.33s8.3,3.41,8.3,9.33c0,6.019-3.414,9.5-8.3,9.5S755.415,610.711,755.415,604.692Zm3.376,0c0,4.462,1.958,7.061,4.922,7.061s4.923-2.6,4.923-7.061c0-4.364-1.958-6.895-4.923-6.895S758.792,600.328,758.792,604.692Zm-27.272.108c0-5.887,4.124-9.438,9.728-9.438a9,9,0,0,1,5.989,2.238l-1.845,1.745a6.068,6.068,0,0,0-4.144-1.548c-3.8,0-6.352,2.64-6.352,6.927,0,4.353,2.552,7.029,6.4,7.029a6.328,6.328,0,0,0,4.542-1.894l1.844,1.689a9.047,9.047,0,0,1-6.709,2.639C735.695,614.188,731.52,610.777,731.52,604.8Zm-98.326-.108c0-5.921,3.413-9.33,8.3-9.33s8.3,3.41,8.3,9.33c0,6.019-3.414,9.5-8.3,9.5S633.194,610.711,633.194,604.692Zm3.377,0c0,4.462,1.957,7.061,4.922,7.061s4.922-2.6,4.922-7.061c0-4.364-1.957-6.895-4.922-6.895S636.571,600.328,636.571,604.692Zm82,9.163-6.23-10.8-1.992-3.818h-.078c.127,1.895.437,3.96.437,5.909v8.709h-3.118V595.694h3.5l6.23,10.794,1.993,3.824h.078c-.128-1.828-.438-4.005-.438-5.975v-8.642h3.118v18.161Zm-34.431,0V595.694h13.453v2.347H687.41v5.151h8.61v2.347h-8.61v5.968h10.505v2.347Zm-13.377,0-4.859-7.376h-3.464v7.376h-3.3V595.694h6.908c4.378,0,7.679,1.331,7.679,5.26,0,2.789-1.809,4.476-4.524,5.164l5.247,7.736Zm-8.323-9.614h3.216c3.118,0,4.822-1.1,4.822-3.286,0-2.23-1.7-3.023-4.822-3.023h-3.216Zm-51.068,9.614V595.694H624.76v2.347H614.641v5.626h8.582v2.347h-8.582v7.841Z" transform="translate(-576 -586)"/>
</svg>
