<svg xmlns="http://www.w3.org/2000/svg" width="148.002" height="33" viewBox="0 0 148.002 33">
  <path id="img_cosmetic_01" d="M224.27,315.23a12.354,12.354,0,0,1-.144-1.936q.01-5.448,0-10.894a9.234,9.234,0,0,0-.522-4.208c1.4,0,2.685,0,3.971,0,.306,0,.462.08.327.4a8.31,8.31,0,0,0-.343,3.3c-.007,3.943-.017,7.885,0,11.828a6.266,6.266,0,0,0,4.548,6.3,6.55,6.55,0,0,0,8.395-6.308c.063-4.3.018-8.611.009-12.917a5.99,5.99,0,0,0-.557-2.569h3.1c-.649,1.613-.44,3.25-.45,4.867-.019,3.424.013,6.848-.011,10.272A9.23,9.23,0,0,1,233.371,323,9.2,9.2,0,0,1,224.27,315.23Zm-44.151-2.867a12.381,12.381,0,0,1,5.862-12.515c4.383-2.9,8.995-2.778,13.608-.378a1.328,1.328,0,0,1,.808,1.274c.045,1.45.157,2.9.242,4.347l-.111.07c-.2-.323-.392-.648-.6-.968a8.568,8.568,0,0,0-10.344-3.8,7.845,7.845,0,0,0-4.606,4.23,13,13,0,0,0,2,13.235,8.266,8.266,0,0,0,12.637-.23,5.751,5.751,0,0,1,1.271-1.37c-.244,1.326-.473,2.544-.688,3.765a1,1,0,0,1-.509.651,12.084,12.084,0,0,1-6.96,2.158C186.756,322.833,180.907,318.668,180.119,312.362Zm87.332,10.122c-.857-.052-1.72-.014-2.589-.014,0-.107-.021-.174,0-.2,2.24-2.491,3.156-5.652,4.454-8.612,2.222-5.064,4.374-10.157,6.56-15.237.135-.314.169-.695.707-.673.5.021.5.394.623.676,2.64,6.353,5.288,12.7,7.9,19.067a12.631,12.631,0,0,0,2.782,4.468,2.225,2.225,0,0,1,.254.3c.024.034.008.095.014.214-1.468,0-2.931,0-4.394,0-.4,0-.431-.321-.532-.572-1.053-2.6-2.114-5.192-3.137-7.8a.807.807,0,0,0-.9-.615q-3.357.043-6.714,0a.827.827,0,0,0-.91.624c-1.039,2.575-2.119,5.135-3.15,7.714-.179.448-.38.669-.856.669Q267.506,322.487,267.451,322.484ZM278.6,311.607c.426,0,.406-.171.283-.475-.987-2.421-1.968-4.844-3.005-7.4l-3.263,7.875,3.273,0C276.8,311.6,277.7,311.6,278.6,311.607Zm47.916,10.857q-5.452.012-10.9.005c-.711,0-1.423-.012-2.133.006-.369.008-.566-.052-.374-.469a6.581,6.581,0,0,0,.424-2.823q0-8.756,0-17.512a7.082,7.082,0,0,0-.622-3.479h3.368c3.108,0,6.215.011,9.323-.01.516,0,.747.124.813.659.091.741.285,1.468.433,2.189-.076.041-.126.087-.148.077a12.377,12.377,0,0,0-5.92-.837c-.592.013-1.185.026-1.774.015-1.942-.039-1.942-.008-1.942,1.923,0,1.557.023,3.114-.013,4.669-.012.529.164.648.67.644,1.229-.012,2.46-.011,3.689-.011,1.246,0,2.492,0,3.738-.01.564-.005.668.1.457.642-.522,1.338-.495,1.348-1.954,1.348-1.975,0-3.951.014-5.925-.01-.5-.006-.679.1-.674.639q.041,4.786,0,9.573c0,.5.118.664.649.657,2.159-.03,4.319-.017,6.479-.012A11.235,11.235,0,0,0,328,319.4c-.27,1.015-.5,1.912-.75,2.8a.351.351,0,0,1-.386.285C326.749,322.487,326.626,322.464,326.519,322.464Zm-122.926.017c-.861-.041-1.726-.011-2.556-.011a.209.209,0,0,1,.027-.316,17.2,17.2,0,0,0,2.923-5.035q3.967-9.319,7.981-18.619c.14-.324.152-.773.738-.75.544.021.53.447.654.746,2.714,6.521,5.434,13.04,8.108,19.577a13.229,13.229,0,0,0,3.036,4.4c-1.705,0-3.145-.008-4.586,0-.451,0-.469-.348-.579-.619-1.044-2.574-2.1-5.145-3.106-7.734a.858.858,0,0,0-.975-.639q-3.318.046-6.637,0a.831.831,0,0,0-.925.6c-1.046,2.6-2.136,5.186-3.181,7.788a.8.8,0,0,1-.833.608Zm5.3-11.257c-.173.412.052.4.263.38.041,0,.082-.006.12-.006q1.059,0,2.118,0c1.083,0,2.166,0,3.249.009.456,0,.535-.1.36-.527-.991-2.4-1.956-4.8-3-7.368C210.916,306.343,209.91,308.787,208.889,311.224Zm37.334,10.61a8.072,8.072,0,0,0,.331-3.23c.012-5.967,0-11.934.011-17.9a5.426,5.426,0,0,0-.578-2.525c1.282.024,2.546,0,3.794-.027a49.3,49.3,0,0,1,6.718.163,11.61,11.61,0,0,1,10.025,12,13.012,13.012,0,0,1-3.369,8.515,10.731,10.731,0,0,1-8.09,3.633c-1.576.024-3.152.019-4.728.016-1.216,0-2.432-.007-3.647,0h-.03C246.124,322.48,246,322.356,246.223,321.834Zm3.688-20.869c.025,3.112.012,6.225.012,9.337,0,3.087.014,6.174-.012,9.26,0,.58.1.819.765.792.8-.032,1.6-.026,2.4-.02.594,0,1.188.01,1.781,0,3.4-.062,5.9-1.595,7.15-4.7a11.819,11.819,0,0,0-1.391-11.761,8.241,8.241,0,0,0-6.222-3.551,21.7,21.7,0,0,0-2.228-.05c-.521.007-1.042.012-1.561-.007l-.085,0C250.03,300.263,249.907,300.456,249.911,300.965Zm54.572,21.028a5.407,5.407,0,0,0,.409-2.508q.007-9.177,0-18.353a5.617,5.617,0,0,0-.638-2.938c1.521,0,2.885.008,4.25-.006.362,0,.405.137.28.418a7.315,7.315,0,0,0-.422,3.056q0,8.787,0,17.575a6.93,6.93,0,0,0,.394,2.751c.17.405.019.493-.369.488q-1.776-.019-3.552,0h-.029C304.442,322.475,304.285,322.386,304.483,321.992Zm-15.123.025a5.749,5.749,0,0,0,.39-2.512q-.01-8.75,0-17.5a7.789,7.789,0,0,0-.583-3.815h4.267c.238,0,.42.009.277.345a8.286,8.286,0,0,0-.394,3.3c-.006,5.912.01,11.823-.02,17.733,0,.675.2.825.839.786.892-.054,1.79-.032,2.684-.01a11.243,11.243,0,0,0,5.973-1.053c-.3,1.118-.542,1.987-.763,2.86-.077.3-.283.325-.536.325q-5.922,0-11.844,0h-.006C289.243,322.474,289.209,322.339,289.36,322.017Zm14.962-28.258a.976.976,0,0,1,.171-1.156,6.32,6.32,0,0,1,4.874-2.6c1.024-.045,1.412.635.833,1.469a6.592,6.592,0,0,1-4.6,2.705C304.967,294.161,304.554,294.132,304.322,293.758Z" transform="translate(-179.998 -289.999)"/>
</svg>
