<svg xmlns="http://www.w3.org/2000/svg" width="117.507" height="43.013" viewBox="0 0 117.507 43.013">
  <path id="img_cosmetic_09" d="M189.119,629.964a10.54,10.54,0,0,1-5.691-1.882,4.89,4.89,0,0,1-1.158-7.413,1.376,1.376,0,0,0,.154-1.873c-.682-1.064-.421-2.168.574-3.307.783-.9.78-.894-.041-1.777-2.061-2.221-2.277-4.889-1.651-7.62a10.3,10.3,0,0,1,5.83-7.153,12.364,12.364,0,0,1,6.413-1.131,11.2,11.2,0,0,0,5.246-.6c.617-.256,1.189-.618,1.8-.893.908-.408,1.234-.2,1.31.779a4.426,4.426,0,0,1-1.176,3.2,1.641,1.641,0,0,0-.351,1.814,10.141,10.141,0,0,1,.706,3.018,10.46,10.46,0,0,1-6.29,9.729,14.194,14.194,0,0,1-6.413,1.2,11.34,11.34,0,0,0-2.022.084,1,1,0,0,0-.915,1.156c.059.66.553.919,1.171.878a12.625,12.625,0,0,0,1.884-.252,22.5,22.5,0,0,1,7.7-.4,5.781,5.781,0,0,1,5.231,4.1,4.991,4.991,0,0,1-1.444,5.259,10.533,10.533,0,0,1-4.335,2.463,14.33,14.33,0,0,1-4.712.661C190.329,630.005,189.725,629.987,189.119,629.964Zm.671-9.671c-.676.03-1.352.068-2.028.087a2.1,2.1,0,0,0-1.923,1.228,3.76,3.76,0,0,0,1.865,5.335,7.429,7.429,0,0,0,6.142-.256,3.464,3.464,0,0,0,2-3.816,3.125,3.125,0,0,0-2.9-2.376c-1.039-.161-2.094-.208-3.142-.306C189.8,620.223,189.793,620.258,189.79,620.293Zm1.38-19.867a5.14,5.14,0,0,0-3.052,2.106,9.93,9.93,0,0,0-1.531,7.513,5.065,5.065,0,0,0,1.135,2.32c1.59,1.779,5.26,1.076,6.523-1.183a15.622,15.622,0,0,0,1.617-6.137c-.177-.683-.365-1.619-.665-2.517a3.171,3.171,0,0,0-3.054-2.237A3.656,3.656,0,0,0,191.17,600.425ZM206.5,615.257a6.2,6.2,0,0,1-3.91-5.161,10.558,10.558,0,0,1,7.3-11.6,11.272,11.272,0,0,1,7.812.094,6.217,6.217,0,0,1,4.2,5.055c.779,5.508-1.78,9.625-6.775,11.676a27.877,27.877,0,0,1-4.526,1.032A34.779,34.779,0,0,1,206.5,615.257Zm6.418-14.76a4.946,4.946,0,0,0-3.723,2.514,10.26,10.26,0,0,0-1.414,5.36,10.817,10.817,0,0,0,.078,1.493A4.224,4.224,0,0,0,209.694,613a4.271,4.271,0,0,0,5.178-1.006,10.611,10.611,0,0,0,1.466-9.508,3.056,3.056,0,0,0-2.935-2.029A2.962,2.962,0,0,0,212.915,600.5Zm14.591,14.812a6.512,6.512,0,0,1-4.077-6.754,11.006,11.006,0,0,1,11.226-10.7,8.493,8.493,0,0,1,5.87,1.835,7.169,7.169,0,0,1,2.422,7.223,10.456,10.456,0,0,1-6.457,8.214,12.3,12.3,0,0,1-4.864,1.08A9.819,9.819,0,0,1,227.506,615.309Zm3.168-13.109a10.923,10.923,0,0,0-1.818,4.464,7.774,7.774,0,0,0,.5,4.879A3.175,3.175,0,0,0,230.66,613a4.374,4.374,0,0,0,5.692-1.739,13.712,13.712,0,0,0,1.472-5.677,9.443,9.443,0,0,0-.112-1.56c-.3-1.254-.592-2.528-1.934-3.19a3.424,3.424,0,0,0-1.513-.329A4.719,4.719,0,0,0,230.674,602.2ZM273.3,616.072c-2.836-.384-5.156-1.555-6.331-4.322a3.175,3.175,0,0,1-.238-.576c-.963-4.706.607-9.314,5.169-11.832a12.38,12.38,0,0,1,9.8-.926,23.858,23.858,0,0,1,2.854,1.009c1.4.614,1.706,1.227,1.657,2.753-.084,2.578-.165,5.156-.189,7.734-.025,2.633,0,2.633,1.984,4.318-.521,1.152-1.544,1.3-2.547,1.424a3.666,3.666,0,0,1-3.4-.886c-.489-.52-.946-.477-1.564-.144a12.057,12.057,0,0,1-5.747,1.547A10.774,10.774,0,0,1,273.3,616.072Zm3.4-15.548a4.938,4.938,0,0,0-3.327,2.083,10.407,10.407,0,0,0-1.312,8.28,3.06,3.06,0,0,0,2.567,2.468,4.27,4.27,0,0,0,4.507-1.842,10.664,10.664,0,0,0,1.6-5.954c-.039-.665-.022-1.338-.126-1.993a3.444,3.444,0,0,0-3.287-3.1A3.2,3.2,0,0,0,276.7,600.523Zm-30.224,13.5a6.181,6.181,0,0,1-2.061-4.292c-.3-4.2,1.137-7.636,4.743-9.995a11.454,11.454,0,0,1,9.227-1.57,4.535,4.535,0,0,0,.495.08.982.982,0,0,0,.226-.068,3.361,3.361,0,0,0,.23-.721c.235-2.237.448-4.477.672-6.714a4.6,4.6,0,0,1,4.021-3.725c.842-.027,1.138.247,1.151,1.1a9.279,9.279,0,0,1-.066,1c-.67,7.135-1.121,14.281-1.193,21.45a3.348,3.348,0,0,0,1.735,3.337c.1.054.149.193.3.392-.895,1.4-2.3,1.41-3.63,1.4a2.863,2.863,0,0,1-2.385-.969c-.419-.531-.9-.438-1.457-.132a12.09,12.09,0,0,1-5.432,1.552q-.248.009-.494.009A8.7,8.7,0,0,1,246.478,614.028Zm8.052-13.491a4.887,4.887,0,0,0-3.194,2.07,10.306,10.306,0,0,0-1.34,8.261,2.985,2.985,0,0,0,1.831,2.254,4.256,4.256,0,0,0,5.229-1.6,10.187,10.187,0,0,0,1.588-5.939c-.041-.706-.031-1.419-.136-2.116a3.409,3.409,0,0,0-3.3-3A3.236,3.236,0,0,0,254.53,600.537Zm37.7,15.141a2.989,2.989,0,0,1-3.12-3.118c-.13-1.367-.182-2.741-.268-4.112l-.124-.017c.476-6.016.937-12.033,1.454-18.046a3.222,3.222,0,0,1,.706-1.54,5.22,5.22,0,0,1,2.734-1.732c1.253-.383,1.841.161,1.751,1.429-.411,5.813-.816,11.627-1.184,17.443-.087,1.37-.046,2.75-.019,4.124.022,1.093.443,1.508,1.535,1.57.312.018.626.013.94.008.28,0,.559-.008.838,0,.892.038,1.139.343,1,1.172a3.47,3.47,0,0,1-2.831,2.675,25.009,25.009,0,0,1-2.538.175C292.8,615.713,292.514,615.7,292.225,615.677Z" transform="translate(-180.996 -586.993)"/>
</svg>
