<svg xmlns="http://www.w3.org/2000/svg" width="184.253" height="25.789" viewBox="0 0 184.253 25.789">
  <defs>
    <style>
      .cls-1 {
        fill: #d90000;
      }
    </style>
  </defs>
  <path id="img_cosmetic_03" class="cls-1" d="M288.85,413.266c-3.941-2.167-5.776-6.719-4.98-11.323a11.143,11.143,0,0,1,8.689-9.005,16.592,16.592,0,0,1,9.617.629c1.249.467,1.973,1.121,1.8,2.527a21.942,21.942,0,0,0-.021,2.7l-.508.091c-.3-.475-.6-.947-.894-1.424-2.918-4.743-10.139-4.75-12.892.089a12.338,12.338,0,0,0-.589,11.263A7.425,7.425,0,0,0,296,413.489a6.845,6.845,0,0,0,6.866-3.968,8.288,8.288,0,0,1,.633-.88l.433.075a26.187,26.187,0,0,1-.046,3.29,1.964,1.964,0,0,1-.969,1.163,13.723,13.723,0,0,1-14.063.1ZM232,414.79c.04-.114.055-.31.126-.331,2.773-.828,2.78-.826,2.784-3.576q.009-7.138,0-14.277c0-2.632-.014-2.629-2.71-3.389-.094-.026-.144-.2-.213-.3,1.293-.492,8.09-.575,10.323-.062a3.3,3.3,0,0,1-.731.424c-2.449.511-2.626.7-2.639,3.014-.012,2.071,0,4.141,0,6.368H250.2c0-2.551.019-5.014-.01-7.476a1.828,1.828,0,0,0-1.5-1.722c-.54-.172-1.1-.287-1.65-.427l.053-.353H257.6c-.459.336-.617.538-.815.586-2.4.571-2.613.786-2.621,3.075q-.029,7.34-.008,14.679c.005,2.617.04,2.639,2.781,3.336.113.029.2.164.293.252-1.162.59-8.047.689-10.139.147.049-.11.077-.3.151-.319,2.972-.746,2.975-.744,2.979-3.811,0-2.007,0-4.013,0-6.192H238.969c0,2.689-.076,5.35.061,8,.029.563.745,1.209,1.308,1.593a5.671,5.671,0,0,0,1.856.442c-.656.427-3.256.657-5.775.657A22.85,22.85,0,0,1,232,414.79Zm26.652-.106c2.949-.9,3.42-3.211,4.266-5.265,2.046-4.974,4.063-9.959,6.094-14.94.251-.615.518-1.225.75-1.773,2.161-.25,2.166-.252,2.863,1.473q3.364,8.32,6.719,16.643c.661,1.643,1.42,3.195,3.458,3.713l-.174.407h-8.91c-.032-.107-.064-.215-.1-.322l2.534-1.073-2.315-5.959c-2.426,0-4.774-.015-7.12.018-.307,0-.8.178-.887.395a29.686,29.686,0,0,0-1.811,4.876c-.306,1.388,1.284,1.247,2.252,1.612a8.5,8.5,0,0,1-3.717.605A18.086,18.086,0,0,1,258.65,414.684Zm7.973-8.615H273.2l-3.228-7.789Zm-48.914,9c-7.042-.021-12.1-4.833-12.026-11.449.069-6.575,5.054-11.138,12.117-11.09,6.838.047,11.635,4.719,11.631,11.331,0,6.585-4.822,11.208-11.673,11.209Zm.283-21.281c-2.718.025-5.205.853-6.448,3.32-2.25,4.467-2.377,9.129.194,13.48a6.863,6.863,0,0,0,11.906-.293,11.933,11.933,0,0,0,1.635-6.481,11.8,11.8,0,0,0-1.43-6.468,6.5,6.5,0,0,0-5.791-3.557Zm108,21.174c3.055-1.531,3.059-1.531,3.063-5.072q.007-6.427,0-12.855c0-3.183-.009-3.183-3.026-3.977.977-.671,8.016-.8,9.99-.181-.012.059-.007.16-.037.171-2.905,1.049-2.915,1.049-2.921,4.1q-.015,6.929,0,13.859c.006,2.045.272,2.359,2.338,2.484.885.054,1.775.043,2.665.032.567-.007,1.136-.014,1.7,0a3.672,3.672,0,0,0,4.025-2.78,1.524,1.524,0,0,1,.661-.836,13.642,13.642,0,0,1,.234,5.063Zm20.482-.037c.116-.265.144-.465.222-.484,2.92-.748,2.925-.746,2.925-3.611q0-7.131-.01-14.26c-.007-2.6-.027-2.614-2.762-3.344-.1-.026-.157-.188-.235-.288,1.335-.523,8.175-.6,10-.117-.04.117-.056.32-.123.338-2.865.726-2.869.724-2.872,3.675,0,4.754-.014,9.507,0,14.26.005,1.949.241,2.245,2.2,2.372,1.083.069,2.172.056,3.261.043.507-.007,1.014-.012,1.521-.01a3.6,3.6,0,0,0,3.725-2.632,8.693,8.693,0,0,1,.483-.974l.435.11v4.922Zm-40.556-.008c.064-.22.066-.418.137-.444,2.56-.967,2.567-.965,2.567-3.577q0-7.133-.005-14.265c0-2.485-.007-2.482-2.481-3.407-.087-.032-.115-.213-.34-.661,5.983-.075,11.8-.04,17.809-.029v4.732l-.433.147c-.285-.464-.58-.923-.85-1.395a3.5,3.5,0,0,0-2.976-1.918c-1.731-.075-3.467-.043-5.2-.032a1.347,1.347,0,0,0-1.489,1.536c0,2.2,0,4.41,0,6.584,3.695.929,5.81.117,7.645-2.734v7.771l-.346.315c-.991-4.016-4.018-3.58-7.324-3.377,0,2.071,0,4.117,0,6.163,0,3.488-.212,3.243,3.411,3.239,1.11,0,2.22-.032,3.33-.044a3.628,3.628,0,0,0,3.822-2.77,5.922,5.922,0,0,1,.576-1.047c.74,1.214.815,2.176.452,5.215Zm-124.918,0c3.047-1.359,3.048-1.359,3.046-4.68q0-8.243-.01-16.486c0-3.022-.012-3.025-3.005-3.807,1.034-.652,8.1-.787,10.065-.191-.056.1-.092.277-.171.3-2.833.711-2.844.709-2.847,3.508q-.01,8.745,0,17.491c0,2.029.237,2.315,2.371,2.431,1.164.063,2.332.051,3.5.039.637-.006,1.275-.012,1.912-.006a3.644,3.644,0,0,0,3.991-2.819,1.252,1.252,0,0,1,.788-.786v5.009Zm21.054-19.942a2.042,2.042,0,0,0,.2-.526c-.35-.287-.754-.6-1.142-.938a1.5,1.5,0,0,1-.411-2.128,2.1,2.1,0,0,1,1.67-.783,2.515,2.515,0,0,1,1.5,1.387c.678,1.872-.869,3.972-3.235,4.45C201.163,395.892,201.618,395.439,202.054,394.969Z" transform="translate(-181 -389.367)"/>
</svg>
