<svg xmlns="http://www.w3.org/2000/svg" width="128.001" height="74.999" viewBox="0 0 128.001 74.999">
  <path id="img_cosmetic_07" d="M529.091,533v-5.715H517V463.307h12.091V458h14.416v10.205h14.724v59.08H543.507V533Zm.568-.572h13.279v-5.143h-4.323v-2.922a6.329,6.329,0,0,1-2.034.309,5.838,5.838,0,0,1-2.936-.727v3.34h-3.986Zm28-5.715V468.778H543.507v57.935h.853V507.3h3.182v8.117h6.845V507.3h3.233v19.408Zm-3.276,0v-8.352h-6.845v8.352Zm-15.2,0h3.755V468.778h-3.755v34.608h3.364v13.851a8.752,8.752,0,0,1-1.539,5.374,4.915,4.915,0,0,1-1.824,1.521Zm-6.107,0v-3.141a5.834,5.834,0,0,1-.75-.673,6.277,6.277,0,0,1-1.615-3.791h2.365V463.88h-3.417v62.833Zm-15.508,0h11.523V463.88H517.568Zm16.833-7.605a3.109,3.109,0,0,0,.491,1.182,1.954,1.954,0,0,0,1.689.835,1.978,1.978,0,0,0,1.711-.835,2.835,2.835,0,0,0,.323-.591V468.205h4.323v-9.632H529.659v4.734h3.986v55.8Zm92.213,5.9a1.893,1.893,0,0,1,1.942-2.06,1.693,1.693,0,0,1,1.219.489l-.295.329a1.231,1.231,0,0,0-.911-.374,1.407,1.407,0,0,0-1.4,1.6c0,1,.5,1.623,1.405,1.623a1.193,1.193,0,0,0,.762-.233v-1.034h-.895v-.418h1.386V526.6a1.956,1.956,0,0,1-3.215-1.593Zm-4.279-.018a1.822,1.822,0,1,1,3.617,0,1.825,1.825,0,1,1-3.617,0Zm.556,0c0,.988.5,1.627,1.251,1.627s1.252-.639,1.252-1.627-.5-1.6-1.252-1.6S622.891,524,622.891,524.992Zm-7.8,0a1.821,1.821,0,1,1,3.616,0,1.825,1.825,0,1,1-3.616,0Zm.556,0c0,.988.5,1.627,1.252,1.627s1.253-.639,1.253-1.627-.5-1.6-1.253-1.6S615.648,524,615.648,524.992Zm-41.288,1.438.381-.255a.806.806,0,0,0,.733.444c.451,0,.676-.24.676-.843v-2.753h.538v2.8a1.1,1.1,0,0,1-1.165,1.241A1.253,1.253,0,0,1,574.361,526.43Zm3.47.561v-3.968h.54v3.968Zm53.69,0v-1.538l-1.271-2.43h.574l.546,1.12c.136.292.263.567.41.865h.025c.147-.3.293-.573.422-.865l.546-1.12h.556l-1.271,2.43v1.538Zm-11.9,0v-3.968h.538v3.541H622v.427Zm-6.7,0V523.45h-1.28v-.427h3.1v.427h-1.28v3.541Zm-1.694,0-.4-1.209h-1.542l-.407,1.209h-.548l1.431-3.968h.607l1.431,3.968Zm-.537-1.611-.2-.6c-.152-.444-.288-.88-.423-1.338h-.026c-.131.461-.267.894-.418,1.338l-.2.6Zm-3.459,1.611v-2.184c0-.346.042-.823.068-1.174h-.025l-.336.906-.8,2.052h-.357l-.8-2.052-.335-.906h-.025c.027.352.068.828.068,1.174v2.184H604.2v-3.968h.648l.811,2.119c.1.272.2.552.3.827h.025c.1-.275.191-.556.293-.827l.8-2.119h.647v3.968Zm-4.373,0-1.018-1.677h-.765v1.677h-.538v-3.968h1.325c.862,0,1.48.29,1.48,1.116a1.1,1.1,0,0,1-.951,1.118l1.077,1.733Zm-1.783-2.087h.709c.658,0,1.021-.25,1.021-.764s-.363-.707-1.021-.707h-.709Zm-3.934,2.087v-3.968h2.439v.427h-1.9v1.243h1.6v.428h-1.6v1.443h1.964v.427Zm-3.963,0v-3.968h1.059a1.984,1.984,0,1,1,.023,3.968Zm.539-.414h.48c.989,0,1.482-.582,1.482-1.585a1.357,1.357,0,0,0-1.482-1.556h-.48Zm-3.485.414v-2.184c0-.346.042-.823.069-1.174h-.026l-.336.906-.8,2.052h-.357l-.8-2.052-.335-.906h-.026c.027.352.068.828.068,1.174v2.184H587.2v-3.968h.649l.81,2.119c.1.272.2.552.3.827h.026c.1-.275.19-.556.292-.827l.8-2.119h.648v3.968Zm-4.168,0-.4-1.209h-1.542l-.407,1.209h-.548l1.431-3.968h.607l1.431,3.968Zm-.537-1.611-.2-.6c-.152-.444-.288-.88-.424-1.338h-.025c-.131.461-.267.894-.419,1.338l-.2.6Zm-3.5,1.611v-1.866h-1.967v1.866h-.538v-3.968h.538v1.662h1.967v-1.662h.538v3.968Zm-11.978,0v-3.968h2.438v.427h-1.9v1.243h1.6v.428h-1.6v1.443h1.964v.427Zm-3.4,0v-3.968h2.438v.427h-1.9v1.243h1.6v.428h-1.6v1.443h1.965v.427Zm-3.132,0v-3.968h.539v3.541h1.846v.427Zm-43.4-.443V505.808h4.454v17.165h4.469v3.574Zm102.744-7.7a3.239,3.239,0,0,1-1.038-2.409,3.2,3.2,0,0,1,1.045-2.392,3.46,3.46,0,0,1,2.485-1.005,3.52,3.52,0,0,1,2.522,1.005,3.264,3.264,0,0,1,0,4.8,3.523,3.523,0,0,1-2.522,1.005A3.458,3.458,0,0,1,622.866,518.844Zm1.2-3.672a1.781,1.781,0,0,0,0,2.541,1.775,1.775,0,0,0,1.3.53,1.817,1.817,0,0,0,1.319-.53,1.725,1.725,0,0,0,.54-1.279,1.7,1.7,0,0,0-.54-1.27,1.826,1.826,0,0,0-1.319-.522A1.775,1.775,0,0,0,624.062,515.173Zm10.563,4.365v-5.081h3.228v-1.325h-5.476v-1.589H645v1.589h-5.476v1.325h3.228v5.081Zm1.715-1.606h4.7v-1.87h-4.7Zm-44.225,1.606v-5.7h8.142v5.7Zm1.716-1.606h4.711v-2.509H593.83Zm19.122-.779v-2.01H603.7v-1.605h3.516v-1.169a3.177,3.177,0,0,1-1.658-1.115,2.939,2.939,0,0,1-.662-1.878,2.971,2.971,0,0,1,.648-1.886h-1.4v-1.574h3.041V504.45h1.758v1.465h3.041v1.574h-1.413a3.057,3.057,0,0,1,.663,1.886,2.94,2.94,0,0,1-.663,1.878,3.177,3.177,0,0,1-1.657,1.115v1.169h4.035v-8.916h1.715v4.895h1.946V511.1h-1.946v6.048Zm-5.958-8.915a1.6,1.6,0,0,0-.44,1.138,1.621,1.621,0,0,0,.44,1.154,1.451,1.451,0,0,0,2.125.008,1.747,1.747,0,0,0,0-2.3,1.442,1.442,0,0,0-2.125,0Zm-22.53,8.915V504.606h1.714v12.546Zm-14.41,0V504.606h1.714v12.546Zm8.992-5.767a9.742,9.742,0,0,1-3.127,3.538l-1.052-1.184a11.875,11.875,0,0,0,1.355-1.146,7.908,7.908,0,0,0,1.008-1.271,5.275,5.275,0,0,0,.7-1.675,9.337,9.337,0,0,0,.224-2.144v-.2h-2.537v-1.589h6.845V507.3h-2.536v.2a8.323,8.323,0,0,0,.411,2.767,5.631,5.631,0,0,0,1.074,1.9,11.459,11.459,0,0,0,1.8,1.567l-1.009,1.184A8.889,8.889,0,0,1,579.045,511.385Zm-17.156,1.5a4.887,4.887,0,0,1,.008-6.226,3.373,3.373,0,0,1,5.324,0,4.9,4.9,0,0,1,0,6.226,3.394,3.394,0,0,1-5.332,0Zm1.219-5.042a3.386,3.386,0,0,0,0,3.866,1.713,1.713,0,0,0,2.9,0,3.354,3.354,0,0,0,0-3.866,1.713,1.713,0,0,0-2.9,0Zm35.434,5.058v-8.277h1.715v3.071H602.2V509.3h-1.946v3.6Zm28.82-.155v-8.136h1.715v3.07h1.946v1.605h-1.946v3.461ZM591.113,511.6a3.344,3.344,0,0,1-.944-2.392,3.411,3.411,0,0,1,.519-1.855h-1.254v-1.59h3.027v-1.465h1.772v1.465h3.041v1.59h-1.282a3.287,3.287,0,0,1,.547,1.855,3.341,3.341,0,0,1-.943,2.392,3.032,3.032,0,0,1-4.482,0Zm1.189-3.647a1.9,1.9,0,0,0-.432,1.255,1.922,1.922,0,0,0,.432,1.27,1.315,1.315,0,0,0,2.1-.008,1.932,1.932,0,0,0,.432-1.262,1.9,1.9,0,0,0-.432-1.255,1.321,1.321,0,0,0-2.1,0Zm29.815,1.364a7.069,7.069,0,0,1-2.983,2.93l-.995-1.263a5.84,5.84,0,0,0,2.06-1.738,5.233,5.233,0,0,0,.966-2.392h-2.493v-1.606h6.874v1.606h-2.494a5.274,5.274,0,0,0,3.027,4.13l-.995,1.263A6.934,6.934,0,0,1,622.117,509.313Zm11.917,1.153v-1.574h1.326v-2.2h-1.182v-1.606h9.02v1.606h-1.181v2.2h1.326v1.574Zm3.041-1.574H640.3v-2.2h-3.227Z" transform="translate(-517 -458)"/>
</svg>
