<svg xmlns="http://www.w3.org/2000/svg" width="167.275" height="35.601" viewBox="0 0 167.275 35.601">
  <defs>
    <style>
      .cls-1 {
        fill: #0082ff;
      }
    </style>
  </defs>
  <g id="img_education_02" transform="translate(-15.35 -226.11)">
    <g id="그룹_193" data-name="그룹 193" transform="translate(144.931 226.11)">
      <path id="패스_353" data-name="패스 353" class="cls-1" d="M660.363,281.579h-7.072l9.789-20.387h7.071l-9.788,20.387Z" transform="translate(-653.291 -254.066)"/>
      <path id="패스_354" data-name="패스 354" class="cls-1" d="M776.157,262.046a3.732,3.732,0,0,0-2.2-2.241,4.62,4.62,0,0,0-.855-.257,7.256,7.256,0,0,0-1.216-.1,6.718,6.718,0,0,0-4.276,1.461,5.545,5.545,0,0,0-1.336,1.64l.6.43a5.726,5.726,0,0,1,.505-.684,2.326,2.326,0,0,1,1.971-.914c1.435.145.754,1.658.754,1.658h0l-8.235,17.152h7.2l6.2-13.572c.78-1.911,1.383-3.035.886-4.573Z" transform="translate(-739.814 -252.675)"/>
      <path id="패스_355" data-name="패스 355" class="cls-1" d="M669.37,257.425a9.313,9.313,0,0,1-1.777-3.618l-.006-.037a9.353,9.353,0,0,1,.421-4.776l.026-.053a7.821,7.821,0,0,1,.312-.738l.624-1.446.025.008,5.542-11.892a4.843,4.843,0,0,0-2.222-6.363c-5-2.726-10.746.579-13.664,4.461a12.738,12.738,0,0,0-2.486,6.568,4.072,4.072,0,0,0,1.681,3.593.4.4,0,0,1-.485.591,4.285,4.285,0,0,1-1.961-3.743,8.558,8.558,0,0,1,.221-2.563,14.615,14.615,0,0,1,6.91-9.249c.213-.129.423-.252.643-.369l.1-.05a13.932,13.932,0,0,1,4.515-1.494,12.011,12.011,0,0,1,11,3.823,8.256,8.256,0,0,1,1.789,3.308,7.22,7.22,0,0,1-.364,4.625c-.146.36-.262.689-.351.838l-4.17,8.695s-.818,1.693-1.4,3.008a8.8,8.8,0,0,0-.648,3.639,6.02,6.02,0,0,0,3.344,4.9c4.206,2.03,10.84.185,13.515-4.851a12.267,12.267,0,0,0,1.453-5.176,5.581,5.581,0,0,0-1.306-3.947.407.407,0,0,1,.489-.6,7.689,7.689,0,0,1,1.469,5.836,12.317,12.317,0,0,1-6.246,9.387c-.216.123-.423.258-.644.379l-.092.049a14.333,14.333,0,0,1-4.764,1.444,12.545,12.545,0,0,1-1.636.108,13.107,13.107,0,0,1-9.849-4.286" transform="translate(-654.959 -226.11)"/>
    </g>
    <g id="그룹_194" data-name="그룹 194" transform="translate(15.35 233.236)">
      <path id="패스_356" data-name="패스 356" d="M186.421,290.136v1.517a3.674,3.674,0,0,0-3.244-1.789c-.118-.007-.244-.012-.369-.012-1.232,0-4.749.423-4.749,6.943,0,4.216.811,7.539,4.93,7.539h.188a3.921,3.921,0,0,0,3.244-1.618v2.8a2.338,2.338,0,0,1-2.573,2.44,2.034,2.034,0,0,1-2.2-2.048H178.69c-.211,2.617,2.074,3.794,4.6,3.794h.189c3.337,0,5.589-.755,5.589-3.933V290.136Zm-5.59,6.665c0-1.883.089-5.027,2.889-5.027l.114,0c2.783.212,2.644,3.347,2.644,5.385,0,1.966.09,5.254-2.883,5.258C181.871,302.344,180.832,301.2,180.832,296.8Z" transform="translate(-145.009 -284.03)"/>
      <path id="패스_357" data-name="패스 357" d="M366.436,288.8c-.516.055-.893.108-1.08.111-2.11-.05-2.118-1.169-2.118-2.046v-8.686h3.306v-1.749h-3.306v-3.773l-2.636,1.1v2.675h-2.5v1.753l2.5,0v10.087c0,1.629,1.048,2.53,3.393,2.53.02,0,.132.005.174.005.815,0,1.626-.169,2.435-.229v-1.792C366.546,288.786,366.436,288.8,366.436,288.8Z" transform="translate(-288.483 -270.33)"/>
      <path id="패스_358" data-name="패스 358" d="M477.838,261.192v7.46a3.881,3.881,0,0,0-2.905-1.611,5.014,5.014,0,0,0-.527-.028c-4.9,0-5.019,4.076-5.019,7.617,0,6.174,2.411,7.121,4.821,7.142h.246a3.766,3.766,0,0,0,3.383-1.813v1.535h2.624V261.2Zm0,12.627c0,2.85,0,6.035-2.727,6.067-2.971-.082-2.971-3.113-2.971-5.22,0-3.791.358-5.76,3-5.76h.113C477.721,269.11,477.838,272,477.838,273.819Z" transform="translate(-377.162 -261.192)"/>
      <path id="패스_359" data-name="패스 359" d="M29.487,289.863c-.176-.008-.351-.012-.513-.012a3.744,3.744,0,0,0-3.5,1.653,3.826,3.826,0,0,0-3.311-1.641c-.115-.007-.23-.012-.345-.012a3.762,3.762,0,0,0-3.647,1.779v-1.494H15.35c.091.983.151,1.964.151,2.95v11.247h2.666v-9.555a3.979,3.979,0,0,1,.571-2.077,2.924,2.924,0,0,1,2.123-.958c1.818.083,2.217,1.364,2.217,2.746v9.842h2.663v-9.555a3.535,3.535,0,0,1,.845-2.5,2.315,2.315,0,0,1,1.845-.535c1.826.081,2.226,1.36,2.226,2.746v9.842H33.32V293.54C33.32,290.409,31.078,289.913,29.487,289.863Z" transform="translate(-15.35 -284.03)"/>
      <path id="패스_360" data-name="패스 360" d="M119.047,289.864c-.179-.008-.362-.013-.556-.013-5.262,0-5.775,3.43-5.775,7.592,0,6.177,2.486,7.138,5.641,7.165.106,0,.218,0,.329,0,3.184,0,5.259-1.431,5.289-4.576h-.19v0h-2.708a2.621,2.621,0,0,1-2.639,2.7c-1.812-.052-2.88-.912-2.88-4.745h8.535v-1.211C124.093,292.211,123.074,289.991,119.047,289.864Zm2.243,6.371h-5.732c.032-3.933,1.323-4.635,2.887-4.635.061,0,.123,0,.18,0C120.223,291.683,121.29,292.393,121.29,296.235Z" transform="translate(-92.939 -284.03)"/>
      <path id="패스_361" data-name="패스 361" d="M251.679,294.133c0-2.279-.931-4.1-4.409-4.259-.223-.013-.457-.022-.7-.022-3.219,0-5.023,1.1-5.141,4.278h2.855a2.235,2.235,0,0,1,2.378-2.53c.035,0,.071,0,.11,0,2.351.147,2.323,2.115,2.265,3.929-3.46-.086-7.971.113-7.971,4.409,0,2.729.934,4.669,4.151,4.669h.181a3.7,3.7,0,0,0,3.7-2.085v1.808h2.885a21,21,0,0,1-.3-3.373Zm-7.968,5.983c0-2.93,3-2.817,5.321-2.836.234,4.483-1.548,5.409-3.033,5.445A2.332,2.332,0,0,1,243.712,300.116Z" transform="translate(-195.215 -284.03)"/>
      <path id="패스_362" data-name="패스 362" d="M305.553,293.512c0-1.233,1.019-1.912,2.341-1.912.045,0,.091,0,.134.006a2.011,2.011,0,0,1,2.067,2.27h2.915c.2-2.677-1.891-3.892-4.423-4.006-.188-.01-.376-.019-.57-.019-4.266,0-5.228,2.39-5.228,3.879,0,4.245,7.577,4.3,7.577,6.834,0,1.435-1.1,2.137-2.537,2.16-2.391-.052-2.429-1.916-2.429-2.718L302.427,300c-.089,3.261,1.956,4.61,5.233,4.61h.175c3.009,0,5.292-1.206,5.292-4.323C313.127,295.957,305.553,296.015,305.553,293.512Z" transform="translate(-244.113 -284.03)"/>
      <path id="패스_363" data-name="패스 363" d="M418.609,291.252H415.98v9.414a3,3,0,0,1-2.934,3.288c-1.659-.054-2.463-1.188-2.463-2.863v-9.839h-2.635V302.07c0,2.422,1.447,3.656,4.091,3.656h.168a4.455,4.455,0,0,0,3.774-1.88v1.6h2.778c-.089-.985-.149-1.97-.149-2.954Z" transform="translate(-328.202 -285.146)"/>
      <path id="패스_364" data-name="패스 364" d="M540.679,291.252l-3.588,11.4-3.587-11.4h-3.017l5.14,14.2-1.711,5.366h2.711l6.9-19.562Z" transform="translate(-425.85 -285.146)"/>
    </g>
  </g>
</svg>
