<svg xmlns="http://www.w3.org/2000/svg" width="124.667" height="29.324" viewBox="0 0 124.667 29.324">
  <defs>
    <style>
      .cls-1 {
        fill: #3b3b3d;
      }

      .cls-2 {
        fill: #29948d;
      }

      .cls-3 {
        fill: #3a3a3c;
      }
    </style>
  </defs>
  <g id="img_education_08" transform="translate(1282.404 -226.11)">
    <path id="패스_452" data-name="패스 452" class="cls-1" d="M-586.224,255.838a3.85,3.85,0,0,0-1.289-.291,12.014,12.014,0,0,1-9.3-7.649,16.418,16.418,0,0,1,.895-14.979,12.316,12.316,0,0,1,9.495-6.141,16.079,16.079,0,0,1,7.611.531,12.665,12.665,0,0,1,8.022,8.238,15.913,15.913,0,0,1-1.752,14.422,12.736,12.736,0,0,1-8.912,5.632,2.869,2.869,0,0,0-1.167.238Zm-4.406-14.557a9.3,9.3,0,0,0,1.065,4.726,6,6,0,0,0,5.58,3.285,5.752,5.752,0,0,0,5.58-3.439,10.915,10.915,0,0,0,.377-8.506,6.512,6.512,0,0,0-2.358-3.122,6.484,6.484,0,0,0-9.191,2.388A9.7,9.7,0,0,0-590.63,241.281Z" transform="translate(-612.523 -0.404)"/>
    <path id="패스_453" data-name="패스 453" class="cls-1" d="M-869.015,255.908a3.26,3.26,0,0,0-1.283-.3,11.956,11.956,0,0,1-9.133-7.425,16.389,16.389,0,0,1,.983-15.471,12.264,12.264,0,0,1,9.337-5.865,16.673,16.673,0,0,1,7.256.424,12.41,12.41,0,0,1,8.026,7.5,15.935,15.935,0,0,1-1.227,14.979,12.739,12.739,0,0,1-9.126,5.931,2.974,2.974,0,0,0-1.23.233Zm2.206-6.532a5.8,5.8,0,0,0,5.522-3.136,10.6,10.6,0,0,0,.363-9.232,5.719,5.719,0,0,0-3.623-3.435,6.479,6.479,0,0,0-8.057,3.8,10.377,10.377,0,0,0,.02,8.045A6.05,6.05,0,0,0-866.809,249.376Z" transform="translate(-359.431 -0.475)"/>
    <path id="패스_454" data-name="패스 454" class="cls-1" d="M-314.875,255.434a6.123,6.123,0,0,0-1.714-.356,11.327,11.327,0,0,1-6.636-3.7,9.9,9.9,0,0,1-1.8-3.5c-.061-.2-.118-.375.208-.444,1.98-.419,3.956-.856,5.931-1.3.268-.06.322.1.377.285a5.112,5.112,0,0,0,.666,1.391,5.075,5.075,0,0,0,3.515,2.11,9.1,9.1,0,0,0,3.758-.08,3.907,3.907,0,0,0,1.885-1.015,2.279,2.279,0,0,0-.578-3.82,13.188,13.188,0,0,0-3.311-1,30.6,30.6,0,0,1-6.4-1.879c-2.092-.937-3.752-2.3-4.314-4.63A8.462,8.462,0,0,1-322,230.169a9.37,9.37,0,0,1,5.961-3.713,16.086,16.086,0,0,1,8.913.638,9.282,9.282,0,0,1,5.378,5.277c.166.383.078.513-.313.631-1.7.514-3.391,1.056-5.079,1.607-.294.1-.429.072-.56-.24-1-2.38-2.986-3.114-5.383-3a6.114,6.114,0,0,0-2,.364,2.168,2.168,0,0,0-1.56,2.024,2.226,2.226,0,0,0,1.353,2.238,16.431,16.431,0,0,0,3.876,1.055A34.6,34.6,0,0,1-306.4,238.4a8.147,8.147,0,0,1,5.577,6.479c.008.045.075.08.114.12v.621a.466.466,0,0,0,0,.621v.87c-.229.143-.168.4-.212.6a7.964,7.964,0,0,1-.856,2.308,10.292,10.292,0,0,1-7.347,5.044,12.016,12.016,0,0,0-2.148.371Z" transform="translate(-857.029)"/>
    <path id="패스_455" data-name="패스 455" class="cls-2" d="M-93.508,412.919a.466.466,0,0,1,0-.621Z" transform="translate(-1064.23 -166.681)"/>
    <path id="패스_456" data-name="패스 456" class="cls-2" d="M-1282.4,249.44q0-6.616,0-13.231c0-.753-.072-.658.665-.659q8.106,0,16.213,0c.641,0,.643,0,.643.625q0,2.205,0,4.41c0,.628,0,.631-.656.631h-9.5c-.647,0-.65,0-.65.626,0,1.408.016,2.816-.011,4.224-.008.431.106.556.546.553,3.044-.019,6.087-.011,9.131-.01.645,0,.646,0,.647.621q0,2.236,0,4.473c0,.621,0,.622-.646.622-3.023,0-6.046.012-9.069-.012-.493,0-.622.132-.61.616.032,1.387.01,2.774.012,4.162,0,.625,0,.627.649.627h10.808c.719,0,.72,0,.72.692,0,1.47-.016,2.94.01,4.41.008.435-.117.557-.554.556q-8.883-.021-17.765,0c-.54,0-.588-.208-.587-.647Q-1282.386,256.087-1282.4,249.44Z" transform="translate(0 -8.448)"/>
    <path id="패스_457" data-name="패스 457" class="cls-3" d="M-1083.3,252.466c0-3.582-.01-7.163.011-10.745,0-.485-.118-.626-.614-.62-2.215.028-4.43,0-6.646.022-.435,0-.558-.116-.55-.551.026-1.532.024-3.064,0-4.6-.006-.387.105-.484.485-.483q10.621.017,21.242,0c.366,0,.5.073.495.473-.024,1.552-.028,3.106,0,4.658.009.449-.172.5-.543.495-2.194-.013-4.389-.007-6.584-.006-.672,0-.673,0-.673.66q0,10.621,0,21.242c0,.823.122.709-.729.713q-2.609.01-5.217,0c-.782,0-.675.1-.676-.7Q-1083.3,257.746-1083.3,252.466Z" transform="translate(-171.267 -8.401)"/>
  </g>
</svg>
