<svg xmlns="http://www.w3.org/2000/svg" xmlns:xlink="http://www.w3.org/1999/xlink" width="133" height="42.176" viewBox="0 0 133 42.176">
  <defs>
    <style>
      .cls-1 {
        fill: #de7c28;
      }

      .cls-2 {
        fill: #ffc90e;
      }

      .cls-3, .cls-4, .cls-5, .cls-6, .cls-7, .cls-8 {
        opacity: 0.2;
        mix-blend-mode: multiply;
        isolation: isolate;
      }

      .cls-3 {
        fill: url(#linear-gradient);
      }

      .cls-4 {
        fill: url(#linear-gradient-2);
      }

      .cls-5 {
        fill: url(#linear-gradient-3);
      }

      .cls-6 {
        fill: url(#linear-gradient-4);
      }

      .cls-7 {
        fill: url(#linear-gradient-5);
      }

      .cls-8 {
        fill: url(#linear-gradient-6);
      }
    </style>
    <linearGradient id="linear-gradient" x1="0.258" y1="0.006" x2="0.999" y2="0.875" gradientUnits="objectBoundingBox">
      <stop offset="0" stop-color="#fff"/>
      <stop offset="1"/>
    </linearGradient>
    <linearGradient id="linear-gradient-2" x1="0.889" y1="0.475" x2="-0.137" y2="0.541" xlink:href="#linear-gradient"/>
    <linearGradient id="linear-gradient-3" x1="0.957" y1="0.395" x2="-0.112" y2="1.131" xlink:href="#linear-gradient"/>
    <linearGradient id="linear-gradient-4" x1="0.723" y1="0.725" x2="-0.148" y2="-0.141" xlink:href="#linear-gradient"/>
    <linearGradient id="linear-gradient-5" x1="0.028" y1="0.668" x2="1.016" y2="-0.268" xlink:href="#linear-gradient"/>
    <linearGradient id="linear-gradient-6" x1="0" y1="0.5" x2="1" y2="0.5" xlink:href="#linear-gradient"/>
  </defs>
  <g id="img_education_03" transform="translate(333.216 -504.536)">
    <g id="그룹_196" data-name="그룹 196" transform="translate(-292.289 504.536)">
      <path id="패스_365" data-name="패스 365" d="M135.044,548.186H118.136v-3.869h16.908v-5.583H112.553v15.035h22.491Z" transform="translate(-43.896 -530.327)"/>
      <path id="패스_366" data-name="패스 366" d="M132.324,611.18h-24.6v5.583h9.511v9.645h5.583v-9.645h9.511Z" transform="translate(-40.25 -584.963)"/>
      <path id="패스_367" data-name="패스 367" d="M-2.2,542.582v12.071H-15.421V539.039H-21v21.2H-2.2v11.535H3.383V544.648l.283-.331H9.248v-5.583H1.1Z" transform="translate(56.828 -530.327)"/>
      <path id="패스_368" data-name="패스 368" d="M-79.284,508.384v29.189H-73.7V518.526h5.865v-5.583H-73.7V510.45l.283-.331h5.581v-5.583h-8.149Z" transform="translate(100.781 -504.536)"/>
      <path id="패스_369" data-name="패스 369" d="M-156.578,504.536a10.165,10.165,0,0,0-10.154,10.154,10.165,10.165,0,0,0,10.154,10.154,10.165,10.165,0,0,0,10.154-10.154A10.165,10.165,0,0,0-156.578,504.536Zm0,14.725a4.576,4.576,0,0,1-4.571-4.571,4.577,4.577,0,0,1,4.571-4.571,4.576,4.576,0,0,1,4.571,4.571A4.576,4.576,0,0,1-156.578,519.261Z" transform="translate(166.732 -504.536)"/>
    </g>
    <g id="그룹_197" data-name="그룹 197" transform="translate(-333.216 506.453)">
      <path id="패스_370" data-name="패스 370" class="cls-1" d="M-308.306,639.817l4.472-8s.572-2.64,5.135-2.64a54.276,54.276,0,0,1,7.483.45l11.1-1.634s-.127,1.838-4.7,4.642-5.264,3.12-5.264,3.12-3.433,2.488-7.025,1.787S-306.7,636.662-308.306,639.817Z" transform="translate(314.43 -599.559)"/>
      <path id="패스_371" data-name="패스 371" class="cls-1" d="M-262.782,512.375s2.891-.526,7.8,2.278,9.7,5.688,9.2,9.2c-.609,4.206-3.832,8.445-3.832,8.445S-257.7,513.426-262.782,512.375Z" transform="translate(280.097 -512.336)"/>
      <path id="패스_372" data-name="패스 372" class="cls-2" d="M-328.034,523.066s.849-2.814,5.58-5.905,9.773-6.407,12.379-4,5.108,7.331,5.108,7.331S-324.783,519.021-328.034,523.066Z" transform="translate(329.308 -512.336)"/>
      <path id="패스_373" data-name="패스 373" class="cls-2" d="M-227.652,551.8s1.817,2.31,1.633,7.959-.363,11.68-3.832,12.431-8.935-.026-8.935-.026S-226.2,556.786-227.652,551.8Z" transform="translate(262 -542.1)"/>
      <path id="패스_374" data-name="패스 374" class="cls-2" d="M-322,584.786s-.55,1.243,1.9,4.923,4.907,5.871,1.928,10.69A59.67,59.67,0,0,0-322,607.234a9.134,9.134,0,0,0-1.251-6.835,33.417,33.417,0,0,0-2.6-3.808S-328.718,589.94-322,584.786Z" transform="translate(328.119 -566.975)"/>
      <path id="패스_375" data-name="패스 375" class="cls-3" d="M-262.782,512.375s2.891-.526,7.8,2.278,9.7,5.688,9.2,9.2c-.609,4.206-3.832,8.445-3.832,8.445S-257.7,513.426-262.782,512.375Z" transform="translate(280.097 -512.336)"/>
      <path id="패스_376" data-name="패스 376" class="cls-4" d="M-308.306,639.817l4.472-8s.572-2.64,5.135-2.64a54.276,54.276,0,0,1,7.483.45l11.1-1.634s-.127,1.838-4.7,4.642-5.264,3.12-5.264,3.12-3.433,2.488-7.025,1.787S-306.7,636.662-308.306,639.817Z" transform="translate(314.43 -599.559)"/>
      <path id="패스_377" data-name="패스 377" class="cls-5" d="M-227.652,551.8s1.817,2.31,1.633,7.959-.363,11.68-3.832,12.431-8.935-.026-8.935-.026S-226.2,556.786-227.652,551.8Z" transform="translate(262 -542.1)"/>
      <path id="패스_378" data-name="패스 378" class="cls-6" d="M-322,584.786s-.55,1.243,1.9,4.923,4.907,5.871,1.928,10.69A59.67,59.67,0,0,0-322,607.234a9.134,9.134,0,0,0-1.251-6.835,33.417,33.417,0,0,0-2.6-3.808S-328.718,589.94-322,584.786Z" transform="translate(328.119 -566.975)"/>
      <path id="패스_379" data-name="패스 379" class="cls-1" d="M-330.946,566.474s-1.97-2.181-2.17-7.829-.432-11.678,2.978-12.662a46.865,46.865,0,0,1,9.17-1.131S-332.729,561.6-330.946,566.474Z" transform="translate(333.215 -536.858)"/>
      <path id="패스_380" data-name="패스 380" class="cls-7" d="M-330.946,566.474s-1.97-2.181-2.17-7.829-.432-11.678,2.978-12.662a46.865,46.865,0,0,1,9.17-1.131S-332.729,561.6-330.946,566.474Z" transform="translate(333.215 -536.858)"/>
      <path id="패스_381" data-name="패스 381" class="cls-8" d="M-328.034,523.066s.849-2.814,5.58-5.905,9.773-6.407,12.379-4,5.108,7.331,5.108,7.331S-324.783,519.021-328.034,523.066Z" transform="translate(329.308 -512.336)"/>
    </g>
  </g>
</svg>
