<svg xmlns="http://www.w3.org/2000/svg" width="133.667" height="42.905" viewBox="0 0 133.667 42.905">
  <defs>
    <style>
      .cls-1 {
        fill: #26459c;
      }

      .cls-2 {
        fill: #f26d2c;
      }

      .cls-3 {
        fill: #f26b2b;
      }

      .cls-4 {
        fill: #f26b2a;
      }

      .cls-5 {
        fill: #23429b;
      }

      .cls-6 {
        fill: #25449b;
      }

      .cls-7 {
        fill: #24429b;
      }

      .cls-8 {
        fill: #29479e;
      }

      .cls-9 {
        fill: #27459c;
      }

      .cls-10 {
        fill: #304da0;
      }
    </style>
  </defs>
  <g id="img_education_09" transform="translate(1427.519 -893.671)">
    <path id="패스_458" data-name="패스 458" class="cls-1" d="M-725.193,947.9h5.161V966.32h-5.161Z" transform="translate(-574.677 -44.369)"/>
    <g id="그룹_212" data-name="그룹 212" transform="translate(-1427.519 893.671)">
      <path id="패스_459" data-name="패스 459" class="cls-2" d="M-1332.661,919.747c2.927-3.931.811-10.35,7.129-12.319C-1328.336,911.35-1326.379,917.641-1332.661,919.747Z" transform="translate(1349.902 -904.928)"/>
      <path id="패스_460" data-name="패스 460" class="cls-3" d="M-1314.981,975.4c-4.666-.294-9.075,4.518-14.014.21,3.433.264,6.174-1.553,9.259-2C-1317.876,973.34-1316.5,974.589-1314.981,975.4Z" transform="translate(1346.902 -959.049)"/>
      <path id="패스_461" data-name="패스 461" class="cls-4" d="M-1329.228,946.794c4.438-1.857,5.751-8.509,12.234-6.981C-1321.427,941.769-1322.829,948.21-1329.228,946.794Z" transform="translate(1347.093 -931.241)"/>
      <path id="패스_462" data-name="패스 462" class="cls-2" d="M-1404.343,986.341c-4.487,1.97-5.821,8.6-12.287,7.185C-1412.254,991.5-1410.845,985.067-1404.343,986.341Z" transform="translate(1418.609 -969.363)"/>
      <path id="패스_463" data-name="패스 463" class="cls-3" d="M-1415.083,939.847c3.91,2.562,10.122.558,12.286,6.745-2.854-1.927-6.135-1.7-9.037-2.839C-1413.584,943.067-1414.164,941.3-1415.083,939.847Z" transform="translate(1417.343 -931.454)"/>
      <path id="패스_464" data-name="패스 464" class="cls-4" d="M-1413.433,973.584c-4.776-.58-9.205,4.554-14.086.022C-1422.7,974.1-1418.3,969.19-1413.433,973.584Z" transform="translate(1427.519 -957.552)"/>
      <path id="패스_465" data-name="패스 465" class="cls-2" d="M-1374.519,916.933c-1.981-4.483-8.61-5.8-7.214-12.27C-1379.7,909.034-1373.26,910.428-1374.519,916.933Z" transform="translate(1390.211 -902.665)"/>
      <path id="패스_466" data-name="패스 466" class="cls-4" d="M-1344.672,907.756c.568-4.777-4.575-9.195-.055-14.085C-1345.206,898.493-1340.289,902.884-1344.672,907.756Z" transform="translate(1361.309 -893.671)"/>
      <path id="패스_467" data-name="패스 467" class="cls-2" d="M-1346.925,992.267c-.494,4.876,4.617,9.3.206,14.232C-1346.326,1001.694-1351.235,997.3-1346.925,992.267Z" transform="translate(1363.032 -974.347)"/>
      <path id="패스_468" data-name="패스 468" class="cls-4" d="M-1375.046,990.568c-2.856,3.872-.568,10.254-6.915,12.272C-1379.161,998.885-1381.265,992.637-1375.046,990.568Z" transform="translate(1390.241 -972.957)"/>
      <path id="패스_469" data-name="패스 469" class="cls-5" d="M-1209.988,955.781l2.028-.112v-7.392h4.732V981.1h-4.665V960.541l-2.074-.162c-2.049,4.687-5.352,7.225-10.636,5.979a7.98,7.98,0,0,1-5.237-4.29,8.788,8.788,0,0,1,3.894-11.892C-1217.365,947.907-1212.625,950.059-1209.988,955.781Zm-11.849,2.335c0,3,1.525,5.578,3.357,5.671,1.939.1,3.54-2.465,3.541-5.672s-1.587-5.753-3.543-5.66C-1220.327,952.542-1221.838,955.091-1221.838,958.116Z" transform="translate(1263.307 -938.351)"/>
      <path id="패스_470" data-name="패스 470" class="cls-5" d="M-1017.445,1050.115h-5.783v11.138h-5.382v-11.171h-6.93c-.547-1.3-.248-2.473-.257-3.8h30.448v3.7h-6.715v11.248h-5.381Z" transform="translate(1107.053 -1018.549)"/>
      <path id="패스_471" data-name="패스 471" class="cls-6" d="M-800.558,1059.434v7.656h-16.91a1.547,1.547,0,0,0-.242,2.039h17.631a5.416,5.416,0,0,1,.2,3.078h-11.345c-2.537,0-5.075.009-7.613,0-3.44-.014-4.568-1.135-4.585-4.538-.005-1.053,0-2.107,0-3.352h16.952c.706-.644.541-1.17.332-1.893h-17.539v-2.99Z" transform="translate(933.423 -1029.306)"/>
      <path id="패스_472" data-name="패스 472" class="cls-7" d="M-1015.048,948.135h23.109v3.76h-17.55V958.5h18.006v3.869c-6.881,0-13.69.084-20.494-.054-1.9-.038-3.026-1.46-3.055-3.424C-1015.086,955.383-1015.048,951.872-1015.048,948.135Z" transform="translate(1090.027 -938.236)"/>
      <path id="패스_473" data-name="패스 473" class="cls-8" d="M-1084.42,947.829h4.661v32.939h-4.661Z" transform="translate(1146.779 -937.986)"/>
      <path id="패스_474" data-name="패스 474" class="cls-9" d="M-831.826,959.417c-4.452-.018-7.945-2.594-8-5.9-.053-3.374,3.525-6.077,8.053-6.083,4.561-.006,8.1,2.634,8.086,6.033S-827.215,959.435-831.826,959.417Zm2.928-5.723c-.051-1.925-.785-3.42-2.707-3.53-1.938-.111-2.889,1.271-2.963,3.128s.755,3.307,2.666,3.435C-829.93,956.858-829.131,955.394-828.9,953.694Z" transform="translate(946.638 -937.662)"/>
      <path id="패스_475" data-name="패스 475" class="cls-10" d="M-848.411,1022.315v-3.442h19.206v3.391h-6.354l-.16,2.592h-5.338c-.039-.816-.075-1.563-.122-2.541Z" transform="translate(953.665 -996.117)"/>
      <path id="패스_476" data-name="패스 476" class="cls-3" d="M-1328.164,1003.994c-2.091-4.181-8.468-5.573-7.227-12.008,1.5,3.1,4.447,4.556,6.384,7C-1327.84,1000.457-1328.228,1002.276-1328.164,1003.994Z" transform="translate(1352.266 -974.117)"/>
      <path id="패스_477" data-name="패스 477" class="cls-4" d="M-1330.009,989c3.836,2.9,10.247.693,12.186,7.065C-1321.743,993.219-1328.016,995.246-1330.009,989Z" transform="translate(1347.732 -971.675)"/>
    </g>
  </g>
</svg>
