<svg xmlns="http://www.w3.org/2000/svg" width="133" height="45.432" viewBox="0 0 133 45.432">
  <defs>
    <style>
      .cls-1 {
        fill: #f26722;
      }

      .cls-2 {
        fill: #603417;
      }
    </style>
  </defs>
  <g id="img_education_04" transform="translate(-58.321 -676.74)">
    <path id="패스_382" data-name="패스 382" class="cls-1" d="M97.4,687.568l-19.3-10.828L58.321,687.568v23.54L77.86,722.172V698.886Z" transform="translate(0)"/>
    <path id="패스_383" data-name="패스 383" class="cls-2" d="M145.521,775.579l19.538,11.516-19.538,11.77Z" transform="translate(-67.661 -76.693)"/>
    <g id="그룹_199" data-name="그룹 199" transform="translate(109.767 683.255)">
      <path id="패스_384" data-name="패스 384" class="cls-1" d="M295.645,706.618a7.7,7.7,0,0,1,3.01.592,7.935,7.935,0,0,1,2.466,1.618,7.271,7.271,0,0,1,1.665,2.354,7.03,7.03,0,0,1,.608,2.9,7.1,7.1,0,0,1-.608,2.93,7.257,7.257,0,0,1-1.665,2.354,7.683,7.683,0,0,1-2.466,1.6,7.87,7.87,0,0,1-3.01.577,7.951,7.951,0,0,1-3.042-.577,7.3,7.3,0,0,1-2.434-1.6,7.05,7.05,0,0,1-1.65-2.354,7.255,7.255,0,0,1-.592-2.93,7.182,7.182,0,0,1,.592-2.9,7.064,7.064,0,0,1,1.65-2.354,7.535,7.535,0,0,1,2.434-1.618A7.775,7.775,0,0,1,295.645,706.618Zm0,3.33a3.468,3.468,0,0,0-2.642,1.2,4.437,4.437,0,0,0,0,5.86,3.468,3.468,0,0,0,2.642,1.2,3.518,3.518,0,0,0,2.658-1.2,4.391,4.391,0,0,0,0-5.86A3.518,3.518,0,0,0,295.645,709.948Zm6.858,27.286a9.91,9.91,0,0,1-3.282-.528,8.547,8.547,0,0,1-2.647-1.458,6.777,6.777,0,0,1-1.764-2.178,6.012,6.012,0,0,1,0-5.38,7.129,7.129,0,0,1,1.764-2.21,8.821,8.821,0,0,1,2.647-1.473,10.109,10.109,0,0,1,6.546,0,8.781,8.781,0,0,1,2.665,1.473,7.387,7.387,0,0,1,1.782,2.21,5.87,5.87,0,0,1,0,5.38,7.014,7.014,0,0,1-1.782,2.178,8.514,8.514,0,0,1-2.665,1.458A9.96,9.96,0,0,1,302.5,737.234Zm4.023-6.854a3.444,3.444,0,0,0-1.182-2.626,4.048,4.048,0,0,0-2.841-1.089,4.109,4.109,0,0,0-2.858,1.089,3.472,3.472,0,0,0-.053,5.2,3.956,3.956,0,0,0,2.806,1.073,4.277,4.277,0,0,0,2.894-1.073A3.3,3.3,0,0,0,306.527,730.381Zm1.337-20.945v-3.619H311.8V724.04h-3.939v-5.092h-7.708v-3.074h7.708v-3.395h-7.612v-3.043Z" transform="translate(-287.927 -705.817)"/>
      <path id="패스_385" data-name="패스 385" class="cls-1" d="M435.266,718.371v3.01q-.929.192-2.4.352t-3.074.288q-1.633.1-3.122.16t-2.418.064l-5.893.032V707.162h13.387v3.2h-9.415v8.775l2.466-.032q1.025,0,2.354-.048t2.738-.144q1.409-.1,2.8-.224T435.266,718.371Zm-11.53,7.718h3.971V732.4h13.579v3.2h-17.55Zm17.07-12.009h4.324v3.234h-4.324v10.344h-3.939V705.817h3.939Z" transform="translate(-389.132 -705.817)"/>
      <path id="패스_386" data-name="패스 386" class="cls-1" d="M546.729,727.823l-2.594-2.837a16.357,16.357,0,0,0,4.259-2.255,19.335,19.335,0,0,0,3.491-3.274,15.974,15.974,0,0,0,2.418-3.838,12.453,12.453,0,0,0,1.073-4.092h-9.159V707.89h13.611a19.7,19.7,0,0,1-.9,6.784,21.162,21.162,0,0,1-2.85,5.766,20.9,20.9,0,0,1-4.259,4.474A19.868,19.868,0,0,1,546.729,727.823Zm17.582,7.312V705.962h3.971v29.173Z" transform="translate(-486.728 -705.93)"/>
    </g>
  </g>
</svg>
