<svg xmlns="http://www.w3.org/2000/svg" width="216" height="35.484" viewBox="0 0 216 35.484">
  <defs>
    <style>
      .cls-1 {
        fill: #709bff;
      }

      .cls-2 {
        fill: #2f62cb;
      }

      .cls-3 {
        fill: #416fde;
      }

      .cls-4 {
        fill: #fff;
      }
    </style>
  </defs>
  <g id="img_education_01" transform="translate(1.23 -92.993)">
    <g id="그룹_189" data-name="그룹 189" transform="translate(37.839 98.181)">
      <path id="패스_340" data-name="패스 340" class="cls-1" d="M156.312,129.356l1.835-2.111a7.051,7.051,0,0,0,4.626,1.979c2,0,3.095-.886,3.095-2.239,0-1.427-1.145-1.883-2.758-2.551l-2.427-1.029c-1.748-.711-3.589-2.064-3.589-4.6,0-2.764,2.5-4.891,5.962-4.891a7.876,7.876,0,0,1,5.473,2.212l-1.618,1.952a5.791,5.791,0,0,0-3.855-1.491c-1.683,0-2.78.769-2.78,2.037,0,1.363,1.352,1.867,2.823,2.456l2.394.982c2.112.859,3.589,2.164,3.589,4.678,0,2.812-2.389,5.156-6.374,5.156A9.26,9.26,0,0,1,156.312,129.356Z" transform="translate(-156.312 -113.915)"/>
      <path id="패스_341" data-name="패스 341" class="cls-1" d="M220.876,115.2h3.149v17.346h-3.149Z" transform="translate(-204.865 -114.88)"/>
      <path id="패스_342" data-name="패스 342" class="cls-1" d="M244.609,115.2h3.236l1.542,8.763c.288,1.846.592,3.692.88,5.538h.109c.369-1.846.76-3.708,1.151-5.538l2.183-8.763h2.736l2.183,8.763c.391,1.8.782,3.676,1.173,5.538h.109c.288-1.862.57-3.724.858-5.538l1.542-8.763h3.019l-3.41,17.346h-3.9l-2.2-9.134c-.293-1.348-.554-2.674-.782-3.989h-.109c-.244,1.315-.51,2.641-.8,3.989l-2.15,9.134h-3.833Z" transform="translate(-222.712 -114.88)"/>
      <path id="패스_343" data-name="패스 343" class="cls-1" d="M335.118,122.837c0-5.612,3.2-8.922,7.829-8.922s7.829,3.326,7.829,8.922c0,5.612-3.2,9.06-7.829,9.06S335.118,128.449,335.118,122.837Zm12.422,0c0-3.894-1.8-6.249-4.593-6.249s-4.593,2.355-4.593,6.249,1.8,6.387,4.593,6.387S347.54,126.731,347.54,122.837Z" transform="translate(-290.775 -113.915)"/>
      <path id="패스_344" data-name="패스 344" class="cls-1" d="M412.665,115.2H415.9l5.516,9.75,1.835,3.7h.109c-.152-1.793-.4-3.989-.4-5.92V115.2h3v17.346H422.72l-5.516-9.766-1.835-3.687h-.108c.152,1.835.4,3.925.4,5.856v7.6h-3Z" transform="translate(-349.091 -114.88)"/>
      <path id="패스_345" data-name="패스 345" class="cls-2" d="M479.572,129.356l1.835-2.111a7.05,7.05,0,0,0,4.626,1.979c2,0,3.095-.886,3.095-2.239,0-1.427-1.146-1.883-2.758-2.551l-2.427-1.029c-1.748-.711-3.589-2.064-3.589-4.6,0-2.764,2.5-4.891,5.961-4.891a7.876,7.876,0,0,1,5.473,2.212l-1.618,1.952a5.792,5.792,0,0,0-3.855-1.491c-1.683,0-2.78.769-2.78,2.037,0,1.363,1.352,1.867,2.823,2.456l2.394.982c2.112.859,3.589,2.164,3.589,4.678,0,2.812-2.389,5.156-6.374,5.156A9.26,9.26,0,0,1,479.572,129.356Z" transform="translate(-399.406 -113.915)"/>
      <path id="패스_346" data-name="패스 346" class="cls-2" d="M540.371,122.965c0-5.676,3.638-9.05,8.133-9.05a7.131,7.131,0,0,1,5.114,2.2l-1.683,1.984a4.683,4.683,0,0,0-3.366-1.507c-2.889,0-4.963,2.387-4.963,6.281,0,3.957,1.911,6.355,4.886,6.355a5.04,5.04,0,0,0,3.79-1.783l1.683,1.931a7.149,7.149,0,0,1-5.592,2.525C543.911,131.9,540.371,128.7,540.371,122.965Z" transform="translate(-445.127 -113.915)"/>
      <path id="패스_347" data-name="패스 347" class="cls-2" d="M607.19,115.2h3.149v6.97h7.177V115.2h3.149v17.346h-3.149v-7.692h-7.177v7.692H607.19Z" transform="translate(-495.375 -114.88)"/>
      <path id="패스_348" data-name="패스 348" class="cls-2" d="M676,122.837c0-5.612,3.2-8.922,7.829-8.922s7.829,3.326,7.829,8.922c0,5.612-3.2,9.06-7.829,9.06S676,128.449,676,122.837Zm12.423,0c0-3.894-1.8-6.249-4.593-6.249s-4.593,2.355-4.593,6.249,1.8,6.387,4.593,6.387S688.425,126.731,688.425,122.837Z" transform="translate(-547.122 -113.915)"/>
      <path id="패스_349" data-name="패스 349" class="cls-2" d="M749.784,122.837c0-5.612,3.2-8.922,7.829-8.922s7.829,3.326,7.829,8.922c0,5.612-3.2,9.06-7.829,9.06S749.784,128.449,749.784,122.837Zm12.422,0c0-3.894-1.8-6.249-4.593-6.249s-4.593,2.355-4.593,6.249,1.8,6.387,4.593,6.387S762.206,126.731,762.206,122.837Z" transform="translate(-602.607 -113.915)"/>
      <path id="패스_350" data-name="패스 350" class="cls-2" d="M827.331,115.2h3.149v14.757h7.373v2.589H827.331Z" transform="translate(-660.923 -114.88)"/>
    </g>
    <g id="그룹_191" data-name="그룹 191" transform="translate(-1.23 92.993)">
      <rect id="사각형_541" data-name="사각형 541" class="cls-3" width="28.861" height="28.861" rx="14.43" transform="matrix(0.964, -0.265, 0.265, 0.964, 0, 7.658)"/>
      <path id="패스_351" data-name="패스 351" class="cls-2" d="M40.884,132.451a27.908,27.908,0,0,0,.476,5.136,3.943,3.943,0,0,0,.563-.107L62.1,131.928a3.98,3.98,0,0,0,2.773-4.879l-5.552-20.175a3.974,3.974,0,0,0-.183-.509A27.767,27.767,0,0,0,40.884,132.451Z" transform="translate(-30.44 -103.05)"/>
      <g id="그룹_190" data-name="그룹 190" transform="translate(10.444 8.806)">
        <path id="패스_352" data-name="패스 352" class="cls-4" d="M55.712,138.938a4.829,4.829,0,0,1-.424,4.345,6.66,6.66,0,0,1-3.59,2.808,7.281,7.281,0,0,1-5.425-.135,6.6,6.6,0,0,1-3.665-4.158l3.083-1.072a4.743,4.743,0,0,0,2.106,2.667,3.434,3.434,0,0,0,2.966.336,3.293,3.293,0,0,0,1.734-1.365,2.326,2.326,0,0,0,.234-2.126,2.075,2.075,0,0,0-.551-.861,2.585,2.585,0,0,0-.771-.506,3.407,3.407,0,0,0-1.044-.206,8.783,8.783,0,0,0-1.114-.012q-.47.031-1.224.1-.912.076-1.386.095t-1.3-.009a4.666,4.666,0,0,1-1.329-.2,7.1,7.1,0,0,1-1.1-.5,3.047,3.047,0,0,1-1.013-.906,5.4,5.4,0,0,1-.7-1.4,4.612,4.612,0,0,1,.428-4.2,7,7,0,0,1,8.346-2.623,5.8,5.8,0,0,1,3.277,3.7l-3.1,1.079a3.974,3.974,0,0,0-1.708-2.249,2.712,2.712,0,0,0-2.345-.261,3.2,3.2,0,0,0-1.658,1.29,2.164,2.164,0,0,0-.241,2.007,1.916,1.916,0,0,0,.341.619,1.364,1.364,0,0,0,.582.391,4.891,4.891,0,0,0,.666.2,4.132,4.132,0,0,0,.858.065q.56,0,.876-.014t1.009-.06q1.118-.074,1.73-.093a11.086,11.086,0,0,1,1.615.1,4.819,4.819,0,0,1,1.618.441,4.65,4.65,0,0,1,1.239,1A4.835,4.835,0,0,1,55.712,138.938Z" transform="translate(-40.884 -128.503)"/>
      </g>
    </g>
  </g>
</svg>
