<svg xmlns="http://www.w3.org/2000/svg" width="143.335" height="47.496" viewBox="0 0 143.335 47.496">
  <defs>
    <style>
      .cls-1 {
        fill: #0faf48;
      }

      .cls-2 {
        fill: #032530;
      }

      .cls-3 {
        fill: #fff;
      }

      .cls-4 {
        fill: #0b923b;
      }
    </style>
  </defs>
  <g id="img_education_05" transform="translate(19.799 -918.15)">
    <g id="그룹_203" data-name="그룹 203" transform="translate(85.666 918.15)">
      <path id="패스_387" data-name="패스 387" class="cls-1" d="M402.628,918.15v26.262c0,.109,0,.222.011.329.308,3.482,2.154,7.759,4.939,11.446a25.9,25.9,0,0,0,12.872,9.292,3.8,3.8,0,0,0,2.219,0,25.85,25.85,0,0,0,12.9-9.3c2.771-3.676,4.607-7.952,4.915-11.442a3.279,3.279,0,0,0,.017-.329V918.15Z" transform="translate(-402.628 -918.15)"/>
      <path id="패스_388" data-name="패스 388" class="cls-2" d="M402.628,918.15v9.12h28.752v16.853a15.9,15.9,0,0,1-3.094,6.576,17.372,17.372,0,0,1-6.718,5.48,17.4,17.4,0,0,1-6.714-5.487,18.931,18.931,0,0,1-2.5-4.4l-6.815,6.813a29.419,29.419,0,0,0,2.036,3.083,25.9,25.9,0,0,0,12.872,9.292,3.8,3.8,0,0,0,2.219,0,25.85,25.85,0,0,0,12.9-9.3c2.771-3.676,4.607-7.952,4.915-11.442a3.279,3.279,0,0,0,.017-.329V918.15Z" transform="translate(-402.628 -918.15)"/>
      <g id="그룹_201" data-name="그룹 201" transform="translate(1.398 11.237)">
        <path id="패스_389" data-name="패스 389" class="cls-3" d="M409.4,963.415h.336v1.769a.7.7,0,0,1-.724.768.625.625,0,0,1-.671-.543l.329-.072a.336.336,0,0,0,.343.3c.333,0,.388-.284.388-.563Z" transform="translate(-408.311 -963.351)"/>
        <path id="패스_390" data-name="패스 390" class="cls-3" d="M415.716,964.462a1.29,1.29,0,1,1,1.29,1.3A1.261,1.261,0,0,1,415.716,964.462Zm2.222,0a.934.934,0,1,0-.932.985A.931.931,0,0,0,417.938,964.462Z" transform="translate(-413.846 -963.16)"/>
        <path id="패스_391" data-name="패스 391" class="cls-3" d="M428,963.415h.441l1.363,2.035h.007v-2.035h.336v2.474h-.427l-1.376-2.034h-.008v2.034H428Z" transform="translate(-423.066 -963.351)"/>
        <path id="패스_392" data-name="패스 392" class="cls-3" d="M440.819,964.313v1.222a2.035,2.035,0,0,1-.937.226,1.3,1.3,0,1,1-.036-2.6,1.194,1.194,0,0,1,.924.321l-.236.257a.96.96,0,0,0-1.62.724.955.955,0,0,0,.961.985,1.315,1.315,0,0,0,.609-.13v-.688h-.549v-.316Z" transform="translate(-430.986 -963.16)"/>
        <path id="패스_393" data-name="패스 393" class="cls-3" d="M450.029,963.415h.87c.634,0,.795.381.795.691a.664.664,0,0,1-.609.654l.7,1.129h-.42l-.628-1.09h-.375v1.09h-.337Zm.337,1.09h.438c.266,0,.533-.061.533-.4s-.266-.4-.533-.4h-.438Z" transform="translate(-439.593 -963.351)"/>
        <path id="패스_394" data-name="패스 394" class="cls-3" d="M457.934,964.462a1.29,1.29,0,1,1,1.29,1.3A1.261,1.261,0,0,1,457.934,964.462Zm2.223,0a.934.934,0,1,0-.933.985A.932.932,0,0,0,460.157,964.462Z" transform="translate(-445.524 -963.16)"/>
        <path id="패스_395" data-name="패스 395" class="cls-3" d="M409.319,980.214h.3l1.058,2.476h-.391l-.248-.611h-1.179l-.242.611h-.392Zm.6,1.57-.462-1.136h-.007l-.469,1.136Z" transform="translate(-408.228 -975.956)"/>
        <path id="패스_396" data-name="패스 396" class="cls-3" d="M420.214,980.563a.762.762,0,0,0-.6-.284.934.934,0,0,0-.923,1.007.912.912,0,0,0,.923.965.763.763,0,0,0,.646-.332l.283.215a1.156,1.156,0,0,1-.937.432,1.273,1.273,0,0,1-1.271-1.28,1.252,1.252,0,0,1,1.289-1.321,1.089,1.089,0,0,1,.867.384Z" transform="translate(-415.813 -975.769)"/>
        <path id="패스_397" data-name="패스 397" class="cls-3" d="M428.9,980.214h.305l1.058,2.476h-.389l-.25-.611h-1.179l-.244.611h-.391Zm.6,1.57-.462-1.136h-.007l-.469,1.136Z" transform="translate(-422.924 -975.956)"/>
        <path id="패스_398" data-name="패스 398" class="cls-3" d="M438.9,980.214h.862a1.2,1.2,0,0,1,1.3,1.239,1.252,1.252,0,0,1-1.359,1.237H438.9Zm.334,2.162h.423a.937.937,0,0,0,1.049-.923.886.886,0,0,0-.967-.923h-.505Z" transform="translate(-431.24 -975.956)"/>
        <path id="패스_399" data-name="패스 399" class="cls-3" d="M449.485,980.214h1.6v.316h-1.263v.738h1.174v.315h-1.174v.794h1.326v.314h-1.66Z" transform="translate(-439.185 -975.956)"/>
        <path id="패스_400" data-name="패스 400" class="cls-3" d="M457.895,980.214h.5l.788,1.875h.012l.779-1.875h.5v2.476h-.337v-2.035h-.007l-.835,2.035h-.225l-.835-2.035h-.007v2.035h-.336Z" transform="translate(-445.495 -975.956)"/>
        <path id="패스_401" data-name="패스 401" class="cls-3" d="M470.4,981.634l-.938-1.42h.431l.674,1.088.7-1.088h.41l-.937,1.42v1.056H470.4Z" transform="translate(-454.177 -975.956)"/>
        <path id="패스_402" data-name="패스 402" class="cls-3" d="M409.517,997.412l-.462.427-.2-.237.7-.579h.3v2.514h-.341Z" transform="translate(-408.698 -988.569)"/>
        <path id="패스_403" data-name="패스 403" class="cls-3" d="M416.374,998.434h-.014a.625.625,0,0,1-.276.058.759.759,0,0,1-.78-.8.805.805,0,0,1,.863-.844.815.815,0,0,1,.865.81,1.256,1.256,0,0,1-.255.744l-.635,1h-.4Zm-.207-1.285a.523.523,0,1,0,.523.523A.5.5,0,0,0,416.167,997.149Z" transform="translate(-413.537 -988.44)"/>
        <path id="패스_404" data-name="패스 404" class="cls-3" d="M424.128,998h.014a.625.625,0,0,1,.277-.058.757.757,0,0,1,.778.8.864.864,0,0,1-1.727.035,1.258,1.258,0,0,1,.252-.742l.635-1.006h.4Zm.205,1.286a.522.522,0,1,0-.521-.523A.5.5,0,0,0,424.334,999.282Z" transform="translate(-419.665 -988.569)"/>
        <path id="패스_405" data-name="패스 405" class="cls-3" d="M433.356,997.342h-1.021l-.01.628a1.189,1.189,0,0,1,.337-.051.765.765,0,0,1,.782.83.832.832,0,0,1-.885.83.772.772,0,0,1-.757-.507l.344-.117a.458.458,0,0,0,.466.327.483.483,0,0,0,.491-.515.534.534,0,0,0-.607-.552,1.3,1.3,0,0,0-.52.133l.029-1.325h1.351Z" transform="translate(-425.917 -988.569)"/>
      </g>
      <g id="그룹_202" data-name="그룹 202" transform="translate(9.729 9.12)">
        <path id="패스_406" data-name="패스 406" class="cls-4" d="M441.6,973.7a18.931,18.931,0,0,0,2.5,4.4,17.4,17.4,0,0,0,6.714,5.487,17.372,17.372,0,0,0,6.718-5.48,15.9,15.9,0,0,0,3.094-6.576V954.678h0Z" transform="translate(-441.597 -954.678)"/>
      </g>
    </g>
    <g id="그룹_206" data-name="그룹 206" transform="translate(54.225 927.245)">
      <path id="패스_407" data-name="패스 407" class="cls-2" d="M288.9,1032.448c0,3.2,1.7,5.043,5.71,5.043h11.044v-2.514H294.8c-1.695,0-2.865-.355-2.865-2.607v-1.916H288.9Z" transform="translate(-285.853 -1011.511)"/>
      <g id="그룹_205" data-name="그룹 205" transform="translate(0 0)">
        <path id="패스_408" data-name="패스 408" class="cls-2" d="M328.485,954.58v15.566h-4.778v2.562h4.778v2.479h3.033V954.58Z" transform="translate(-311.97 -954.58)"/>
        <g id="그룹_204" data-name="그룹 204" transform="translate(0 0.175)">
          <path id="패스_409" data-name="패스 409" class="cls-2" d="M291.2,1000.4H276.7v2.562h5.517v3.772h3.029v-3.772H291.2Z" transform="translate(-276.695 -989.136)"/>
          <path id="패스_410" data-name="패스 410" class="cls-2" d="M293.249,960.277c0,2.759-2.036,5-6.16,5s-6.161-2.239-6.161-5,2.006-5,6.161-5C291.355,955.28,293.249,957.518,293.249,960.277Zm-6.166-2.626c-2.133,0-3.165,1.175-3.165,2.626s1.048,2.623,3.165,2.623,3.164-1.175,3.164-2.623S289.274,957.651,287.083,957.651Z" transform="translate(-279.871 -955.28)"/>
        </g>
      </g>
    </g>
    <path id="패스_411" data-name="패스 411" class="cls-2" d="M207.9,1031.816c0-3.209-.58-5.043-5.707-5.043h-9.837v2.51h10.076c1.7,0,2.435.357,2.435,2.609v3.334H207.9Z" transform="translate(-159.19 -81.504)"/>
    <path id="패스_412" data-name="패스 412" class="cls-2" d="M248.941,961.336h-3.448V954.5H242.46v16.46h3.033V963.9h3.448Z" transform="translate(-196.782 -27.276)"/>
    <path id="패스_413" data-name="패스 413" class="cls-2" d="M10.14,1023.422c0,3.153-2.519,5.709-7.629,5.709s-7.628-2.556-7.628-5.709,2.481-5.712,7.628-5.712C7.794,1017.71,10.14,1020.267,10.14,1023.422ZM2.5,1020.136c-3.1,0-4.6,1.471-4.6,3.283s1.523,3.283,4.6,3.283,4.6-1.468,4.6-3.283S5.688,1020.136,2.5,1020.136Z" transform="translate(-11.016 -74.703)"/>
    <g id="그룹_207" data-name="그룹 207" transform="translate(-19.799 927.447)">
      <path id="패스_414" data-name="패스 414" class="cls-2" d="M-6.937,993.484v-2.54H-9.968v2.54H-19.8v2.562H2.828v-2.562Z" transform="translate(19.799 -982.066)"/>
      <path id="패스_415" data-name="패스 415" class="cls-2" d="M6.411,964.1a77.25,77.25,0,0,1-9.188-2.106,47.291,47.291,0,0,1-8.708,2.473l-.792-2.339a43.108,43.108,0,0,0,11.505-3.8c.444-.2.76-.524.022-.524H-11.292v-2.421h13.9c1.369,0,1.986.447,1.986,1.293a2.807,2.807,0,0,1-.974,1.736A15.086,15.086,0,0,1,.54,960.494c1.82.474,4.684,1.053,6.635,1.343Z" transform="translate(14.155 -955.386)"/>
    </g>
    <g id="그룹_208" data-name="그룹 208" transform="translate(4.855 927.851)">
      <path id="패스_416" data-name="패스 416" class="cls-2" d="M105.613,965.088a1.224,1.224,0,0,0,1.347-1.373V958.38A1.226,1.226,0,0,0,105.613,957H90.465v2.564h13.465v2.937H90.465l-.008,3.411c0,3.206,1.695,5.043,5.709,5.043h11.17v-2.511H96.36c-1.7,0-2.871-.354-2.871-2.609v-.752Z" transform="translate(-87.584 -957.005)"/>
      <path id="패스_417" data-name="패스 417" class="cls-2" d="M91.776,1012.786v-5.125H88.745v5.125h-9.8v2.561h22.628v-2.561Z" transform="translate(-78.948 -995.014)"/>
    </g>
    <path id="패스_418" data-name="패스 418" class="cls-2" d="M194.549,987.361c0,2.535-1.931,4.589-5.839,4.589s-5.839-2.053-5.839-4.589,1.9-4.586,5.839-4.586C192.751,982.775,194.549,984.829,194.549,987.361Zm-5.847-2.354c-1.947,0-2.883,1.055-2.883,2.354s.953,2.356,2.883,2.356,2.89-1.056,2.89-2.356S190.7,985.006,188.7,985.006Z" transform="translate(-152.07 -48.49)"/>
    <path id="패스_419" data-name="패스 419" class="cls-2" d="M196.443,952.982h-4.48a10.7,10.7,0,0,1-4.042-.754l-.685,2.2a12.456,12.456,0,0,0,4.646.9h4.56Z" transform="translate(-155.346 -25.57)"/>
    <rect id="사각형_542" data-name="사각형 542" class="cls-2" width="13.775" height="2.378" transform="translate(29.708 931.058)"/>
  </g>
</svg>
