<svg xmlns="http://www.w3.org/2000/svg" width="168.667" height="34.577" viewBox="0 0 168.667 34.577">
  <defs>
    <style>
      .cls-1 {
        fill: #e92633;
      }
    </style>
  </defs>
  <g id="img_education_11" transform="translate(2230.216 -498.834)">
    <g id="그룹_218" data-name="그룹 218" transform="translate(-2217.315 501.176)">
      <path id="패스_485" data-name="패스 485" d="M-2152.377,515.163c0-.47.011-.87,0-1.269a1.494,1.494,0,0,0-1.235-1.411,1.423,1.423,0,0,0-1.333,1.307,16.575,16.575,0,0,0-.085,2.646,1.4,1.4,0,0,0,1.266,1.364,1.324,1.324,0,0,0,1.409-1.184C-2152.224,516.094-2152.488,515.6-2152.377,515.163Z" transform="translate(2155.044 -512.482)"/>
      <path id="패스_486" data-name="패스 486" d="M-2126.872,513.766a1.219,1.219,0,0,0-1.214-1.288,1.325,1.325,0,0,0-1.293,1.326c-.022.456,0,.915,0,1.372,0,.429-.007.858,0,1.286a1.234,1.234,0,0,0,1.229,1.344,1.2,1.2,0,0,0,1.277-1.212C-2126.83,515.653-2126.832,514.707-2126.872,513.766Z" transform="translate(2133.792 -512.478)"/>
    </g>
    <g id="그룹_219" data-name="그룹 219" transform="translate(-2230.216 503.669)">
      <path id="패스_487" data-name="패스 487" class="cls-1" d="M-2197.143,545.592c-.527-1.949-1.045-3.9-1.573-5.848q-1.016-3.745-2.044-7.485c-.294-1.068-.578-2.141-.925-3.193a2.893,2.893,0,0,0-1.871-1.859c-1.552-.544-2.848.02-3.746,1.678-1.4,2.579-2.739,5.187-4.11,7.78-.559,1.057-1.122,2.111-1.7,3.158-.294.533-.511.537-.84.021-.213-.335-.371-.7-.569-1.049-1.683-2.939-3.356-5.884-5.065-8.807a4.775,4.775,0,0,0-1.583-1.98c-1.848-1.031-4.02-.294-4.611,2.242q-.5,2.154-.984,4.312c-.23,1.025-.449,2.053-.672,3.079a2.081,2.081,0,0,0-.313,1.208l-.035.154c-.052.064-.135.121-.151.193-.618,2.653-1.256,5.3-1.819,7.966-.117.553-.493,1.039-.4,1.637a.569.569,0,0,0,0,.518c-.116.508.222.48.554.479,1.456,0,2.912,0,4.368-.007a1.173,1.173,0,0,0,1.223-1.058c.038-.224.052-.453.107-.672.727-2.867,1.462-5.731,2.186-8.6.165-.652.147-.656.819-.31l.013.03a.377.377,0,0,0,.282.453.25.25,0,0,0,.1.257c-.046.107-.006.156.106.154l0,0a.238.238,0,0,0,.145.253c.137.273.259.555.415.816,1.238,2.076,2.419,4.185,3.591,6.3a3.3,3.3,0,0,0,1.248,1.483,3.079,3.079,0,0,0,4.348-1.19c.765-1.4,1.469-2.829,2.183-4.253.791-1.576,1.581-3.153,2.463-4.681.159-.277.26-.657.732-.621a23.577,23.577,0,0,0,1.042,3.526c.7,2.37,1.566,4.688,2.183,7.084a.854.854,0,0,0,.943.689c1.4-.03,2.8,0,4.2-.018.638-.008.751-.168.587-.8C-2196.575,547.618-2196.868,546.607-2197.143,545.592Z" transform="translate(2230.216 -527.006)"/>
      <path id="패스_488" data-name="패스 488" class="cls-1" d="M-2001.927,549.619c-.143-.245-.321-.47-.471-.711-.959-1.544-1.911-3.093-2.874-4.636-1.07-1.713-2.14-3.426-3.23-5.126a1.137,1.137,0,0,1,.064-1.46c2.073-2.923,4.065-5.9,6.2-8.781a1.4,1.4,0,0,0,.385-1.156c-1.935,0-3.875.007-5.816-.005-.452,0-.644.291-.858.6-1.359,1.992-2.716,3.985-4.091,5.967a31.252,31.252,0,0,0-1.755,2.611c-.094.17-.231.386-.458.311-.3-.1-.2-.395-.14-.585a3.908,3.908,0,0,0,.093-1.19c0-1.516,0-3.031,0-4.547,0-.715.018-1.43,0-2.145-.02-.784-.253-1-1.012-1.007q-2.359-.005-4.718,0c-.829,0-.849.027-.87.873,0,.086,0,.172,0,.257q0,9.351,0,18.7c0,.686-.017,1.373.008,2.058.029.8.063.821.836.824q2.4.008,4.8,0c.75,0,.826-.063.944-.779a3.048,3.048,0,0,0,.015-.6c-.084-2.568.152-5.141-.126-7.706-.018-.167-.027-.37.166-.443.241-.091.375.084.456.276a8.347,8.347,0,0,0,.871,1.365c1.658,2.485,3.339,4.953,4.982,7.447a.854.854,0,0,0,.825.449c1.773-.015,3.546,0,5.319-.015C-2001.746,550.468-2001.6,550.182-2001.927,549.619Z" transform="translate(2057.306 -527.618)"/>
    </g>
    <g id="그룹_220" data-name="그룹 220" transform="translate(-2164.671 498.835)">
      <path id="패스_489" data-name="패스 489" class="cls-1" d="M-1522.227,614.863c.024-.491-.195-.679-.651-.677-.286,0-.572-.008-.858-.008h-11.325v0h-11.153c-.372,0-.744-.007-1.115,0a.594.594,0,0,0-.665.7c.015.543,0,1.087.009,1.63.008.932.012.936.981.936,1.83,0,3.66,0,5.491,0,.758,0,.84.08.877.815.013.257,0,.515,0,.772,0,1.887-.005,3.775,0,5.662,0,.7.023.715.721.743a5.164,5.164,0,0,0,1.281-.069,1.973,1.973,0,0,0,1.818-2.246c0-1.6-.005-3.2,0-4.8,0-.858.01-.861.837-.867s1.659-.005,2.488-.005c.9,0,.913.008.915.9q.007,4.5,0,9.008c0,1.7,0,1.7,1.706,1.535.029,0,.057,0,.086-.007a2.118,2.118,0,0,0,2.028-2.284c0-2.745,0-5.491,0-8.236,0-.892.035-.92.915-.921,1.63,0,3.26-.01,4.89.005.5,0,.741-.159.714-.7C-1522.257,616.122-1522.258,615.491-1522.227,614.863Z" transform="translate(1599.529 -594.382)"/>
      <path id="패스_490" data-name="패스 490" class="cls-1" d="M-1517.452,533.374a9.2,9.2,0,0,0,10.6.333,6.611,6.611,0,0,0,.31-10.814,8.6,8.6,0,0,0-9.136-1,6.9,6.9,0,0,0-4.325,6.233A6.688,6.688,0,0,0-1517.452,533.374Zm1.141-5.661a3.825,3.825,0,0,1,2.855-3.248,4.5,4.5,0,0,1,4.981,1.29,3.7,3.7,0,0,1-1.785,6.026c-.3.084-.594.2-.9.257a5.8,5.8,0,0,1-.768.052,5.182,5.182,0,0,1-2.165-.443A3.627,3.627,0,0,1-1516.311,527.713Z" transform="translate(1576.34 -517.219)"/>
      <path id="패스_491" data-name="패스 491" class="cls-1" d="M-1801.358,624.041c0-.888-.019-.922-.929-.873-2.6.141-5.2.011-7.253.062-2.865,0-5.181,0-7.5,0-.724,0-.779.061-.788.787-.012,1-.011,2-.005,3a20.647,20.647,0,0,0,.22,4.1,2.673,2.673,0,0,0,1.853,2.14,6.371,6.371,0,0,0,2.108.3c2.2.009,4.4,0,6.605.006a3.4,3.4,0,0,0,1.174-.206,10.685,10.685,0,0,0,3.947-2.476,1.726,1.726,0,0,0,.581-1.351C-1801.369,627.7-1801.35,625.871-1801.358,624.041Zm-4.289,6.345c-2.4-.017-4.8,0-7.2-.016-.9-.006-1.236-.36-1.249-1.25-.009-.628-.009-1.257,0-1.886.008-.726.029-.751.8-.756,1.286-.008,2.571,0,3.857,0v0c1.257,0,2.514-.007,3.772,0,.68.005.732.061.739.731.009.828-.016,1.658.007,2.486C-1804.913,630.22-1805.14,630.389-1805.647,630.386Z" transform="translate(1823.061 -601.819)"/>
      <path id="패스_492" data-name="패스 492" class="cls-1" d="M-1674.966,540.3a51.091,51.091,0,0,1-4.175-4.032c-.539-.585-.531-.6-.1-1.284a10.865,10.865,0,0,0,1.805-5.372,2.42,2.42,0,0,0-2.716-2.842c-1.4-.015-2.8,0-4.2,0-1.543,0-3.086-.008-4.629,0-.731.005-.758.047-.765.786,0,.543-.009,1.086,0,1.629.011.724.052.771.787.775,1.514.008,3.029,0,4.543,0,.771,0,1.544-.016,2.314.012s.912.274.791,1.027a5.61,5.61,0,0,1-.883,2.112,16.429,16.429,0,0,1-5.236,4.95,13.659,13.659,0,0,1-2.391,1.313c-.591.23-.631.463-.308,1.035.351.621.726,1.231,1.039,1.871.245.5.582.494.973.263a32.437,32.437,0,0,0,5.362-3.647c.63-.568.638-.559,1.212.064q2.027,2.2,4.22,4.233c.526.49.537.487.991-.026q.738-.832,1.46-1.678C-1674.317,540.836-1674.334,540.848-1674.966,540.3Z" transform="translate(1717.441 -521.971)"/>
      <path id="패스_493" data-name="패스 493" class="cls-1" d="M-1838.643,536.906a12.7,12.7,0,0,0,3.212-6.4,6.607,6.607,0,0,0,.037-1.794,2.352,2.352,0,0,0-2.455-1.955c-1.485-.03-2.971-.007-4.457-.007s-2.972,0-4.458,0c-.914,0-.914.009-.918.883,0,.514-.009,1.029,0,1.543.009.739.025.762.784.765,1.629.007,3.257,0,4.886,0,.714,0,1.43-.016,2.143.012.6.023.816.325.69.9a6.953,6.953,0,0,1-.724,1.893,14.108,14.108,0,0,1-4.261,4.48,20.553,20.553,0,0,1-3.5,2.126c-.759.348-.762.464-.352,1.147.337.562.646,1.142.98,1.706s.474.606,1.007.306A28.549,28.549,0,0,0-1838.643,536.906Z" transform="translate(1848.286 -521.953)"/>
      <path id="패스_494" data-name="패스 494" class="cls-1" d="M-1582.542,528.876c-.026-.437-.2-.624-.625-.614-.768.018-1.538.018-2.305.048-.8.032-.906-.042-.911-.834-.008-1.457,0-2.915,0-4.372,0-.784-.119-.909-.9-.825a15.469,15.469,0,0,1-1.968.043c-.9-.019-.9-.035-.9.868q0,4.458,0,8.915h0q0,4.243,0,8.487c0,1.659.225,1.824,1.816,1.3a2.819,2.819,0,0,0,1.962-2.762c0-2.057.011-4.115-.014-6.172a1.149,1.149,0,0,1,.714-1.221c.748-.344,1.465-.756,2.194-1.141C-1582.469,530.06-1582.472,530.033-1582.542,528.876Z" transform="translate(1634.459 -518.237)"/>
      <path id="패스_495" data-name="패스 495" class="cls-1" d="M-1355.159,613.218a8.041,8.041,0,0,0-1.447-.138c-2.087.008-4.174,0-6.261,0-2.23,0-4.46,0-6.69,0-.714,0-.724.015-.742.714-.015.6-.007,1.2,0,1.8.008.837.014.842.884.842q5.4,0,10.807.005c.343,0,.686.021,1.029.025a.732.732,0,0,1,.744.58,3.1,3.1,0,0,1,.14,1.012c-.005,1.287-.014,2.573,0,3.86.006.707.094.762.807.761a4.7,4.7,0,0,0,1.506-.291,1.863,1.863,0,0,0,1.411-1.669,24.248,24.248,0,0,0-.17-5.556A2.311,2.311,0,0,0-1355.159,613.218Z" transform="translate(1452.336 -593.473)"/>
      <path id="패스_496" data-name="패스 496" class="cls-1" d="M-1283.548,515.276c0-.393-.167-.556-.575-.541-.713.026-1.427.013-2.141.011-1,0-1-.005-1-.982q0-2.441,0-4.882c0-.927-.067-1-.945-1.008-.657-.006-1.313-.006-1.97,0-.839,0-.85.013-.851.875q0,3.726,0,7.452h0q0,3.855,0,7.709c0,.8.035.825.81.829.657,0,1.313,0,1.97,0,.967,0,.986-.015.986-1.019,0-1.656.014-3.312-.011-4.968-.008-.514.168-.726.686-.713.8.021,1.6-.02,2.4.014.429.018.651-.093.646-.549C-1283.553,516.76-1283.551,516.018-1283.548,515.276Z" transform="translate(1386.665 -506.317)"/>
      <path id="패스_497" data-name="패스 497" class="cls-1" d="M-1736.728,528.574c-.8.02-1.6,0-2.4.012s-.821.011-.82-.771q0-2.145.008-4.29c0-.863,0-.866-.828-.872q-1.03-.007-2.059,0c-.857.007-.872.019-.873.858q0,3.389,0,6.779,0,3.432,0,6.865c0,.962.042,1,1.032,1,.572,0,1.144,0,1.716,0,1.012,0,1.013,0,1.013-.975,0-1.287.021-2.575-.01-3.861a.917.917,0,0,1,.764-1.05,10.913,10.913,0,0,0,2.283-1.142,1.721,1.721,0,0,0,.9-1.849C-1736.029,528.755-1736.223,528.561-1736.728,528.574Z" transform="translate(1761.651 -518.562)"/>
      <path id="패스_498" data-name="패스 498" class="cls-1" d="M-1394.657,505.032q3.558,0,7.116,0c.965,0,.976-.011.982-.938q0-.772,0-1.543c-.007-.854-.051-.9-.943-.9q-2.144-.006-4.287,0c-.7,0-.759-.045-.778-.761-.014-.514-.029-1.03,0-1.543.023-.383-.129-.512-.489-.509-.943.008-1.886,0-2.829,0-.345,0-.522.137-.5.521.029.427.007.857.007,1.285,0,1.005,0,1.005-.964,1.006h-.6c-1.286,0-2.572-.009-3.858,0-.73.007-.778.047-.837.769-.044.54-.035,1.084-.035,1.627,0,.884.094.976.983.977q3.515,0,7.03,0Z" transform="translate(1479.147 -498.835)"/>
      <path id="패스_499" data-name="패스 499" class="cls-1" d="M-1385.526,548.548a5.977,5.977,0,0,0,4-6.931,5.633,5.633,0,0,0-4.018-4.334,8.831,8.831,0,0,0-5.475.084,5.757,5.757,0,0,0-2.947,8.775,6.548,6.548,0,0,0,5.738,2.782A8,8,0,0,0-1385.526,548.548Zm-5.916-5.57a3.04,3.04,0,0,1,3.288-3.049,2.916,2.916,0,0,1,3.181,3.111c-.052,1.992-1.359,2.922-3.2,2.917A2.961,2.961,0,0,1-1391.441,542.978Z" transform="translate(1472.799 -530.358)"/>
    </g>
  </g>
</svg>
