<svg xmlns="http://www.w3.org/2000/svg" width="171" height="29.719" viewBox="0 0 171 29.719">
  <defs>
    <style>
      .cls-1 {
        fill: #1c1c1b;
      }

      .cls-2 {
        fill: #322650;
      }
    </style>
  </defs>
  <g id="img_education_07" transform="translate(299.042 -1138.679)">
    <path id="패스_420" data-name="패스 420" class="cls-1" d="M-19.279,1253.851h-6.691v3.832a2.473,2.473,0,0,0,.26,1.371,1.267,1.267,0,0,0,1.111.4h.052v.38h-4.271v-.38h.1a1.4,1.4,0,0,0,1.049-.314,1.74,1.74,0,0,0,.287-1.158v-8.862a1.691,1.691,0,0,0-.251-1.079,1.413,1.413,0,0,0-.964-.352v-.382h4.05v.382c-.6,0-.978.125-1.155.371a3.008,3.008,0,0,0-.268,1.559v3.5h6.691v-3.963a1.743,1.743,0,0,0-.284-1.147,1.4,1.4,0,0,0-1.068-.323l-.325.006v-.382h4.372v.382a1.27,1.27,0,0,0-1.021.36,2.25,2.25,0,0,0-.262,1.289v8.362a2.379,2.379,0,0,0,.287,1.4,1.324,1.324,0,0,0,1.065.352h.172v.38H-21.16v-.38h.53a1.347,1.347,0,0,0,1.081-.344,1.926,1.926,0,0,0,.27-1.169v-4.094Z" transform="translate(-228.556 -91.881)"/>
    <path id="패스_421" data-name="패스 421" class="cls-1" d="M62.97,1252.661H59.447l-.986,3.173a7.953,7.953,0,0,0-.339,1.273c0,.5.459.748,1.376.748h.273v.38H55.84v-.38a1.594,1.594,0,0,0,1.133-.344,5.11,5.11,0,0,0,.7-1.649l3.1-10-.151-.442H62.1l3.559,11.169a2.084,2.084,0,0,0,.563,1.016,1.581,1.581,0,0,0,.986.254v.38H62.531v-.38h.44a3.518,3.518,0,0,0,.833-.062.605.605,0,0,0,.5-.625,3.427,3.427,0,0,0-.191-.825l-1.139-3.681Zm-.289-.879h0l-1.5-4.665-1.445,4.665Z" transform="translate(-300.16 -90.278)"/>
    <path id="패스_422" data-name="패스 422" class="cls-1" d="M146.109,1248.994h-.322a4.449,4.449,0,0,0-1.461-2.237,3.709,3.709,0,0,0-2.414-.841,4.01,4.01,0,0,0-3.356,1.619,6.676,6.676,0,0,0-1.248,4.2,7.133,7.133,0,0,0,1.409,4.514,4.17,4.17,0,0,0,3.384,1.811q2.736,0,4.145-2.988h.322a13.178,13.178,0,0,1-1.087,2.944c-.115-.011-.235-.019-.358-.019a7.415,7.415,0,0,0-1.412.281,8.143,8.143,0,0,1-2.075.281,5.55,5.55,0,0,1-4.263-1.808,6.528,6.528,0,0,1-1.677-4.61,6.906,6.906,0,0,1,1.718-4.831,5.662,5.662,0,0,1,4.391-1.892,7.07,7.07,0,0,1,2.4.4c.748.262,1.147.4,1.193.4.158,0,.26-.047.306-.15h.254l.153,2.936Z" transform="translate(-367.702 -90.278)"/>
    <path id="패스_423" data-name="패스 423" class="cls-1" d="M224.182,1259.838H219.2v-.38c.737-.014,1.106-.2,1.106-.565q0-.578-2.094-3.056a11.435,11.435,0,0,0-1.494-1.546,1.36,1.36,0,0,0-1.029-.262v3.76a2.166,2.166,0,0,0,.289,1.317,1.342,1.342,0,0,0,1.076.352h.224v.38h-4.662v-.38h.306a1.368,1.368,0,0,0,1.065-.336,1.723,1.723,0,0,0,.289-1.136v-8.845a1.621,1.621,0,0,0-.339-1.185,1.524,1.524,0,0,0-1.016-.262h-.306v-.382h4.594v.382h-.155a1.357,1.357,0,0,0-1.065.344,1.924,1.924,0,0,0-.3,1.251v4.361a3.146,3.146,0,0,0,1.9-1.281,16.678,16.678,0,0,0,1.69-2.374,4.229,4.229,0,0,0,.688-1.674.511.511,0,0,0-.249-.495,2.15,2.15,0,0,0-.923-.134v-.382h4.473v.382a2.857,2.857,0,0,0-2.245.827q-.615,1-1.226,2.013a12.524,12.524,0,0,1-2.16,2.739c.248.055.7.473,1.36,1.248q1.057,1.25,2.108,2.722t1.193,1.631a2.41,2.41,0,0,0,1.887.584v.38Z" transform="translate(-432.759 -91.881)"/>
    <path id="패스_424" data-name="패스 424" class="cls-1" d="M295.879,1251.476v3.832h-.322a3.3,3.3,0,0,0-.257-1.155.952.952,0,0,0-.9-.418h-2.876V1258a1.351,1.351,0,0,0,.2.871.914.914,0,0,0,.716.232h2.616a1.545,1.545,0,0,0,1.259-.473,4.817,4.817,0,0,0,.713-1.8h.306l-.273,3h-9.034v-.38h.478a1.708,1.708,0,0,0,1.314-.382,1.976,1.976,0,0,0,.289-1.27v-8.5a2.144,2.144,0,0,0-.273-1.251,1.317,1.317,0,0,0-1.092-.36h-.374v-.382h8.168l.134,2.8h-.306a3.925,3.925,0,0,0-.475-1.661.888.888,0,0,0-.781-.4h-3.586V1253h3.048a.778.778,0,0,0,.7-.336,2.668,2.668,0,0,0,.289-1.191Z" transform="translate(-496.542 -91.881)"/>
    <path id="패스_425" data-name="패스 425" class="cls-1" d="M358.254,1253.628V1257a1.729,1.729,0,0,0,.306,1.191,1.458,1.458,0,0,0,1.049.308H360v.38h-4.814v-.38h.289a1.371,1.371,0,0,0,1.07-.344,2.1,2.1,0,0,0,.3-1.327v-8.482a2.157,2.157,0,0,0-.268-1.267,1.221,1.221,0,0,0-1.016-.344h-.377v-.382q.053,0,2.146-.118,1.057-.057,2.152-.057a5.169,5.169,0,0,1,3.463,1.027,3.2,3.2,0,0,1,1.109,2.562,3.43,3.43,0,0,1-.62,2.016,3.271,3.271,0,0,1-1.666,1.251,25.07,25.07,0,0,1,1.939,2.1l1.344,1.595a5.03,5.03,0,0,0,3.354,2.037v.352h-.729a5.235,5.235,0,0,1-2.638-.576,9.392,9.392,0,0,1-1.884-1.816l-1.122-1.316a13.334,13.334,0,0,0-1.751-1.778h-2.026Zm0-7.029h0v6.609a8.959,8.959,0,0,0,1.057.038q3.133,0,3.132-3.362,0-3.322-3.337-3.324a7.567,7.567,0,0,0-.852.038Z" transform="translate(-553.346 -90.923)"/>
    <path id="패스_426" data-name="패스 426" class="cls-1" d="M446.429,1255.173h.32a3.729,3.729,0,0,0,1.057,2.065,2.557,2.557,0,0,0,1.822.765,2.338,2.338,0,0,0,1.6-.584,2.26,2.26,0,0,0,.751-1.789,3.3,3.3,0,0,0-1.417-2.392q-1.311-1.045-2.643-2.092a3.857,3.857,0,0,1-1.415-2.815,2.774,2.774,0,0,1,.869-2.081,3,3,0,0,1,2.166-.833,4.237,4.237,0,0,1,1.475.246,3.436,3.436,0,0,0,.844.243.35.35,0,0,0,.306-.2h.273l.289,2.553h-.286a3.8,3.8,0,0,0-1.109-1.732,2.456,2.456,0,0,0-1.633-.647,1.8,1.8,0,0,0-1.9,1.9,3.243,3.243,0,0,0,1.415,2.36c.877.683,1.759,1.371,2.646,2.056a4,4,0,0,1,1.415,2.92,3.34,3.34,0,0,1-.989,2.469,3.4,3.4,0,0,1-2.488.975,5.2,5.2,0,0,1-1.453-.27c-.59-.18-.9-.273-.92-.273a.38.38,0,0,0-.342.221h-.289l-.355-3.062Z" transform="translate(-630.521 -90.278)"/>
    <path id="패스_427" data-name="패스 427" class="cls-1" d="M520.594,1284.242h-1.744l-.49,1.573a4.012,4.012,0,0,0-.169.631c0,.246.229.371.683.371h.135V1287H517.06v-.188a.79.79,0,0,0,.562-.171,2.568,2.568,0,0,0,.349-.818l1.535-4.957-.076-.219h.735l1.763,5.535a1.013,1.013,0,0,0,.279.5.788.788,0,0,0,.49.126V1287h-2.321v-.188h.218a1.749,1.749,0,0,0,.413-.031.3.3,0,0,0,.245-.31,1.734,1.734,0,0,0-.092-.409l-.566-1.824Zm-.144-.436h0l-.742-2.312-.717,2.312Z" transform="translate(-690.261 -120.081)"/>
    <path id="패스_428" data-name="패스 428" class="cls-1" d="M561.794,1282.425h-.16a2.209,2.209,0,0,0-.725-1.109,1.832,1.832,0,0,0-1.195-.417,1.989,1.989,0,0,0-1.663.8,3.3,3.3,0,0,0-.618,2.08,3.527,3.527,0,0,0,.7,2.237,2.068,2.068,0,0,0,1.677.9,2.212,2.212,0,0,0,2.054-1.481h.16a6.6,6.6,0,0,1-.539,1.459c-.057-.005-.116-.01-.179-.01a3.7,3.7,0,0,0-.7.14,4.014,4.014,0,0,1-1.027.139,2.753,2.753,0,0,1-2.114-.9,3.235,3.235,0,0,1-.83-2.285,3.423,3.423,0,0,1,.851-2.394,2.8,2.8,0,0,1,2.176-.938,3.5,3.5,0,0,1,1.188.2c.371.13.568.2.591.2.078,0,.129-.023.15-.074h.129l.075,1.455Z" transform="translate(-723.732 -120.081)"/>
    <path id="패스_429" data-name="패스 429" class="cls-1" d="M597.484,1284.242h-1.746l-.489,1.573a4.012,4.012,0,0,0-.169.631c0,.246.229.371.683.371h.135V1287h-1.948v-.188a.793.793,0,0,0,.562-.171,2.6,2.6,0,0,0,.349-.818l1.535-4.957-.076-.219h.734l1.765,5.535a1.024,1.024,0,0,0,.278.5.788.788,0,0,0,.49.126V1287h-2.322v-.188h.219a1.766,1.766,0,0,0,.414-.031.3.3,0,0,0,.244-.31,1.621,1.621,0,0,0-.093-.409l-.565-1.824Zm-.142-.436h0l-.743-2.312-.716,2.312Z" transform="translate(-755.296 -120.081)"/>
    <path id="패스_430" data-name="패스 430" class="cls-1" d="M632.416,1286.407v-4.292a1.124,1.124,0,0,0-.13-.644.628.628,0,0,0-.512-.165H631.6v-.19q.414-.028,1.19-.058.7-.029,1.417-.028a3.244,3.244,0,0,1,2.446.878,2.879,2.879,0,0,1,.767,2.1,3.454,3.454,0,0,1-.759,2.225,2.868,2.868,0,0,1-2.36,1.087h-2.7v-.188h.145a.714.714,0,0,0,.511-.156.818.818,0,0,0,.154-.574Zm.7-5.148h0v5.328a.645.645,0,0,0,.094.429.96.96,0,0,0,.6.12,3.738,3.738,0,0,0,1.283-.17,2.123,2.123,0,0,0,.839-.637,3.715,3.715,0,0,0,.02-4.308,2.674,2.674,0,0,0-2.16-.8c-.18,0-.4.014-.674.039Z" transform="translate(-787.143 -120.401)"/>
    <path id="패스_431" data-name="패스 431" class="cls-1" d="M676.423,1283.655v1.9h-.16a1.635,1.635,0,0,0-.126-.573.473.473,0,0,0-.448-.207h-1.428v2.115a.668.668,0,0,0,.1.432.454.454,0,0,0,.355.115h1.3a.765.765,0,0,0,.623-.234,2.337,2.337,0,0,0,.353-.89h.152l-.134,1.487h-4.478v-.188h.237a.842.842,0,0,0,.651-.19.977.977,0,0,0,.145-.629v-4.213a1.074,1.074,0,0,0-.137-.62.652.652,0,0,0-.54-.178H672.7v-.189h4.048l.068,1.386h-.152a1.987,1.987,0,0,0-.235-.823.443.443,0,0,0-.389-.2h-1.778v2.458h1.512a.384.384,0,0,0,.346-.167,1.317,1.317,0,0,0,.143-.59Z" transform="translate(-821.758 -120.875)"/>
    <path id="패스_432" data-name="패스 432" class="cls-1" d="M709.224,1287.88h-.195l-2.161-5.32-.222,4.493c-.022.4.2.613.675.639v.188h-1.755v-.188c.3,0,.5-.062.578-.187a2.142,2.142,0,0,0,.154-.881l.2-3.885c.008-.14.012-.245.012-.317a.6.6,0,0,0-.129-.449.612.612,0,0,0-.386-.111v-.175h1.272l2.033,5.025,2.023-5.025h1.24v.175a1.311,1.311,0,0,0-.439.08c-.089.047-.128.149-.116.309l.268,4.524a1.664,1.664,0,0,0,.161.8c.061.08.253.12.572.12v.188h-2.167v-.188c.524,0,.773-.219.751-.659l-.246-4.473h-.016l-2.11,5.32Z" transform="translate(-849.699 -120.956)"/>
    <path id="패스_433" data-name="패스 433" class="cls-1" d="M759.442,1287.611v.188h-2.049v-.188a.657.657,0,0,0,.514-.19,1.237,1.237,0,0,0,.123-.668V1282.5a.8.8,0,0,0-.161-.569.726.726,0,0,0-.476-.149v-.189h2.049v.189a.758.758,0,0,0-.56.159.979.979,0,0,0-.15.65v4.232a1,1,0,0,0,.141.618.728.728,0,0,0,.57.171Z" transform="translate(-893.535 -120.875)"/>
    <path id="패스_434" data-name="패스 434" class="cls-1" d="M776.907,1284.242h-1.746l-.488,1.573a4.035,4.035,0,0,0-.169.631c0,.246.229.371.684.371h.135V1287h-1.948v-.188a.786.786,0,0,0,.56-.171,2.556,2.556,0,0,0,.351-.818l1.535-4.957-.077-.219h.734l1.765,5.535a1.032,1.032,0,0,0,.279.5.788.788,0,0,0,.49.126V1287h-2.324v-.188h.221a1.768,1.768,0,0,0,.414-.031.3.3,0,0,0,.244-.31,1.723,1.723,0,0,0-.092-.409l-.566-1.824Zm-.143-.436h0l-.742-2.312-.717,2.312Z" transform="translate(-907.052 -120.081)"/>
    <path id="패스_435" data-name="패스 435" class="cls-1" d="M515.663,1173.317a2.431,2.431,0,1,1,2.428,2.451,2.436,2.436,0,0,1-2.428-2.451Zm3.647,0h0a1.234,1.234,0,1,0-1.219,1.417,1.333,1.333,0,0,0,1.219-1.417Zm3.344-.215h1.293v.968h-1.293v4.333h-1.17v-7.91h1.17v2.609Z" transform="translate(-689.079 -26.908)"/>
    <path id="패스_436" data-name="패스 436" class="cls-1" d="M578.183,1173a3.088,3.088,0,0,0,.264-1.029h-2.754v-.985h4.087a5.366,5.366,0,0,1-.937,3.216,6.592,6.592,0,0,1-2.957,2.327l-.765-.765a6.7,6.7,0,0,0,2.226-1.509c.088-.092.18-.206.255-.295H575.46V1173Zm3.933.132h1.293v.968h-1.293v4.3h-1.17v-7.91h1.17v2.64Z" transform="translate(-739.369 -26.908)"/>
    <path id="패스_437" data-name="패스 437" class="cls-1" d="M639.874,1174.945v.928a12.383,12.383,0,0,1-2.362.268l-1.39.009v-5.165h3.326v1.007H637.3v3.181h.295a14.547,14.547,0,0,0,2.283-.229Zm.48-1.967h0v-2.34h1.117v7.6h-1.117v-4.289h-1.681v-.968Zm1.865,5.5h0v-7.981h1.161v7.981Z" transform="translate(-790.963 -26.908)"/>
    <path id="패스_438" data-name="패스 438" class="cls-1" d="M701.258,1176H697.18v-5.055h4.078V1176Zm-1.17-.972h0v-3.11h-1.734v3.11Zm2.719,3.33h0v-7.919H704v7.919Z" transform="translate(-842.606 -26.859)"/>
    <path id="패스_439" data-name="패스 439" class="cls-1" d="M753.555,1173.317a2.431,2.431,0,1,1,2.429,2.451,2.436,2.436,0,0,1-2.429-2.451Zm3.652,0h0a1.236,1.236,0,1,0-1.223,1.417,1.34,1.34,0,0,0,1.223-1.417Zm3.339-.215h1.3v.968h-1.3v4.333h-1.17v-7.91h1.17v2.609Z" transform="translate(-890.289 -26.908)"/>
    <path id="패스_440" data-name="패스 440" class="cls-1" d="M322.75,1170.2h1.535v.951h-4.435v-.951h1.7v-1.02h1.2v1.02Zm-2.688,3.084h0a2.082,2.082,0,1,1,2.076,2.019,2.052,2.052,0,0,1-2.076-2.019Zm3.084-.009h0a1.009,1.009,0,1,0-1.008,1.06,1.072,1.072,0,0,0,1.008-1.06Zm3.308-.884h0v-3.009H327.6v7.892h-1.148v-3.819h-.73v3.59h-1.109v-7.519h1.109v2.864Z" transform="translate(-523.461 -25.799)"/>
    <path id="패스_441" data-name="패스 441" class="cls-1" d="M384.443,1172.925a3.017,3.017,0,0,0,.264-1.016h-2.723v-.981h4.043a5.347,5.347,0,0,1-.928,3.185,6.463,6.463,0,0,1-2.921,2.3l-.757-.761a6.435,6.435,0,0,0,2.2-1.487,3.5,3.5,0,0,0,.255-.291h-2.116v-.95Zm2.935.013h0v-2.5h1.179v7.831h-1.179v-4.333h-1.461v-.994Z" transform="translate(-575.537 -26.859)"/>
    <path id="패스_442" data-name="패스 442" class="cls-1" d="M438.971,1177.849v-.985h8.02v.985Zm7.224-2.728h0l-.568.823a4.593,4.593,0,0,1-1.65-.814,3.185,3.185,0,0,1-1-1.038,2.852,2.852,0,0,1-.977,1.016,4.383,4.383,0,0,1-1.707.827l-.572-.805a4.23,4.23,0,0,0,2.015-1.25,3.024,3.024,0,0,0,.585-1.834v-.554h1.267v.554a2.974,2.974,0,0,0,.7,1.945,4.346,4.346,0,0,0,1.905,1.13Z" transform="translate(-624.213 -27.753)"/>
    <path id="패스_443" data-name="패스 443" class="cls-2" d="M-281.129,1155.9a.682.682,0,0,0-.68.684.682.682,0,0,0,.68.68.683.683,0,0,0,.684-.68.683.683,0,0,0-.684-.684Z" transform="translate(-14.576 -14.567)"/>
    <path id="패스_444" data-name="패스 444" class="cls-2" d="M-285.907,1150.242a1.553,1.553,0,0,0-1.552,1.557,1.553,1.553,0,0,0,1.552,1.555,1.556,1.556,0,0,0,1.555-1.555,1.556,1.556,0,0,0-1.555-1.557Zm0,2.51h0a.955.955,0,0,1-.954-.954.958.958,0,0,1,.954-.956.958.958,0,0,1,.956.956.955.955,0,0,1-.956.954Z" transform="translate(-9.797 -9.78)"/>
    <path id="패스_445" data-name="패스 445" class="cls-2" d="M-107.98,1176.026a1.725,1.725,0,0,0-.474.775,11.48,11.48,0,0,0-.2,2.691V1195.8a10.8,10.8,0,0,0,.226,2.777,1.6,1.6,0,0,0,.447.665v-23.217Z" transform="translate(-161.031 -31.588)"/>
    <path id="패스_446" data-name="패스 446" class="cls-2" d="M-193.509,1262.1v-.039h.834a2.341,2.341,0,0,0,2.11-1,6.941,6.941,0,0,0,.431-3.144v-8.452h-10.916v8.452a10.622,10.622,0,0,0,.228,2.777,1.72,1.72,0,0,0,.726.878,2.808,2.808,0,0,0,1.577.491h.847v.039Z" transform="translate(-82.881 -93.699)"/>
    <path id="패스_447" data-name="패스 447" class="cls-2" d="M-226.955,1176.212v23.2a2,2,0,0,0,.248-.306,7.155,7.155,0,0,0,.417-3.143v-16.309a10.571,10.571,0,0,0-.226-2.784,1.613,1.613,0,0,0-.439-.653Z" transform="translate(-60.971 -31.746)"/>
    <path id="패스_448" data-name="패스 448" class="cls-2" d="M-260.946,1138.691v-.012h-34.971v.012a3.332,3.332,0,0,0-3.125,3.328,3.338,3.338,0,0,0,3.338,3.338,3.339,3.339,0,0,0,3.339-3.338,3.262,3.262,0,0,0-.49-1.729h1.1v0h26.557v0h1.234a3.227,3.227,0,0,0-.447,1.643,3.251,3.251,0,0,0,3.252,3.25,3.252,3.252,0,0,0,3.253-3.25,3.248,3.248,0,0,0-3.044-3.241Zm-34.758,5.37h0a2.045,2.045,0,0,1-2.043-2.043,2.046,2.046,0,0,1,2.043-2.046,2.048,2.048,0,0,1,2.044,2.046,2.047,2.047,0,0,1-2.044,2.043Zm34.549-.135h0a2,2,0,0,1-2-1.994,2,2,0,0,1,2-2,2,2,0,0,1,2,2,2,2,0,0,1-2,1.994Z"/>
    <path id="패스_449" data-name="패스 449" class="cls-2" d="M-56.962,1155.464a.661.661,0,0,0-.66.665.664.664,0,0,0,.66.662.667.667,0,0,0,.665-.662.664.664,0,0,0-.665-.665Z" transform="translate(-204.193 -14.197)"/>
    <path id="패스_450" data-name="패스 450" class="cls-2" d="M-61.62,1149.978a1.511,1.511,0,0,0-1.509,1.511A1.51,1.51,0,0,0-61.62,1153a1.514,1.514,0,0,0,1.513-1.509,1.515,1.515,0,0,0-1.513-1.511Zm0,2.443h0a.936.936,0,0,1-.932-.932.934.934,0,0,1,.932-.932.932.932,0,0,1,.932.932.934.934,0,0,1-.932.932Z" transform="translate(-199.536 -9.557)"/>
    <path id="패스_451" data-name="패스 451" class="cls-2" d="M-251.754,1152.836v27.536h1.112v-.039h.836a2.745,2.745,0,0,0,1.477-.376v-23.8a2.9,2.9,0,0,0-1.477-.419h-.836v-.765h10.084v.765h-.847a2.918,2.918,0,0,0-1.577.466,1.693,1.693,0,0,0-.743.986,10.82,10.82,0,0,0-.211,2.691v6.329h10.916v-6.329a10.777,10.777,0,0,0-.223-2.784,1.749,1.749,0,0,0-.733-.873,2.839,2.839,0,0,0-1.585-.486h-.834v-.765h10.086v.765h-.837a2.9,2.9,0,0,0-1.447.393v23.8a2.876,2.876,0,0,0,1.447.407h.837v.039h1.111v-27.536Zm25.429,1.028h-24.3v-.348h24.3v.348Z" transform="translate(-39.996 -11.974)"/>
  </g>
</svg>
