<svg xmlns="http://www.w3.org/2000/svg" width="148.667" height="46.87" viewBox="0 0 148.667 46.87">
  <defs>
    <style>
      .cls-1 {
        fill: #2a2a2a;
      }

      .cls-2 {
        fill: #262626;
      }

      .cls-3 {
        fill: #282828;
      }

      .cls-4 {
        fill: #252525;
      }

      .cls-5 {
        fill: #272828;
      }

      .cls-6 {
        fill: #c61418;
      }
    </style>
  </defs>
  <g id="img_etc_11" transform="translate(-2146.994 -665.22)">
    <path id="패스_565" data-name="패스 565" class="cls-1" d="M2581.779,758.128a11.868,11.868,0,0,1,.059-2.637c.7-.352,1.472-.437,1.914-1.092-.728-.1-1.229.5-1.907.6a5.059,5.059,0,0,1-4.241-.8c-.138-.113-.393-.083-.594-.12.544,1.013,1.744,1.021,2.515,1.571v2.535h-6.373a4.852,4.852,0,0,0-.073,2.125,2.529,2.529,0,0,0,1.541.2c2.972.012,5.945-.018,8.916.016a25.786,25.786,0,0,1,4.516.115v-2.509Z" transform="translate(-292.391 -60.986)"/>
    <path id="패스_566" data-name="패스 566" class="cls-2" d="M2443.371,732.989v3.235h-3.352c-.285-1.167.15-2.331-.282-3.458-.6.1-1.175-.14-1.676.17v9.877h7.431v-9.975A4.191,4.191,0,0,0,2443.371,732.989Zm-.016,7.513a15.02,15.02,0,0,1-3.255.124,4.664,4.664,0,0,1-.148-2.12h3.285A3.754,3.754,0,0,1,2443.354,740.5Z" transform="translate(-199.777 -46.361)"/>
    <path id="패스_567" data-name="패스 567" class="cls-3" d="M2378.47,754.542h-15.3a4.978,4.978,0,0,0,.1,2.221h6.493v6.42a5.581,5.581,0,0,0,2.1-.007v-6.384h6.789c.038-.527.084-.835.076-1.143C2378.717,755.3,2378.827,754.916,2378.47,754.542Z" transform="translate(-148.322 -61.307)"/>
    <path id="패스_568" data-name="패스 568" class="cls-2" d="M2513.862,733.349h-7.242a2.741,2.741,0,0,0,.146,2.178h4.383a13.426,13.426,0,0,1-5.492,6.091,4.219,4.219,0,0,0,1.395,1.688,13.716,13.716,0,0,0,3.906-3.2l3.294,3.122c.423-.548,1.023-.9,1.281-1.619l-3.174-3.444C2513,736.576,2513.993,735.139,2513.862,733.349Z" transform="translate(-246.172 -46.761)"/>
    <path id="패스_569" data-name="패스 569" class="cls-2" d="M2583.662,738.011a7.013,7.013,0,0,0,5.65.285.539.539,0,0,1,.541.216,4.252,4.252,0,0,0-1.569-7.41,6.07,6.07,0,0,0-2.166-.146,4.051,4.051,0,0,0-3.859,2.664,3.921,3.921,0,0,0,.851,4.567C2583.267,738.04,2583.475,737.916,2583.662,738.011Zm3.1-4.885c1.518.056,2.442.936,2.386,2.274a2.548,2.548,0,0,1-5.044-.242A2.32,2.32,0,0,1,2586.763,733.125Z" transform="translate(-298.492 -45.099)"/>
    <path id="패스_570" data-name="패스 570" class="cls-2" d="M2590.63,754.539c.677-.1,1.179-.7,1.907-.6a.539.539,0,0,0-.541-.215,7.013,7.013,0,0,1-5.65-.285c-.187-.1-.395.029-.552.176.2.037.456.007.594.12A5.06,5.06,0,0,0,2590.63,754.539Z" transform="translate(-301.176 -60.528)"/>
    <path id="패스_571" data-name="패스 571" class="cls-2" d="M2555.978,725.585c-1.392,5.876-2.936,11.756-4.268,17.86a6.383,6.383,0,0,0,2.1-.2l4.285-17.664A3.188,3.188,0,0,0,2555.978,725.585Z" transform="translate(-277.782 -41.306)"/>
    <path id="패스_572" data-name="패스 572" class="cls-2" d="M2418.071,725.62q-2.121,8.769-4.267,17.638a3.653,3.653,0,0,0,2.11.023l4.33-17.878C2419.335,725.46,2418.721,725.262,2418.071,725.62Z" transform="translate(-183.128 -41.304)"/>
    <path id="패스_573" data-name="패스 573" class="cls-2" d="M2486.983,725.574l-4.284,17.767a3.879,3.879,0,0,0,2.13-.11q2.141-8.822,4.282-17.646A3.258,3.258,0,0,0,2486.983,725.574Z" transform="translate(-230.415 -41.306)"/>
    <path id="패스_574" data-name="패스 574" class="cls-4" d="M2472.011,725.573V742.8a3.066,3.066,0,0,0,1.772.017V725.431A5.04,5.04,0,0,0,2472.011,725.573Z" transform="translate(-223.079 -41.32)"/>
    <path id="패스_575" data-name="패스 575" class="cls-4" d="M2542.07,725.556V742.8a5.128,5.128,0,0,0,1.835.057V725.509A2.978,2.978,0,0,0,2542.07,725.556Z" transform="translate(-271.165 -41.297)"/>
    <path id="패스_576" data-name="패스 576" class="cls-5" d="M2382.5,731.849h-6.855V727.2a5.567,5.567,0,0,0-1.958.14v6.708h8.813Z" transform="translate(-155.591 -42.528)"/>
    <g id="그룹_242" data-name="그룹 242" transform="translate(2146.994 665.22)">
      <path id="패스_577" data-name="패스 577" class="cls-6" d="M2261.963,755.093a30.19,30.19,0,0,0-5.95-11.677,18,18,0,0,0-7.7-5.545A5.37,5.37,0,0,0,2245.4,737c.607.866,1.617,1.116,2.463,1.619.59.564,1.478.737,1.937,1.473l.155.079a1.318,1.318,0,0,1,.777.826v.021a2.242,2.242,0,0,1,.422.417,11.573,11.573,0,0,1,1.008,1.392,13.733,13.733,0,0,1,3.2,6.023,11.259,11.259,0,0,1-3.2.575,24.869,24.869,0,0,0-9.075,2.253c-2.323,1.077-4.569,2.319-6.894,3.391-3.578,1.651-7.245,2.99-11.292,2.851a3.343,3.343,0,0,1-2.5-1.06,30.534,30.534,0,0,0-2.407-2.328c-.269-.155-.537-.314-.8-.48-.173-.144-.348-.285-.53-.416l-.032,0a1.569,1.569,0,0,1-.582-.362c-.04-.018-.077-.04-.118-.056a1.356,1.356,0,0,1-.332-.259,1.669,1.669,0,0,1-.156-.188,2.351,2.351,0,0,1-.615-.637c-.642-.041-1.066-.762-1.915-.611,2.387,2.874,4.821,5.606,5.25,9.483a21.372,21.372,0,0,0,2.993.35,24.976,24.976,0,0,0,10.75-2.328,51.9,51.9,0,0,1,16.7-4.945,17.9,17.9,0,0,1,11.281,2.025A1.29,1.29,0,0,0,2261.963,755.093Z" transform="translate(-2193.605 -714.487)"/>
      <path id="패스_578" data-name="패스 578" class="cls-6" d="M2193.409,696.1a20.012,20.012,0,0,1,4.742-.284,3.241,3.241,0,0,1,2.99-.03c.328-.956,1.105-.52,1.73-.557l.548-.071a2.718,2.718,0,0,1,1.964-.25c.656.068,1.185-.514,1.857-.361a7.058,7.058,0,0,1,2.945-.532,45.737,45.737,0,0,0,2.233,4.968c.194-3.1.041-6.192.458-9.624a9.414,9.414,0,0,1-3.89,2.116,56.724,56.724,0,0,1-16.466,1.882,24.37,24.37,0,0,1-3.269-.165,23.965,23.965,0,0,1-6.908-2.043,3.21,3.21,0,0,0-.112,1.5c.267,3.782.333,7.588.941,11.334a33.349,33.349,0,0,0,1.863,7.81.963.963,0,0,0,.6-.441,2.4,2.4,0,0,0-.014-.551c0-.822,0-1.645,0-2.468-.016-.611-.006-1.219.016-1.826l-.071-4.428a44.487,44.487,0,0,0,.373-6.077C2188.517,696.211,2190.964,696.068,2193.409,696.1Z" transform="translate(-2171.154 -681.792)"/>
      <path id="패스_579" data-name="패스 579" class="cls-6" d="M2209.3,722.749a29.269,29.269,0,0,1,8.426-1.578,83.373,83.373,0,0,0,9.673-.619c.688-.108,1.494-.069,1.851-.9a1,1,0,0,0,.251-.074c-.429-1.6-1.884-1.771-3.121-2.139a27.807,27.807,0,0,0-6.88-.746,36.361,36.361,0,0,0-8.981,1.088,1.273,1.273,0,0,1,.68-1.754,9.568,9.568,0,0,1,6.063-.947,5.379,5.379,0,0,1,2.225,1.377,4.116,4.116,0,0,0-.311-1.89,3.371,3.371,0,0,0-2.594-1.524,13.052,13.052,0,0,0-5.789.91c-1.648.675-1.872,1.243-1.32,2.894.11.33.428.609.257,1.115l-.85.078h0l-.3.1a1.153,1.153,0,0,0,.164.079q.55-.143,1.1-.27c-.156.241-.463.358-.989.312a1.133,1.133,0,0,1-.116-.042q-1.7.44-3.344,1.04c-.364.136-.725.276-1.083.425-.932.388-1.842.832-2.749,1.28q-.813.432-1.6.92c-.719.446-1.424.926-2.111,1.447a4.353,4.353,0,0,0-1.055,1.229,7.179,7.179,0,0,0-1.806,3.8q.015.306.029.613l-.009,1.929a5.744,5.744,0,0,0,1.634,4.249,2.1,2.1,0,0,0,2.438.584,1.976,1.976,0,0,0,1.236-1.949c-2.841-.083-4-1.657-3.307-4.4.012-.05.053-.092.065-.142a10.478,10.478,0,0,1,5.218-6.538,25.032,25.032,0,0,1,6.209-2.556,49.772,49.772,0,0,1,13.421-2.04,3.285,3.285,0,0,1,2.544.67,1.068,1.068,0,0,1-1.137.518,59.865,59.865,0,0,0-10.554.946c-2.923.488-5.829,1.078-8.313,2.831a8.09,8.09,0,0,0-3.851,6.125.943.943,0,0,0,.206.306,1.272,1.272,0,0,0-.055.138.835.835,0,0,0,.255-.008C2202.7,726.043,2205.686,723.995,2209.3,722.749Z" transform="translate(-2179.941 -698.026)"/>
      <path id="패스_580" data-name="패스 580" class="cls-6" d="M2154.4,665.551c.8,4.13,2.273,5.579,4.925,7.322a1.994,1.994,0,0,1,1.269.579c.808-.016,1.547.679,2.4.257C2162.744,669.563,2157.4,665.213,2154.4,665.551Z" transform="translate(-2152.08 -665.435)"/>
      <path id="패스_581" data-name="패스 581" class="cls-6" d="M2187.763,665.22c-3.312.507-4.868,3.385-4.447,8.339C2185.912,673.458,2188.565,668.94,2187.763,665.22Z" transform="translate(-2171.878 -665.22)"/>
      <path id="패스_582" data-name="패스 582" class="cls-6" d="M2155.458,689.807a2.991,2.991,0,0,1-1.24-.546,10.313,10.313,0,0,0-7.223.227c2.5,3.158,7.021,3.85,9.947,1.647C2156.625,690.493,2155.884,690.326,2155.458,689.807Z" transform="translate(-2146.994 -681.349)"/>
      <path id="패스_583" data-name="패스 583" class="cls-6" d="M2205.825,721.134a18.387,18.387,0,0,1,5.112-1.283,6.565,6.565,0,0,1,2.129.514,2.368,2.368,0,0,0,.409.064c-.1-1.356-1.171-1.774-2.2-2.11a9.822,9.822,0,0,0-6.819.634,3.027,3.027,0,0,0-1.171,4.6,10.34,10.34,0,0,0,.8.952c.32.019.65.093.971.1a1.261,1.261,0,0,0,1.083-.463c-.594-.493-1.324-.876-1.312-2.146A1.65,1.65,0,0,1,2205.825,721.134Z" transform="translate(-2185.226 -701.411)"/>
    </g>
  </g>
</svg>
