<svg xmlns="http://www.w3.org/2000/svg" width="96" height="45.531" viewBox="0 0 96 45.531">
  <defs>
    <style>
      .cls-1 {
        fill: #94d50d;
      }
    </style>
  </defs>
  <g id="img_etc_12" transform="translate(-2035.949 -1180.099)">
    <path id="패스_584" data-name="패스 584" class="cls-1" d="M2359.013,1282.849c-1.531,0-3.063.029-4.594,0-.553-.011-.737.156-.721.715.035,1.3-.013,2.607.022,3.91.016.564-.179.736-.728.72-1.172-.033-2.346-.031-3.519,0-.518.014-.674-.171-.663-.676.028-1.3-.023-2.608.022-3.91.021-.618-.191-.78-.781-.761-1.27.04-2.542-.007-3.812.022-.521.012-.765-.1-.744-.691.042-1.172.039-2.347,0-3.518-.019-.58.213-.712.743-.7,1.27.031,2.542-.016,3.812.022.585.018.8-.143.782-.759-.044-1.3.007-2.607-.025-3.91-.012-.512.15-.681.665-.667q1.758.049,3.519,0c.548-.016.741.149.726.714-.036,1.3.016,2.607-.021,3.909-.016.562.171.725.72.712,1.531-.036,3.063-.02,4.594-.024Z" transform="translate(-227.064 -68.329)"/>
    <path id="패스_585" data-name="패스 585" class="cls-1" d="M2042.731,1215.55a6.928,6.928,0,0,0-1.753,3.031c-.643,2.895.521,5.631,3.4,7.48,4.526,2.9,11.3,2.6,15.337-1.243,1.751-1.666,2.768-3.675,2.147-6.141a6.8,6.8,0,0,0-5.262-4.981,29.278,29.278,0,0,0-6.975-.769,18.027,18.027,0,0,1-8.915-2.149c-2.141-1.262-3.078-2.981-2.653-5.068.41-2.013,1.921-3.011,3.671-3.725,2.982-1.216,6.165-1.589,9.3-2.147,3.971-.708,7.115-2.552,9.1-6.186,1.028-1.885,2.036-3.787,3.248-5.566a4.8,4.8,0,0,1,2.406-2.052,2.866,2.866,0,0,1,3.422,1.335,1.354,1.354,0,0,1-.407,1.9c-.671.432-1.4.176-1.889-.621a1.948,1.948,0,0,1-.134-.26c-.268-.633-.6-1.234-1.425-1.014-.86.23-.98.95-.955,1.714a7.172,7.172,0,0,0,.377,1.71,10.143,10.143,0,0,1-.8,8.3,9.069,9.069,0,0,1-6.091,4.04,29.781,29.781,0,0,1-10.581.494,9.757,9.757,0,0,0-4.724.4,2.475,2.475,0,0,0-1.826,1.967,2.707,2.707,0,0,0,1.238,2.778,9.9,9.9,0,0,0,5.218,1.376,61.778,61.778,0,0,0,7.813-.254,24,24,0,0,1,7.844.668c6.064,1.633,6.808,8.687,4.621,12.2a13.515,13.515,0,0,1-6.969,5.409,25.722,25.722,0,0,1-18.516.02,8.982,8.982,0,0,1-5.346-4.306c-1.391-2.79-.671-5.2,1.962-6.911A7.852,7.852,0,0,1,2042.731,1215.55Z" transform="translate(0 -4.278)"/>
    <path id="패스_586" data-name="패스 586" class="cls-1" d="M2251.583,1244.123a10.985,10.985,0,0,1,4.473-3.589,7.456,7.456,0,0,1,8.256,1.365c1.581,1.65,1.858,3.766,1.883,5.9.051,4.4.014,8.8.023,13.2,0,1-.17,2.1,1.242,2.39.182.037.2.239.157.4-.052.214-.247.183-.4.185-.619.009-1.239,0-1.858,0-1.891,0-3.781.008-5.672-.01-.285,0-.73.2-.814-.272s.386-.326.622-.425c.637-.267.683-.829.689-1.387.019-1.662.014-3.324.015-4.987,0-2.542.011-5.085,0-7.627a13.131,13.131,0,0,0-.141-2.041,3.262,3.262,0,0,0-2.323-2.975,4.028,4.028,0,0,0-4.055,1.082,6.277,6.277,0,0,0-1.88,4.386c-.052,3.813-.025,7.627-.01,11.44,0,.852.068,1.715.972,2.178a.314.314,0,0,1,.163.4c-.08.317-.357.227-.564.228-1.792.008-3.585,0-5.378.005-.684,0-1.369.007-2.053,0-.21,0-.49.073-.548-.252s.166-.374.414-.4c.693-.061.919-.539.983-1.136a11.125,11.125,0,0,0,.064-1.169c0-5.736.012-11.473-.006-17.209,0-1.083.174-2.307-1.338-2.667-.178-.043-.171-.253-.167-.418.007-.289.224-.275.416-.275,2.119,0,4.238.008,6.356-.01.5,0,.487.291.485.635C2251.579,1241.994,2251.583,1242.9,2251.583,1244.123Z" transform="translate(-153.847 -44.13)"/>
    <path id="패스_587" data-name="패스 587" class="cls-1" d="M2177.516,1244.832a18.323,18.323,0,0,1,2.868-3.342,5.116,5.116,0,0,1,7.386.619,3.12,3.12,0,0,1,.616,2.755,2.406,2.406,0,0,1-4.125,1.354c-2.1-1.7-4.3-1.229-5.545,1.185a9.9,9.9,0,0,0-.89,4.558c-.032,3.159-.017,6.32-.006,9.479.006,1.67.064,1.734,1.678,2.151.206.053.4.084.368.34-.045.393-.372.295-.608.3-1.857.009-3.714,0-5.57,0-.945,0-1.889,0-2.834,0-.211,0-.487.065-.528-.271s.187-.35.43-.375c1.03-.105,1.093-.887,1.1-1.655.021-1.889.008-3.778.008-5.668q0-6.4,0-12.8c0-.969-.044-1.94-1.285-2.2a.264.264,0,0,1-.21-.366c.073-.262.312-.183.487-.184,1.335-.008,2.672-.033,4.006.005.863.025,2.012-.4,2.508.2.423.51.131,1.615.147,2.458C2177.524,1243.857,2177.516,1244.344,2177.516,1244.832Z" transform="translate(-99.207 -44.377)"/>
    <path id="패스_588" data-name="패스 588" class="cls-1" d="M2070.382,1181.384a34.541,34.541,0,0,0-6.49.607,14.174,14.174,0,0,0-11.848,13.412c-.013.193-.025.386-.038.583-.381.055-.428-.273-.553-.465-2.809-4.314-1.8-9.273,2.493-12.492a15.727,15.727,0,0,1,11.278-2.84A16.626,16.626,0,0,1,2070.382,1181.384Z" transform="translate(-10.282)"/>
    <path id="패스_589" data-name="패스 589" class="cls-1" d="M2082.758,1192.187a42.592,42.592,0,0,0-16.522,11.123A26.587,26.587,0,0,1,2082.758,1192.187Z" transform="translate(-22.36 -8.925)"/>
  </g>
</svg>
