<svg xmlns="http://www.w3.org/2000/svg" width="162.513" height="27" viewBox="0 0 162.513 27">
  <defs>
    <style>
      .cls-1 {
        fill: #c70503;
      }
    </style>
  </defs>
  <g id="img_etc_09" transform="translate(-871.125 -1119.622)">
    <path id="패스_551" data-name="패스 551" class="cls-1" d="M882.692,1130.011a15.576,15.576,0,0,1-9.846,5.406l-1.721-1.993q6.614-1.449,8.894-4.53a11.57,11.57,0,0,0,2.492-4.953h-9.876V1121.4h13.5A13.885,13.885,0,0,1,882.692,1130.011Zm9.136,15.07q-2.582,1.54-7.414,1.541a14.551,14.551,0,0,1-7.369-1.541,4.277,4.277,0,0,1,0-7.867,14.441,14.441,0,0,1,7.369-1.555q4.832,0,7.414,1.555a4.287,4.287,0,0,1,0,7.867Zm-2.522-6.131a14.862,14.862,0,0,0-9.71,0q-1.919.815-1.918,2.235,0,1.389,1.918,2.22a14.558,14.558,0,0,0,9.694,0q1.917-.831,1.918-2.22Q891.209,1139.767,889.306,1138.951Zm4.5-9.967v6.312h-3.02v-15.675h3.02v6.826h3.685v2.537Z" transform="translate(0)"/>
    <path id="패스_552" data-name="패스 552" class="cls-1" d="M993.264,1138.558a6.507,6.507,0,0,1-10.525.015,14,14,0,0,1,0-14.3,6.54,6.54,0,0,1,10.525,0,14.069,14.069,0,0,1,0,14.286ZM991.15,1126.4a3.376,3.376,0,0,0-3.126-2.129,3.445,3.445,0,0,0-3.141,2.145,11.771,11.771,0,0,0,0,10.012,3.444,3.444,0,0,0,3.141,2.129,3.375,3.375,0,0,0,3.126-2.129,12.253,12.253,0,0,0,0-10.027Zm11.7-6.78v10.963h3.987v2.688h-3.987V1146.2h-3.02v-26.577Z" transform="translate(-81.624)"/>
    <path id="패스_553" data-name="패스 553" class="cls-1" d="M1103.57,1140.914a24.8,24.8,0,0,1-3.866-3.277,10.228,10.228,0,0,1-2.718-4.183,12.187,12.187,0,0,1-2.914,4.8,23.662,23.662,0,0,1-4.123,3.473l-2.476-2.054q4.59-2.6,6.221-5.965a15.188,15.188,0,0,0,1.631-6.659v-1.993h-6.01v-2.628h15.4v2.628h-6.04v1.993a13.774,13.774,0,0,0,1.57,6.3,12.775,12.775,0,0,0,5.406,5.24Zm5.345,5.285v-26.577h3.02V1146.2Z" transform="translate(-161.049)"/>
    <path id="패스_554" data-name="패스 554" d="M1212.51,1140.1q-1.42.122-3.927.181l-5.315.06v-17.456h9.483v2.6h-6.493v12.171l3.443-.03q1.419-.03,2.793-.136t2.1-.226v2.6Q1213.929,1139.978,1212.51,1140.1Zm10,6.1v-13.8h-3.413v12.594h-2.929v-24.765h2.929v9.423h3.413v-10.027h2.929V1146.2Z" transform="translate(-247.247)"/>
    <path id="패스_555" data-name="패스 555" d="M1302.875,1137.541V1135.1h11.6v-2.3h-8.154v-10.933h19.752v2.416h-16.7v1.873h16.641v2.356h-16.641v1.842h16.943v2.446h-8.486v2.3h11.628v2.446Zm21.186,2.7q2.793,1.344,2.794,3.4,0,2.023-2.794,3.337a19.033,19.033,0,0,1-7.9,1.314,18.486,18.486,0,0,1-7.883-1.359q-2.809-1.358-2.809-3.382,0-2.053,2.779-3.352a19.209,19.209,0,0,1,7.913-1.3A18.66,18.66,0,0,1,1324.061,1140.245Zm-2.658,1.616a19.68,19.68,0,0,0-5.21-.574,21.006,21.006,0,0,0-5.27.544q-2.039.544-2.038,1.691,0,1.087,2.023,1.767a16.859,16.859,0,0,0,5.255.679,18.02,18.02,0,0,0,5.24-.634q2.039-.635,2.039-1.752Q1323.442,1142.434,1321.4,1141.86Z" transform="translate(-321.394 -1.671)"/>
    <path id="패스_556" data-name="패스 556" d="M1431.27,1134.8q-2.718.2-5.285.257l-6.252.03v-8.154h9.725v-3.383h-9.725v-2.506h12.745v8.305h-9.725v3.262l4.349-.03q1.964-.061,4.47-.242t3.9-.362v2.416Q1433.988,1134.6,1431.27,1134.8Zm8.169,10.4q-2.582,1.419-7.535,1.42a15.99,15.99,0,0,1-7.52-1.42q-2.6-1.42-2.6-3.654t2.6-3.654a15.992,15.992,0,0,1,7.52-1.419q4.953,0,7.535,1.419t2.582,3.654Q1442.022,1143.783,1439.439,1145.2Zm-12.5-1.721a14.231,14.231,0,0,0,5,.725,14.734,14.734,0,0,0,4.922-.68q1.873-.68,1.873-1.948,0-1.328-1.873-2.024a14.45,14.45,0,0,0-4.922-.694,15.431,15.431,0,0,0-5,.664q-1.888.665-1.888,1.963Q1425.048,1142.757,1426.936,1143.481Zm11.884-7.49v-5.527h-4.651v-2.416h4.651v-2.477h-4.651v-2.386h4.651v-3.564h3.02v16.369Z" transform="translate(-408.383)"/>
  </g>
</svg>
