<svg xmlns="http://www.w3.org/2000/svg" width="121.333" height="49.838" viewBox="0 0 121.333 49.838">
  <defs>
    <style>
      .cls-1 {
        fill: #5c5449;
      }

      .cls-2 {
        fill: #f4af23;
      }
    </style>
  </defs>
  <g id="img_etc_08" transform="translate(-1174.84 -828.683)">
    <circle id="타원_12" data-name="타원 12" class="cls-1" cx="2.269" cy="2.269" r="2.269" transform="translate(1275.262 842.421)"/>
    <g id="그룹_233" data-name="그룹 233" transform="translate(1174.84 828.683)">
      <circle id="타원_13" data-name="타원 13" class="cls-1" cx="2.269" cy="2.269" r="2.269" transform="translate(75.802 12.122)"/>
      <circle id="타원_14" data-name="타원 14" class="cls-1" cx="2.269" cy="2.269" r="2.269" transform="translate(49.905 16.951)"/>
      <path id="패스_545" data-name="패스 545" class="cls-2" d="M1245.785,921.467c3.655.124,7.212-.193,10.76.225a6.592,6.592,0,0,1,4.288,2.2,4.929,4.929,0,0,1,1.089,3.786,5.844,5.844,0,0,1-2.231,4.2,12.236,12.236,0,0,1,2.808,3.245,4.036,4.036,0,0,1,.642,3.315,6.861,6.861,0,0,1-4.843,5.214,11.381,11.381,0,0,1-3.739.518c-2.372-.052-4.745-.023-7.118-.028h-1.368c-.169-.155-.2-.182-.23-.212s-.071-.06-.08-.1a2.157,2.157,0,0,1-.1-.493q0-10.614.012-21.229A4.818,4.818,0,0,1,1245.785,921.467Zm4.537,19.271c2.014-.074,3.911.224,5.8-.182a3.034,3.034,0,0,0,2.493-3.3,3.2,3.2,0,0,0-2.713-3.181c-1.83-.168-3.687-.04-5.576-.04Zm.054-15.881v5.7a27.247,27.247,0,0,0,5.257-.149,2.285,2.285,0,0,0,1.939-2.129,7.318,7.318,0,0,0,0-1.011,2.286,2.286,0,0,0-1.751-2.146C1254.037,924.638,1252.232,924.971,1250.375,924.857Z" transform="translate(-1225.162 -894.608)"/>
      <path id="패스_546" data-name="패스 546" class="cls-2" d="M1193.478,944.179c-1.554,0-3.108.007-4.662-.005a.9.9,0,0,1-.761-.4,27.464,27.464,0,0,0-2.806-3.7c-1.377-1.713-2.813-3.378-4.22-5.059-.181-.048-.148.126-.219.18a3.65,3.65,0,0,0-1.476,3.511c.13,1.429.039,2.879.026,4.32-.01,1.1-.085,1.168-1.14,1.176-1.1.009-2.194,0-3.379,0V921.541c1.3,0,2.56-.006,3.819,0,.5,0,.632.336.638.767.019,1.313.05,2.626.06,3.94.011,1.42,0,2.841,0,4.4,1.317-1.173,2.3-2.427,3.39-3.576,1.623-1.706,3.321-3.341,4.845-5.14a.911.911,0,0,1,.747-.386c1.549.008,3.1,0,4.917,0-1.536,2.023-3.326,3.46-4.808,5.172-1.509,1.743-2.95,3.548-4.65,5.16,3.381,3.863,6.241,8.189,9.85,11.914Z" transform="translate(-1174.84 -894.659)"/>
      <path id="패스_547" data-name="패스 547" class="cls-2" d="M1269.3,848.316a8.986,8.986,0,0,1,2.592-5,14.03,14.03,0,0,1,6.185-4c1.294-.389,2.615-.687,3.926-1.017,3.643-.918,7.4-1.237,11.069-2.01a30.749,30.749,0,0,0,6.089-2.116,59.438,59.438,0,0,1,10.083-3.939,57.963,57.963,0,0,1,8.36-1.356,65.5,65.5,0,0,1,10.9.089,52.619,52.619,0,0,1,12.862,2.606,34.235,34.235,0,0,1,6.3,3.152,18.951,18.951,0,0,0,6.788,2.309c1.127.175,2.271.283,3.38.54,2.195.511,4.716,2.371,4.912,4.85.106,1.335.351,2.678.54,4.016a.253.253,0,0,1-.193.31,1.67,1.67,0,0,1-.41-.97,17.812,17.812,0,0,0-1.256-4.19,5.13,5.13,0,0,0-3.772-2.892,78.647,78.647,0,0,1-8.011-1.847,18.782,18.782,0,0,1-3.979-1.9,31.644,31.644,0,0,0-6.308-2.86,62.345,62.345,0,0,0-17.762-2.437,54,54,0,0,0-12.883,1.855,42.758,42.758,0,0,0-7.254,2.889,34.564,34.564,0,0,1-10.7,3.347,73.24,73.24,0,0,0-11.636,2.4,14.978,14.978,0,0,0-6.061,3.5,11.251,11.251,0,0,0-3.189,4.145A.742.742,0,0,1,1269.3,848.316Z" transform="translate(-1241.954 -828.683)"/>
    </g>
    <g id="그룹_234" data-name="그룹 234" transform="translate(1216.916 854.675)">
      <path id="패스_548" data-name="패스 548" class="cls-1" d="M1326.635,924.567h-4.8v-3.2h4.8v-2.893h4.116v2.893h4.8v3.2h-4.8v.259q0,6.768,6.5,10.978l-2.725,2.325a19.33,19.33,0,0,1-5.819-5.889,19.106,19.106,0,0,1-5.791,5.889l-2.725-2.3q6.444-4.21,6.444-11Zm18.431,5.5h-3.358v12.248h-3.616V918.471h3.616v8.343h3.358Z" transform="translate(-1320.191 -918.471)"/>
    </g>
    <g id="그룹_235" data-name="그룹 235" transform="translate(1267.705 852.054)">
      <path id="패스_549" data-name="패스 549" class="cls-1" d="M1502.087,915.515h-4.8v-3.2h4.8v-2.893h4.116v2.893h4.8v3.2h-4.8v.258q0,6.768,6.5,10.978l-2.725,2.325a19.331,19.331,0,0,1-5.82-5.89,19.1,19.1,0,0,1-5.791,5.89l-2.725-2.3q6.444-4.21,6.444-11Zm18.431,5.5h-3.358v12.248h-3.616V909.419h3.616v8.343h3.358Z" transform="translate(-1495.643 -909.419)"/>
    </g>
    <g id="그룹_236" data-name="그룹 236" transform="translate(1242.092 850.485)">
      <path id="패스_550" data-name="패스 550" class="cls-1" d="M1413.605,910.1h-4.8v-3.2h4.8V904h4.116v2.893h4.8v3.2h-4.8v.258q0,6.768,6.5,10.978l-2.725,2.325a19.327,19.327,0,0,1-5.82-5.889,19.108,19.108,0,0,1-5.791,5.889l-2.725-2.3q6.444-4.21,6.444-11Zm18.432,5.5h-3.358v12.248h-3.616V904h3.616v8.343h3.358Z" transform="translate(-1407.161 -904)"/>
    </g>
  </g>
</svg>
