<svg xmlns="http://www.w3.org/2000/svg" width="183.328" height="27.753" viewBox="0 0 183.328 27.753">
  <defs>
    <style>
      .cls-1 {
        fill: #058aff;
      }
    </style>
  </defs>
  <g id="img_etc_10" transform="translate(-1947.349 -969.244)">
    <path id="패스_557" data-name="패스 557" class="cls-1" d="M1960.848,999.163l-13.5-13.2,13.331-13.424,1.572,1.561-11.758,11.84,10.361,10.132,10.261-9.957-5.521-5.521,1.566-1.566,7.111,7.111Z" transform="translate(0 -2.461)"/>
    <path id="패스_558" data-name="패스 558" class="cls-1" d="M2006.009,998.942l-1.555-1.577,12.016-11.852-10.452-10.528-10.379,10.38,5.944,6.235-1.6,1.528-7.436-7.8,13.48-13.481,13.583,13.683Z" transform="translate(-33.767 -1.945)"/>
    <g id="그룹_239" data-name="그룹 239" transform="translate(1990.009 969.244)">
      <path id="패스_559" data-name="패스 559" class="cls-1" d="M2122.952,982.781a7.636,7.636,0,0,1-2.819-.5,6.337,6.337,0,0,1-3.578-3.434,6.35,6.35,0,0,1,1.4-7.041,6.7,6.7,0,0,1,2.175-1.388,7.451,7.451,0,0,1,2.819-.515,7.645,7.645,0,0,1,2.862.515,6.665,6.665,0,0,1,2.19,1.388,6.044,6.044,0,0,1,1.388,2.047,6.651,6.651,0,0,1,0,4.994,6.228,6.228,0,0,1-1.388,2.046,6.36,6.36,0,0,1-2.19,1.388A7.834,7.834,0,0,1,2122.952,982.781Zm13.995,14.052h-15.454a4.178,4.178,0,0,1-1.016-.1,1.288,1.288,0,0,1-.6-.315,1.178,1.178,0,0,1-.3-.573,3.805,3.805,0,0,1-.086-.873v-3.864a4.5,4.5,0,0,1,.071-.887,1.075,1.075,0,0,1,.286-.558,1.191,1.191,0,0,1,.6-.3,4.838,4.838,0,0,1,1.016-.086h11.162q.258,0,.258-.315v-.8q0-.344-.286-.344h-12.564a.733.733,0,0,1-.458-.114.569.569,0,0,1-.143-.458v-1.975q0-.543.6-.544h14.71a2.307,2.307,0,0,1,1.66.415,2.122,2.122,0,0,1,.372,1.417v3.835a4.955,4.955,0,0,1-.072.93,1.065,1.065,0,0,1-.272.558,1.107,1.107,0,0,1-.6.272,6.131,6.131,0,0,1-1.03.071h-11.076c-.21,0-.315.1-.315.286v.8a.527.527,0,0,0,.086.3.289.289,0,0,0,.258.129h13.165a.928.928,0,0,1,.458.086q.142.086.143.458v1.975A.506.506,0,0,1,2136.947,996.833Zm-13.995-23.7a3.278,3.278,0,0,0-1.331.257,2.951,2.951,0,0,0-.987.687,3.145,3.145,0,0,0-.63,1.016,3.386,3.386,0,0,0-.229,1.245,3.179,3.179,0,0,0,.858,2.261,3.024,3.024,0,0,0,2.318.916,3.109,3.109,0,0,0,2.361-.916,3.152,3.152,0,0,0,.873-2.261,3.218,3.218,0,0,0-.873-2.261A3.06,3.06,0,0,0,2122.952,973.136Zm17.343,4.98h-3.549v4.665a.672.672,0,0,1-.1.429.553.553,0,0,1-.415.115h-2.891a.669.669,0,0,1-.443-.115.562.562,0,0,1-.129-.429V969.788a.563.563,0,0,1,.129-.43.671.671,0,0,1,.443-.114h2.891a.555.555,0,0,1,.415.114.674.674,0,0,1,.1.43v5.065h3.549a.884.884,0,0,1,.4.086q.171.086.172.429v2.2a.5.5,0,0,1-.157.429A.689.689,0,0,1,2140.3,978.116Z" transform="translate(-2116.055 -969.244)"/>
      <path id="패스_560" data-name="패스 560" class="cls-1" d="M2242.251,983.487H2217.7q-.4,0-.487-.143a.923.923,0,0,1-.086-.458V980.94a.732.732,0,0,1,.115-.458.57.57,0,0,1,.458-.143h24.555a.694.694,0,0,1,.429.129.557.557,0,0,1,.172.472v1.946A.531.531,0,0,1,2242.251,983.487Zm-13.308-5.151a15.168,15.168,0,0,1-1.6.243q-.944.1-1.917.143t-1.86.057q-.887.015-1.488-.014a2.5,2.5,0,0,1-1.531-.515,1.87,1.87,0,0,1-.529-1.488v-4.808a1.961,1.961,0,0,1,.458-1.545,2.724,2.724,0,0,1,1.66-.372h6.354q.572,0,.572.544V972.5a.563.563,0,0,1-.129.429.67.67,0,0,1-.444.114h-4.207c-.172,0-.282.034-.329.1a.58.58,0,0,0-.072.329v1.746a.656.656,0,0,0,.072.344q.071.115.387.143a8.537,8.537,0,0,0,.887.014q.515-.014,1.088-.057t1.13-.115q.558-.071,1.045-.157.515-.114.572.258l.372,2.089a.383.383,0,0,1-.1.387A.815.815,0,0,1,2228.943,978.336Zm10.074,18.832h-16a4.834,4.834,0,0,1-1.016-.086,1.107,1.107,0,0,1-.587-.3,1.149,1.149,0,0,1-.272-.573,4.546,4.546,0,0,1-.071-.873v-3.892a4.5,4.5,0,0,1,.071-.887,1.049,1.049,0,0,1,.272-.544,1.163,1.163,0,0,1,.572-.286,4.665,4.665,0,0,1,1-.086H2234.7q.258,0,.258-.315v-.772q0-.344-.286-.344h-13.079a.668.668,0,0,1-.444-.115.611.611,0,0,1-.128-.458v-1.946q0-.543.572-.544h15.283a5.06,5.06,0,0,1,1.03.086,1.118,1.118,0,0,1,.6.3,1.138,1.138,0,0,1,.272.558,4.316,4.316,0,0,1,.072.859v3.778a4.907,4.907,0,0,1-.072.93,1.058,1.058,0,0,1-.272.558,1.1,1.1,0,0,1-.6.272,6.018,6.018,0,0,1-1.03.072H2225.28a.253.253,0,0,0-.286.286v.945a.278.278,0,0,0,.315.315h13.68a.925.925,0,0,1,.458.086q.143.086.143.458v1.946A.506.506,0,0,1,2239.017,997.167Zm.372-18.431h-7.012a2.273,2.273,0,0,1-1.746-.544,2.426,2.426,0,0,1-.486-1.66v-4.579a1.924,1.924,0,0,1,.472-1.545,2.73,2.73,0,0,1,1.646-.372h6.983q.572,0,.573.544V972.5a.562.562,0,0,1-.129.429.67.67,0,0,1-.444.114h-4.78q-.458,0-.458.429v1.889q0,.429.458.429h4.923q.658,0,.658.487v1.86Q2240.047,978.736,2239.389,978.736Z" transform="translate(-2191.566 -969.836)"/>
      <path id="패스_561" data-name="패스 561" class="cls-1" d="M2345.548,983.426h-7.183v2.318h10.274a.76.76,0,0,1,.429.114.516.516,0,0,1,.172.458v2.06q0,.63-.6.63h-24.556c-.267,0-.429-.047-.486-.143a1,1,0,0,1-.086-.487v-2.06a.668.668,0,0,1,.115-.444.609.609,0,0,1,.458-.129h10.3v-2.318h-7.212a.556.556,0,0,1-.63-.63v-2q0-.543.63-.544h2.948v-4.178h-2.433q-.658,0-.658-.63v-1.975a.54.54,0,0,1,.186-.458.751.751,0,0,1,.472-.143h17.372a.531.531,0,0,1,.6.6v2a.531.531,0,0,1-.6.6H2342.6v4.178h2.948q.629,0,.63.544v2.032Q2346.177,983.426,2345.548,983.426Zm0,15.512h-16.084a4.036,4.036,0,0,1-.988-.1,1.221,1.221,0,0,1-.6-.329,1.3,1.3,0,0,1-.3-.629,4.885,4.885,0,0,1-.086-1V991.21q0-.6.572-.6h2.8a.531.531,0,0,1,.6.6v4.035a.379.379,0,0,0,.429.429h13.651a.86.86,0,0,1,.415.1.427.427,0,0,1,.186.415v2.233q0,.4-.186.458A1.418,1.418,0,0,1,2345.548,998.938Zm-11.5-18.689h4.636v-4.178h-4.636Z" transform="translate(-2271.052 -971.949)"/>
    </g>
    <g id="그룹_240" data-name="그룹 240" transform="translate(2073.463 971.149)">
      <path id="패스_562" data-name="패스 562" class="cls-1" d="M2461.193,988.941H2452.5l1.433-9.3h-4.292l-3.558,23.09h4.292l1.558-10.113h8.689l-1.558,10.113h4.292l3.558-23.09h-4.292Z" transform="translate(-2446.086 -978.919)"/>
      <path id="패스_563" data-name="패스 563" class="cls-1" d="M2544.888,1010.635a11.258,11.258,0,0,1-.6,2.31,7.565,7.565,0,0,1-1.022,1.873,4.406,4.406,0,0,1-1.386,1.215,3.411,3.411,0,0,1-1.76.393c-.984-.017-1.539-.387-1.746-1.166a9.528,9.528,0,0,1,.012-3.7l1.459-9.472h-4.292l-1.647,10.69a7.7,7.7,0,0,0,.658,5.192c.8,1.317,2.314,1.985,4.512,1.985a7.512,7.512,0,0,0,4.727-1.667l-.2,1.274h4.2l2.693-17.475h-4.292Z" transform="translate(-2511.583 -995.688)"/>
      <path id="패스_564" data-name="패스 564" class="cls-1" d="M2620.565,988.51a7.436,7.436,0,0,0-.875-2.848,5.336,5.336,0,0,0-1.949-2.039,5.982,5.982,0,0,0-3.156-.777,7.158,7.158,0,0,0-3.233.673,7.9,7.9,0,0,0-1.42.908l1.178-7.648h-4.292l-3.684,23.905h4.171l.191-1.237a5.594,5.594,0,0,0,1.267.936,6.467,6.467,0,0,0,3.154.694,7.011,7.011,0,0,0,3.435-.83,8.457,8.457,0,0,0,2.537-2.143,11.353,11.353,0,0,0,1.691-2.977,16.045,16.045,0,0,0,.9-3.351A12.487,12.487,0,0,0,2620.565,988.51Zm-11.773,3.506a10.073,10.073,0,0,1,.546-2.025,7.272,7.272,0,0,1,1-1.831,5.289,5.289,0,0,1,1.406-1.329,3.049,3.049,0,0,1,1.686-.487,2.072,2.072,0,0,1,1.427.469,3.132,3.132,0,0,1,.86,1.255,6.214,6.214,0,0,1,.347,1.812,9.683,9.683,0,0,1-.094,1.935,10.052,10.052,0,0,1-.516,1.923,9.373,9.373,0,0,1-.945,1.889,5.272,5.272,0,0,1-1.317,1.4,2.692,2.692,0,0,1-1.63.52,2.278,2.278,0,0,1-1.525-.475,3.433,3.433,0,0,1-.943-1.29,5.869,5.869,0,0,1-.387-1.82A9.188,9.188,0,0,1,2608.792,992.016Z" transform="translate(-2563.423 -976.778)"/>
    </g>
  </g>
</svg>
