<svg xmlns="http://www.w3.org/2000/svg" width="112.642" height="52.698" viewBox="0 0 112.642 52.698">
  <defs>
    <style>
      .cls-1 {
        fill: #d40c1a;
      }

      .cls-2 {
        fill: #0b090a;
      }
    </style>
  </defs>
  <g id="img_etc_04" transform="translate(2152.08 -2007.923)">
    <g id="그룹_229" data-name="그룹 229" transform="translate(-2152.08 2007.923)">
      <path id="패스_514" data-name="패스 514" class="cls-1" d="M-2074.954,2060.621c0-1.583,0-2.928,0-4.272,0-3.316.012-6.632-.005-9.947-.007-1.39.332-1.362-1.41-1.363q-10.23-.006-20.459,0-18.142,0-36.285,0a18.49,18.49,0,0,1-12.1-4.226,18.441,18.441,0,0,1,3.78-31.057,19,19,0,0,1,8.407-1.836q37.3.034,74.6.009a18.687,18.687,0,0,1,10.938,3.32,18.516,18.516,0,0,1,7.566,19.55,18.878,18.878,0,0,1-14.874,13.946,12.933,12.933,0,0,1-3.146.279,2.58,2.58,0,0,0-2.172.892c-4.553,4.573-9.143,9.109-13.723,13.654C-2074.131,2059.865-2074.44,2060.14-2074.954,2060.621Zm3.889-9.441c.509-.1.692-.453.941-.708,2.86-2.939,5.727-5.87,8.561-8.834a2.3,2.3,0,0,1,1.867-.8,16.6,16.6,0,0,0,6.653-1c5.122-2.053,8.378-5.738,9.194-11.209a13.571,13.571,0,0,0-5.344-13.359,15.826,15.826,0,0,0-10.238-3.172q-36.456.027-72.911.015a16.571,16.571,0,0,0-4.585.522c-5.522,1.576-9.3,5.037-10.521,10.666-1.263,5.831.413,10.869,5.332,14.554a13.951,13.951,0,0,0,7.707,2.883c4.1.221,8.212.081,12.318.085q24.869.025,49.738.014c1.23,0,1.232.007,1.233,1.213q0,3.956,0,7.913C-2071.12,2050.362-2071.085,2050.756-2071.065,2051.18Z" transform="translate(2152.08 -2007.923)"/>
      <path id="패스_515" data-name="패스 515" class="cls-2" d="M-1766.219,2070.3c0,1.2.013,2.4,0,3.6-.02,1.465-.784,2.339-2.024,2.354a2.1,2.1,0,0,1-2.086-2.32c-.023-2.826.007-5.653-.008-8.479a2.006,2.006,0,0,1,1.311-2.034,1.862,1.862,0,0,1,2.239.6c1.411,1.568,2.778,3.175,4.162,4.766.119.136.235.274.553.644,0-1.2-.006-2.149,0-3.1a7.211,7.211,0,0,1,.069-1.348,2.045,2.045,0,0,1,2.116-1.664,1.952,1.952,0,0,1,1.912,1.87c.074,1.428.037,2.863.04,4.294,0,1.545.02,3.09-.011,4.635a1.846,1.846,0,0,1-1.336,1.994,2.112,2.112,0,0,1-2.424-.715c-1.445-1.721-2.872-3.457-4.307-5.187Z" transform="translate(1856.669 -2050.745)"/>
      <path id="패스_516" data-name="패스 516" class="cls-2" d="M-1827.673,2063.163a6.827,6.827,0,0,1,6.88,6.521,6.735,6.735,0,0,1-6.831,6.535,6.714,6.714,0,0,1-6.812-6.432A6.782,6.782,0,0,1-1827.673,2063.163Zm-2.641,6.489a2.718,2.718,0,0,0,2.637,3,2.808,2.808,0,0,0,2.806-2.886,2.866,2.866,0,0,0-2.69-3.016A2.744,2.744,0,0,0-1830.314,2069.651Z" transform="translate(1906.27 -2050.67)"/>
      <path id="패스_517" data-name="패스 517" class="cls-2" d="M-1891,2063.158a6.782,6.782,0,0,1,6.8,6.58,6.693,6.693,0,0,1-6.871,6.473,6.733,6.733,0,0,1-6.77-6.487A6.837,6.837,0,0,1-1891,2063.158Zm2.733,6.5a2.813,2.813,0,0,0-2.783-2.911,2.84,2.84,0,0,0-2.684,3.01,2.769,2.769,0,0,0,2.781,2.894A2.8,2.8,0,0,0-1888.27,2069.655Z" transform="translate(1955.336 -2050.667)"/>
      <path id="패스_518" data-name="패스 518" class="cls-1" d="M-2042.508,2069.673a6.675,6.675,0,0,1-6.814,6.521,6.671,6.671,0,0,1-6.785-6.435,6.742,6.742,0,0,1,6.751-6.62A6.788,6.788,0,0,1-2042.508,2069.673Zm-4.078.036a2.813,2.813,0,0,0-2.733-2.976,2.775,2.775,0,0,0-2.7,2.882,2.729,2.729,0,0,0,2.661,3.01A2.756,2.756,0,0,0-2046.586,2069.709Z" transform="translate(2077.811 -2050.652)"/>
      <path id="패스_519" data-name="패스 519" class="cls-1" d="M-1992.114,2070.245c0-1.356-.016-2.713,0-4.069a2.011,2.011,0,0,1,2.216-2.26c1.28-.028,2.562-.043,3.842-.006a4.493,4.493,0,0,1,4.692,4.472,4.561,4.561,0,0,1-4.559,4.57c-.665.053-1.493-.276-1.953.167-.421.406-.071,1.22-.156,1.848a2.028,2.028,0,0,1-2.134,1.765,1.993,1.993,0,0,1-1.937-1.968c-.044-1.506-.011-3.013-.011-4.52Zm5.08-.871c.154,0,.267,0,.379,0,.566.021,1.051-.1,1.207-.739a.767.767,0,0,0-.533-.976,2.094,2.094,0,0,0-1.919.055c-.323.259-.184.941-.063,1.391C-1987.834,2069.587-1987.327,2069.3-1987.034,2069.374Z" transform="translate(2028.295 -2051.232)"/>
      <path id="패스_520" data-name="패스 520" class="cls-2" d="M-1939.562,2063.929c1.055,0,2.11-.018,3.165,0a1.769,1.769,0,0,1,1.932,1.757,1.755,1.755,0,0,1-1.883,1.81c-1.34.076-1.341.076-1.34,1.368,0,1.808-.065,3.62.023,5.424a2.116,2.116,0,0,1-2.038,2.449c-1.3.024-2.054-.849-2.058-2.395-.005-1.959-.034-3.919.012-5.877.018-.764-.074-1.255-1-1.056a1.324,1.324,0,0,1-.338.014,1.738,1.738,0,0,1-1.822-1.74,1.758,1.758,0,0,1,1.84-1.742c1.167-.033,2.336-.008,3.5-.008Z" transform="translate(1991.757 -2051.258)"/>
      <path id="패스_521" data-name="패스 521" class="cls-1" d="M-2098,2063.914c1.09,0,2.181-.019,3.271,0a1.825,1.825,0,0,1,1.984,1.832c-.024,1.015-.765,1.657-1.974,1.711-1.271.057-1.273.057-1.278,1.278-.007,2.03-.009,4.059-.018,6.089a1.788,1.788,0,0,1-1.105,1.7,2.015,2.015,0,0,1-2.138-.19,2.249,2.249,0,0,1-.82-2c.006-1.955-.024-3.91.028-5.864.022-.816-.182-1.125-1.067-1.091-1.378.053-2.03-.554-2.043-1.672s.729-1.76,2.115-1.784c1.015-.018,2.03,0,3.045,0Z" transform="translate(2114.227 -2051.246)"/>
    </g>
    <g id="그룹_230" data-name="그룹 230" transform="translate(-2143.981 2048.495)">
      <path id="패스_522" data-name="패스 522" class="cls-1" d="M-2113.517,2187.579h.5l1.068,4.222.921-4.222h.76l-1.273,5.385h-.746l-.961-3.763-1,3.763h-.746l-1.272-5.385h.76l.921,4.222Z" transform="translate(2116.267 -2187.524)"/>
      <path id="패스_523" data-name="패스 523" class="cls-1" d="M-2084.445,2187.579h.5l1.068,4.222.921-4.222h.76l-1.272,5.385h-.746l-.961-3.763-1,3.763h-.746l-1.272-5.385h.76l.921,4.222Z" transform="translate(2093.769 -2187.524)"/>
      <path id="패스_524" data-name="패스 524" class="cls-1" d="M-2055.372,2187.579h.5l1.068,4.222.921-4.222h.76l-1.273,5.385h-.746l-.961-3.763-1,3.763h-.746l-1.273-5.385h.76l.921,4.222Z" transform="translate(2071.271 -2187.524)"/>
      <path id="패스_525" data-name="패스 525" class="cls-1" d="M-2030.713,2207.888h.767v.793h-.767Z" transform="translate(2050.061 -2203.24)"/>
      <path id="패스_526" data-name="패스 526" class="cls-1" d="M-2026.449,2187.579h3.678v.719h-3.678Zm1.473.441h.731v4.945h-.731Z" transform="translate(2046.761 -2187.524)"/>
      <path id="패스_527" data-name="패스 527" class="cls-1" d="M-2006.283,2192.964h-.731v-5.385h.731Z" transform="translate(2031.721 -2187.524)"/>
      <path id="패스_528" data-name="패스 528" class="cls-1" d="M-1998.074,2187.579h.731v5.385h-.731Zm.377,2.578h1.667a.756.756,0,0,0,.416-.115.759.759,0,0,0,.278-.326,1.133,1.133,0,0,0,.1-.485,1.141,1.141,0,0,0-.1-.489.769.769,0,0,0-.278-.328.747.747,0,0,0-.416-.116h-1.667v-.719h1.642a1.608,1.608,0,0,1,.821.206,1.406,1.406,0,0,1,.55.58,1.846,1.846,0,0,1,.2.866,1.835,1.835,0,0,1-.2.865,1.4,1.4,0,0,1-.55.576,1.62,1.62,0,0,1-.821.2h-1.642Z" transform="translate(2024.802 -2187.524)"/>
      <path id="패스_529" data-name="패스 529" class="cls-1" d="M-1979.13,2187.579h3.678v.719h-3.678Zm1.473.441h.731v4.945h-.731Z" transform="translate(2010.143 -2187.524)"/>
      <path id="패스_530" data-name="패스 530" class="cls-1" d="M-1959.934,2192.584a1.661,1.661,0,0,1-.644-.7,2.281,2.281,0,0,1-.228-1.043v-1.526a2.279,2.279,0,0,1,.228-1.042,1.659,1.659,0,0,1,.644-.7,1.844,1.844,0,0,1,.961-.246,1.846,1.846,0,0,1,.961.246,1.656,1.656,0,0,1,.644.7,2.279,2.279,0,0,1,.228,1.042v1.526a2.281,2.281,0,0,1-.228,1.043,1.659,1.659,0,0,1-.644.7,1.851,1.851,0,0,1-.961.246A1.849,1.849,0,0,1-1959.934,2192.584Zm1.529-.648a1,1,0,0,0,.38-.426,1.444,1.444,0,0,0,.135-.639v-1.578a1.443,1.443,0,0,0-.135-.639.994.994,0,0,0-.38-.426,1.068,1.068,0,0,0-.568-.15,1.066,1.066,0,0,0-.568.15.994.994,0,0,0-.38.426,1.442,1.442,0,0,0-.134.639v1.578a1.443,1.443,0,0,0,.134.639,1,1,0,0,0,.38.426,1.068,1.068,0,0,0,.568.15A1.07,1.07,0,0,0-1958.405,2191.936Z" transform="translate(1995.962 -2187.334)"/>
      <path id="패스_531" data-name="패스 531" class="cls-1" d="M-1939.612,2192.584a1.662,1.662,0,0,1-.644-.7,2.285,2.285,0,0,1-.228-1.043v-1.526a2.282,2.282,0,0,1,.228-1.042,1.659,1.659,0,0,1,.644-.7,1.846,1.846,0,0,1,.961-.246,1.846,1.846,0,0,1,.961.246,1.656,1.656,0,0,1,.643.7,2.279,2.279,0,0,1,.228,1.042v1.526a2.281,2.281,0,0,1-.228,1.043,1.659,1.659,0,0,1-.643.7,1.851,1.851,0,0,1-.961.246A1.851,1.851,0,0,1-1939.612,2192.584Zm1.529-.648a1,1,0,0,0,.38-.426,1.443,1.443,0,0,0,.134-.639v-1.578a1.442,1.442,0,0,0-.134-.639.994.994,0,0,0-.38-.426,1.068,1.068,0,0,0-.568-.15,1.068,1.068,0,0,0-.568.15,1,1,0,0,0-.38.426,1.442,1.442,0,0,0-.134.639v1.578a1.443,1.443,0,0,0,.134.639,1,1,0,0,0,.38.426,1.07,1.07,0,0,0,.568.15A1.07,1.07,0,0,0-1938.083,2191.936Z" transform="translate(1980.235 -2187.334)"/>
      <path id="패스_532" data-name="패스 532" class="cls-1" d="M-1919.368,2187.579h.663l2.549,4.163-.086.1v-4.259h.724v5.382h-.67l-2.542-4.1.086-.1v4.2h-.724Z" transform="translate(1963.895 -2187.524)"/>
      <path id="패스_533" data-name="패스 533" class="cls-1" d="M-1897.508,2207.888h.767v.793h-.767Z" transform="translate(1946.979 -2203.24)"/>
      <path id="패스_534" data-name="패스 534" class="cls-1" d="M-1889.435,2192.83l-.41-.248a1.663,1.663,0,0,1-.636-.7,2.347,2.347,0,0,1-.226-1.055v-1.478a2.347,2.347,0,0,1,.226-1.056,1.675,1.675,0,0,1,.636-.706,1.793,1.793,0,0,1,.952-.25,1.742,1.742,0,0,1,.824.2,1.754,1.754,0,0,1,.629.561,2.141,2.141,0,0,1,.342.841h-.749a1.218,1.218,0,0,0-.228-.45,1.124,1.124,0,0,0-.375-.306.985.985,0,0,0-.445-.107.987.987,0,0,0-.559.159,1.05,1.05,0,0,0-.373.446,1.581,1.581,0,0,0-.132.669v1.478a1.582,1.582,0,0,0,.132.666,1.033,1.033,0,0,0,.373.447,1,1,0,0,0,.559.157,1.043,1.043,0,0,0,.446-.1,1.056,1.056,0,0,0,.373-.3,1.2,1.2,0,0,0,.228-.467h.749a2.128,2.128,0,0,1-.344.841,1.77,1.77,0,0,1-.631.561,1.732,1.732,0,0,1-.821.2Z" transform="translate(1941.716 -2187.334)"/>
      <path id="패스_535" data-name="패스 535" class="cls-1" d="M-1870.385,2192.584a1.66,1.66,0,0,1-.644-.7,2.281,2.281,0,0,1-.228-1.043v-1.526a2.279,2.279,0,0,1,.228-1.042,1.658,1.658,0,0,1,.644-.7,1.845,1.845,0,0,1,.961-.246,1.846,1.846,0,0,1,.961.246,1.658,1.658,0,0,1,.644.7,2.279,2.279,0,0,1,.228,1.042v1.526a2.281,2.281,0,0,1-.228,1.043,1.66,1.66,0,0,1-.644.7,1.851,1.851,0,0,1-.961.246A1.85,1.85,0,0,1-1870.385,2192.584Zm1.529-.648a1,1,0,0,0,.38-.426,1.444,1.444,0,0,0,.134-.639v-1.578a1.443,1.443,0,0,0-.134-.639.994.994,0,0,0-.38-.426,1.067,1.067,0,0,0-.568-.15,1.066,1.066,0,0,0-.568.15.992.992,0,0,0-.38.426,1.443,1.443,0,0,0-.134.639v1.578a1.444,1.444,0,0,0,.134.639,1,1,0,0,0,.38.426,1.068,1.068,0,0,0,.568.15A1.069,1.069,0,0,0-1868.856,2191.936Z" transform="translate(1926.663 -2187.334)"/>
      <path id="패스_536" data-name="패스 536" class="cls-1" d="M-1846.4,2187.579h.685v5.385h-.713v-4.033l.036.237-1.284,3.048h-.509l-1.283-2.974.036-.311v4.033h-.714v-5.385h.685l1.531,3.556Z" transform="translate(1910.324 -2187.524)"/>
    </g>
  </g>
</svg>
