<svg xmlns="http://www.w3.org/2000/svg" width="138.667" height="62.665" viewBox="0 0 138.667 62.665">
  <defs>
    <style>
      .cls-1 {
        fill: #712c78;
      }
    </style>
  </defs>
  <g id="img_etc_07" transform="translate(-1070.784 -257.991)">
    <path id="패스_537" data-name="패스 537" class="cls-1" d="M1353.384,266.349c0-1.966,0-3.906,0-5.847a6.357,6.357,0,0,1,.059-1.1,1.7,1.7,0,0,1,1.613-1.4,1.739,1.739,0,0,1,1.817,1.274,4.285,4.285,0,0,1,.11,1.2c0,2.378,0,4.755,0,7.133,0,1.923-.542,2.469-2.432,2.469q-12.458,0-24.916.005a2.247,2.247,0,0,0-1.129.112v20.274c.345.254.761.131,1.146.131q14.568.011,29.135.008a4.315,4.315,0,0,1,1.3.092,1.767,1.767,0,0,1-.258,3.469,6.514,6.514,0,0,1-.8.016h-31.747c-1.867,0-2.4-.522-2.4-2.371q0-11.4,0-22.806c0-1.992.511-2.512,2.486-2.512q12.357,0,24.714-.005A2.807,2.807,0,0,0,1353.384,266.349Z" transform="translate(-203.017 -0.007)"/>
    <path id="패스_538" data-name="패스 538" class="cls-1" d="M1352.592,275.124v10.329a2.341,2.341,0,0,0,1.125.1q12.21.009,24.421.007a3.878,3.878,0,0,1,1.2.089,1.8,1.8,0,0,1,1.313,1.8,1.782,1.782,0,0,1-1.5,1.659,5.457,5.457,0,0,1-.9.032q-13.467,0-26.933,0c-1.79,0-2.358-.56-2.358-2.322q0-6.432,0-12.864c0-1.839.543-2.393,2.4-2.395q12.21-.008,24.421-.006a3.133,3.133,0,0,0,1.2-.082,1.978,1.978,0,0,0,.108-1.081c.008-3.316,0-6.633.005-9.949a8.163,8.163,0,0,1,.02-.9,1.719,1.719,0,0,1,1.589-1.544,1.743,1.743,0,0,1,1.853,1.226,3.8,3.8,0,0,1,.13,1.193q0,6.13,0,12.261c0,1.9-.551,2.444-2.461,2.445q-12.211,0-24.421,0Z" transform="translate(-222.254)"/>
    <path id="패스_539" data-name="패스 539" class="cls-1" d="M1070.784,474.64c.355-1.235.355-1.237,1.5-1.236,2.445,0,4.889-.011,7.333.018a7.691,7.691,0,0,1,7.374,4.949,10.771,10.771,0,0,1-.3,9.774,7.262,7.262,0,0,1-6.023,4.121c-2.6.238-5.206.032-7.763.112a1.927,1.927,0,0,1-.163-1.168c-.007-4.789-.026-9.577.015-14.366.008-.911-.145-1.551-1.121-1.788A4.531,4.531,0,0,1,1070.784,474.64Zm5.288,15.4c1.051,0,2.014-.02,2.977,0a4.552,4.552,0,0,0,4.59-2.937,9.888,9.888,0,0,0-.48-9.238,3.9,3.9,0,0,0-2.528-1.993,24.8,24.8,0,0,0-4.558-.168Z" transform="translate(0 -172.111)"/>
    <path id="패스_540" data-name="패스 540" class="cls-1" d="M1565.006,474.729c.416-1.23.416-1.231,1.52-1.231,2.377,0,4.755,0,7.132,0a7.526,7.526,0,0,1,3.573.839,4.86,4.86,0,0,1,2.8,5.014,5.183,5.183,0,0,1-3.381,4.7c-.368.151-.753.26-1.293.444l6.28,7.859a28.986,28.986,0,0,1-3.516.086c-.452.009-.592-.4-.8-.682q-2.271-3.065-4.518-6.148c-.824-1.124-.823-1.124-2.413-.874v7.641a24,24,0,0,1-3.234.044,1.794,1.794,0,0,1-.136-1.111c-.008-4.822-.037-9.644.021-14.465.012-.959-.255-1.492-1.171-1.727A5.721,5.721,0,0,1,1565.006,474.729Zm5.334,7.479c.429,0,.76,0,1.09,0,.8,0,1.612.042,2.411-.024a2.9,2.9,0,0,0,2.668-2.682c.216-1.592-.424-2.981-1.7-3.388-1.454-.463-2.956-.172-4.468-.235Z" transform="translate(-394.875 -172.186)"/>
    <path id="패스_541" data-name="패스 541" class="cls-1" d="M1208.461,489.957h9.042a12.492,12.492,0,0,1,0,2.424h-12.277c-.267-.289-.138-.675-.139-1.023-.009-4.821-.029-9.642.013-14.462.008-.916-.15-1.548-1.136-1.762a3.891,3.891,0,0,1-.8-.368c.193-1.258.194-1.262,1.321-1.262q5.675,0,11.349,0c.3,0,.593.025.923.039a16.579,16.579,0,0,1,.082,2.362h-8.364v5.383h8.089v2.358h-8.106Z" transform="translate(-105.772 -172.189)"/>
    <path id="패스_542" data-name="패스 542" class="cls-1" d="M1323.154,488.819l1.831-2.33c.259-.064.331.107.441.224a6.725,6.725,0,0,0,6.295,2.076,2.946,2.946,0,0,0,2.244-1.679,2.26,2.26,0,0,0-.887-3.127,8.812,8.812,0,0,0-2.507-1,30.333,30.333,0,0,1-3.776-1.32c-3.95-1.577-3.175-6.42-.983-8.218a7.264,7.264,0,0,1,5.757-1.468,10.977,10.977,0,0,1,5.006,2.053,26.911,26.911,0,0,1-2.048,2.306,5.954,5.954,0,0,0-3.747-1.955,3.188,3.188,0,0,0-2.93.961,2.3,2.3,0,0,0,.435,3.553,7.794,7.794,0,0,0,2.55.862,18.5,18.5,0,0,1,4.071,1.367c4.189,2.115,3.259,7.344.366,9.062a9.86,9.86,0,0,1-9.054.531A11.543,11.543,0,0,1,1323.154,488.819Z" transform="translate(-201.639 -170.911)"/>
    <path id="패스_543" data-name="패스 543" class="cls-1" d="M1456.91,492.2a1.523,1.523,0,0,1-.222.06c-1.069,0-2.315.374-3.155-.125-.806-.479-.837-1.812-1.237-2.758-.286-.677-.561-1.361-.784-2.06a.81.81,0,0,0-.913-.684c-1.573.037-3.149.047-4.721,0-.6-.019-.81.253-.982.746-.5,1.419-1.049,2.818-1.532,4.241-.167.492-.4.7-.929.669-.656-.043-1.317-.01-2.138-.01l6.5-17.041c-.523-.457-1.18-.472-1.681-.86a2.821,2.821,0,0,1,.442-1.124h4.176c.755,3.546,2.421,6.726,3.669,10.057,1.008,2.69,2.113,5.343,3.173,8.013C1456.686,491.6,1456.786,491.874,1456.91,492.2Zm-8.764-13.667-2.117,5.86h4.335Z" transform="translate(-295.235 -171.989)"/>
    <path id="패스_544" data-name="패스 544" class="cls-1" d="M1685.6,473.759h15.05V476h-5.773v16.563a29.352,29.352,0,0,1-3.46.089V476.092h-5.757A10.724,10.724,0,0,1,1685.6,473.759Z" transform="translate(-491.204 -172.395)"/>
  </g>
</svg>
