<svg xmlns="http://www.w3.org/2000/svg" width="174.667" height="33.674" viewBox="0 0 174.667 33.674">
  <defs>
    <style>
      .cls-1 {
        fill: #c30037;
      }

      .cls-2 {
        fill: #fff;
      }

      .cls-3 {
        fill: #717071;
      }
    </style>
  </defs>
  <g id="img_etc_01" transform="translate(2332.138 -722.436)">
    <g id="그룹_225" data-name="그룹 225" transform="translate(-2332.138 722.436)">
      <g id="그룹_224" data-name="그룹 224" transform="translate(0 0)">
        <path id="패스_500" data-name="패스 500" class="cls-1" d="M-2315.3,756.11a16.839,16.839,0,0,0,16.841-16.84,16.839,16.839,0,0,0-16.841-16.834,16.837,16.837,0,0,0-16.834,16.834,16.837,16.837,0,0,0,16.834,16.84" transform="translate(2332.138 -722.436)"/>
        <path id="패스_501" data-name="패스 501" class="cls-2" d="M-2236.942,778.076v14.759h4.7v-1.319h-3.352V778.076Z" transform="translate(2253.107 -768.628)"/>
        <path id="패스_502" data-name="패스 502" class="cls-2" d="M-2274.507,782.07a2.019,2.019,0,0,0,2.019-2.019,2.018,2.018,0,0,0-2.019-2.016,2.017,2.017,0,0,0-2.016,2.016,2.018,2.018,0,0,0,2.016,2.019" transform="translate(2285.967 -768.594)"/>
        <path id="패스_503" data-name="패스 503" class="cls-2" d="M-2301.22,738.563c-.176-.01-.51-.013-.678-.013a14.115,14.115,0,0,0-14.092,14.1,14.014,14.014,0,0,0,4.128,9.966,14,14,0,0,0,9.963,4.128,14.011,14.011,0,0,0,9.974-4.128,14.032,14.032,0,0,0,4.125-9.966V752l-.565,0h-9.5v1.312h8.723v.193a12.8,12.8,0,0,1-12.755,11.914,12.694,12.694,0,0,1-9.029-3.745,12.676,12.676,0,0,1-3.744-9.033,12.7,12.7,0,0,1,3.744-9.037,12.691,12.691,0,0,1,9.029-3.742c.153,0,.516,0,.678.011Z" transform="translate(2318.731 -735.814)"/>
      </g>
    </g>
    <path id="패스_504" data-name="패스 504" class="cls-3" d="M-2083.922,756.221h-5.068v21.937h15.567v-4.271h-10.5Z" transform="translate(-201.859 -28.048)"/>
    <path id="패스_505" data-name="패스 505" class="cls-3" d="M-1983.17,768.2h4.127v3.834a11.636,11.636,0,0,1-3.656.58c-4.562,0-6.083-2.317-6.083-7.022,0-4.488,1.448-7.132,6.009-7.132a5.876,5.876,0,0,1,5.177,2.317l3.151-2.895c-1.92-2.75-5.287-3.584-8.436-3.584-7.1,0-10.824,3.873-10.824,11.257,0,7.35,3.367,11.331,10.788,11.331,3.4,0,6.734-.869,8.545-2.136v-10.64h-8.8Z" transform="translate(-280.964 -26.453)"/>
    <g id="그룹_227" data-name="그룹 227" transform="translate(-2250.921 727.034)">
      <g id="그룹_226" data-name="그룹 226" transform="translate(0 0.916)">
        <path id="패스_506" data-name="패스 506" class="cls-3" d="M-1827.881,759.563v-3.12h-2.842a16.01,16.01,0,0,1-4.87-.787l-.482,3.324a13.773,13.773,0,0,0,4.109.582Z" transform="translate(1839.094 -755.53)"/>
        <path id="패스_507" data-name="패스 507" class="cls-3" d="M-1412.278,763.978c1.344,2.232,4.921,4.008,8.219,4.363l1.472-3.6c-4.871-.787-7.764-2.639-7.764-6.469v-2.162h-4.261V758.4c0,3.7-2.106,5.86-6.952,7.053l1.193,3.018C-1416.82,767.884-1413.725,766.261-1412.278,763.978Z" transform="translate(1494.972 -755.905)"/>
        <path id="패스_508" data-name="패스 508" class="cls-3" d="M-1469.67,777.074h3.679a20.047,20.047,0,0,0,.457-4.121V754.91h-4.136Z" transform="translate(1534.909 -754.91)"/>
        <path id="패스_509" data-name="패스 509" class="cls-3" d="M-1560.775,760.8v-4.243h-4.185v4.267c0,4.338-1.261,6.952-5.548,8.88l1.6,3.02a12.211,12.211,0,0,0,6.335-5.074,10.876,10.876,0,0,0,5.834,4.872l1.9-3.476C-1558.973,767.5-1560.775,764.857-1560.775,760.8Z" transform="translate(1618.624 -756.276)"/>
        <path id="패스_510" data-name="패스 510" class="cls-3" d="M-1853.858,791.224h3.128a4.845,4.845,0,0,0-1.44,3.577c0,3.247,1.726,5.251,5.835,5.251,4.135,0,5.86-2,5.86-5.251a4.831,4.831,0,0,0-1.444-3.577h3.056v-3.145h-15Zm7.574,5.692c-1.352,0-2-.817-2-2.318s.65-2.319,2-2.319c1.327,0,1.95.818,1.95,2.319S-1844.957,796.916-1846.284,796.916Z" transform="translate(1853.858 -782.447)"/>
        <rect id="사각형_556" data-name="사각형 556" class="cls-3" width="21.514" height="3.298" transform="translate(71.936 15.835)"/>
        <path id="패스_511" data-name="패스 511" class="cls-3" d="M-1755.527,754.91h-4.058v22.164h3.551a16.616,16.616,0,0,0,.508-4.349v-7.458h4.46v-3.4h-4.46Z" transform="translate(1775.594 -754.91)"/>
        <path id="패스_512" data-name="패스 512" class="cls-3" d="M-1704.186,827.6h8.625v7.04h3.551a17.612,17.612,0,0,0,.508-4.121V827.6h8.827v-3.349h-21.512Z" transform="translate(1729.602 -812.479)"/>
      </g>
      <path id="패스_513" data-name="패스 513" class="cls-3" d="M-1671.187,755.093c0-2.947-2.159-5.577-7.633-5.577-5.448,0-7.583,2.63-7.583,5.577,0,3.043,2.135,5.6,7.583,5.6,5.474,0,7.633-2.557,7.633-5.6Zm-4.073,0c0,1.8-1.153,2.556-3.559,2.556-2.357,0-3.509-.754-3.509-2.556,0-1.584,1.151-2.387,3.509-2.387,2.406,0,3.559.8,3.559,2.387Z" transform="translate(1714.838 -749.516)"/>
    </g>
  </g>
</svg>
