<svg xmlns="http://www.w3.org/2000/svg" width="176.858" height="23.998" viewBox="0 0 176.858 23.998">
  <path id="img_fashion_05" d="M589.111,436l-.1-.038a5.648,5.648,0,0,1-3.631-5.19,4.126,4.126,0,0,1,4.269-4.129h13.026v-.409c0-4.258-3.47-4.643-3.617-4.657l-13.5,0a.616.616,0,1,1,0-1.232h13.558c.1.007,4.795.481,4.795,5.887V436Zm-2.5-5.228a4.4,4.4,0,0,0,2.727,4h13.335v-6.893H589.659C589.36,427.882,586.612,428.033,586.612,430.771Zm-73.371,3.49a5.522,5.522,0,0,1-1.587-4.295v-5.2a3.124,3.124,0,0,1,.553-2.495c.958-1.279,2.9-1.927,5.78-1.927h10.6v-7.728a.617.617,0,0,1,1.233,0v22.8H516.667a2.523,2.523,0,0,1-.26.01A4.821,4.821,0,0,1,513.24,434.261Zm-.047-11.25a1.879,1.879,0,0,0-.332,1.511l.026.174v5.271a4.377,4.377,0,0,0,1.171,3.373,3.682,3.682,0,0,0,2.55.845l11.974,0v-12.6h-10.6C514.913,421.578,513.683,422.357,513.194,423.011Zm93,11.8v-9.891a4.044,4.044,0,0,1,1.136-2.771c1.13-1.193,2.953-1.8,5.417-1.8h6.167a4.7,4.7,0,0,1,4.71,4.936.617.617,0,0,1-1.234,0,3.511,3.511,0,0,0-3.5-3.7h-6.145c-2.112,0-3.632.475-4.52,1.413a2.845,2.845,0,0,0-.8,1.89v9.926a.617.617,0,0,1-1.234,0Zm-25.064,0V423.711c0-2.1-3.451-2.133-3.486-2.133h-5.468c-2.845,0-3.52,1.871-3.618,2.207v11.021a.617.617,0,0,1-1.234,0V423.711c0-2.091-3.452-2.133-3.487-2.133h-5.467c-2.84,0-3.515,1.853-3.618,2.208V434.8a.617.617,0,0,1-1.234,0l.014-11.219c.24-1.118,1.559-3.233,4.837-3.233h5.469c1.237,0,3.306.409,4.237,1.759a5.01,5.01,0,0,1,4.1-1.759h5.469c1.633,0,4.719.712,4.719,3.366v11.095a.617.617,0,0,1-1.234,0Zm49.822.608a5.322,5.322,0,0,1-4.145-1.529,4.623,4.623,0,0,1-1.088-3.287v-9.636a.617.617,0,0,1,1.234,0l0,9.727a3.422,3.422,0,0,0,.784,2.381,4.175,4.175,0,0,0,3.219,1.112h10.816V420.962a.617.617,0,0,1,1.233,0v14.452Zm-93.176,0a5.32,5.32,0,0,1-4.145-1.529,4.622,4.622,0,0,1-1.089-3.286v-9.636a.617.617,0,0,1,1.233,0l0,9.727a3.42,3.42,0,0,0,.783,2.381,4.176,4.176,0,0,0,3.22,1.112h10.816V420.962a.617.617,0,0,1,1.234,0v14.452Zm-40.454,0c-2.707,0-4.529-.685-5.415-2.033a4.341,4.341,0,0,1-.258-3.751v-8.667a.617.617,0,0,1,1.234,0v8.912l-.051.117a3.229,3.229,0,0,0,.112,2.72c.636.961,2.151,1.47,4.379,1.47h10.157V420.962a.617.617,0,0,1,1.234,0v14.452Zm-25.723,0a5.307,5.307,0,0,1-4.009-1.506,5.854,5.854,0,0,1-1.444-3.969v-12.49a5.308,5.308,0,0,1,5.2-5.447h17.4a.616.616,0,1,1,0,1.232H471.377a4.148,4.148,0,0,0-4,4.215v12.518a4.675,4.675,0,0,0,1.109,3.1,4.137,4.137,0,0,0,3.111,1.118h14.993v-9.858H471.817a.616.616,0,1,1,0-1.232h16.006v12.323Z" transform="translate(-466.142 -412.001)"/>
</svg>
