<svg xmlns="http://www.w3.org/2000/svg" width="177.667" height="25.151" viewBox="0 0 177.667 25.151">
  <defs>
    <style>
      .cls-1 {
        fill: #cd1108;
      }
    </style>
  </defs>
  <g id="img_fashion_06" transform="translate(-1055.479 -1824.351)">
    <path id="패스_289" data-name="패스 289" class="cls-1" d="M1065.886,1828.649v20.822h-4.555v-20.822h-5.852v-4.3h16.286v4.3Z"/>
    <path id="패스_290" data-name="패스 290" class="cls-1" d="M1114.073,1849.5v-25.152h4.555V1849.5Z" transform="translate(-38.178)"/>
    <path id="패스_291" data-name="패스 291" class="cls-1" d="M1156.727,1849.471v-13.745l-4.4,13.745h-3.151l-4.4-13.745v13.745h-4.263v-25.12h5.164l5.085,15.672,5.084-15.672h5.138v25.12Z" transform="translate(-55.41)"/>
    <path id="패스_292" data-name="패스 292" class="cls-1" d="M1211.124,1849.471v-25.12h15.015v4.3h-10.46v5.782h9.454v4.36h-9.454v6.351H1226.4v4.329Z" transform="translate(-101.413)"/>
    <path id="패스_293" data-name="패스 293" d="M1285.12,1849.938v-19.153l-6.856,19.153h-2.634l-6.823-19.119v19.119h-2.19v-23.924h2.666l7.681,21.266,7.681-21.266h2.634l-.032,23.924Z" transform="translate(-137.57 -1.084)"/>
    <path id="패스_294" data-name="패스 294" d="M1337.482,1850v-23.89H1353v2.01H1339.64v8.486h12.917v2.011H1339.64v9.338h13.742V1850Z" transform="translate(-183.743 -1.147)"/>
    <path id="패스_295" data-name="패스 295" d="M1405.081,1831.849a9.21,9.21,0,0,0-2.19-3.562,6.322,6.322,0,0,0-4.887-1.823,6.607,6.607,0,0,0-5.649,2.914,12.569,12.569,0,0,0-2.094,7.515,12.717,12.717,0,0,0,2.11,7.583,6.622,6.622,0,0,0,5.665,2.948,6.117,6.117,0,0,0,4.872-1.908,9.354,9.354,0,0,0,2.142-3.783h2.317a12.883,12.883,0,0,1-2.7,5.027q-2.19,2.743-6.633,2.744a8.846,8.846,0,0,1-7.379-3.493,16.56,16.56,0,0,1,0-18.165,8.845,8.845,0,0,1,7.379-3.494,8.264,8.264,0,0,1,6.649,2.692,11.541,11.541,0,0,1,2.745,4.805Z" transform="translate(-216.622)"/>
    <path id="패스_296" data-name="패스 296" d="M1466.837,1831.849a9.205,9.205,0,0,0-2.19-3.562,6.323,6.323,0,0,0-4.888-1.823,6.606,6.606,0,0,0-5.649,2.914,12.567,12.567,0,0,0-2.095,7.515,12.716,12.716,0,0,0,2.111,7.583,6.622,6.622,0,0,0,5.665,2.948,6.117,6.117,0,0,0,4.872-1.908,9.356,9.356,0,0,0,2.142-3.783h2.317a12.882,12.882,0,0,1-2.7,5.027q-2.19,2.743-6.633,2.744a8.846,8.846,0,0,1-7.379-3.493,16.559,16.559,0,0,1,0-18.165,8.845,8.845,0,0,1,7.379-3.494,8.264,8.264,0,0,1,6.649,2.692,11.538,11.538,0,0,1,2.745,4.805Z" transform="translate(-256.86)"/>
    <path id="패스_297" data-name="패스 297" d="M1523.423,1849.938l-2.571-6.407h-11.711l-2.539,6.475h-2.253l9.394-23.993h2.507l9.363,23.924Zm-8.442-21.437-5.046,12.951h10.156Z" transform="translate(-292.468 -1.084)"/>
  </g>
</svg>
