<svg xmlns="http://www.w3.org/2000/svg" width="151.666" height="29.091" viewBox="0 0 151.666 29.091">
  <defs>
    <style>
      .cls-1 {
        fill: #ec1d25;
      }
    </style>
  </defs>
  <g id="img_fashion_08" transform="translate(-498.176 -2064.772)">
    <path id="패스_298" data-name="패스 298" class="cls-1" d="M724.9,2070.574h-1.751V2065.1c.1-.142.27-.087.416-.087q5.539,0,11.078,0a8.17,8.17,0,0,1,4.72,1.374,8.04,8.04,0,0,1,1.44,11.552,9.539,9.539,0,0,1-1.6,1.235c.243.333.624.4.922.6a5.921,5.921,0,0,1,2.577,3.683,8.662,8.662,0,0,1-.69,6.216c-1.31,2.467-3.548,3.535-6.2,3.925a22.121,22.121,0,0,1-3.268.166c-3.065,0-6.131,0-9.246,0v-5.584h1.6Zm7.408,17.689c2.037.165,3.04-.541,3.383-2.341a4.8,4.8,0,0,0,.022-1.552,2.685,2.685,0,0,0-3.383-2.51c-.007.142-.02.294-.02.446C732.307,2084.274,732.308,2086.241,732.308,2088.263Zm-.135-11.607c1.215,0,2.339-.011,3.01-1.158a3.987,3.987,0,0,0-.171-3.86,3.011,3.011,0,0,0-2.839-.808Z" transform="translate(-201.535 -0.202)"/>
    <path id="패스_299" data-name="패스 299" class="cls-1" d="M498.176,2090.352a10.971,10.971,0,0,1,1.171.009c.533.058.758-.11.883-.672.738-3.321,1.526-6.631,2.3-9.943q.734-3.141,1.477-6.28c.086-.362.22-.722-.281-.89-.211-.071-.246-.233-.246-.43,0-1.607,0-3.214,0-4.87h11.3a2.093,2.093,0,0,1,.067,1.02c.016,1.248.008,2.5.005,3.744,0,.3.077.6-.39.7-.39.078-.183.4-.126.64q1.311,5.445,2.621,10.89c.427,1.768.863,3.533,1.3,5.3.192.784.193.778,1.007.79a1.651,1.651,0,0,1,.8.077v5.467H509.447v-5.526H511c-.16-1.044-.486-1.964-.7-2.907-.056-.246-.243-.234-.425-.234-1.3,0-2.6.006-3.9-.005a.384.384,0,0,0-.426.347c-.23.9-.465,1.8-.719,2.781h2.106v5.544h-8.764Zm11.4-7.891-1.433-5.519-.1.014-1.222,5.5Z" transform="translate(0 -2.241)"/>
    <path id="패스_300" data-name="패스 300" class="cls-1" d="M1218.972,2112.593v9.979c.421.137.847-.03,1.263.123v4.3h-6.69v-4.2h1.422v-14.122H1213.4v-4.213c.178-.138.394-.069.592-.07,2.419-.006,4.838.011,7.257-.015a.706.706,0,0,1,.835.649c.588,2.343,1.224,4.674,1.844,7.009.064.244.141.483.213.728.254-.1.228-.3.273-.472q.983-3.691,1.96-7.383c.075-.282.1-.53.516-.527,2.518.017,5.037.008,7.605.008v4.18c-.223.2-.526.111-.791.087-.537-.049-.643.188-.641.674.015,4.292.009,8.584.01,12.876,0,.1.014.207.023.334.439.186.916.018,1.4.125v4.152h-7.961v-4.163h1.369v-10.136c-.4,1.558-.783,3.012-1.154,4.469-.794,3.123-1.593,6.245-2.364,9.373-.116.471-.27.69-.809.685s-.759-.131-.9-.677c-1.124-4.377-2.286-8.744-3.438-13.115-.058-.22-.126-.438-.19-.657Z" transform="translate(-640.714 -35.479)"/>
    <path id="패스_301" data-name="패스 301" class="cls-1" d="M938.443,2066.741l.056-1.249h4.2v10.771H938.19a19.823,19.823,0,0,0-.226-2.481,2.99,2.99,0,0,0-1.854-2.577,2.134,2.134,0,0,0-2.83,1.07,9.623,9.623,0,0,0-.911,3.917,38.351,38.351,0,0,0,.161,8.019,7.86,7.86,0,0,0,.849,2.73,2.321,2.321,0,0,0,3.819,0,6.229,6.229,0,0,0,.777-2.35c.077-.43.136-.863.217-1.378l5.363.663a12.558,12.558,0,0,1-2.652,7.25,7.268,7.268,0,0,1-5.786,2.734,9.306,9.306,0,0,1-6.367-2.112,11.029,11.029,0,0,1-3.356-5.172,22.659,22.659,0,0,1,.7-16.582,8.029,8.029,0,0,1,5.085-4.849c2.579-.725,5.056-.5,7.082,1.546C938.293,2066.723,938.355,2066.719,938.443,2066.741Z" transform="translate(-381.605)"/>
    <path id="패스_302" data-name="패스 302" class="cls-1" d="M1629.157,2116.2v5.27h1.044v4.046h-8.223v-3.965c.334-.195.771.021,1.2-.126v-14.456c-.456-.167-.911.021-1.37-.149v-3.974a.475.475,0,0,1,.4-.1c2.626,0,5.252-.023,7.877.029a11.17,11.17,0,0,1,4.548.926,5.5,5.5,0,0,1,3.222,5.112,5.583,5.583,0,0,1-1.786,4.64,6.272,6.272,0,0,1-1.777,1.073,1.747,1.747,0,0,0,.334.893c.825,1.706,1.694,3.391,2.487,5.112.277.6.6.924,1.279.792a3.021,3.021,0,0,1,.519,0v4.239c-1.6,0-3.178-.005-4.756,0-.4,0-.423-.33-.54-.565q-2-4.046-3.991-8.1c-.122-.249-.246-.5-.37-.745Zm-.3-9.113v5.767c1.459.161,2.2-.26,2.536-1.472a5.011,5.011,0,0,0,.11-2.382A2.133,2.133,0,0,0,1628.852,2107.085Z" transform="translate(-1006.57 -34.015)"/>
    <path id="패스_303" data-name="패스 303" class="cls-1" d="M1439.126,2123.273h1.288c.868-3.6,1.728-7.173,2.588-10.743q.355-1.474.711-2.946c.054-.223.177-.465-.2-.538-.2-.039-.2-.209-.2-.365,0-1.243,0-2.486,0-3.771h8.867c0,1.331,0,2.673,0,4.014,0,.026,0,.067-.01.075-.785.5-.239,1.13-.11,1.67.933,3.914,1.9,7.82,2.859,11.727.21.855.214.854,1.109.866.1,0,.2.01.364.019v4.316H1448.1v-4.326h1.29l-.659-2.481c-1.1,0-2.19,0-3.279,0a.378.378,0,0,0-.436.331c-.165.679-.352,1.353-.54,2.063.483.176.96-.006,1.423.14v4.3h-6.774Zm7.708-10.69-.165.013-.9,4.111a17.993,17.993,0,0,0,2.127-.058Z" transform="translate(-842.922 -35.956)"/>
    <path id="패스_304" data-name="패스 304" class="cls-1" d="M1798.8,2121.487h1.331v-14.029c-.05-.029-.091-.071-.133-.073-1.082-.057-1.084-.057-1.275.979s-.384,2.1-.567,3.146c-.042.241-.059.458-.4.453-.956-.012-1.913,0-2.952,0,.153-2.992.3-5.911.453-8.862h15.618c.17,3,.339,5.967.513,9.018-1.042,0-2.023-.008-3,0-.335,0-.359-.2-.4-.448-.192-1.1-.417-2.2-.586-3.3-.156-1.021-.195-.833-1.018-.848-.1,0-.207.014-.366.025v13.88c.48.14,1.006-.02,1.548.1v3.991H1798.8Z" transform="translate(-1161.544 -34.333)"/>
    <path id="패스_305" data-name="패스 305" class="cls-1" d="M1129.666,2188.257v-4.483h7.819v4.483Z" transform="translate(-565.701 -106.604)"/>
  </g>
</svg>
