<svg xmlns="http://www.w3.org/2000/svg" width="122.997" height="41" viewBox="0 0 122.997 41">
  <defs>
    <style>
      .cls-1 {
        fill: #ff7800;
      }
    </style>
  </defs>
  <path id="img_fashion_04" class="cls-1" d="M245.712,450.961c-.191-.012-.5-.374-.518-.6-.231-2.285-.48-4.572-.594-6.865-.1-2.035-.038-4.079-.05-6.118-.006-.939-.025-.95-.917-.765-.1.022-.207.032-.31.052-1.158.215-1.381.022-1.238-1.137.111-.906.308-1.8.38-2.714a1.425,1.425,0,0,1,1.2-1.425c.836-.191,1.042-.7,1.083-1.523.093-1.85.32-3.693.49-5.539.012-.122,0-.246,0-.534l-3.231,1.651c0-1.063-.024-1.963.005-2.86.05-1.515.158-3.028.193-4.542.014-.581.386-.777.8-.929,3.011-1.11,5.979-2.38,9.059-3.249,3-.847,6.123-1.282,9.194-1.888a3.19,3.19,0,0,1,.637-.039h.145c1.19,0,1.516.3,1.453,1.483-.084,1.564-.236,3.126-.346,4.69-.04.575-.309.794-.9.826a37.683,37.683,0,0,0-11.227,2.356c-.3.113-.71.464-.733.733-.2,2.392-.332,4.791-.478,7.187,0,.069.051.142.1.278,1.3-.229,2.594-.547,3.906-.66a1.677,1.677,0,0,0,1.61-1.328,6.668,6.668,0,0,1,4.727-4.417,4.523,4.523,0,0,1,4.583,1.341,2.74,2.74,0,0,0,.288.262c.034.027.1.016.148.022.351-1.517.643-3.049,1.066-4.546a13.412,13.412,0,0,1,4.466-7.3,9.019,9.019,0,0,1,2.587-1.42c2.343-.792,3.965.373,4.169,2.84a15.892,15.892,0,0,1-1.355,7.25,18.423,18.423,0,0,1-5.46,7.635.914.914,0,0,0-.263.767,3.116,3.116,0,0,0,5.669,1.017,6.248,6.248,0,0,0,.5-2.57,27.19,27.19,0,0,1,3.47-11.29,11.316,11.316,0,0,1,3.307-3.829,5.283,5.283,0,0,1,4.063-1.038,2.868,2.868,0,0,1,2.468,2.209,11.926,11.926,0,0,1-.4,6.564,24.129,24.129,0,0,1-7.023,10.95c-.246.231-.5.454-.741.672a2.5,2.5,0,0,0,3.14,1.2,5.579,5.579,0,0,0,3.383-2.519,24.923,24.923,0,0,0,1.828-3.787c.217-.534.436-.734.994-.711.909.039,1.821.01,2.73.01-.348,1.44-.679,2.8-1.008,4.167-.013.05-.027.1-.036.152-.367,2.164.408,3.134,2.615,3.274.1.006.2.031.411.065a5.12,5.12,0,0,1-.223,1.047c-.351.786-.782,1.535-1.137,2.318a1.635,1.635,0,0,1-1.8,1.031c-1.927-.12-3.673-.549-4.756-2.433a10.084,10.084,0,0,1-4.455,2.269,5.179,5.179,0,0,1-6.425-3.241c-.083-.186-.176-.369-.312-.656-1.645,1.381-3.343,2.493-5.579,2.345a5.538,5.538,0,0,1-4.876-3.437c-.205.34-.346.555-.469.78a6.349,6.349,0,0,1-4.415,3.456,4.7,4.7,0,0,1-5.116-2.075,22.065,22.065,0,0,1-1.1-2c-1.578.4-3.152.77-4.7,1.225-.2.059-.4.569-.375.846.248,2.415.511,4.829.847,7.233.263,1.886.657,3.755.933,5.639a1.132,1.132,0,0,1-.4.88A7.091,7.091,0,0,1,246.9,451C246.505,451,246.109,450.984,245.712,450.961Zm12.837-21.384a4.514,4.514,0,0,0-.085.549c.015,1.718,1.01,2.959,2.248,2.948a2.958,2.958,0,0,0,2.652-2.813,2.766,2.766,0,0,0-1.838-3.008,1.991,1.991,0,0,0-.347-.03A2.941,2.941,0,0,0,258.548,429.577Zm25.634-11.857a2.491,2.491,0,0,0-.868.884,11.218,11.218,0,0,0-.992,1.771,19.823,19.823,0,0,0-1.467,6.5l.225.149a7.732,7.732,0,0,0,.882-.7,17.793,17.793,0,0,0,3.655-5.523,6.3,6.3,0,0,0,.506-2.033,1.651,1.651,0,0,0-.529-1.323.624.624,0,0,0-.294-.063A2.9,2.9,0,0,0,284.182,417.721Zm-12.591-1.161a10.765,10.765,0,0,0-2.131,6.353,2.938,2.938,0,0,0,.268.927,3.36,3.36,0,0,0,.941-.421,9.373,9.373,0,0,0,2.96-6.307q-.286-.8-.573-1.61A6.781,6.781,0,0,0,271.591,416.56ZM308.4,444.77c-1.123-.023-2.246-.083-3.368-.133a.641.641,0,0,1-.691-.747c.05-2.9.082-5.794.134-8.691.013-.67.084-1.338.133-2.092-.495.034-.875.07-1.256.084-.986.033-1.063-.02-1-.978.072-1.067.207-2.131.3-3.2.048-.532.274-.954.835-.955,1.6,0,1.905-.987,2.086-2.336.253-1.883.742-3.733,1.126-5.6a2.9,2.9,0,0,0,0-.445c-.886.069-1.757.111-2.622.215-.637.077-.865-.12-.755-.77.226-1.337.424-2.679.615-4.022a1.424,1.424,0,0,1,1.154-1.294c3.1-.818,6.173-1.774,9.306-2.447,2.725-.585,5.516-.866,8.282-1.257a3.715,3.715,0,0,1,1.085.069.873.873,0,0,1,.806,1.056c-.18,1.475-.353,2.954-.629,4.413a1.293,1.293,0,0,1-.846.748c-2.427.617-4.867,1.185-7.311,1.736-.941.212-1.9.355-2.855.5a.958.958,0,0,0-.958.91c-.339,2.3-.72,4.59-1.119,6.878-.106.608.126.762.662.694.1-.013.209-.018.313-.023.238-.012.492,0,.747.014a2.669,2.669,0,0,0,1.551-.2c.537-.36.613-1.363.975-2.039a7.157,7.157,0,0,1,6.112-4.162,4.4,4.4,0,0,1,4.067,2.057c.176.252.353.5.533.755.008.011.049,0,.087,0,.253-1.1.454-2.224.77-3.312.915-3.15,2.2-6.107,4.792-8.287a7.134,7.134,0,0,1,4.132-1.895,2.7,2.7,0,0,1,3.048,2.021,9.906,9.906,0,0,1-.121,5.64c-1.145,4.526-3.662,7.858-8.212,9.437a.946.946,0,0,0-.534.708,12.842,12.842,0,0,0,.449,2.913c.7,2.133,3.177,1.873,4.361.931a.959.959,0,0,0,.254-.616,29.906,29.906,0,0,1,4.522-12.572,12.006,12.006,0,0,1,3.723-4.182,9.826,9.826,0,0,1,3.069-1.263c1.614-.354,2.566.261,3.223,1.795a8.561,8.561,0,0,1,.354,5.458,14.75,14.75,0,0,1-6.753,9.073,25.16,25.16,0,0,1-2.671,1.482.708.708,0,0,0-.406,1.055,3.107,3.107,0,0,0,3.816,1.592,5.234,5.234,0,0,0,2.639-2.012c.683-.921,1.274-1.911,1.889-2.881.336-.53.646-1.076.95-1.624.374-.675.812-1.019,1.64-.628a15,15,0,0,0,2.005.636c-.528,1.279-1.085,2.481-1.516,3.727a7.962,7.962,0,0,0-.384,2.219c-.034.771.436,1.275,1.03,1.21.688-.077,1.03-.171,1.087-1.2.247-4.441,4.4-7.752,8.177-7.2,1.554.229,2.934.774,3.482,2.386a4.1,4.1,0,0,1-.989,4.486,8.661,8.661,0,0,1-4.7,2.161c-.149.029-.3.073-.445.11.427,1.589,2.55,1.876,5.087.666a16.848,16.848,0,0,1,.685,2.138c.045.232-.276.659-.537.8a8.544,8.544,0,0,1-4.781.923,7.1,7.1,0,0,1-5.054-1.981c-.11-.115-.5-.015-.739.055a19.729,19.729,0,0,1-2.966.884,3.922,3.922,0,0,1-3.894-2c-.113-.171-.235-.336-.347-.5-5.841,2.278-7.681,2.082-10.634-1.183-.233.168-.479.341-.721.519a6.6,6.6,0,0,1-4.362,1.47,4.525,4.525,0,0,1-4.279-3.115c-.169-.431-.308-.875-.517-1.475-.249.326-.408.527-.559.733-2.517,3.44-8.215,3.383-10.042-.67a.835.835,0,0,0-.686-.36c-1.139.134-2.272.34-3.407.518-.414.065-.71.173-.743.708-.218,3.571-.5,7.139-.687,10.711-.04.748-.316,1.039-.96,1.039Zm51.26-16.5c-1.687.408-2.58,2.009-2.191,4.079a4.392,4.392,0,0,0,3.771-1.733,1.331,1.331,0,0,0,.131-1.723,1.443,1.443,0,0,0-1.236-.683A2.021,2.021,0,0,0,359.658,428.269ZM320.021,425a3.169,3.169,0,0,0-1.778,3,6.819,6.819,0,0,0,.245,1.053,1.988,1.988,0,0,0,3.01,1.03,3.334,3.334,0,0,0,.84-4.566,1.8,1.8,0,0,0-1.428-.73A2.029,2.029,0,0,0,320.021,425Zm25.032-8.329a6.541,6.541,0,0,0-1.134,1.178,28.555,28.555,0,0,0-4.073,7.973,4.783,4.783,0,0,0-.093.711,8.429,8.429,0,0,0,1.189-.541,12.6,12.6,0,0,0,4.775-5.657,12.759,12.759,0,0,0,.581-3.111c.033-.255-.156-.716-.344-.779a.589.589,0,0,0-.185-.027A1.272,1.272,0,0,0,345.053,416.676Zm-11.105-1.706c-2.421,1.656-3.443,4.159-4.14,6.915.086.229.114.593.273.661a.927.927,0,0,0,.787-.09c2.246-1.676,4.136-3.622,4.525-6.566a1.574,1.574,0,0,0-.341-1.188.255.255,0,0,0-.177-.049A2.035,2.035,0,0,0,333.948,414.97Zm-42.418,7.363a1.928,1.928,0,1,1,3.844,0,2,2,0,0,1-1.915,2.063h0A2.022,2.022,0,0,1,291.53,422.333Zm63.029,1.13a2.034,2.034,0,0,1-1.963-2.038,2.1,2.1,0,0,1,1.919-2.1,1.971,1.971,0,0,1,1.908,2.055,1.94,1.94,0,0,1-1.856,2.082Z" transform="translate(-242.002 -410)"/>
</svg>
