<svg xmlns="http://www.w3.org/2000/svg" width="187" height="20.001" viewBox="0 0 187 20.001">
  <path id="img_fashion_09" d="M705.825,630.332q-3.884-3.881-7.8-7.74c-1.854-1.835-3.717-3.665-5.7-5.619a2.349,2.349,0,0,0-.294,1.573c-.012,3.6,0,7.194-.015,10.791,0,.472.244,1.11-.522,1.3a4.454,4.454,0,0,1-2.413-.042c-.426-.138-.364-.52-.364-.838q0-8.878,0-17.757c0-.358-.065-.75.5-.9a1.5,1.5,0,0,1,1.544.521c2.059,2.007,4.139,4,6.212,6q3.215,3.1,6.437,6.193c.268.256.434.639,1,.671.334-.349.176-.77.177-1.152.015-3.506,0-7.011.02-10.518,0-.472-.286-1.11.39-1.364a3.958,3.958,0,0,1,2.555-.007c.642.207.387.794.388,1.221.016,4.052.011,8.1.012,12.156,0,1.639.013,3.279-.007,4.917-.005.426.214.965-.476,1.188a1.442,1.442,0,0,1-.445.075A1.743,1.743,0,0,1,705.825,630.332ZM521.879,629.17c-1.182-.711-1.111-.936-.156-2.127.685-.853,1.276-.564,2.013-.1a10.887,10.887,0,0,0,3.2,1.337,5.706,5.706,0,0,0,2.43.1,3.036,3.036,0,0,0,2.671-1.958,2.388,2.388,0,0,0-1.2-2.657,14.865,14.865,0,0,0-3.559-1.662,22.668,22.668,0,0,1-3.325-1.469c-2.147-1.272-3.208-2.99-2.752-5.18.468-2.244,2.151-3.624,4.816-4.14.74-.143,1.5-.209,2.256-.31a14.5,14.5,0,0,1,5.777,1.426c.736.346.981.754.48,1.442-.818,1.122-1.149,1.327-2.079.965-.79-.307-1.549-.673-2.356-.945a5.837,5.837,0,0,0-2.409-.3c-1.58.145-2.759.863-3.1,1.9-.352,1.083.175,2.09,1.53,2.924a17.02,17.02,0,0,0,3.065,1.289,21.14,21.14,0,0,1,4.141,1.912c1.945,1.248,2.821,2.9,2.426,4.912-.387,1.966-1.916,3.277-4.1,3.929a12.262,12.262,0,0,1-3.52.531A12.006,12.006,0,0,1,521.879,629.17Zm140.154,1.808c-5.026-.083-8.738-3.2-8.779-7.421-.036-3.642-.017-7.285,0-10.927,0-.462-.266-1.115.576-1.25a4.219,4.219,0,0,1,2.552.129c.5.245.283.749.285,1.141.014,3.1.006,6.192.01,9.288a17.375,17.375,0,0,0,.051,2.048c.3,2.51,2.666,4.265,5.626,4.218s5.219-1.889,5.412-4.409c.032-.408.021-.819.021-1.229q0-4.781,0-9.561c0-1.62.859-2.12,2.773-1.672.741.173.678.626.679,1.077q.007,2.937,0,5.874h-.021c0,1.821.06,3.644-.011,5.463-.163,4.2-3.98,7.233-8.973,7.233Zm-71.827-.389c-.569-.2-.383-.8-.385-1.246-.008-2.688,0-5.377,0-8.065,0-2.87-.008-5.741,0-8.611.005-1.325.049-1.376,1.682-1.359.771.007,1.543,0,2.314-.013a47.041,47.041,0,0,1,4.9.106c3.931.359,6.831,3.027,6.725,6.157-.113,3.368-3.294,6.013-7.372,6.1-1.528.032-3.057.005-4.864.005,0,2.007.008,3.865-.005,5.722,0,.438.2,1.027-.43,1.217a4.56,4.56,0,0,1-1.306.194A3.774,3.774,0,0,1,590.207,630.59Zm3.056-16.467v6.827a33.42,33.42,0,0,0,5.16-.055c2.092-.261,3.67-1.837,3.627-3.5a3.7,3.7,0,0,0-3.559-3.238c-.659-.057-1.324-.075-1.993-.075C595.433,614.078,594.355,614.123,593.263,614.123Zm-41.547,16.454c-.562-.416-.113-.844.1-1.236q2.394-4.419,4.812-8.828,2.276-4.162,4.567-8.319c.263-.475.381-1.141,1.239-1.107.744.029.854.629,1.1,1.073q4.641,8.516,9.268,17.037c.752,1.385.619,1.544-1.326,1.53a1.8,1.8,0,0,1-2.027-1.095c-.55-1.07-.775-2.529-1.98-3.02a6.679,6.679,0,0,0-2.79-.195c-.422.026-.844.052-1.248.05-.547,0-1.095,0-1.642.01-1.1.014-2.191.028-3.278-.04a1.947,1.947,0,0,0-2.28,1.279,16.508,16.508,0,0,1-1.205,2.239,3.249,3.249,0,0,1-2.368.836A1.653,1.653,0,0,1,551.716,630.577Zm6.526-6.509h8.231l-4.154-7.707Zm65.583,6.658c-1.641,0-1.7-.025-1.709-1.176-.015-2.867-.005-5.733-.005-8.6,0-2.776-.007-5.552,0-8.327,0-1.283.027-1.325,1.558-1.312.778.007,1.556,0,2.334-.014a48.63,48.63,0,0,1,5.033.107c3.971.359,6.883,3.095,6.715,6.279-.174,3.29-3.333,5.876-7.333,5.979-1.255.032-2.514.037-3.768-.007-.859-.03-1.153.251-1.138.95.037,1.637.025,3.276.005,4.914-.014,1.154-.092,1.209-1.636,1.209Zm1.81-16.633v6.9c1.417,0,2.716.006,4.015,0a7.894,7.894,0,0,0,1.136-.091c2.1-.322,3.572-1.815,3.52-3.558-.049-1.647-1.612-3.082-3.73-3.228-.618-.042-1.239-.055-1.865-.055C627.7,614.058,626.683,614.092,625.634,614.092Z" transform="translate(-521 -610.999)"/>
</svg>
