<svg xmlns="http://www.w3.org/2000/svg" width="133.999" height="60.005" viewBox="0 0 133.999 60.005">
  <path id="img_fashion_02" d="M444.313,339.9a1,1,0,0,0-.981.068,10.367,10.367,0,0,1,.044-1.517c.249.044.253.232.3.381a1.1,1.1,0,0,0,1.032.744c.53.059.954-.135,1.052-.512.124-.477-.2-.723-.547-.941-.407-.254-.822-.5-1.218-.768a1.237,1.237,0,0,1-.629-1.583,1.408,1.408,0,0,1,1.667-.836c.35.066.685.266,1.094.05a5.808,5.808,0,0,1,.008,1.6c-.306-.152-.24-.424-.337-.6a1.266,1.266,0,0,0-1.169-.695.784.784,0,0,0-.694.545.592.592,0,0,0,.292.655c.2.15.422.283.637.416.336.207.692.386,1.011.617a1.27,1.27,0,0,1,.559,1.4,1.4,1.4,0,0,1-1.209,1.046,2.636,2.636,0,0,1-.375.03A1.336,1.336,0,0,1,444.313,339.9Zm31.04-2.659a2.4,2.4,0,0,1,3.259-2.17c.294.136.52,0,.828-.066.046.587.084,1.059.123,1.554-.33-.079-.318-.351-.42-.536a1.408,1.408,0,0,0-1.4-.766,1.291,1.291,0,0,0-1.281.9,3.555,3.555,0,0,0-.137,2.169,1.614,1.614,0,0,0,2.7.831c.166-.143.255-.374.5-.444a1.75,1.75,0,0,1-1.566,1.274q-.117.01-.231.01A2.377,2.377,0,0,1,475.353,337.24Zm-10.823-.634c-.048-.054-.147-.062-.32-.131,0,.924,0,1.8,0,2.667,0,.334.341.406.505.631a.706.706,0,0,1-.547.123,1.838,1.838,0,0,0-.187,0c-.209.008-.436.116-.651-.037.509-.522.51-.522.512-1.31,0-.653-.035-1.308.01-1.957s-.05-1.189-.842-1.412c.949-.3,1.142-.239,1.671.374.682.789,1.254,1.673,2.008,2.4.042.158.1.33.3.28.113-.029.074-.177.037-.28.016-.707.034-1.413.046-2.12a.437.437,0,0,0-.186-.442c-.02-.152-.04-.3-.061-.456a1.168,1.168,0,0,0,.965,0l-.241.635a2.943,2.943,0,0,0-.1,1.254c-.045,1.045.071,2.1-.079,3.138a.075.075,0,0,0-.112,0C466.385,338.81,465.489,337.683,464.53,336.606Zm25.238,3.329c-.893,0-1.785,0-2.743-.057.7-.524.535-1.241.539-1.912s-.013-1.362,0-2.043c.007-.384-.1-.673-.683-.752a1.629,1.629,0,0,1,.9-.164c.074,0,.146.006.217.005.405-.01.811-.008,1.217-.007h.556c.911,0,.911,0,.821,1.088-.407-.832-1-.773-1.579-.713a2.8,2.8,0,0,1-.661.017.845.845,0,0,0-.131.71c.053.352-.247.838.293,1.024a1.347,1.347,0,0,0,1.539-.486c.026-.035.08-.048.177-.1a8.243,8.243,0,0,1-.024,1.731c-.437-.931-1.087-.845-1.782-.723a5.263,5.263,0,0,0-.017,1.886c.934.075,1.9.376,2.427-.882.091,1.126-.123,1.381-1.057,1.381Zm40.246-.016c.13-.327.54-.174.68-.43a.152.152,0,0,0,.192-.117.518.518,0,0,0,.4-.361c.267-.3.586-.572.52-1.079l-.778.236a.666.666,0,0,0-.449-.068,3.5,3.5,0,0,1-.737-.832l-.057-1.036a.8.8,0,0,0,.172-.467c.41-.6.934-1.076,1.685-.792a1.858,1.858,0,0,1,1.158,1.635,2.919,2.919,0,0,1-2.707,3.312Zm1.171-4.678a.73.73,0,0,0-.645.57,1.984,1.984,0,0,0,.084,1.322c.2.483.475.644.9.552.445-.1.583-.3.588-.939.066-.348-.163-.694-.285-1.058a.614.614,0,0,0-.567-.451A.6.6,0,0,0,531.185,335.242Zm-32.173,4.647c.572-.543.573-.543.573-1.346,0-.764-.007-1.527-.006-2.291,0-.369-.056-.692-.592-.69l.094-.168.948-.436c.287.183.208.429.209.644,0,1.047,0,2.093,0,3.14,0,.631,0,.631.484,1.1a5.61,5.61,0,0,1-.944.071C499.529,339.911,499.277,339.9,499.012,339.889Zm-45.027-.1c.581-.187.6-.606.586-1.074-.023-.878,0-1.758-.01-2.637,0-.241.1-.519-.176-.7-.026-.145-.052-.289-.078-.433a2.287,2.287,0,0,0,1.28-.006q-.031.222-.06.444c-.276.173-.253.426-.181.693-.118.96-.016,1.924-.051,2.885-.015.426.25.624.755.853a7.214,7.214,0,0,1-1,.077A5.43,5.43,0,0,1,453.984,339.786Zm55.09.055a2.5,2.5,0,0,0,1.766-1.671.464.464,0,0,0-.505-.082.825.825,0,0,1-.235.037,1.193,1.193,0,0,1-1.163-.818,2.147,2.147,0,0,1,.49-2.122,1.427,1.427,0,0,1,2.072.467,2.925,2.925,0,0,1-.688,3.614c-.542.456-.819.619-1.26.619A3.215,3.215,0,0,1,509.074,339.842Zm1.141-4.606c-.391.033-.564.34-.664.682a1.319,1.319,0,0,0-.039.31,1.908,1.908,0,0,0,.224,1.1.707.707,0,0,0,.863.354.664.664,0,0,0,.535-.671,2.418,2.418,0,0,0-.221-1.243c-.14-.269-.317-.53-.642-.53Zm9.961,4.48c-.013,0-.01-.009.034,0a2.749,2.749,0,0,0,1.071-1.567c-.177-.179-.341-.062-.5-.049a1.218,1.218,0,0,1-1.431-1.013,1.906,1.906,0,0,1,.579-1.866c.652-.629,1.732-.268,2.2.7a2.78,2.78,0,0,1-1.135,3.453,2.944,2.944,0,0,1-.757.343l-.023,0A.118.118,0,0,1,520.176,339.716Zm.4-4.442a.628.628,0,0,0-.529.475c-.038.192-.044.39-.064.586a1.714,1.714,0,0,0,.344,1.107.663.663,0,0,0,.745.244.654.654,0,0,0,.534-.566,2.337,2.337,0,0,0-.378-1.59.519.519,0,0,0-.471-.279A.726.726,0,0,0,520.571,335.275Zm-65.042.108,0,0Zm0,0,0,0Zm-29.2-8.366a8.179,8.179,0,0,1-4.962-5.575,9.954,9.954,0,0,1,4.486-11.172,9.009,9.009,0,0,1,7.046-.748c.625.167,1.222.436,1.838.639.707.231.861.151,1.122-.567.069-.188.09-.427.341-.415.327.017.26.317.291.524.041.281.055.566.078.849q.151,1.869.3,3.739a.567.567,0,0,1-.112.52c-.33.04-.426-.149-.512-.377a10.764,10.764,0,0,0-.431-1.016,5.894,5.894,0,0,0-8.588-2.291,6.182,6.182,0,0,0-2.441,3.082,10.647,10.647,0,0,0,.687,9.441,6.256,6.256,0,0,0,8.222,2.6.951.951,0,0,0,.7-1.006c-.042-1.619-.013-3.24-.015-4.861,0-.17-.011-.341-.026-.511-.1-1.112-.472-1.494-1.569-1.635a.977.977,0,0,0-.21.006c-.217.02-.449.04-.444-.3.005-.4.271-.364.511-.323a1.343,1.343,0,0,0,.205.024c1.776-.017,3.554-.006,5.33-.005a4.941,4.941,0,0,1,.507,0,.267.267,0,0,1,.24.3.257.257,0,0,1-.253.28c-.028,0-.057,0-.084.008-1.228.228-1.443.435-1.558,1.686a44.2,44.2,0,0,0-.048,5.369,1.333,1.333,0,0,1-.945,1.463,13.245,13.245,0,0,1-5.253,1.145A12,12,0,0,1,426.331,327.014Zm23.84.723c-3.614-.523-5.807-2.786-6.929-6.19a9.511,9.511,0,0,1-.447-3.118c.134-3.56,1.494-6.429,4.679-8.218a8.226,8.226,0,0,1,10.982,2.676,10.016,10.016,0,0,1,.071,11.013,8.128,8.128,0,0,1-6.945,3.941A9.857,9.857,0,0,1,450.171,327.737ZM447.1,312.719a7.144,7.144,0,0,0-.573,1.229,14.384,14.384,0,0,0-.571,6.472,10.074,10.074,0,0,0,.84,3.2,5.239,5.239,0,0,0,2.676,2.831,5.1,5.1,0,0,0,6.553-2.438,10.813,10.813,0,0,0,1.041-5.219c0-.354.006-.553,0-.751a11.462,11.462,0,0,0-1.179-5.178,4.8,4.8,0,0,0-4.4-2.669h-.118A4.737,4.737,0,0,0,447.1,312.719Zm57.842,14.722-.184-.228c.142-.467.593-.266.882-.412a1.038,1.038,0,0,0,1.087-.379l-.033-.062.035.062c.594-.346.561-.952.57-1.508.072-4.206.058-8.411.011-12.617a5.018,5.018,0,0,0-.073-.848,1.4,1.4,0,0,0-1.345-1.3c-.249-.036-.507-.019-.759-.036-.151-.011-.283-.09-.281-.254s.143-.236.293-.238c.535-.01,1.071-.005,1.607-.016s1.043,0,1.564,0a27.116,27.116,0,0,0,2.743-.059c.957.1,1.917.071,2.877.078a7.5,7.5,0,0,1,3.178,1.239c.139.17.274.344.418.51a4.274,4.274,0,0,1-1.014,6.526,2.132,2.132,0,0,0-.636.4l-.055-.017-.03.049c-.348.1-.7.2-1.044.308-.456.14-.344.352-.068.582,1.339,2,2.707,3.976,4.2,5.864a4.2,4.2,0,0,0,2.923,1.691c.084.009.166.032.249.048.184.035.322.127.31.332s-.172.262-.359.26c-.451,0-.9-.005-1.352-.005-.218,0-.435,0-.653-.006-.515-.008-1.031-.015-1.542.022a1.34,1.34,0,0,1-1.324-.671c-1.309-1.882-2.66-3.735-4-5.6-.114-.159-.253-.3-.381-.447a2.328,2.328,0,0,0-.641-.885c-.317-.843-.893-.782-1.459-.721a2.576,2.576,0,0,1-.649.017,1.287,1.287,0,0,0-.143.824c-.005,1.421-.007,2.841,0,4.261a9.034,9.034,0,0,0,.073,1.275c.142.95.611,1.313,1.628,1.312a1.34,1.34,0,0,0,.706.051c.088.325.059.559-.366.551-.619-.011-1.239-.014-1.857,0-.551.013-1.1,0-1.652,0a24.085,24.085,0,0,0-2.9.072A.791.791,0,0,0,504.943,327.441Zm5.66-16.7c-.715.1-.736.13-.738.859q-.01,2.985,0,5.968a.777.777,0,0,0,.147.633,6.432,6.432,0,0,0,4-.846,3.695,3.695,0,0,0-.732-6.5,3.911,3.911,0,0,0-1.385-.231A8.98,8.98,0,0,0,510.6,310.746Zm21.779,16.683a1.576,1.576,0,0,0-.229-.023c-1.6.015-3.2.015-4.806.015h-1.2a4.11,4.11,0,0,1-.591-.02.229.229,0,0,1-.179-.254c.007-.118.058-.242.18-.258.251-.032.506-.024.757-.05a1.446,1.446,0,0,0,1.5-1.517c.04-.424.059-.851.059-1.277q.009-5.715.005-11.43c0-.256-.011-.512-.033-.766a1.605,1.605,0,0,0-1.7-1.718,3.2,3.2,0,0,0-.422.008c-.194.009-.347-.058-.354-.268s.146-.273.34-.272c.705,0,1.411,0,2.116-.007.451,0,.9,0,1.354,0v0q1.565,0,3.131,0a2.6,2.6,0,0,1,.5.034c.061.013.123.111.149.183a.2.2,0,0,1-.144.264c-.219.042-.447.036-.671.057-1.156.109-1.6.553-1.693,1.722-.026.31-.022.625-.022.937q0,5.8,0,11.6c0,.2,0,.4.005.6.028,1.248.5,1.738,1.713,1.868a1.24,1.24,0,0,0,.258-.015c.263-.032.547-.065.527.336-.012.22-.144.273-.307.273A1.742,1.742,0,0,1,532.382,327.428Zm8.974,0a1.455,1.455,0,0,0-.222-.022c-1.032.019-2.065.018-3.1.017h-.876a5.815,5.815,0,0,1-.59-.023.231.231,0,0,1-.218-.219.276.276,0,0,1,.134-.29,1.368,1.368,0,0,1,.393-.141,2.058,2.058,0,0,0,1.437-1.082,19.62,19.62,0,0,0,1.282-2.683q2.77-6.54,5.541-13.079c.125-.293.149-.741.584-.728.384.012.407.434.52.7q2.906,6.992,5.8,13.99c.239.575.535,1.126.826,1.677a2.285,2.285,0,0,0,1.718,1.247c.241.04.463.107.405.417-.043.232-.218.222-.382.213-.034,0-.068,0-.1,0-.986,0-1.973,0-2.959,0v0c-.93,0-1.86.007-2.79-.005a1.485,1.485,0,0,0-.163.011c-.2.022-.422.044-.466-.244-.063-.4.305-.307.529-.363.082-.02.166-.033.248-.053.868-.222,1.126-.6.9-1.5a28.334,28.334,0,0,0-1.366-3.48c-.1-.254-.318-.294-.555-.294-1.973,0-3.946,0-5.919,0a.619.619,0,0,0-.622.465c-.412,1-.867,1.974-1.249,2.981-.427,1.124-.1,1.634,1.084,1.855.265.049.752-.1.718.363a.278.278,0,0,1-.316.3A1.606,1.606,0,0,1,541.355,327.425Zm.629-7.041h5.923l-2.82-6.8-.179,0Zm-58.946,6.786c-.025-.326.227-.314.455-.3a1.41,1.41,0,0,0,.194,0c1.327-.141,1.75-.533,1.792-1.878.048-1.533.028-3.068.031-4.6q.008-3.836,0-7.673a8.052,8.052,0,0,0-.082-1.189,1.391,1.391,0,0,0-1.371-1.365c-.25-.038-.506-.027-.759-.046-.15-.011-.286-.074-.295-.241s.108-.255.265-.266c.2-.012.394-.012.591-.012,1.353,0,2.707,0,4.448,0,.421.01.882.005,1.371,0a25.594,25.594,0,0,1,3.312.114c.475.057.953.114,1.421.213a7.768,7.768,0,0,1,6.3,7,10.222,10.222,0,0,1-.807,5.741,8.017,8.017,0,0,1-5.137,4.246,11.223,11.223,0,0,1-3.331.516q-3.849.007-7.7-.009a1.634,1.634,0,0,0-.184.013,1.833,1.833,0,0,1-.2.014C483.2,327.438,483.055,327.39,483.039,327.17Zm5.3-16.224c-.064.015-.109.115-.163.176a.708.708,0,0,1,.2.62q-.013,7.174-.026,14.349a6.919,6.919,0,0,0,2.242.334,6.458,6.458,0,0,0,6.3-3.766,9.495,9.495,0,0,0,.768-5.73,7.172,7.172,0,0,0-2.718-4.93,6.6,6.6,0,0,0-4.136-1.373A10.575,10.575,0,0,0,488.342,310.946Zm-.22,13.5a.619.619,0,0,0,0-.644A1,1,0,0,0,488.122,324.449Zm0-12.8a.7.7,0,0,0,.057-.518C488.015,311.291,488.058,311.47,488.124,311.652Zm-10.842,15.776c-3.58-.015-7.161-.012-10.742-.013h-.8c-.381,0-.763,0-1.143,0-.168,0-.361,0-.387-.228-.032-.284.176-.312.384-.324.057,0,.113-.006.169-.005,1.447,0,1.971-.631,1.969-2.141q-.009-6.138,0-12.277a5.464,5.464,0,0,0-.044-.765,1.545,1.545,0,0,0-1.669-1.55,1.276,1.276,0,0,0-.256.019c-.264.036-.549.073-.523-.329.019-.3.3-.268.556-.233a1.809,1.809,0,0,0,.233.023c2.058-.019,4.116-.011,6.174-.011.2,0,.395.009.592,0s.44,0,.435.271-.25.262-.448.269a5.256,5.256,0,0,0-1.254.177,1.431,1.431,0,0,0-1.155,1.394c-.029.539-.082,1.078-.084,1.617q-.012,5.244,0,10.487A11.794,11.794,0,0,0,469.35,325c.089.876.339,1.14,1.228,1.191.86.049,1.722.04,2.584.032.406,0,.813-.008,1.219-.006a4.285,4.285,0,0,0,4.143-2.808c.159-.337.2-.78.65-.948a.411.411,0,0,1,.13.528c-.411,1.3-.834,2.593-1.214,3.9-.131.452-.384.535-.8.535Zm34.823-7.6.008.006a0,0,0,0,0,0,0Zm5.009-8.962-.007-.009.01.011Zm-31.781-10.638q-5.268-6.771-10.543-13.538a2.291,2.291,0,0,1-.542-1.557c.017-.532,0-1.064,0-1.693a4.8,4.8,0,0,1,.975,1.092q6.357,8.022,12.7,16.053a1.734,1.734,0,0,1,.447,1.23c-.033.678-.008,1.358-.008,2.037l-.177.042Q486.762,302.057,485.334,300.225Zm5.014,3.63c0-.84-.011-1.681.005-2.522.006-.337.278-.551.468-.791q4.031-5.1,8.07-10.193,2.558-3.23,5.116-6.462c.116-.146.171-.361.459-.4a19.6,19.6,0,0,1,.02,2.53,1.176,1.176,0,0,1-.366.658q-6.652,8.444-13.31,16.883c-.095.12-.154.3-.442.3Zm-14.484-22.231,1.611-1.4c.082.01.17.248.3.417q5.07,6.392,10.139,12.785a1.87,1.87,0,0,1,.458,1.317c-.031.809-.008,1.619-.008,2.429l-.16.044Zm14.492,12.587a1.138,1.138,0,0,1,.359-.66l10.337-13.072a.568.568,0,0,1,.32-.256c.027,0,.064,0,.082.015,1.5,1.281,1.488,1.271.27,2.806q-5.259,6.627-10.5,13.266a3.406,3.406,0,0,1-.871.849C490.352,296.176,490.346,295.193,490.356,294.211Zm.012-5.915a1.018,1.018,0,0,1,.318-.587q2.9-3.663,5.8-7.326c.14-.177.269-.365.536-.362.609.006,1.218,0,2.052,0l-8.663,10.941A19.329,19.329,0,0,1,490.368,288.3ZM479.7,280.1a7.1,7.1,0,0,1,2.08-.055c.368.026.507.416.713.675,1.808,2.282,3.6,4.572,5.424,6.844a1.821,1.821,0,0,1,.454,1.315c-.036.633-.008,1.268-.008,1.9l-.17.044Zm10.689-.076c.853-.016,1.7-.015,2.619-.014.479,0,.976,0,1.5,0l-4.119,5.214Zm-6.043.188.11-.167H488.3v5.15Z" transform="translate(-421 -279.997)"/>
</svg>
