<svg xmlns="http://www.w3.org/2000/svg" width="134" height="36.005" viewBox="0 0 134 36.005">
  <path id="img_fashion_03" d="M661.533,334c-.176,0-.419-.233-.358-.351a18.058,18.058,0,0,1-.032-25.275c-.055-.109.221-.38.406-.4a17.728,17.728,0,0,1,24.656.012c.181.024.452.292.4.394a18.059,18.059,0,0,1-.018,25.247c.05.1-.21.356-.384.378A17.728,17.728,0,0,1,661.533,334Zm2.418-.474a15.783,15.783,0,0,0,19.864-.021l-5.086-9.826L673.7,333.3l-4.721-9.286Zm-6-12.531a16.046,16.046,0,0,0,4.174,10.814l5.453-10.574-5.5-11A16.043,16.043,0,0,0,657.95,321Zm22.239-.152,5.466,10.923a16.1,16.1,0,0,0,0-21.543Zm-9.774.328,3.353,6.548c1.307-2.5,2.443-4.675,3.566-6.825l-3.322-6.573C672.744,316.736,671.6,318.924,670.414,321.173Zm-6.5-12.678,5.1,9.895,5.049-9.589,4.73,9.259,5.037-9.56a15.783,15.783,0,0,0-19.914,0Zm81.238,18.628c-.142-.2-.255-.418-.4-.617-.089-.127-.2-.235-.432-.491-3.3,4.993-7.7,7.853-13.859,7.108s-9.834-4.432-11.834-10.355c-1.933,3.271-3.228,6.8-4.924,10.06a5.829,5.829,0,0,1-2.686.14L698.688,306.8a3.609,3.609,0,0,1,1.857-.252,6.343,6.343,0,0,0,.917,0l10.884,22.172c2.39-4.871,4.747-9.574,7.007-14.321a14.474,14.474,0,0,1,5.773-6.441,13.583,13.583,0,0,1,18.156,3.951c.329.45.454,1.069,1.173,1.373,2.443-4.088,5.963-6.706,10.784-7.167a13.09,13.09,0,0,1,10.86,3.842l-1.807,1.613c-.368.334-.615-.172-.982-.448a10.47,10.47,0,0,0-11.666-1.089,10.144,10.144,0,0,0-5.9,10.389,10.332,10.332,0,0,0,6.822,9.311,10.7,10.7,0,0,0,12.776-3.645,15.594,15.594,0,0,0,2.213-4.22h-12.1c.466-1.206,1.479-1.661,2.091-2.6h11.311l6.084-12.761a4.325,4.325,0,0,1,2.738-.007L790,332.659a3.848,3.848,0,0,1-1.718.24,6.678,6.678,0,0,0-1.039.038L776.282,310.6c-2.506,5.145-4.855,9.948-7.186,14.759-1.927,3.977-4.912,6.746-9.264,7.6a17.49,17.49,0,0,1-3.351.339C751.927,333.293,748.106,331.262,745.153,327.122Zm-23.991-7.548a10.889,10.889,0,1,0,21.778.1c.007-5.917-5.166-11.064-10.841-10.772-.175-.01-.351-.015-.525-.015C726.008,308.882,721.2,313.972,721.162,319.575Z" transform="translate(-656 -302.995)"/>
</svg>
