<svg xmlns="http://www.w3.org/2000/svg" width="190.333" height="21.598" viewBox="0 0 190.333 21.598">
  <g id="img_hospital_06" transform="translate(-1797 -3298.473)">
    <g id="그룹_184" data-name="그룹 184" transform="translate(1797 3298.554)">
      <path id="패스_329" data-name="패스 329" d="M1802.951,3298.579a15.3,15.3,0,0,1,4.363.59,10.2,10.2,0,0,1,3.437,1.72,8.1,8.1,0,0,1,2.254,2.827,8.768,8.768,0,0,1,.809,3.861,9.837,9.837,0,0,1-.78,4.069,7.591,7.591,0,0,1-2.2,2.864,9.328,9.328,0,0,1-3.423,1.721,16.467,16.467,0,0,1-4.464.566H1797v-18.218Zm.2,15.833a7.333,7.333,0,0,0,5.172-1.758,6.465,6.465,0,0,0,1.906-5,6.922,6.922,0,0,0-.535-2.766,6.16,6.16,0,0,0-1.459-2.1,6.677,6.677,0,0,0-2.166-1.34,7.405,7.405,0,0,0-2.687-.479h-2.976v13.448Z" transform="translate(-1797 -3298.579)"/>
      <path id="패스_330" data-name="패스 330" d="M1842.456,3316.8h-3.784l-2.08-4.819h-8.782l-2.138,4.819h-3.553l8.407-18.218h3.582Zm-10.255-15.219-3.467,8.138h6.934Z" transform="translate(-1802.937 -3298.579)"/>
    </g>
    <rect id="사각형_527" data-name="사각형 527" width="1.407" height="4.192" transform="translate(1816.003 3305.619)"/>
    <g id="그룹_185" data-name="그룹 185" transform="translate(1843.452 3298.473)">
      <path id="패스_331" data-name="패스 331" d="M1872.5,3319.586h-2.276v-6.944a5.5,5.5,0,0,1-2.442.625h-9.955v-13.079h9.21v1.9h-6.933v9.283h7.678a6.04,6.04,0,0,0,2.442-.579v-12.015h2.276Z" transform="translate(-1857.829 -3298.544)"/>
      <path id="패스_332" data-name="패스 332" d="M1898.705,3305.813h-2.821a10.177,10.177,0,0,1-.205,1.921h3.026v11.852h2.234v-20.812h-2.234Z" transform="translate(-1866.775 -3298.544)"/>
      <rect id="사각형_528" data-name="사각형 528" width="2.236" height="20.811" transform="translate(35.696 0.231)"/>
      <path id="패스_333" data-name="패스 333" d="M1933.621,3319.586h-2.3v-20.812h2.3Z" transform="translate(-1875.199 -3298.544)"/>
      <path id="패스_334" data-name="패스 334" d="M1950.819,3308.3l-.932,1.552a7.708,7.708,0,0,1-2.8-1.795,8.838,8.838,0,0,1-2.059-3.044,9.261,9.261,0,0,1-2.07,3.183,7.327,7.327,0,0,1-2.793,1.863l-.891-1.528a8.587,8.587,0,0,0,1.987-1.481,8.148,8.148,0,0,0,1.335-1.725,8.958,8.958,0,0,0,.786-1.91,11.281,11.281,0,0,0,.394-1.944,19.357,19.357,0,0,0,.092-1.968h2.339Q1946.162,3305.774,1950.819,3308.3Zm2.493,3.519a4.9,4.9,0,0,1,0,6.9,4.661,4.661,0,0,1-3.446,1.436,4.606,4.606,0,0,1-3.415-1.436,4.93,4.93,0,0,1,0-6.9,4.6,4.6,0,0,1,3.415-1.435A4.659,4.659,0,0,1,1953.312,3311.816Zm-.879,3.448a2.794,2.794,0,0,0-.755-1.956,2.407,2.407,0,0,0-3.623,0,2.794,2.794,0,0,0-.755,1.956,2.886,2.886,0,0,0,.745,1.992,2.408,2.408,0,0,0,3.643,0A2.886,2.886,0,0,0,1952.433,3315.264Zm2.835-4.05h-2.3v-6.55h-3.953v-1.945h3.953v-3.912h2.3Z" transform="translate(-1877.077 -3298.552)"/>
      <path id="패스_335" data-name="패스 335" d="M1978.333,3302.871H1976.7a4.923,4.923,0,0,1,.89,2.848,4.85,4.85,0,0,1-1.293,3.414,4.222,4.222,0,0,1-6.271.011,4.838,4.838,0,0,1-1.293-3.426,4.894,4.894,0,0,1,.828-2.848h-1.615v-1.991h4.037v-2.407h2.3v2.407h4.057Zm-2.918,2.848a2.917,2.917,0,0,0-.653-1.922,2.007,2.007,0,0,0-1.6-.787,2.065,2.065,0,0,0-1.624.787,2.86,2.86,0,0,0-.673,1.922,2.946,2.946,0,0,0,.673,1.944,2.039,2.039,0,0,0,1.624.809,1.994,1.994,0,0,0,1.6-.8A2.992,2.992,0,0,0,1975.416,3305.719Zm5.981,6.423a4.481,4.481,0,0,1,.01,6.551,4.762,4.762,0,0,1-3.446,1.378,4.7,4.7,0,0,1-3.415-1.378,4.515,4.515,0,0,1,0-6.551,4.7,4.7,0,0,1,3.415-1.378A4.774,4.774,0,0,1,1981.4,3312.142Zm-1.625,5.093a2.518,2.518,0,0,0,.755-1.817,2.441,2.441,0,0,0-.755-1.794,2.554,2.554,0,0,0-3.622,0,2.442,2.442,0,0,0-.755,1.794,2.519,2.519,0,0,0,.755,1.817,2.5,2.5,0,0,0,3.622,0Zm3.384-6.1h-2.3v-2.5h-2.938v-1.853h2.938v-1.736H1977.9v-1.852h2.959V3298.7h2.3Z" transform="translate(-1883.854 -3298.473)"/>
      <path id="패스_336" data-name="패스 336" d="M2005.5,3304.609a5.154,5.154,0,0,1-3.891,5.023v3.218h2.919a10.75,10.75,0,0,0,3.581-.6v-13.473h2.3v20.789h-2.3v-5.486a10.01,10.01,0,0,1-3.581.694h-9.81v-1.921h4.635v-3.218a4.841,4.841,0,0,1-2.752-1.793,5.1,5.1,0,0,1-1.1-3.23,5.034,5.034,0,0,1,1.459-3.634,4.915,4.915,0,0,1,7.078,0A5.031,5.031,0,0,1,2005.5,3304.609Zm-2.256,0a3.162,3.162,0,0,0-.828-2.292,2.6,2.6,0,0,0-1.925-.856,2.508,2.508,0,0,0-1.956.9,3.53,3.53,0,0,0,0,4.467,2.558,2.558,0,0,0,3.9,0A3.216,3.216,0,0,0,2003.247,3304.609Z" transform="translate(-1890.183 -3298.544)"/>
      <path id="패스_337" data-name="패스 337" d="M2040.6,3308.336h-2.794v11.228h-2.3v-5.648a10.058,10.058,0,0,1-3.581.717h-9.54v-1.944h3.228V3306.6h2.235v6.088h4.077a10.758,10.758,0,0,0,3.581-.6v-13.312h2.3v7.64h2.794Zm-7.451-8.148v5.07a17.214,17.214,0,0,1-.29,2.894,15.921,15.921,0,0,1-.662,2.684h-1.883a26.644,26.644,0,0,0,.559-5.578v-3.148h-7.285v-1.921Z" transform="translate(-1896.723 -3298.544)"/>
      <path id="패스_338" data-name="패스 338" d="M1922.231,3303.291a5.511,5.511,0,0,0-4.073-1.7,5.446,5.446,0,0,0-4.039,1.7,5.831,5.831,0,0,0,0,8.158,5.447,5.447,0,0,0,4.039,1.7,5.512,5.512,0,0,0,4.073-1.7,5.8,5.8,0,0,0,0-8.158Zm-1.921,6.433a2.846,2.846,0,0,1-4.307,0,3.41,3.41,0,0,1-.881-2.354,3.3,3.3,0,0,1,.893-2.313,2.846,2.846,0,0,1,4.282,0,3.3,3.3,0,0,1,.894,2.313A3.413,3.413,0,0,1,1920.311,3309.724Z" transform="translate(-1870.74 -3299.211)"/>
      <path id="패스_339" data-name="패스 339" d="M1892.458,3303.36a5.407,5.407,0,0,0-4.074-1.765,5.345,5.345,0,0,0-4.039,1.765,6.238,6.238,0,0,0,0,8.483,5.346,5.346,0,0,0,4.039,1.766,5.407,5.407,0,0,0,4.074-1.766,6.205,6.205,0,0,0,0-8.483Zm-1.921,6.69a2.776,2.776,0,0,1-4.308,0,3.635,3.635,0,0,1-.881-2.449,3.517,3.517,0,0,1,.893-2.405,2.774,2.774,0,0,1,4.283,0,3.517,3.517,0,0,1,.893,2.405A3.635,3.635,0,0,1,1890.538,3310.05Z" transform="translate(-1863.703 -3299.211)"/>
    </g>
  </g>
</svg>
