<svg xmlns="http://www.w3.org/2000/svg" width="164.564" height="40.983" viewBox="0 0 164.564 40.983">
  <defs>
    <style>
      .cls-1 {
        fill: #fff;
      }

      .cls-2 {
        fill: red;
      }

      .cls-3 {
        fill: #00a550;
      }
    </style>
  </defs>
  <g id="img_hospital_02" transform="translate(-1921.099 -2922.984)">
    <path id="패스_316" data-name="패스 316" class="cls-1" d="M2021.746,2959.882c-.947-1.422-2.627-1-5.283-.124l-.208.069-.187.112c-.936.559-1.919,1.1-2.818,1.563,1.317-1.915,2.981-4.344,3.824-5.608,2.2-3.3,2.023-10.47,1.918-12.59-.246-4.893-4.205-7.009-6.171-7.009a5.31,5.31,0,0,0-4.549,3.327c-.056-.057-.112-.112-.169-.167a6.426,6.426,0,0,0-5.493-1.933,2.462,2.462,0,0,0-1.923,1.262c-.057.115-.09.229-.138.344a6.325,6.325,0,0,0-1.337-.378,10.12,10.12,0,0,0-7.682,1.595,2.612,2.612,0,0,0-2.231-.9,2.694,2.694,0,0,0-2.071,1.488l-.234.468.029.521a58.08,58.08,0,0,0,1.062,6.742c.833,4.265,3.165,7.889,5.547,8.617a3.269,3.269,0,0,0,.955.147,2.861,2.861,0,0,0,2.052-.86,4.955,4.955,0,0,0,.5-.581,12.855,12.855,0,0,0,3.917-.819,4.576,4.576,0,0,0,2.194-1.836,4.49,4.49,0,0,0,2.32,1.778,4.909,4.909,0,0,0,2.865-.131c-.937,1.678-2.881,4.649-4.626,7.131-.211.31-2.032,3.109-.854,5.582.5,1.06,1.721,2.375,4.651,2.623.218.019.435.027.654.027,6.135,0,12.77-7.009,13.5-8.242A2.044,2.044,0,0,0,2021.746,2959.882Z" transform="translate(-31.559 -6.375)"/>
    <g id="그룹_180" data-name="그룹 180" transform="translate(1998.563 2931.992)">
      <path id="패스_317" data-name="패스 317" d="M2082.893,2948.96v2.372q-.749.15-1.948.3t-2.5.275q-1.324.125-2.572.187t-2.073.063h-4.045v-11.088h3.121v8.615l2-.024q.9,0,1.96-.05t2.135-.15q1.074-.1,2.085-.225T2082.893,2948.96Zm-9.239,14.559v-8.391h13.284v8.391Zm3.121-5.993v3.6h7.067v-3.6Zm10.214-11.962h3.346v2.522h-3.346v5.843h-3.072V2940.32h3.072Z" transform="translate(-2069.758 -2940.294)"/>
      <path id="패스_318" data-name="패스 318" d="M2125.038,2950.934l-1.8,2a12.469,12.469,0,0,1-1.724-.987,13.815,13.815,0,0,1-1.4-1.161,11.637,11.637,0,0,1-1.261-1.3,4.932,4.932,0,0,1-.612-.925,3.81,3.81,0,0,1-.661,1.049,16.154,16.154,0,0,1-1.387,1.449,16.785,16.785,0,0,1-1.56,1.3,16.1,16.1,0,0,1-1.91,1.174l-1.948-1.9a18.964,18.964,0,0,0,2.609-1.848,9.8,9.8,0,0,0,1.936-2.148,9.854,9.854,0,0,0,1.3-4.894V2940.8h3.271v2.123a9.314,9.314,0,0,0,.313,2.573,7.221,7.221,0,0,0,.936,2.172,8.35,8.35,0,0,0,1.611,1.785A10.885,10.885,0,0,0,2125.038,2950.934Zm-1.1,13.835a6.417,6.417,0,0,1-2.323-.413,5.9,5.9,0,0,1-1.873-1.136,5.226,5.226,0,0,1-1.249-1.7,5.128,5.128,0,0,1,0-4.2,5.517,5.517,0,0,1,1.249-1.723,6.119,6.119,0,0,1,1.873-1.148,6.531,6.531,0,0,1,4.633,0,6.088,6.088,0,0,1,1.885,1.148,5.714,5.714,0,0,1,1.262,1.723,5,5,0,0,1,0,4.2,5.405,5.405,0,0,1-1.262,1.7,5.875,5.875,0,0,1-1.885,1.136A6.453,6.453,0,0,1,2123.939,2964.769Zm2.847-5.344a2.814,2.814,0,0,0-.836-2.048,2.726,2.726,0,0,0-2.01-.849,2.763,2.763,0,0,0-2.023.849,2.894,2.894,0,0,0-.037,4.058,2.658,2.658,0,0,0,1.985.836,2.868,2.868,0,0,0,2.048-.836A2.688,2.688,0,0,0,2126.786,2959.425Zm.524-14.884v-4.27h3.072v14.234h-3.072v-7.467h-4.47v-2.5Z" transform="translate(-2089.404 -2940.271)"/>
      <path id="패스_319" data-name="패스 319" d="M2171.1,2953.531v2.322q-.8.126-2.06.238t-2.71.212q-1.473.074-2.984.137t-2.784.062l-4.545.025v-2.4h3.621q1.322,0,2.934-.05t3.183-.125q1.574-.1,2.985-.2T2171.1,2953.531Zm-7.766-12.786a5.909,5.909,0,0,1,2.335.462,6.463,6.463,0,0,1,1.909,1.236,5.891,5.891,0,0,1,1.274,1.823,5.556,5.556,0,0,1,0,4.495,5.893,5.893,0,0,1-1.274,1.823,6.074,6.074,0,0,1-1.909,1.21,6.454,6.454,0,0,1-4.67,0,5.787,5.787,0,0,1-1.886-1.21,5.388,5.388,0,0,1-1.273-1.823,5.841,5.841,0,0,1,0-4.495,5.386,5.386,0,0,1,1.273-1.823,6.146,6.146,0,0,1,1.886-1.236A5.9,5.9,0,0,1,2163.335,2940.745Zm0,2.546a2.631,2.631,0,0,0-2.035.937,3.306,3.306,0,0,0-.836,2.285,3.214,3.214,0,0,0,.836,2.26,2.659,2.659,0,0,0,2.035.911,2.737,2.737,0,0,0,2.06-.911,3.162,3.162,0,0,0,.862-2.26,3.252,3.252,0,0,0-.862-2.285A2.707,2.707,0,0,0,2163.335,2943.291Zm8.615,17.056V2940.32h3.1v20.027Z" transform="translate(-2111.07 -2940.294)"/>
      <path id="패스_320" data-name="패스 320" d="M2204.846,2953.205h-.7l-5.095.024v-2.322h4.171q1.322,0,2.934-.05t3.183-.149q1.574-.1,2.984-.2t2.36-.224v2.3q-1.048.149-2.884.287t-3.808.238v3.2h-3.146Zm7.292-7.841a4.224,4.224,0,0,1-.462,1.935,5.2,5.2,0,0,1-1.236,1.585,5.573,5.573,0,0,1-1.823,1.086,6.609,6.609,0,0,1-4.458,0,5.592,5.592,0,0,1-1.811-1.086,5.03,5.03,0,0,1-1.223-1.585,4.323,4.323,0,0,1-.45-1.935,4.266,4.266,0,0,1,.45-1.91,5.042,5.042,0,0,1,1.223-1.586,6.041,6.041,0,0,1,1.811-1.074,6.412,6.412,0,0,1,4.458,0,6.016,6.016,0,0,1,1.823,1.074,5.216,5.216,0,0,1,1.236,1.586A4.168,4.168,0,0,1,2212.137,2945.365Zm-3.072,0a2.334,2.334,0,0,0-.774-1.774,2.676,2.676,0,0,0-1.9-.724,2.644,2.644,0,0,0-1.873.724,2.421,2.421,0,0,0,.013,3.559,2.63,2.63,0,0,0,1.86.737,2.663,2.663,0,0,0,1.886-.737A2.355,2.355,0,0,0,2209.066,2945.365Zm-4.2,11.912h3.1v3.745h10.813v2.5H2204.87Zm10.688-1.2h-4.969v-2.323h4.969V2940.32h3.071V2958h-3.071Z" transform="translate(-2131.679 -2940.294)"/>
    </g>
    <g id="그룹_181" data-name="그룹 181" transform="translate(1957.429 2931.887)">
      <path id="패스_321" data-name="패스 321" class="cls-2" d="M2030.978,2963.434s-6.406,3.832-7.332,3.084a1.009,1.009,0,0,1,0-1.589s4.2-6.075,5.692-8.318,1.775-7.664,1.589-11.4a5.168,5.168,0,0,0-4.206-5.141,3.639,3.639,0,0,0-3.075,3.365,2.927,2.927,0,0,1-1.142,2.141,8.929,8.929,0,0,0-1.858-2.888c-2.056-1.963-4.174-1.465-4.3-1.215-.374.748-.841,2.242,1.215,3.831s.934,4.112.748,6.635a2.608,2.608,0,1,0,5.14.708,8.978,8.978,0,0,0,.131-2.949,7.035,7.035,0,0,1,1.832-1.123s-.094,5.794-.655,7.663-5.42,8.785-5.42,8.785-3.177,4.673,2.336,5.14,12.524-7.1,12.337-7.383S2030.978,2963.434,2030.978,2963.434Z" transform="translate(-2002.889 -2940.069)"/>
      <path id="패스_322" data-name="패스 322" class="cls-2" d="M2000.727,2944.6a7.957,7.957,0,0,0-7.7,2.591c-.388-.613-.755-1.168-1-1.469-.747-.935-1.215,0-1.215,0a57.562,57.562,0,0,0,1.028,6.474c.935,4.792,3.925,8.2,5.234,6.89a2.361,2.361,0,0,0,.7-1.233,8.834,8.834,0,0,0,4.445-.626C2005.306,2956.121,2006.427,2945.54,2000.727,2944.6Zm-.842,7.738c-.074.462-1.391,2.687-2.916,2.8l-2.224-5.117-.161-.274a2.377,2.377,0,0,1,2.4-1.314C1999.138,2948.624,1999.979,2951.761,1999.885,2952.342Z" transform="translate(-1990.82 -2942.175)"/>
    </g>
    <path id="패스_323" data-name="패스 323" class="cls-3" d="M1954.454,2930.858s-.841-5.7,1.5-7.29,4.766.561,4.766.561l.935,1.588S1955.576,2925.812,1954.454,2930.858Z" transform="translate(-15.904 0)"/>
    <path id="패스_324" data-name="패스 324" class="cls-2" d="M1946.554,2935.1l-.033-.007c-4.856-.874-7.763.278-9.093,1.074-1.333-.8-4.239-1.948-9.127-1.067-7.252,1.625-7.7,10.445-6.927,14.9.1.512,2.536,12.531,9.984,12.531,1.791,0,3.833-.062,6.07-.182,2.236.121,4.278.182,6.069.182,7.448,0,9.883-12.019,9.987-12.547C1954.258,2945.545,1953.806,2936.726,1946.554,2935.1Zm-17.941,1.542a12.294,12.294,0,0,1,7.465.591c-1.665,1.154-5.351,4.351-4.255,9.462,1.4,6.542,2.056,9.626.654,10.935a5.5,5.5,0,0,1-5.238,1.367c-3.079-3.2-4.3-9.214-4.316-9.285C1922.9,2949.6,1921.044,2938.339,1928.612,2936.642Zm23.324,13.053c-.022.113-2.283,11.26-8.439,11.26-1.689,0-3.613-.057-5.712-.167,2.444-2.239,5.5-8.453,5.345-11.606-.171-3.545.006-10.518-3.473-12.294a13.293,13.293,0,0,1,6.569-.249C1953.808,2938.356,1951.953,2949.6,1951.937,2949.7Z" transform="translate(0 -5.65)"/>
    <path id="패스_325" data-name="패스 325" class="cls-1" d="M1955.4,2942.187a3.767,3.767,0,0,1,1.781,3.084c-.118,1.923-1.321-.931-1.321-.931S1953.544,2942.136,1955.4,2942.187Z" transform="translate(-16.083 -9.196)"/>
    <g id="그룹_182" data-name="그룹 182" transform="translate(1925.205 2940.422)">
      <path id="패스_326" data-name="패스 326" class="cls-2" d="M1933.2,2957.458l-1.323,4.212h-.783l-1.322-4.212v4.212h-.792v-5.051h1.281l1.234,4.07,1.22-4.07h1.275v5.051h-.79Z" transform="translate(-1928.978 -2956.53)"/>
      <path id="패스_327" data-name="패스 327" class="cls-1" d="M1953.187,2957.273h-1.425v4.4h-.8v-4.4h-1.424v-.655h3.653Z" transform="translate(-1938.823 -2956.53)"/>
      <path id="패스_328" data-name="패스 328" class="cls-2" d="M1970.282,2960.75l.041.736a2.622,2.622,0,0,1-.586.15,3.972,3.972,0,0,1-.525.041,2.858,2.858,0,0,1-1.05-.184,2.313,2.313,0,0,1-.811-.525,2.355,2.355,0,0,1-.518-.825,3.016,3.016,0,0,1-.184-1.077,2.9,2.9,0,0,1,.188-1.06,2.311,2.311,0,0,1,1.332-1.363,2.709,2.709,0,0,1,1.043-.194,2.863,2.863,0,0,1,.546.055,2.664,2.664,0,0,1,.559.177l-.068.743a2.365,2.365,0,0,0-.518-.239,1.7,1.7,0,0,0-.5-.075,1.607,1.607,0,0,0-.716.157,1.66,1.66,0,0,0-.546.422,1.861,1.861,0,0,0-.354.62,2.282,2.282,0,0,0-.123.756,2.2,2.2,0,0,0,.133.778,1.905,1.905,0,0,0,.365.613,1.579,1.579,0,0,0,.546.409,1.6,1.6,0,0,0,.674.143,2.521,2.521,0,0,0,.559-.068A1.8,1.8,0,0,0,1970.282,2960.75Z" transform="translate(-1947.019 -2956.449)"/>
    </g>
  </g>
</svg>
