<svg xmlns="http://www.w3.org/2000/svg" width="215" height="22.839" viewBox="0 0 215 22.839">
  <defs>
    <style>
      .cls-1 {
        fill: #a32766;
      }
    </style>
  </defs>
  <g id="img_hospital_01" transform="translate(-1946.245 -3128.089)">
    <path id="패스_306" data-name="패스 306" class="cls-1" d="M1946.245,3141.705v-12.474h2.828v4.127h4.267v-4.127h2.829v12.474Zm2.828-6.121v3.826h4.267v-3.826Zm13.193-1.021h3.13v2.272h-3.13v10.11h-2.828v-18.572h2.828Z" transform="translate(0 -0.145)"/>
    <path id="패스_307" data-name="패스 307" class="cls-1" d="M1995.441,3138.972h-5.1v-9.135h2.853v6.817h10.434v2.318h-5.379v4.267h8.625v2.318h-19.917v-2.318h8.486Z" transform="translate(-20.723 -0.89)"/>
    <path id="패스_308" data-name="패스 308" class="cls-1" d="M2033.144,3141.705v-12.474h2.829v4.127h4.266v-4.127h2.829v12.474Zm2.829-6.121v3.826h4.266v-3.826Zm13.193-1.021h3.13v2.272h-3.13v10.11h-2.829v-18.572h2.829Z" transform="translate(-44.235 -0.145)"/>
    <path id="패스_309" data-name="패스 309" class="cls-1" d="M2077.007,3142.26l-1.879-1.809a12.457,12.457,0,0,0,3.084-1.437,13.435,13.435,0,0,0,2.527-2.087,10.091,10.091,0,0,0,1.751-2.447,7.2,7.2,0,0,0,.777-2.608h-6.631v-2.319h9.854a11.148,11.148,0,0,1-.649,4.325,12.9,12.9,0,0,1-2.063,3.675,14.246,14.246,0,0,1-3.084,2.853A15.025,15.025,0,0,1,2077.007,3142.26Zm12.729,4.66v-18.6h2.875v18.6Z" transform="translate(-65.607 -0.12)"/>
    <path id="패스_310" data-name="패스 310" class="cls-1" d="M2142.754,3138.179l-1.669,1.855a11.6,11.6,0,0,1-1.6-.916,12.806,12.806,0,0,1-1.3-1.078,10.8,10.8,0,0,1-1.171-1.206,4.526,4.526,0,0,1-.568-.858,3.54,3.54,0,0,1-.615.973,15.039,15.039,0,0,1-1.287,1.345,15.591,15.591,0,0,1-1.449,1.206,14.944,14.944,0,0,1-1.774,1.089l-1.808-1.762a17.544,17.544,0,0,0,2.423-1.716,9.087,9.087,0,0,0,1.8-1.994,9.149,9.149,0,0,0,1.205-4.544v-1.809h3.038v1.97a8.646,8.646,0,0,0,.29,2.388,6.719,6.719,0,0,0,.87,2.018,7.746,7.746,0,0,0,1.5,1.657A10.124,10.124,0,0,0,2142.754,3138.179Zm-1.02,12.845a5.974,5.974,0,0,1-2.156-.382,5.478,5.478,0,0,1-1.739-1.055,4.86,4.86,0,0,1-1.16-1.577,4.762,4.762,0,0,1,0-3.9,5.118,5.118,0,0,1,1.16-1.6,5.646,5.646,0,0,1,1.739-1.066,6.061,6.061,0,0,1,4.3,0,5.624,5.624,0,0,1,1.751,1.066,5.291,5.291,0,0,1,1.171,1.6,4.636,4.636,0,0,1,0,3.9,5.018,5.018,0,0,1-1.171,1.577,5.459,5.459,0,0,1-1.751,1.055A6.006,6.006,0,0,1,2141.734,3151.024Zm2.644-4.962a2.612,2.612,0,0,0-.777-1.9,2.53,2.53,0,0,0-1.867-.789,2.69,2.69,0,0,0-1.913,4.557,2.47,2.47,0,0,0,1.843.777,2.664,2.664,0,0,0,1.9-.777A2.494,2.494,0,0,0,2144.378,3146.062Zm.487-13.819v-3.965h2.853v13.216h-2.853v-6.933h-4.15v-2.319Z" transform="translate(-93.293 -0.096)"/>
    <path id="패스_311" data-name="패스 311" class="cls-1" d="M2183.793,3133.584a4.71,4.71,0,0,1,.938,1.264,3.31,3.31,0,0,1,.36,1.519,4.178,4.178,0,0,1-.418,1.856,4.731,4.731,0,0,1-1.159,1.507,5.144,5.144,0,0,1-1.7,1.009,6.082,6.082,0,0,1-2.1.359,6.154,6.154,0,0,1-2.122-.359,5.14,5.14,0,0,1-1.7-1.009,4.744,4.744,0,0,1-1.125-1.507,4.278,4.278,0,0,1-.406-1.856,3.4,3.4,0,0,1,.348-1.519,4.492,4.492,0,0,1,.927-1.264h-2.667v-2.249h13.286v1.855h2.064v-5.009h2.852v13.17h-2.852v-2.272h-2.6v-2.18h2.6v-1.553h-2.6v-1.763Zm-7.838-5.5h7.443v2.249h-7.443Zm3.757,5.728a2.29,2.29,0,0,0-.951.208,3.332,3.332,0,0,0-.835.533,2.538,2.538,0,0,0-.579.8,2.324,2.324,0,0,0,0,1.924,2.542,2.542,0,0,0,.579.8,2.834,2.834,0,0,0,.835.545,2.414,2.414,0,0,0,.951.2,2.358,2.358,0,0,0,.927-.2,2.539,2.539,0,0,0,.812-.545,2.726,2.726,0,0,0,.591-.8,2.21,2.21,0,0,0,0-1.924,2.722,2.722,0,0,0-.591-.8,2.941,2.941,0,0,0-.812-.533A2.238,2.238,0,0,0,2179.712,3133.817Zm5.472,17.111a5.963,5.963,0,0,1-2.156-.382,5.477,5.477,0,0,1-1.739-1.055,4.839,4.839,0,0,1-1.16-1.577,4.756,4.756,0,0,1,0-3.9,5.109,5.109,0,0,1,1.16-1.6,5.662,5.662,0,0,1,1.739-1.066,6.062,6.062,0,0,1,4.3,0,5.647,5.647,0,0,1,1.75,1.066,5.292,5.292,0,0,1,1.171,1.6,4.635,4.635,0,0,1,0,3.9,5.006,5.006,0,0,1-1.171,1.577,5.464,5.464,0,0,1-1.75,1.055A6,6,0,0,1,2185.184,3150.928Zm2.643-4.961a2.614,2.614,0,0,0-.777-1.9,2.53,2.53,0,0,0-1.866-.788,2.69,2.69,0,0,0-1.913,4.556,2.47,2.47,0,0,0,1.843.777,2.666,2.666,0,0,0,1.9-.777A2.492,2.492,0,0,0,2187.827,3145.966Z" transform="translate(-115.41)"/>
    <path id="패스_312" data-name="패스 312" class="cls-1" d="M2222.758,3139.247a5.15,5.15,0,0,1-1.658-.7,5.688,5.688,0,0,1-1.31-1.159,5.028,5.028,0,0,1-.858-1.507,5.434,5.434,0,0,1,.116-3.873,5,5,0,0,1,1.182-1.692,5.7,5.7,0,0,1,1.751-1.148,5.692,5.692,0,0,1,4.335,0,6,6,0,0,1,1.774,1.148,5.482,5.482,0,0,1,1.182,1.692,5.166,5.166,0,0,1-.7,5.322,5.4,5.4,0,0,1-2.9,1.866v2.226q1.67-.07,3.2-.186t2.5-.255v2.18q-.742.116-1.9.208t-2.527.186q-1.345.093-2.76.151t-2.6.058l-4.428.023v-2.226h4.544q.51,0,1.044-.023Zm1.391-8.139a2.441,2.441,0,0,0-1.89.87,3.067,3.067,0,0,0-.777,2.121,2.987,2.987,0,0,0,.777,2.1,2.47,2.47,0,0,0,1.89.846,2.54,2.54,0,0,0,1.913-.846,2.939,2.939,0,0,0,.8-2.1,3.016,3.016,0,0,0-.8-2.121A2.509,2.509,0,0,0,2224.149,3131.109Zm8.046,15.768v-18.5h2.829v18.5Z" transform="translate(-137.913 -0.145)"/>
    <path id="패스_313" data-name="패스 313" class="cls-1" d="M2264.043,3141.032v-5.518h2.829v5.449q2.017-.07,3.93-.208t3.1-.279v2.157q-.719.116-1.89.22t-2.516.2q-1.368.07-2.782.127t-2.6.058l-3.872.023v-2.226Zm7.258-2.087h-2.922a13.242,13.242,0,0,0,.347-1.681q.162-1.055.279-2.145t.174-2.017q.057-.927.058-1.3h-7.211v-2.342h10.179q0,.765-.034,1.982t-.128,2.423q-.139,1.415-.324,2.818A18.224,18.224,0,0,1,2271.3,3138.946Zm6.237-3.037h3.107v2.318h-3.107v8.649h-2.829v-18.5h2.829Z" transform="translate(-159.838 -0.145)"/>
    <path id="패스_314" data-name="패스 314" class="cls-1" d="M2318.45,3140.591v2.156q-.742.116-1.913.22t-2.516.2q-1.368.07-2.77.128t-2.586.058l-4.22.024v-2.227h3.363q1.228,0,2.724-.046t2.956-.116q1.462-.093,2.771-.186T2318.45,3140.591Zm-7.211-11.872a5.483,5.483,0,0,1,2.168.429,6,6,0,0,1,1.774,1.148,5.5,5.5,0,0,1,1.182,1.692,5.166,5.166,0,0,1,0,4.173,5.5,5.5,0,0,1-1.182,1.693,5.625,5.625,0,0,1-1.774,1.124,5.987,5.987,0,0,1-4.336,0,5.352,5.352,0,0,1-1.751-1.124,4.992,4.992,0,0,1-1.182-1.693,5.418,5.418,0,0,1,0-4.173,4.989,4.989,0,0,1,1.182-1.692,5.692,5.692,0,0,1,1.751-1.148A5.481,5.481,0,0,1,2311.239,3128.719Zm0,2.365a2.44,2.44,0,0,0-1.889.87,3.068,3.068,0,0,0-.777,2.122,2.986,2.986,0,0,0,.777,2.1,2.469,2.469,0,0,0,1.889.846,2.54,2.54,0,0,0,1.913-.846,2.937,2.937,0,0,0,.8-2.1,3.016,3.016,0,0,0-.8-2.122A2.51,2.51,0,0,0,2311.239,3131.084Zm8,15.837v-18.6h2.875v18.6Z" transform="translate(-182.34 -0.12)"/>
    <path id="패스_315" data-name="패스 315" class="cls-1" d="M2352.236,3140.29h-.649l-4.73.023v-2.156h3.872q1.229,0,2.724-.046t2.956-.139q1.462-.093,2.771-.186t2.191-.209v2.134q-.973.139-2.678.267t-3.536.22v2.968h-2.922Zm6.771-7.281a3.912,3.912,0,0,1-.429,1.8,4.821,4.821,0,0,1-1.147,1.472,5.151,5.151,0,0,1-1.693,1.009,6.13,6.13,0,0,1-4.139,0,5.171,5.171,0,0,1-1.681-1.009,4.666,4.666,0,0,1-1.136-1.472,4.005,4.005,0,0,1-.417-1.8,3.96,3.96,0,0,1,.417-1.774,4.681,4.681,0,0,1,1.136-1.472,5.581,5.581,0,0,1,1.681-1,5.955,5.955,0,0,1,4.139,0,5.555,5.555,0,0,1,1.693,1,4.838,4.838,0,0,1,1.147,1.472A3.869,3.869,0,0,1,2359.007,3133.009Zm-2.852,0a2.167,2.167,0,0,0-.719-1.646,2.484,2.484,0,0,0-1.762-.672,2.455,2.455,0,0,0-1.739.672,2.244,2.244,0,0,0,.012,3.3,2.44,2.44,0,0,0,1.727.685,2.472,2.472,0,0,0,1.751-.685A2.187,2.187,0,0,0,2356.155,3133.009Zm-3.9,11.061h2.876v3.478h10.04v2.318H2352.26Zm9.924-1.113h-4.614V3140.8h4.614v-12.475h2.852v16.416h-2.852Z" transform="translate(-203.93 -0.12)"/>
  </g>
</svg>
