<svg xmlns="http://www.w3.org/2000/svg" width="90.249" height="33.847" viewBox="0 0 90.249 33.847">
  <defs>
    <style>
      .cls-1 {
        fill: #5c5a5b;
      }

      .cls-2 {
        fill: #de032b;
      }
    </style>
  </defs>
  <g id="img_mall_04" transform="translate(879.083 -3456.865)">
    <path id="패스_33" data-name="패스 33" class="cls-1" d="M-718.181,3479.567c1.133,1.44,2.24,2.847,3.349,4.251a1.307,1.307,0,0,0,.238.173,5.675,5.675,0,0,0,1.025-2.215h2.964a11.568,11.568,0,0,1-2.213,4.744l2.894,3.636c-1.3,0-2.442,0-3.589,0-.26,0-.39-.168-.524-.347-.281-.374-.564-.745-.835-1.1-.281-.026-.424.168-.6.284a7.988,7.988,0,0,1-7.4.891,5.216,5.216,0,0,1-3.506-4.423,6.368,6.368,0,0,1,2.927-6.534c.177-.125.4-.2.531-.43a24.657,24.657,0,0,1-1.394-2.12,4.737,4.737,0,0,1,2.155-6.634,5.551,5.551,0,0,1,5.647.492,4.771,4.771,0,0,1,1.023,6.8,8.006,8.006,0,0,1-2.131,2.054A1.749,1.749,0,0,0-718.181,3479.567Zm-2.876,1.244a4.837,4.837,0,0,0-2.085,2.206,3.047,3.047,0,0,0,1.682,4.091,4.815,4.815,0,0,0,3.159.082,2.4,2.4,0,0,0,1.439-1Zm.959-3.567c.527-.372.967-.654,1.375-.977a3.464,3.464,0,0,0,.97-1.112,2.256,2.256,0,0,0-.374-2.591,2.3,2.3,0,0,0-2.6-.367,2.181,2.181,0,0,0-1.076,2.373C-721.606,3475.678-720.733,3476.32-720.1,3477.244Z" transform="translate(-127.328 -10.29)"/>
    <path id="패스_34" data-name="패스 34" class="cls-2" d="M-416.191,3583.756a6.292,6.292,0,0,1,3.446-4.762,6.511,6.511,0,0,1,7.041.344,6.636,6.636,0,0,1,2.993,4.848,6.834,6.834,0,0,1-5.577,7.585,6.749,6.749,0,0,1-7.9-5.42Q-416.188,3585.054-416.191,3583.756Z" transform="translate(-386.211 -101.172)"/>
    <path id="패스_35" data-name="패스 35" class="cls-1" d="M-462.114,3483.743h2.453a73.907,73.907,0,0,0,.047-8.429h-2.494c-.129-.921-.035-1.791-.074-2.711h15.867v2.689H-448.9v8.379c.836.193,1.717-.02,2.6.12v2.5c-.625.175-13.029.25-15.811.089Zm9.83-.025v-8.374h-4v8.374Z" transform="translate(-347.838 -13.131)"/>
    <path id="패스_36" data-name="패스 36" class="cls-1" d="M-843.265,3603.292v8.967a1.011,1.011,0,0,1-.667.094c-4.358,0-8.718-.045-13.075.026a3.044,3.044,0,0,1-3.124-3.092c.08-1.928.021-3.861.024-5.792a1.085,1.085,0,0,1,.049-.2Zm-13.525,2.627v3.735h10.352v-3.735Z" transform="translate(-15.811 -122.171)"/>
    <path id="패스_37" data-name="패스 37" class="cls-2" d="M-850.2,3491.764a6.762,6.762,0,0,1,6.8-6.808,6.9,6.9,0,0,1,6.855,6.874,6.9,6.9,0,0,1-6.853,6.848A6.735,6.735,0,0,1-850.2,3491.764Zm3.148-.06a3.635,3.635,0,0,0,3.555,3.7,3.665,3.665,0,0,0,3.767-3.579,3.642,3.642,0,0,0-3.607-3.737A3.622,3.622,0,0,0-847.055,3491.7Z" transform="translate(-24.083 -23.438)"/>
    <path id="패스_38" data-name="패스 38" class="cls-1" d="M-607.5,3550.022v-5.8c.793,0,1.534-.041,2.268.011a1.2,1.2,0,0,1,1.177,1.337c.02,1.187,0,2.374.008,3.561a1.863,1.863,0,0,0,.078.846h3.931v-5.758c.826,0,1.567-.034,2.3.01a1.2,1.2,0,0,1,1.155,1.349c.015,1.187,0,2.374,0,3.562v.884h5.947v2.723h-23.058a4.586,4.586,0,0,1-.068-1.293c-.014-.436,0-.873,0-1.333a8.757,8.757,0,0,1,2.106-.1c.662-.021,1.325,0,1.988,0Z" transform="translate(-221.366 -72.878)"/>
    <path id="패스_39" data-name="패스 39" class="cls-1" d="M-597.171,3469.431h2.739c1.507,4.6,4.722,7.639,9.012,9.746l-1.323,2.737a18.973,18.973,0,0,1-9.043-7.745c-2.087,3.639-5.27,5.99-9,7.846l-1.377-2.824C-601.931,3477.078-598.644,3474.069-597.171,3469.431Z" transform="translate(-227.704 -10.484)"/>
    <path id="패스_40" data-name="패스 40" class="cls-1" d="M-855.894,3571.668v2.727h-23.112a4.906,4.906,0,0,1-.059-1.335c-.017-.434,0-.87,0-1.373h9.7c.234-.476.021-.936.209-1.449a7.944,7.944,0,0,1,2.629.083,1.035,1.035,0,0,1,.716.74c.058.182.111.365.184.608Z" transform="translate(0 -94.535)"/>
    <path id="패스_41" data-name="패스 41" class="cls-1" d="M-354.436,3463.25c.757,0,1.47-.022,2.181.007a1.144,1.144,0,0,1,1.1.953,2.26,2.26,0,0,1,.059.655q0,8.076,0,16.15c0,.136-.011.272-.021.5-1.1.061-2.184.011-3.315.031Z" transform="translate(-437.736 -5.321)"/>
    <path id="패스_42" data-name="패스 42" class="cls-1" d="M-856.875,3460.985v-2.462c2.06,0,4.11,0,6.2,0a15.2,15.2,0,0,0,.113-1.645c.765,0,1.526-.03,2.284.011a1.063,1.063,0,0,1,.92.837,5.115,5.115,0,0,1,.131.79h6.2v2.472Z" transform="translate(-18.529)"/>
    <path id="패스_43" data-name="패스 43" class="cls-1" d="M-417.205,3612.123q0,1.3.005,2.6A4.233,4.233,0,0,1-417.205,3612.123Z" transform="translate(-385.197 -129.539)"/>
  </g>
</svg>
