<svg xmlns="http://www.w3.org/2000/svg" width="130.839" height="21.251" viewBox="0 0 130.839 21.251">
  <defs>
    <style>
      .cls-1 {
        fill: #080808;
      }

      .cls-2 {
        fill: #060606;
      }

      .cls-3 {
        fill: #070707;
      }
    </style>
  </defs>
  <g id="img_mall_07" transform="translate(-1712.69 -3109.661)">
    <path id="패스_151" data-name="패스 151" class="cls-1" d="M1937.029,3126.478c-1.072-1.659-1.96-3.018-2.833-4.387a24.886,24.886,0,0,0-2.973-4.049v12.647h-4.417v-20.35h4.685l5.536,8.578,5.563-8.561h4.748V3130.6a13.964,13.964,0,0,1-4.352.1v-12.565l-.446-.169Z" transform="translate(-103.81 -0.328)"/>
    <path id="패스_152" data-name="패스 152" class="cls-1" d="M1901.779,3120.3a10.768,10.768,0,0,1-21.536-.127,10.771,10.771,0,0,1,21.536.127Zm-10.79-6.315a6.253,6.253,0,1,0,6.321,6.081A6.251,6.251,0,0,0,1890.988,3113.989Z" transform="translate(-81.234 -0.021)"/>
    <path id="패스_153" data-name="패스 153" class="cls-2" d="M1798.533,3122.588c-1.3-.6-2.743.125-4.107-.492v-3.486c2.782-.309,5.553-.1,8.441-.133v8.664c-2.894,4-10.953,5.428-15.814.884a10.746,10.746,0,0,1-.609-15.037c4.018-4.441,11.892-4.317,15.3-.333a15.2,15.2,0,0,1-2.848,2.99c-1.777-1.179-3.69-2.079-5.934-1.54a6.4,6.4,0,0,0-3.611,2.316,6.22,6.22,0,0,0,.335,8.041c2.271,2.622,5.145,2.9,8.829.834A4.115,4.115,0,0,0,1798.533,3122.588Z" transform="translate(-34.412)"/>
    <path id="패스_154" data-name="패스 154" class="cls-1" d="M1728.352,3112.2l-2.235,3.3c-2.465-1.081-4.88-2.984-7.626-1.311a2.227,2.227,0,0,0-.256,2.36c1.812,1.343,4.021,1.466,6.021,2.157,3.406,1.176,4.75,2.852,4.711,5.888a5.745,5.745,0,0,1-4.493,5.814c-4.386,1.164-8.257.048-11.783-2.75a12.6,12.6,0,0,1,2.564-3.106c2.325,1.408,4.686,2.859,7.606,2.136.771-.19.76-.234,1.63-1.767-.069-1.409-1.171-1.794-2.224-2.148-1.618-.544-3.3-.916-4.891-1.518-3.075-1.16-4.331-3.183-3.949-6.107a6.1,6.1,0,0,1,5.407-5.354C1722.253,3109.387,1725.492,3109.85,1728.352,3112.2Z" transform="translate(0 -0.001)"/>
    <path id="패스_155" data-name="패스 155" class="cls-3" d="M1763.611,3112.251l-2.375,3.342a11.358,11.358,0,0,0-4.268-1.908,4.161,4.161,0,0,0-2.273.065c-.766.282-1.407.686-1.5,1.57a1.67,1.67,0,0,0,1.182,1.793c.948.379,1.944.638,2.916.956a35.355,35.355,0,0,1,3.4,1.142,5.679,5.679,0,0,1,3.66,5.64,6.088,6.088,0,0,1-4.6,5.556c-4.385,1.164-8.268.031-11.909-2.786l2.369-2.924c1.091-.125,1.611.708,2.344,1.082a8.031,8.031,0,0,0,5.452.941,1.946,1.946,0,0,0,1.713-1.674,1.715,1.715,0,0,0-1.356-1.921c-2.023-.682-4.1-1.218-6.082-2a5.526,5.526,0,0,1-3.212-7.569,5.893,5.893,0,0,1,4.866-3.723C1757.329,3109.376,1760.595,3109.762,1763.611,3112.251Z" transform="translate(-17.04 -0.002)"/>
    <path id="패스_156" data-name="패스 156" class="cls-1" d="M1856.519,3116c-4.123-2.67-7.327-2.614-9.72.115a6.063,6.063,0,0,0-.055,8.2c2.365,2.711,5.637,2.795,9.857.13l2.48,2.957c-1.76,3.4-8.991,5.124-14.033,1.373a10.734,10.734,0,0,1-1.671-15.5c4.038-4.807,12.279-4.667,15.914-.2A16.849,16.849,0,0,1,1856.519,3116Z" transform="translate(-62.121 -0.012)"/>
    <path id="패스_157" data-name="패스 157" class="cls-1" d="M1830.513,3145.3a2.624,2.624,0,0,1-2.522-2.687,2.586,2.586,0,0,1,2.613-2.325,2.507,2.507,0,1,1-.091,5.011Z" transform="translate(-55.898 -14.851)"/>
  </g>
</svg>
