<svg xmlns="http://www.w3.org/2000/svg" width="97.448" height="38.745" viewBox="0 0 97.448 38.745">
  <defs>
    <style>
      .cls-1 {
        fill: #e30e1b;
      }

      .cls-2 {
        fill: #3f474a;
      }
    </style>
  </defs>
  <g id="img_mall_06" transform="translate(-30.133 -4840.957)">
    <path id="패스_133" data-name="패스 133" class="cls-1" d="M270.511,4840.968c3.264.071,6.293.83,8.6,3.322a9.1,9.1,0,0,1-3.277,14.6,13.392,13.392,0,0,1-10.278.148,8.869,8.869,0,0,1-6.015-8.716,8.983,8.983,0,0,1,6.367-8.607,13.933,13.933,0,0,1,4.6-.75Zm-5.672,9.6a7.6,7.6,0,0,0,1.347,4.721,4.959,4.959,0,0,0,8.552.16,9.072,9.072,0,0,0-.287-10.346,4.846,4.846,0,0,0-7.757-.142A7.919,7.919,0,0,0,264.839,4850.564Z" transform="translate(-213.398)"/>
    <path id="패스_134" data-name="패스 134" class="cls-1" d="M1197.3,4858.407H1208a5.879,5.879,0,0,1,.137,2.09H1197.3c0,1.792-.031,3.474.013,5.154.023.891.715.946,1.413.943q4.1-.012,8.21,0a3,3,0,0,1,1.315.127,6.558,6.558,0,0,1,.005,1.958,2.961,2.961,0,0,1-.521.1c-4.431.006-8.861.019-13.292,0a2.157,2.157,0,0,1-2.473-2.481q-.017-6.321,0-12.641a2.062,2.062,0,0,1,2.3-2.351c4.474-.02,8.948-.007,13.422,0a4.346,4.346,0,0,1,.541.069,8.173,8.173,0,0,1,.043,2.071h-4.047c-1.868,0-3.736.026-5.6-.01-.939-.019-1.364.358-1.344,1.3C1197.314,4855.907,1197.3,4857.079,1197.3,4858.407Z" transform="translate(-1080.749 -9.62)"/>
    <path id="패스_135" data-name="패스 135" class="cls-1" d="M599.658,4869.686h-5.465v-15.3h-7.166v-2.093h18.649a9.586,9.586,0,0,1,.067,2.027h-6.085Z" transform="translate(-518.029 -10.546)"/>
    <path id="패스_136" data-name="패스 136" class="cls-1" d="M893.475,4870.1h-5.467v-15.279h-6a6.807,6.807,0,0,1-.134-2.081h18.665a9.791,9.791,0,0,1,.059,2h-7.128Z" transform="translate(-792.292 -10.962)"/>
    <path id="패스_137" data-name="패스 137" class="cls-1" d="M30.135,4852.144H35.31a2.388,2.388,0,0,1,.145,1.316c.01,4.081,0,8.163.008,12.244,0,1.459.2,1.666,1.645,1.671,2.774.011,5.547,0,8.358,0a4.128,4.128,0,0,1,.095,2.043,2.429,2.429,0,0,1-1.331.148q-5.731.015-11.463,0c-1.856-.005-2.625-.768-2.629-2.6C30.129,4862.065,30.135,4857.162,30.135,4852.144Z" transform="translate(0 -10.407)"/>
    <path id="패스_138" data-name="패스 138" class="cls-2" d="M283.737,5247.078h-2.243v-7.826a3.87,3.87,0,0,1,2.416.217c1.505-.845,2.279-.787,3.589.332a7.649,7.649,0,0,1,1.165-.723,2.41,2.41,0,0,1,3.454,2.274c.054,1.861.012,3.726.012,5.659a9.183,9.183,0,0,1-2.29.107c0-1.345,0-2.589,0-3.834,0-.39.013-.782-.01-1.171-.037-.622-.265-1.141-.986-1.123-.684.018-.978.458-.974,1.128.007,1.127,0,2.255,0,3.383,0,.475,0,.951,0,1.472a7.758,7.758,0,0,1-2.2.17c0-1.346,0-2.586,0-3.827,0-.347.007-.694,0-1.041-.02-.649-.145-1.292-.957-1.272-.747.019-.988.55-.977,1.262C283.754,5243.825,283.737,5245.385,283.737,5247.078Z" transform="translate(-233.819 -370.134)"/>
    <path id="패스_139" data-name="패스 139" class="cls-2" d="M43.521,5209.582a10.292,10.292,0,0,1-2.3.025c-.27-1.523.084-3.045-.217-4.583H38.158v4.509a7.518,7.518,0,0,1-2.458.048v-10.889a6.921,6.921,0,0,1,2.4-.029v4.1h2.98v-4.017a8.291,8.291,0,0,1,2.444-.159Z" transform="translate(-5.178 -332.66)"/>
    <path id="패스_140" data-name="패스 140" class="cls-2" d="M1328.164,5241.186c0,2.755.1,5.441-.037,8.115-.078,1.532-1.714,2.567-3.465,2.493a3,3,0,0,1-3.233-3.052,6.277,6.277,0,0,1,2.081-.077c.316.636.629,1.421,1.574,1.124s.839-1.078.732-1.935a2.977,2.977,0,0,1-3.839-.68,4.055,4.055,0,0,1-.549-4.3,2.713,2.713,0,0,1,3.8-1.621c.459.2.7-.049,1.042-.062C1326.864,5241.168,1327.464,5241.186,1328.164,5241.186Zm-2.287,3.426c-.007-1.041-.461-1.663-1.216-1.666-.74,0-1.242.661-1.254,1.657-.011.975.608,1.806,1.316,1.764C1325.4,5246.327,1325.883,5245.6,1325.876,5244.612Z" transform="translate(-1200.84 -372.107)"/>
    <path id="패스_141" data-name="패스 141" class="cls-2" d="M1039.435,5247.912c0,.642.018,1.111,0,1.578a3.173,3.173,0,0,1-.135,1.44,6.5,6.5,0,0,1-2.082-.025v-10.469c.781-.01,1.559-.358,2.3.234.245.2.461-.117.683-.217a2.582,2.582,0,0,1,3.654,1.111,5.357,5.357,0,0,1-.13,5.678C1042.85,5248.678,1041.7,5248.836,1039.435,5247.912Zm2.805-3.608c-.011-1.228-.626-2.17-1.41-2.162s-1.476,1.151-1.383,2.323c.1,1.206.685,2.048,1.421,2.033C1041.651,5246.48,1042.251,5245.521,1042.24,5244.3Z" transform="translate(-936.798 -371.301)"/>
    <path id="패스_142" data-name="패스 142" class="cls-2" d="M919.835,5247.851v3.008a6.732,6.732,0,0,1-2.21-.012v-10.487c.777,0,1.539-.319,2.25.18.356.249.544-.081.789-.187a2.593,2.593,0,0,1,3.57,1.114,5.361,5.361,0,0,1-.026,5.578C923.322,5248.581,922.134,5248.8,919.835,5247.851Zm2.818-3.561c.008-1.207-.6-2.173-1.374-2.2-.807-.025-1.491,1.058-1.435,2.273.053,1.147.663,2.063,1.385,2.082C922,5246.466,922.645,5245.493,922.654,5244.29Z" transform="translate(-825.556 -371.244)"/>
    <path id="패스_143" data-name="패스 143" class="cls-2" d="M690.587,5209.563a7.269,7.269,0,0,1-2.3.018c0-1.5,0-3,0-4.5,0-.77.007-1.6-1.061-1.563-.946.03-1.17.751-1.171,1.565,0,1.471,0,2.942,0,4.431a10.4,10.4,0,0,1-2.208.169v-11.036a7.434,7.434,0,0,1,2.2.019v3.239c.486.191.723-.15,1.026-.252a2.5,2.5,0,0,1,3.49,2.19C690.671,5205.743,690.587,5207.649,690.587,5209.563Z" transform="translate(-608.09 -332.664)"/>
    <path id="패스_144" data-name="패스 144" class="cls-2" d="M453.888,5243.392h-4.952a1.526,1.526,0,0,0,.959,1.812c.945.384,1.414-.3,1.835-.923h2.086a3.2,3.2,0,0,1-2.739,2.883,3.608,3.608,0,0,1-4.1-2.028,5.081,5.081,0,0,1-.064-4.164,3.679,3.679,0,0,1,3.459-2.312,3.609,3.609,0,0,1,3.331,2.642A4.2,4.2,0,0,1,453.888,5243.392Zm-2.36-1.665c-.268-.8-.7-1.184-1.4-1.077a1.234,1.234,0,0,0-1.086,1.148c.7,0,1.293,0,1.889,0C451.095,5241.795,451.255,5241.76,451.528,5241.728Z" transform="translate(-387.309 -369.948)"/>
    <path id="패스_145" data-name="패스 145" class="cls-2" d="M1206.685,5239.621c.817.1,1.561-.207,2.25.222.346.215.554-.131.811-.234a2.693,2.693,0,0,1,3.963,2.566c.022,1.6,0,3.211,0,4.816,0,.129-.021.258-.039.471a7.515,7.515,0,0,1-2.275.061c0-1.461,0-2.875,0-4.29,0-1.217-.383-1.786-1.187-1.808-.826-.021-1.292.634-1.3,1.871-.01,1.379,0,2.758,0,4.2h-2.221Z" transform="translate(-1094.443 -370.574)"/>
    <path id="패스_146" data-name="패스 146" class="cls-2" d="M167.31,5243.385c.011,2.332-1.5,4.138-3.525,4.21-2.662.094-4.5-2.3-3.949-5.148a3.8,3.8,0,0,1,3.975-3.339C165.875,5239.293,167.3,5241.034,167.31,5243.385Zm-5.213-.039c-.013,1.275.605,2.286,1.411,2.308s1.477-.993,1.485-2.252c.008-1.231-.648-2.291-1.433-2.315C162.754,5241.063,162.11,5242.056,162.1,5243.346Z" transform="translate(-120.561 -370.352)"/>
    <path id="패스_147" data-name="패스 147" class="cls-2" d="M568.356,5244.481a8.967,8.967,0,0,1,2.043-.064c.939,1.2,1.549,1.305,2.66.472,0-.79-.675-.806-1.171-.928a10.109,10.109,0,0,1-2.221-.694,2.118,2.118,0,0,1-.77-3.282c1.065-1.329,2.562-1.322,4.044-1.024a2.609,2.609,0,0,1,2.179,2.517c-.967.057-1.839.433-2.679-.524a1,1,0,0,0-1.686.369c.282.573.826.611,1.316.732a7.9,7.9,0,0,1,2.208.722,2.117,2.117,0,0,1,.855,3.01c-.66,1.27-2.36,1.847-4.375,1.485A2.786,2.786,0,0,1,568.356,5244.481Z" transform="translate(-500.661 -370.078)"/>
    <path id="패스_148" data-name="패스 148" class="cls-2" d="M794.825,5243.657c0-2.958,2-4.849,4.475-4.37a3.351,3.351,0,0,1,2.29,1.564,4.92,4.92,0,0,1,.445,4.365,3.525,3.525,0,0,1-3.932,2.482,3.767,3.767,0,0,1-3.215-3.267C794.84,5244.134,794.838,5243.828,794.825,5243.657Zm5.213-.16c0-1.239-.665-2.286-1.454-2.3s-1.462,1.019-1.483,2.274c-.02,1.22.661,2.292,1.455,2.292C799.367,5245.764,800.041,5244.733,800.038,5243.5Z" transform="translate(-711.326 -370.463)"/>
    <path id="패스_149" data-name="패스 149" class="cls-2" d="M1157.938,5248.063h2.233v7.46a5.682,5.682,0,0,1-2.233.136Z" transform="translate(-1049.098 -378.696)"/>
    <path id="패스_150" data-name="패스 150" class="cls-2" d="M1159.172,5201.537h-2.157a5.274,5.274,0,0,1-.1-2.017h2.158A8.111,8.111,0,0,1,1159.172,5201.537Z" transform="translate(-1048.105 -333.54)"/>
  </g>
</svg>
