<svg xmlns="http://www.w3.org/2000/svg" width="135.634" height="19.761" viewBox="0 0 135.634 19.761">
  <defs>
    <style>
      .cls-1 {
        fill: #5a1eaa;
      }
    </style>
  </defs>
  <g id="img_mall_11" transform="translate(990.34 -4072.907)">
    <path id="패스_80" data-name="패스 80" class="cls-1" d="M-990.34,4088.506l1.892-1.013c.193.392.366.766.558,1.13a4.288,4.288,0,0,0,5.86,1.578,2.846,2.846,0,0,0,.085-4.734,11.716,11.716,0,0,0-2.12-.962c-1.12-.461-2.3-.8-3.366-1.365a4.854,4.854,0,0,1-2.708-5.174,5.105,5.105,0,0,1,4.171-4.277c3.368-.743,6.286.655,7.5,3.6a6.477,6.477,0,0,1,.2.75l-2.018.831c-.138-.26-.224-.4-.292-.554-1.155-2.521-2.857-2.641-4.79-2.392a2.74,2.74,0,0,0-2.411,2.387,2.552,2.552,0,0,0,1.544,2.863c.69.355,1.442.59,2.165.88.964.387,1.967.7,2.885,1.179,2.246,1.167,3.038,2.891,2.648,5.519a4.877,4.877,0,0,1-4.081,4.15,6.97,6.97,0,0,1-3.6-.109A5.677,5.677,0,0,1-990.34,4088.506Z" transform="translate(0 -0.431)"/>
    <path id="패스_81" data-name="패스 81" class="cls-1" d="M-920.576,4078l-2.015.8c-.223-.4-.4-.731-.588-1.06a4.158,4.158,0,0,0-5.551-1.529,2.671,2.671,0,0,0-.15,4.7,16.009,16.009,0,0,0,2.368,1.053c1.038.434,2.115.786,3.12,1.284,2.225,1.1,2.839,3.04,2.538,5.352a4.69,4.69,0,0,1-3.4,4.039,6.908,6.908,0,0,1-5.081-.188,5.686,5.686,0,0,1-3.363-4.011l1.92-1c.207.42.38.8.581,1.171a4.287,4.287,0,0,0,5.663,1.625,2.841,2.841,0,0,0,.3-4.8,10.719,10.719,0,0,0-2.111-.979c-1.12-.462-2.3-.8-3.371-1.355a4.846,4.846,0,0,1-2.715-5.412,5.233,5.233,0,0,1,4.2-4.1A6.275,6.275,0,0,1-920.576,4078Z" transform="translate(-42.607 -0.365)"/>
    <path id="패스_82" data-name="패스 82" class="cls-1" d="M-870.943,4076.859v6.2c3.084.168,6.1-.026,9.193.114v2.062l-9.264.052v8.38h-2.174v-18.935h11.414v2.128Z" transform="translate(-86.594 -1.348)"/>
    <path id="패스_83" data-name="패스 83" class="cls-1" d="M-580.907,4083.168a9.3,9.3,0,0,1-9.682,9.693,9.355,9.355,0,0,1-9.638-9.628,9.322,9.322,0,0,1,9.7-9.695A9.2,9.2,0,0,1-580.907,4083.168Zm-.9.051a8.391,8.391,0,0,0-8.77-8.793c-4.977.006-8.811,3.39-8.784,8.817a8.435,8.435,0,0,0,8.743,8.734A8.464,8.464,0,0,0-581.8,4083.219Z" transform="translate(-288.357 -0.466)"/>
    <path id="패스_84" data-name="패스 84" class="cls-1" d="M-708.991,4077.411l-.739.322a3.624,3.624,0,0,1-.3-.478c-1.3-3.139-5.614-3.636-8.036-1.978a3.561,3.561,0,0,0,.032,6.015,16.374,16.374,0,0,0,2.847,1.243c1.127.446,2.31.767,3.4,1.292a4.342,4.342,0,0,1,2.656,4.753,4.708,4.708,0,0,1-3.754,4,7.677,7.677,0,0,1-4.6-.266,4.947,4.947,0,0,1-3.216-3.33,1.711,1.711,0,0,1,.273-.3,1.4,1.4,0,0,1,.337-.122c.092.061.2.09.225.153,1.1,2.9,4.4,3.728,6.977,2.925a3.76,3.76,0,0,0,2.833-3.228,3.579,3.579,0,0,0-2.05-3.745,31.712,31.712,0,0,0-3.146-1.211c-.89-.337-1.806-.62-2.662-1.028a4.3,4.3,0,0,1-2.7-4.358,4.538,4.538,0,0,1,3.47-4.233,7.216,7.216,0,0,1,4.968.133A5.042,5.042,0,0,1-708.991,4077.411Z" transform="translate(-199.304 -0.413)"/>
    <path id="패스_85" data-name="패스 85" class="cls-1" d="M-661.48,4072.907v9.355h11.652c.045-.578.116-1.085.119-1.594.013-2.172,0-4.345.014-6.517,0-.389-.178-.893.374-1.092a1.038,1.038,0,0,1,.156.056c.035.02.087.051.09.081a9.077,9.077,0,0,1,.1,1.02c.006,6.029,0,12.059,0,18.355-.37-.292-.632-.394-.671-.552a4.348,4.348,0,0,1-.059-1.035c0-2.042,0-4.084-.005-6.126,0-.47-.048-.94-.08-1.506h-11.668c-.012,1.482-.029,2.982-.036,4.482s0,3,0,4.5l-.274.082c-.145-.153-.369-.286-.416-.464a3.614,3.614,0,0,1-.041-.907c0-5.561-.008-11.123.012-16.684C-662.209,4073.921-662.457,4073.321-661.48,4072.907Z" transform="translate(-242.521 0)"/>
    <path id="패스_86" data-name="패스 86" class="cls-1" d="M-514.777,4073.025c2.36.1,4.657.085,6.926.332a4.779,4.779,0,0,1,4.051,3.418,7.39,7.39,0,0,1,.1,4.969,5.026,5.026,0,0,1-4.5,3.758c-1.333.138-2.682.135-4.024.182-.556.02-1.114,0-1.787,0-.047.573-.114,1.034-.118,1.5-.015,1.476,0,2.952-.014,4.428,0,.349.108.82-.489.856C-514.952,4091.57-515.085,4076.177-514.777,4073.025Zm.722,11.747c2.268-.03,4.388.269,6.47-.25,2.118-.527,3.341-2.44,3.423-4.949.091-2.8-1.323-4.717-3.34-5.266-2.114-.576-4.275-.261-6.559-.248C-514.171,4077.672-514.184,4081.152-514.055,4084.771Z" transform="translate(-351.39 -0.087)"/>
    <g id="그룹_48" data-name="그룹 48" transform="translate(-942.918 4073.136)">
      <path id="패스_87" data-name="패스 87" class="cls-1" d="M-749.669,4077.518l-.372-.44,2.914-2.925.463.432Z" transform="translate(765.298 -4074.057)"/>
      <path id="패스_88" data-name="패스 88" class="cls-1" d="M-804.4,4132.62l-3.078,2.987-.329-.566,2.906-2.856Z" transform="translate(807.995 -4116.952)"/>
      <path id="패스_89" data-name="패스 89" class="cls-1" d="M-765.654,4092.6l.392.493-3.018,2.842-.391-.346Z" transform="translate(779.068 -4087.689)"/>
      <path id="패스_90" data-name="패스 90" class="cls-1" d="M-788.91,4117.039l-.453-.423,3-2.89a2.443,2.443,0,0,1,.229.2.793.793,0,0,1,.111.176Z" transform="translate(794.363 -4103.308)"/>
      <path id="패스_91" data-name="패스 91" class="cls-1" d="M-804.472,4116.529l-.379.414-2.958-3.019.381-.407Z" transform="translate(807.998 -4103.155)"/>
      <path id="패스_92" data-name="패스 92" class="cls-1" d="M-768.615,4074.39l.4-.351,2.977,2.963-.424.47Z" transform="translate(779.027 -4073.974)"/>
      <path id="패스_93" data-name="패스 93" class="cls-1" d="M-749.737,4093.124l.346-.37,2.9,2.954-.36.424Z" transform="translate(765.073 -4087.806)"/>
      <path id="패스_94" data-name="패스 94" class="cls-1" d="M-785.854,4135.007l-.463.427-2.926-2.986.406-.441Z" transform="translate(794.274 -4116.82)"/>
      <path id="패스_95" data-name="패스 95" class="cls-1" d="M-745.668,4136.9l.617-.577.455.68-.572.483Z" transform="translate(762.065 -4120.014)"/>
      <path id="패스_96" data-name="패스 96" class="cls-1" d="M-803.519,4079.063l.468-.569.593.545-.5.55Z" transform="translate(804.827 -4077.266)"/>
      <path id="패스_97" data-name="패스 97" class="cls-1" d="M-797.775,4083.851l-.539.511-.539-.516.537-.512Z" transform="translate(801.378 -4080.844)"/>
      <path id="패스_98" data-name="패스 98" class="cls-1" d="M-806.985,4074.374l-.562.51-.531-.494.554-.6Z" transform="translate(808.196 -4073.786)"/>
      <path id="패스_99" data-name="패스 99" class="cls-1" d="M-749.83,4132.932l-.585-.656.654-.444.519.544Z" transform="translate(765.574 -4116.691)"/>
      <path id="패스_100" data-name="패스 100" class="cls-1" d="M-759.5,4132.258l.59-.528.471.518-.6.633Z" transform="translate(772.292 -4116.616)"/>
      <path id="패스_101" data-name="패스 101" class="cls-1" d="M-739.484,4142.207l-.61.438a2.66,2.66,0,0,1-.337-.615c-.019-.077.207-.312.293-.3a2.285,2.285,0,0,1,.588.265Z" transform="translate(758.195 -4124.007)"/>
      <path id="패스_102" data-name="패스 102" class="cls-1" d="M-779.911,4101.9l.539.576-.616.521-.551-.642Z" transform="translate(787.841 -4094.567)"/>
      <path id="패스_103" data-name="패스 103" class="cls-1" d="M-763.6,4119.018l-.467-.547.475-.51.557.523Z" transform="translate(775.666 -4106.438)"/>
      <path id="패스_104" data-name="패스 104" class="cls-1" d="M-758.593,4123.025l-.67.6-.553-.657.665-.521Z" transform="translate(772.523 -4109.757)"/>
      <path id="패스_105" data-name="패스 105" class="cls-1" d="M-798.781,4093.263a2.683,2.683,0,0,1,.22-.275c.08-.074.173-.132.3-.23l.514.459-.5.539Z" transform="translate(801.324 -4087.809)"/>
      <path id="패스_106" data-name="패스 106" class="cls-1" d="M-783.776,4098.173l-.5.487-.526-.5C-784.338,4097.457-784.27,4097.457-783.776,4098.173Z" transform="translate(790.994 -4091.414)"/>
      <path id="패스_107" data-name="패스 107" class="cls-1" d="M-749.113,4123.1l-.479.537-.58-.5.464-.573Z" transform="translate(765.394 -4109.843)"/>
      <path id="패스_108" data-name="패스 108" class="cls-1" d="M-788.966,4092.48l.478.563-.532.564-.483-.56Z" transform="translate(794.467 -4087.604)"/>
      <path id="패스_109" data-name="패스 109" class="cls-1" d="M-788.995,4084.368l-.54-.483.5-.584.542.5Z" transform="translate(794.49 -4080.819)"/>
      <path id="패스_110" data-name="패스 110" class="cls-1" d="M-779.652,4073.8l.586.573-.551.551-.583-.515Z" transform="translate(787.59 -4073.797)"/>
      <path id="패스_111" data-name="패스 111" class="cls-1" d="M-803.345,4098.091c.482-.637.5-.638.967-.043l-.441.51Z" transform="translate(804.698 -4091.394)"/>
      <path id="패스_112" data-name="패스 112" class="cls-1" d="M-768.232,4113l.508.533-.526.578-.551-.481Z" transform="translate(779.164 -4102.768)"/>
      <path id="패스_113" data-name="패스 113" class="cls-1" d="M-740.2,4113.369l.438.459c-.423.65-.481.65-.908.021a2.092,2.092,0,0,1,.182-.25A2.761,2.761,0,0,1-740.2,4113.369Z" transform="translate(758.369 -4103.044)"/>
      <path id="패스_114" data-name="패스 114" class="cls-1" d="M-744.469,4118.486l-.5.537-.585-.532.5-.554Z" transform="translate(761.981 -4106.421)"/>
      <path id="패스_115" data-name="패스 115" class="cls-1" d="M-763.651,4136.4l.527.481-.492.592-.585-.472Z" transform="translate(775.764 -4120.068)"/>
      <path id="패스_116" data-name="패스 116" class="cls-1" d="M-783.472,4079.331l-.471.51c-.7-.453-.7-.475-.133-.976Z" transform="translate(790.756 -4077.54)"/>
      <path id="패스_117" data-name="패스 117" class="cls-1" d="M-769.052,4141.591l.538-.5.557.5-.461.565Z" transform="translate(779.35 -4123.535)"/>
      <path id="패스_118" data-name="패스 118" class="cls-1" d="M-807.951,4102.7l-.581-.562.64-.61.639.633Z" transform="translate(808.532 -4094.295)"/>
    </g>
  </g>
</svg>
