<svg xmlns="http://www.w3.org/2000/svg" width="150.492" height="23.214" viewBox="0 0 150.492 23.214">
  <defs>
    <style>
      .cls-1 {
        fill: #da2530;
      }
    </style>
  </defs>
  <g id="img_mall_03" transform="translate(615.534 -2949.894)">
    <path id="패스_72" data-name="패스 72" class="cls-1" d="M219.461,2961.834v20.572a.243.243,0,0,1-.241.241h-6.457a.248.248,0,0,1-.215-.13l-7.095-13.069v12.958a.24.24,0,0,1-.237.241h-4.831a.246.246,0,0,1-.245-.241v-20.572a.247.247,0,0,1,.245-.245h6.449a.243.243,0,0,1,.215.13l7.1,13.143v-13.028a.244.244,0,0,1,.241-.245h4.831a.244.244,0,0,1,.241.245" transform="translate(-695.594 -9.973)"/>
    <path id="패스_73" data-name="패스 73" class="cls-1" d="M37.246,2959.421c-9.5,0-11.351,7.036-11.351,10.861s1.852,10.865,11.351,10.865,11.347-7.032,11.347-10.865-1.855-10.861-11.347-10.861m0,17.11c-3.633,0-5.113-2.9-5.113-6.249s1.48-6.249,5.113-6.249,5.106,2.905,5.106,6.249-1.477,6.249-5.106,6.249" transform="translate(-547.001 -8.124)"/>
    <path id="패스_74" data-name="패스 74" class="cls-1" d="M-30.315,2982.647H-35.74a.249.249,0,0,1-.245-.241v-20.568a.253.253,0,0,1,.245-.249h5.425a.252.252,0,0,1,.252.249v20.568a.248.248,0,0,1-.252.241" transform="translate(-494.23 -9.973)"/>
    <path id="패스_75" data-name="패스 75" class="cls-1" d="M-146.523,2961.589h-16.052a.189.189,0,0,0-.193.189v4.085a.187.187,0,0,0,.193.189h5.061v16.408a.19.19,0,0,0,.193.185h5.544a.186.186,0,0,0,.185-.185v-16.408h5.069a.19.19,0,0,0,.189-.189v-4.085a.193.193,0,0,0-.189-.189" transform="translate(-386.112 -9.973)"/>
    <path id="패스_76" data-name="패스 76" class="cls-1" d="M-285.669,2963.414c2.894,0,4.074.479,4.486.72a.127.127,0,0,0,.189-.108v-4.385a.135.135,0,0,0-.082-.119,14.914,14.914,0,0,0-5.069-.731c-3.377,0-12.631,1.206-12.631,10.943s9.254,10.939,12.631,10.939a14.965,14.965,0,0,0,5.069-.727.135.135,0,0,0,.082-.119v-4.386a.127.127,0,0,0-.189-.108c-.412.241-1.592.724-4.486.724-3.484,0-6.864-1.485-6.864-6.323s3.38-6.319,6.864-6.319" transform="translate(-270.127 -7.587)"/>
    <path id="패스_77" data-name="패스 77" class="cls-1" d="M-437.205,2961.917a.284.284,0,0,0-.282.279v12.341s.044,4.264-3.637,4.264c-3.666,0-3.633-4.264-3.633-4.264V2962.2a.274.274,0,0,0-.279-.279h-5.447a.284.284,0,0,0-.282.279v12.935c0,5.714,4.26,8.215,9.64,8.215s9.64-2.5,9.64-8.215V2962.2a.274.274,0,0,0-.282-.279Z" transform="translate(-140.513 -10.253)"/>
    <path id="패스_78" data-name="패스 78" class="cls-1" d="M360.424,3057.284a4,4,0,1,1-4-4,4,4,0,0,1,4,4" transform="translate(-825.465 -88.173)"/>
    <path id="패스_79" data-name="패스 79" class="cls-1" d="M-600.316,2949.894h-12.171a.2.2,0,0,0-.2.2v4.253a.194.194,0,0,0,.2.2h2.991l-6.026,17.967a.2.2,0,0,0,.185.263h5.744a.2.2,0,0,0,.193-.145l1.2-4.148h8.063l1.188,4.148a.206.206,0,0,0,.193.145h5.981a.2.2,0,0,0,.189-.263l-7.551-22.479a.188.188,0,0,0-.178-.137m-6.538,13.959,2.7-9.31,2.686,9.31Z" transform="translate(0)"/>
  </g>
</svg>
