<svg xmlns="http://www.w3.org/2000/svg" width="87.919" height="30.327" viewBox="0 0 87.919 30.327">
    <defs>
        <style>
            .cls-1{fill:red}
        </style>
    </defs>
    <g id="img_mall_09" transform="translate(-1857.575 -3437.963)">
        <path id="패스_175" d="M2021.04 3452.159v-12.458c0-1.168-.38-1.544-1.562-1.553-.657-.005-1.318.044-1.97-.014s-.791.174-.784.789c.033 2.6 0 5.2.027 7.806.006.558-.169.739-.716.7a11.94 11.94 0 0 0-1.812 0c-.583.047-.708-.195-.686-.724.038-.945 0-1.892.013-2.838a2.2 2.2 0 0 0-.682-1.693c-1.163-1.133-2.308-2.285-3.454-3.435a1.973 1.973 0 0 0-1.485-.6c-2.313.011-4.626.021-6.939-.007-.543-.007-.715.133-.713.7q.031 8.24.008 16.48a2.223 2.223 0 0 0 .691 1.69c1.107 1.083 2.209 2.172 3.289 3.282a2.28 2.28 0 0 0 1.756.723c2.234-.016 4.469-.028 6.7.011.645.011.851-.152.841-.822-.039-2.575.008-5.152-.032-7.727-.01-.646.194-.826.8-.769a7.474 7.474 0 0 0 1.5 0c.7-.075.935.135.929.886-.036 4.915-.022 9.83-.007 14.745 0 .335-.231.847.2.984a1.746 1.746 0 0 0 1.45-.125 2.483 2.483 0 0 0 .409-.363c.524-.513 1.021-1.057 1.572-1.538a1.922 1.922 0 0 0 .669-1.593c-.021-4.178-.011-8.358-.012-12.537zm-11.793 3.942c0 .485-.13.635-.617.621-1.154-.033-2.31-.035-3.463 0-.512.016-.607-.181-.6-.641.021-2.177.009-4.355.009-6.533 0-2.125.018-4.251-.012-6.376-.008-.551.153-.727.7-.707 1.1.039 2.2.032 3.306 0 .489-.013.682.1.679.645q-.035 6.496-.002 12.99z" class="cls-1" transform="translate(-112.684 -.128)"/>
        <path id="패스_176" d="M2149.428 3455.345a1.156 1.156 0 0 0 1.292 1.248q11.344.006 22.689 0a1.145 1.145 0 0 0 1.291-1.244c.021-.944-.015-1.889-.026-2.833l-.046-.169c-.235-.179-.506-.083-.758-.085-2.045-.009-4.091 0-6.136-.013-.207 0-.473.126-.608-.119.614-.631 1.2-1.264 1.817-1.86a2.064 2.064 0 0 0 .7-1.658c-.047-1.861.006-3.724-.029-5.585-.011-.561.163-.689.7-.692a22.1 22.1 0 0 0 3.6-.073.3.3 0 0 0 .29-.167 1.056 1.056 0 0 0 .5-.98c0-.934-.02-1.866-.031-2.8-.051-.567-.49-.276-.721-.276q-8.938-.029-17.875-.015c-1.995 0-3.99-.009-5.985.012-.217 0-.621-.248-.642.276-.01.932-.024 1.863-.027 2.8a1.1 1.1 0 0 0 .5.981c.074.106.157.193.3.168 1.852.212 3.709.038 5.563.092.427.012.854 0 1.4 0-.812 1-1.743 1.651-2.393 2.562a.4.4 0 0 0-.181.434c-.143 2.044-.047 4.09-.047 6.134 0 .6-.14.8-.776.8a29.517 29.517 0 0 0-4.3.072l-.042.165c-.007.936-.047 1.88-.019 2.825zm20.4-13.092v.008h.006a.051.051 0 0 0 .007.009c.075.076-.108.044-.013-.017zm-2.762 10.263a.046.046 0 0 0 .008.037c.038.063-.02.016-.024-.037zm-7.6-10.179q2.636.047 5.274 0c.505-.008.608.184.605.644q-.025 4.329 0 8.659c0 .484-.144.633-.624.626-1.758-.024-3.516-.031-5.274 0-.53.01-.592-.208-.586-.647.021-1.443.008-2.886.008-4.33s.018-2.886-.01-4.329c-.004-.469.111-.632.612-.623z" class="cls-1" transform="translate(-230.455)"/>
        <path id="패스_177" d="M1869.581 3454.877a8.324 8.324 0 1 0-8.255-8.364 8.349 8.349 0 0 0 8.255 8.364zm.135-12.261a3.938 3.938 0 1 1-4.022 3.861 3.944 3.944 0 0 1 4.022-3.861z" class="cls-1" transform="translate(-2.962 -.211)"/>
        <path id="패스_178" d="M1962.885 3438.122c-.683-.017-1.373.055-2.048-.02-.745-.082-.851.227-.847.885.027 4.73.014 9.46.014 14.191q0 7.056.01 14.112c0 .342-.218.865.183 1a1.722 1.722 0 0 0 1.449-.126 2.171 2.171 0 0 0 .354-.307c.581-.567 1.15-1.146 1.742-1.7a1.693 1.693 0 0 0 .554-1.326q-.014-12.653-.01-25.307c-.001-.967-.42-1.377-1.401-1.402z" class="cls-1" transform="translate(-80.844 -.099)"/>
        <path id="패스_179" d="M2170.512 3546.7c-4.335.03-8.671.015-13.007.016q-6.582 0-13.165.005c-.327 0-.78-.171-.761.469.026.893-.021 1.788.018 2.68a1.164 1.164 0 0 0 1.313 1.243q12.534.007 25.069 0a1.167 1.167 0 0 0 1.331-1.3c.024-.761-.038-1.527.019-2.285.049-.651-.157-.834-.817-.828z" class="cls-1" transform="translate(-225.842 -85.863)"/>
        <path id="패스_180" d="M1876.222 3525.881c-2.942.025-5.883.012-8.825.012-3.047 0-6.094.01-9.14-.009-.5 0-.709.113-.678.655.046.812-.015 1.629.024 2.442.044.919.483 1.311 1.4 1.315 1.576.007 3.153.029 4.728-.01.571-.014.7.178.686.713-.031 1.864-.022 3.729 0 5.594 0 .346-.218.868.154 1.008a1.605 1.605 0 0 0 1.816-.385c.618-.6 1.227-1.22 1.85-1.819a1.518 1.518 0 0 0 .489-1.193c-.018-.972.043-1.947-.02-2.915-.05-.762.123-1.047.969-1.014 1.941.075 3.886.026 5.83.022 1.12 0 1.494-.382 1.507-1.526.008-.709-.049-1.423.017-2.126.061-.671-.224-.769-.807-.764z" class="cls-1" transform="translate(0 -69.424)"/>
        <path id="패스_181" d="M2113.117 3438.682a1.273 1.273 0 0 0-1.206-.56 19.575 19.575 0 0 1-2.046-.016c-.729-.079-.853.2-.851.871q.034 14.258.015 28.516v.551c0 .139.046.275.21.278.544.009 1.142.175 1.583-.255a19.931 19.931 0 0 0 2.29-2.355 1.052 1.052 0 0 0 .242-.878v-25.284c.003-.306.064-.64-.237-.868z" class="cls-1" transform="translate(-198.548 -.103)"/>
    </g>
</svg>
