<svg xmlns="http://www.w3.org/2000/svg" width="137.933" height="32.961" viewBox="0 0 137.933 32.961">
  <defs>
    <style>
      .cls-1 {
        fill: #f8b133;
      }

      .cls-2 {
        fill: #4d4c55;
      }
    </style>
  </defs>
  <g id="img_mall_12" transform="translate(530.001 -3620.146)">
    <g id="그룹_50" data-name="그룹 50" transform="translate(-450.612 3620.146)">
      <path id="패스_119" data-name="패스 119" class="cls-1" d="M172.03,3735.656s0-2.792,2.329-2.792,2.015,1.861,1.707,3.1-.617,6.059-.617,6.059,2.792-4.66,4.031-5.434,3.419-.779,3.568,1.548-.149,5.437.622,5.123,2.951-6.052,4.2-6.828,3.876-.468,3.876,5.123.154,7.144.782,7.6a1.724,1.724,0,0,1,.3,2.794c-1.239,1.093-4.5.314-4.5-3.1v-6.365s-.462-1.242-1.4,1.087-2.483,9-5.429,9-1.239-11.174-2.175-11.174-2.951,5.9-3.414,7.6-.781,4.038-2.483,4.038-1.866-1.555-1.866-2.951S172.03,3735.656,172.03,3735.656Z" transform="translate(-171.562 -3720.11)"/>
      <path id="패스_120" data-name="패스 120" class="cls-1" d="M384.109,3733.815c.134-1.059,2.3-15.845-5.275-15.357,0,0-5.722.522-7.578,9.928s2.653,11.655,4.242,11.655a6.043,6.043,0,0,0,5.033-2.517s.529-.4.931,0,1.455,2.252,2.781,1.987,3.049-1.856,1.984-2.915S383.976,3734.875,384.109,3733.815Zm-7.953,2.252c-3.841-1.067-1.013-9.447-1.013-9.447s1.224-3.676,3.008-4.2c3.892-1.149,3.311,3.647,3.311,4.971S380,3737.124,376.156,3736.067Z" transform="translate(-348.27 -3707.323)"/>
      <path id="패스_121" data-name="패스 121" class="cls-1" d="M525.615,3626.242c-1.455-4.9-4.509-3.974-6.092-1.722s-2.653,11.257-2.653,11.257-1.589,13.252,1.722,17.092,6.627,1.987,6.627.265-.8-1.854-2.257-1.722-1.188-3.977.134-6.489S527.07,3631.145,525.615,3626.242Zm-5.352,18.565c-1.321.53-.478-11.542.977-15.65,0,0,.936-2.118,1.46-.265S521.59,3644.278,520.263,3644.808Z" transform="translate(-477.457 -3622.402)"/>
      <path id="패스_122" data-name="패스 122" class="cls-1" d="M618.141,3630.474c.128-4.237.262-10.462-2.781-10.326s-5.7,7.545-6.1,14.437c0,0-.8,12.318,2.257,16.421s7.28,1.329,6.087-1.059-4.5.666-2.776-4.1A57.542,57.542,0,0,0,618.141,3630.474Zm-5.29,11.786c-1.321.53-.673-11.251.787-15.359,0,0,.925-2.118,1.455-.265S614.177,3641.734,612.85,3642.26Z" transform="translate(-559.649 -3620.146)"/>
    </g>
    <g id="그룹_51" data-name="그룹 51" transform="translate(-530.001 3632.227)">
      <path id="패스_123" data-name="패스 123" class="cls-2" d="M-314.258,3749.6a11.01,11.01,0,0,1-2.859.422c-3.018,0-4.617-1.3-4.617-4.044v-16.524h1.692c1.758,0,2.339,1.028,2.339,2.455v1.26h3.45v.969a2.111,2.111,0,0,1-2.38,2.159H-317.7v8.974c0,.979.329,1.678,1.722,1.678a6.372,6.372,0,0,0,1.722-.272v2.923m-10.468-13.758a7.176,7.176,0,0,1,1.846.291v-2.964a18.063,18.063,0,0,0-3.368-.388c-2.658,0-4.535,1.092-4.535,3.982v12.861h4.026v-12.072C-326.756,3736.49-326.078,3735.845-324.725,3735.845Zm-23.125,1.6c0-1.656-.93-4.648-6.313-4.648-2.761,0-3.871.728-4.262.992a8,8,0,0,0-4.267-.992c-4.972,0-6.314,2.476-6.314,4.532v12.3h4.062v-12.033c0-.7.391-1.748,2.252-1.748,1.45,0,2.231.73,2.231,1.748v12.033h4.067v-12.033c0-1.01.766-1.748,2.231-1.748,1.594,0,2.252.815,2.252,1.748v9.27a2.568,2.568,0,0,0,2.74,2.848h1.321Zm8.586-4.66c5.085,0,6.92,2.408,6.92,5.612v5.205c0,3.663-2.339,6.424-7.2,6.424-4.658,0-7.193-2.185-7.193-5.128,0-2.347,1.594-3.895,5.059-4.851.5-.136,2.19-.64,2.961-.869,1.743-.5,2.309-.905,2.309-1.664,0-.794-.967-1.668-2.951-1.668-2.365,0-3.11,1.463-3.121,2.517h-3.686C-346.164,3735.1-344.226,3732.784-339.265,3732.784Zm-.6,14.174a3.326,3.326,0,0,0,3.465-3.5v-1.971s-3.074.879-3.933,1.139c-1.537.468-2.277,1.255-2.277,2.278S-341.764,3746.958-339.866,3746.958Z" transform="translate(387.225 -3729.169)"/>
      <path id="패스_124" data-name="패스 124" class="cls-1" d="M-521.952,3747.755c-5.6,0-8.049-3.429-8.049-7.776v-4.684c0-6.036,4.023-8.383,8.743-8.383,5.7,0,8.19,3.095,8.19,6.2,0,4.524-4.627,5.637-6.678,6.229-.586.169-2.756.82-3.244.956-1.907.555-2.458,1.172-2.458,1.874,0,1.2,1.049,2.239,3.5,2.239,2.134,0,3.692-.728,3.954-2.954h4.458c-.458,3.522-2.581,6.3-8.411,6.3m.5-17.488c-2.473,0-4.1,1.653-4.1,4.481v2.964s3.352-.982,4.75-1.4c1.172-.355,3.27-1.1,3.27-2.946C-517.526,3731.747-518.832,3730.267-521.449,3730.267Z" transform="translate(530.001 -3726.912)"/>
    </g>
  </g>
</svg>
