<svg xmlns="http://www.w3.org/2000/svg" width="139.853" height="34.385" viewBox="0 0 139.853 34.385">
  <defs>
    <style>
      .cls-1 {
        fill: #282929;
      }

      .cls-2 {
        fill: #9b7e4e;
      }

      .cls-3 {
        fill: #fff;
      }
    </style>
  </defs>
  <g id="img_mall_08" transform="translate(-1655.988 -3252.454)">
    <g id="그룹_58" data-name="그룹 58" transform="translate(1655.988 3252.454)">
      <path id="패스_158" data-name="패스 158" class="cls-1" d="M1800.692,3272.279h-1.821v-17.831h1.724l11.768,14.56v-14.619h1.821v17.671h-1.7l-11.8-14.6Z" transform="translate(-1755.513 -3253.802)"/>
      <path id="패스_159" data-name="패스 159" class="cls-1" d="M2092.452,3255.514v-1.821h-9.764v17.991h9.764v-1.821h-7.944v-6.223h7.67v-1.821h-7.67v-6.305Z" transform="translate(-1953.206 -3253.317)"/>
      <path id="패스_160" data-name="패스 160" class="cls-1" d="M1925.547,3255.514v-1.821h-9.764v17.991h9.764v-1.821H1917.6v-6.223h7.67v-1.821h-7.67v-6.305Z" transform="translate(-1836.948 -3253.317)"/>
      <rect id="사각형_44" data-name="사각형 44" class="cls-1" width="2.475" height="18.006" transform="translate(35.009 0.355)"/>
      <rect id="사각형_45" data-name="사각형 45" class="cls-1" width="2.475" height="18.006" transform="translate(14.728 0.355)"/>
      <rect id="사각형_46" data-name="사각형 46" class="cls-1" width="2.475" height="18.006" transform="translate(26.685 0.355)"/>
      <rect id="사각형_47" data-name="사각형 47" class="cls-1" width="2.475" height="11.957" transform="translate(27.922 8.114) rotate(90)"/>
      <path id="패스_161" data-name="패스 161" class="cls-1" d="M1874.9,3269.2c.042-.058.086-.113.125-.173a3.52,3.52,0,0,0,.385-.741,5.417,5.417,0,0,0,.411-2.127,6.932,6.932,0,0,0-.191-1.881,4.548,4.548,0,0,0-2.193-2.612c-1.319-.835-2.674-1.612-4-2.43a3.4,3.4,0,0,1-.309-.215,5.876,5.876,0,0,1-.463-.5,3.785,3.785,0,0,1-.3-.444,2.789,2.789,0,0,1-.25-1.341,6.516,6.516,0,0,1,.1-.8,2.427,2.427,0,0,1,2.046-1.156,6.364,6.364,0,0,1,4.707,1.621v-.13c.112.08.224.16.336.244v-2.7a9.407,9.407,0,0,0-1.264-.7,4.255,4.255,0,0,0-.632-.267c-.084-.028-.168-.049-.252-.074l-.056-.016c-.1-.029-.2-.061-.3-.085a6.505,6.505,0,0,0-3.324,0c-.131.034-.26.072-.386.112-.1.026-.193.049-.29.079a4.155,4.155,0,0,0-1.9,1.215,4.324,4.324,0,0,0-1.059,2.035v.006c-.01.041-.021.081-.03.123s-.011.063-.017.095c-.014.067-.025.135-.036.2,0,.031-.01.062-.015.093-.015.105-.027.212-.035.317v.008a4.162,4.162,0,0,0,1.275,3.5,5.725,5.725,0,0,0,.541.491,20.6,20.6,0,0,0,2.5,1.71,12.492,12.492,0,0,1,2.765,2.033,2.856,2.856,0,0,1,.865,1.919,2.151,2.151,0,0,1-.822,1.493,4.215,4.215,0,0,1-5.284-.218c-.516-.388-1-.82-1.731-1.428,0,.331,0,.626,0,.9a9.34,9.34,0,0,0-.026,2.195,6.308,6.308,0,0,0,2.108,1.165,8.911,8.911,0,0,0,2.034.466h.016q.2.019.4.026h.02a5.789,5.789,0,0,0,3.509-1,4.036,4.036,0,0,0,.969-.927C1874.856,3269.259,1874.876,3269.228,1874.9,3269.2Z" transform="translate(-1802.051 -3252.454)"/>
      <path id="패스_162" data-name="패스 162" class="cls-1" d="M1974.387,3261.111v8.555a7.624,7.624,0,0,1-4.4,1.613c-3.351.43-6.493-.048-8.8-2.856A9.823,9.823,0,0,1,1959.2,3261c.5-5.554,4.542-8.187,8.965-8.2a9.107,9.107,0,0,1,4.358.868,2.918,2.918,0,0,0,1.709.426,7.882,7.882,0,0,1-.05,2.365,3.082,3.082,0,0,1-1.447-.517,9.067,9.067,0,0,0-5.844-.785c-3.237.706-4.963,3.032-5.195,6.557-.4,6.069,4.914,8.286,9.183,7.13.73-.2,1.234-.543,1.178-1.473-.082-1.353-.021-2.715-.021-4.09-1.164-.372-2.29,0-3.427-.241a2.5,2.5,0,0,1-.1-1.93Z" transform="translate(-1867.152 -3252.697)"/>
      <path id="패스_163" data-name="패스 163" class="cls-1" d="M1665.2,3269.2c.042-.058.086-.113.125-.173a3.514,3.514,0,0,0,.385-.741,5.41,5.41,0,0,0,.411-2.127,6.937,6.937,0,0,0-.191-1.881,4.548,4.548,0,0,0-2.193-2.612c-1.32-.835-2.675-1.612-4-2.43a3.329,3.329,0,0,1-.309-.215,5.818,5.818,0,0,1-.463-.5,3.816,3.816,0,0,1-.3-.444,2.788,2.788,0,0,1-.25-1.341,6.589,6.589,0,0,1,.1-.8,2.426,2.426,0,0,1,2.046-1.156,6.365,6.365,0,0,1,4.707,1.621v-.13c.112.08.224.16.336.244v-2.7a9.389,9.389,0,0,0-1.264-.7,4.233,4.233,0,0,0-.631-.267c-.084-.028-.168-.049-.252-.074l-.056-.016c-.1-.029-.2-.061-.3-.085a6.505,6.505,0,0,0-3.324,0c-.131.034-.26.072-.386.112-.1.026-.193.049-.29.079a4.155,4.155,0,0,0-1.9,1.215,4.322,4.322,0,0,0-1.059,2.035v.006c-.01.041-.021.081-.03.123s-.011.063-.017.095c-.013.067-.025.135-.036.2,0,.031-.01.062-.015.093-.015.105-.027.212-.036.317v.008a4.161,4.161,0,0,0,1.275,3.5,5.745,5.745,0,0,0,.541.491,20.568,20.568,0,0,0,2.5,1.71,12.487,12.487,0,0,1,2.764,2.033,2.854,2.854,0,0,1,.865,1.919,2.15,2.15,0,0,1-.822,1.493,4.214,4.214,0,0,1-5.284-.218c-.516-.388-1-.82-1.732-1.428,0,.331,0,.626,0,.9a9.34,9.34,0,0,0-.026,2.195,6.309,6.309,0,0,0,2.108,1.165,8.908,8.908,0,0,0,2.034.466h.015c.132.013.265.021.4.026h.02a5.79,5.79,0,0,0,3.509-1,4.034,4.034,0,0,0,.969-.927C1665.161,3269.259,1665.181,3269.228,1665.2,3269.2Z" transform="translate(-1655.988 -3252.454)"/>
      <path id="패스_164" data-name="패스 164" class="cls-2" d="M1656.219,3338.9v-11.707h68.165V3338.9Z" transform="translate(-1656.149 -3304.51)"/>
      <path id="패스_165" data-name="패스 165" class="cls-2" d="M1960.124,3327.19v11.7h-68.056a93.34,93.34,0,0,1-.086-11.7Z" transform="translate(-1820.271 -3304.511)"/>
      <g id="그룹_57" data-name="그룹 57" transform="translate(109.967 1.133)">
        <path id="패스_166" data-name="패스 166" class="cls-1" d="M2022.525,3268.013h8.255l2.575,5.4h2.017l-8.214-17.226h-1.814l-6.966,17.226h1.964Zm3.788-9.367,3.6,7.546h-6.65Z" transform="translate(-2018.377 -3256.188)"/>
      </g>
    </g>
    <g id="그룹_59" data-name="그룹 59" transform="translate(1660.719 3277.544)">
      <path id="패스_167" data-name="패스 167" class="cls-3" d="M1671.577,3335.291a14.5,14.5,0,0,1,2.213-.156,4.678,4.678,0,0,1,2.972.779,3.2,3.2,0,0,1,1.227,2.731,3.68,3.68,0,0,1-1.2,2.941,5.212,5.212,0,0,1-3.348.939,13.787,13.787,0,0,1-1.865-.107Zm1.639,5.924a3.68,3.68,0,0,0,.572.028,2.256,2.256,0,0,0,2.464-2.544,2.087,2.087,0,0,0-2.29-2.3,3.578,3.578,0,0,0-.746.063Z" transform="translate(-1671.577 -3335.135)"/>
      <path id="패스_168" data-name="패스 168" class="cls-3" d="M1733.372,3335.321v4.175c0,1.254.482,1.894,1.315,1.894.862,0,1.336-.608,1.336-1.894v-4.175h1.641v4.074c0,2.239-1.132,3.3-3.032,3.3-1.832,0-2.9-1.017-2.9-3.323v-4.054Z" transform="translate(-1713.477 -3335.265)"/>
      <path id="패스_169" data-name="패스 169" class="cls-3" d="M1791.577,3336.7h-1.959v-1.378h5.587v1.378h-1.987v5.881h-1.641Z" transform="translate(-1753.799 -3335.265)"/>
      <path id="패스_170" data-name="패스 170" class="cls-3" d="M1846.89,3342.58V3339.6l-2.292-4.283h1.88l.738,1.747c.223.521.382.91.56,1.39h.022c.162-.452.336-.877.547-1.392l.732-1.745h1.85l-2.395,4.228v3.031Z" transform="translate(-1792.095 -3335.265)"/>
    </g>
    <g id="그룹_61" data-name="그룹 61" transform="translate(1732.618 3277.544)">
      <g id="그룹_60" data-name="그룹 60" transform="translate(0)">
        <path id="패스_171" data-name="패스 171" class="cls-3" d="M1908.517,3335.321h4.434v1.344h-2.792v1.664h2.611v1.332h-2.611v2.918h-1.641Z" transform="translate(-1908.517 -3335.265)"/>
        <path id="패스_172" data-name="패스 172" class="cls-3" d="M1965.707,3335.292a13.879,13.879,0,0,1,2.182-.156,3.7,3.7,0,0,1,2.349.575,1.845,1.845,0,0,1,.672,1.522,1.926,1.926,0,0,1-1.281,1.784v.034a1.826,1.826,0,0,1,.97,1.352,20.776,20.776,0,0,0,.586,2.049H1969.5a9.183,9.183,0,0,1-.5-1.692c-.2-.907-.507-1.149-1.182-1.158h-.488v2.85h-1.626Zm1.626,3.122h.643c.814,0,1.3-.415,1.3-1.046,0-.664-.456-1-1.205-1.008a3.408,3.408,0,0,0-.739.055Z" transform="translate(-1948.353 -3335.136)"/>
        <path id="패스_173" data-name="패스 173" class="cls-3" d="M2031.552,3339.51h-2.671v1.726h2.986v1.344h-4.627v-7.259h4.472v1.344h-2.831v1.512h2.671Z" transform="translate(-1991.213 -3335.265)"/>
        <path id="패스_174" data-name="패스 174" class="cls-3" d="M2089.991,3339.51h-2.671v1.726h2.986v1.344h-4.627v-7.259h4.472v1.344h-2.831v1.512h2.671Z" transform="translate(-2031.919 -3335.265)"/>
      </g>
    </g>
  </g>
</svg>
