<svg xmlns="http://www.w3.org/2000/svg" width="103.994" height="44.268" viewBox="0 0 103.994 44.268">
  <defs>
    <style>
      .cls-1 {
        fill: #666;
      }

      .cls-2 {
        fill: #353535;
      }

      .cls-3 {
        fill: #00a9e0;
      }
    </style>
  </defs>
  <g id="img_mall_02" transform="translate(622.148 -2699.631)">
    <g id="그룹_42" data-name="그룹 42" transform="translate(-608.36 2701.297)">
      <path id="패스_52" data-name="패스 52" class="cls-1" d="M-553.214,2710.512a2.182,2.182,0,0,0-1.091-.289,1.044,1.044,0,0,0-.727.261.908.908,0,0,0-.274.681.667.667,0,0,0,.054.27.729.729,0,0,0,.148.274,3.3,3.3,0,0,0,.88.641,3,3,0,0,1,1.041.853,1.793,1.793,0,0,1,.282.986,1.808,1.808,0,0,1-.465,1.269,1.829,1.829,0,0,1-1.4.521,3.218,3.218,0,0,1-1.34-.263v-.8a4.224,4.224,0,0,0,.619.28,1.61,1.61,0,0,0,.605.129,1.129,1.129,0,0,0,.842-.319.926.926,0,0,0,.3-.68,2.758,2.758,0,0,0-.018-.34.9.9,0,0,0-.147-.3,2.974,2.974,0,0,0-.825-.64,3.794,3.794,0,0,1-1.138-.905,1.591,1.591,0,0,1-.278-.985,1.418,1.418,0,0,1,.533-1.188,1.952,1.952,0,0,1,1.246-.4,3.689,3.689,0,0,1,.636.055,2.216,2.216,0,0,1,.52.143Z" transform="translate(556.149 -2709.156)"/>
      <path id="패스_53" data-name="패스 53" class="cls-1" d="M-535.313,2707.6h.765v2.752h.018a1.221,1.221,0,0,1,.447-.467,1.274,1.274,0,0,1,.7-.186q1.325-.008,1.361,1.469v3.19h-.765v-3q-.009-1.062-.769-1.053-.969,0-.987,1.254v2.8h-.765Z" transform="translate(539.666 -2707.605)"/>
      <path id="패스_54" data-name="패스 54" class="cls-1" d="M-514.591,2720.014a2.775,2.775,0,0,1,.482-1.728,1.654,1.654,0,0,1,1.393-.633,1.684,1.684,0,0,1,1.407.634,2.861,2.861,0,0,1,.465,1.73,2.8,2.8,0,0,1-.465,1.712,1.668,1.668,0,0,1-1.407.647,1.638,1.638,0,0,1-1.393-.648A2.727,2.727,0,0,1-514.591,2720.014Zm.8,0q-.009,1.789,1.072,1.789t1.068-1.789q.008-1.78-1.068-1.79Q-513.8,2718.234-513.787,2720.014Z" transform="translate(523.273 -2715.553)"/>
      <path id="패스_55" data-name="패스 55" class="cls-1" d="M-492.176,2718.559q-.013-.422-.038-.843h.737l.026.669h.018a1.544,1.544,0,0,1,.442-.511,1.316,1.316,0,0,1,.787-.223q1.564,0,1.609,2.364-.045,2.359-1.609,2.359a1.326,1.326,0,0,1-1.189-.653h-.018v2.534h-.765Zm.765,1.454q-.009,1.789,1.025,1.789t1.025-1.789q.009-1.78-1.025-1.79Q-491.419,2718.234-491.411,2720.014Z" transform="translate(505.571 -2715.553)"/>
      <path id="패스_56" data-name="패스 56" class="cls-1" d="M-470.393,2718.559q-.012-.422-.037-.843h.736l.027.669h.018a1.547,1.547,0,0,1,.443-.511,1.315,1.315,0,0,1,.787-.223q1.563,0,1.608,2.364-.044,2.359-1.609,2.359a1.324,1.324,0,0,1-1.188-.653h-.018v2.534h-.766Zm.766,1.454q-.009,1.789,1.025,1.789t1.025-1.789q.009-1.78-1.025-1.79Q-469.637,2718.234-469.627,2720.014Z" transform="translate(488.338 -2715.553)"/>
      <path id="패스_57" data-name="패스 57" class="cls-1" d="M-447.147,2709v.851h-.844V2709Zm-.8,1.872h.765v4.594h-.765Z" transform="translate(470.586 -2708.708)"/>
      <path id="패스_58" data-name="패스 58" class="cls-1" d="M-438.176,2718.7c-.006-.336-.017-.665-.035-.985h.738l.027.674h.018a1.222,1.222,0,0,1,1.179-.739q1.325-.009,1.36,1.469v3.19h-.765v-3q-.009-1.062-.768-1.053-.971,0-.988,1.254v2.8h-.766Z" transform="translate(462.849 -2715.553)"/>
      <path id="패스_59" data-name="패스 59" class="cls-1" d="M-413.742,2722.515a1.612,1.612,0,0,1-.6,1.36,2.3,2.3,0,0,1-1.389.433,3.878,3.878,0,0,1-1.362-.273l.036-.742a2.7,2.7,0,0,0,.613.289,2.4,2.4,0,0,0,.67.118,1.285,1.285,0,0,0,1.015-.378,1.477,1.477,0,0,0,.295-.963v-.722h-.018a1.394,1.394,0,0,1-1.229.739q-1.575,0-1.609-2.359.027-2.364,1.694-2.364a1.325,1.325,0,0,1,1.144.689h.019l.026-.628.738,0c-.026.275-.04.553-.04.834Zm-2.815-2.5q-.01,1.789,1.025,1.789t1.025-1.789q.015-1.78-1.025-1.79Q-416.566,2718.234-416.557,2720.014Z" transform="translate(446.324 -2715.553)"/>
      <path id="패스_60" data-name="패스 60" class="cls-1" d="M-381.384,2710.512a2.177,2.177,0,0,0-1.091-.289,1.045,1.045,0,0,0-.727.261.905.905,0,0,0-.275.681.669.669,0,0,0,.054.27.728.728,0,0,0,.148.274,3.293,3.293,0,0,0,.88.641,3,3,0,0,1,1.042.853,1.8,1.8,0,0,1,.282.986,1.808,1.808,0,0,1-.465,1.269,1.829,1.829,0,0,1-1.4.521,3.22,3.22,0,0,1-1.34-.263v-.8a4.182,4.182,0,0,0,.619.28,1.61,1.61,0,0,0,.6.129,1.13,1.13,0,0,0,.843-.319.925.925,0,0,0,.3-.68,2.944,2.944,0,0,0-.018-.34.884.884,0,0,0-.148-.3,2.985,2.985,0,0,0-.825-.64,3.79,3.79,0,0,1-1.138-.905,1.591,1.591,0,0,1-.278-.985,1.419,1.419,0,0,1,.533-1.188,1.953,1.953,0,0,1,1.246-.4,3.688,3.688,0,0,1,.637.055,2.2,2.2,0,0,1,.519.143Z" transform="translate(420.216 -2709.156)"/>
      <path id="패스_61" data-name="패스 61" class="cls-1" d="M-364.055,2718.7c-.007-.336-.018-.665-.035-.985h.74l.027.674h.018a1.251,1.251,0,0,1,1.194-.739,1.232,1.232,0,0,1,1.138.68,1.257,1.257,0,0,1,1.176-.68q1.36-.009,1.4,1.469v3.19h-.768v-3.188c-.006-.574-.257-.862-.751-.862q-.918-.018-.927,1.183v2.867h-.766v-3.188q-.01-.862-.751-.862-.918-.018-.928,1.183v2.867h-.768Z" transform="translate(404.213 -2715.553)"/>
      <path id="패스_62" data-name="패스 62" class="cls-1" d="M-331.473,2718a2.7,2.7,0,0,1,1.321-.351,2.393,2.393,0,0,1,.474.044,1.725,1.725,0,0,1,.358.119,1.257,1.257,0,0,1,.412.273,1.212,1.212,0,0,1,.285.387,1.862,1.862,0,0,1,.116.739v2.393a5.278,5.278,0,0,0,.038.7h-.693l-.045-.607h-.018a1.283,1.283,0,0,1-.46.459,1.613,1.613,0,0,1-.851.212,1.356,1.356,0,0,1-.953-.337,1.2,1.2,0,0,1-.393-.98,1.365,1.365,0,0,1,.5-1.111,2.733,2.733,0,0,1,1.7-.429h.452v-.207a2.464,2.464,0,0,0-.031-.423.812.812,0,0,0-.143-.317.587.587,0,0,0-.323-.272,1.363,1.363,0,0,0-.457-.074,1.549,1.549,0,0,0-1.205.516Zm2.24,2.044c-.144-.012-.325-.018-.542-.018a1.609,1.609,0,0,0-1,.274.874.874,0,0,0-.341.7.722.722,0,0,0,.79.82,1.016,1.016,0,0,0,.807-.361,1.212,1.212,0,0,0,.287-.829Z" transform="translate(378.734 -2715.553)"/>
      <path id="패스_63" data-name="패스 63" class="cls-1" d="M-309.95,2718.7c-.007-.336-.018-.665-.035-.985h.738l.027.71h.018a1.293,1.293,0,0,1,1.328-.774v.708a1.529,1.529,0,0,0-.295-.027q-.989,0-1.016,1.52v2.458h-.765Z" transform="translate(361.411 -2715.553)"/>
      <path id="패스_64" data-name="패스 64" class="cls-1" d="M-295.956,2718.1a2.282,2.282,0,0,1-.653.107,1.162,1.162,0,0,1-.795-.245,1.1,1.1,0,0,1-.281-.854v-2.989h-.74v-.572h.74v-.937l.765-.229v1.166h.965v.572h-.965v2.776a1.015,1.015,0,0,0,.118.563.4.4,0,0,0,.367.176.913.913,0,0,0,.48-.122Z" transform="translate(352.267 -2711.381)"/>
    </g>
    <path id="패스_65" data-name="패스 65" class="cls-2" d="M-367.084,2794.253a6.733,6.733,0,0,0-1.412-2.176,6.551,6.551,0,0,0-2.19-1.475,7.179,7.179,0,0,0-2.788-.534,6.45,6.45,0,0,0-2.9.664,6.294,6.294,0,0,0-1.487,1.068,6.342,6.342,0,0,0-1.475-1.064,6.4,6.4,0,0,0-2.915-.667,7.1,7.1,0,0,0-2.779.535,6.586,6.586,0,0,0-2.175,1.475,6.756,6.756,0,0,0-1.414,2.176,7.016,7.016,0,0,0-.507,2.656v9.622h4.976v-9.664a2.027,2.027,0,0,1,.138-.762,1.729,1.729,0,0,1,.373-.586,1.78,1.78,0,0,1,.6-.4,2.053,2.053,0,0,1,.816-.153,2,2,0,0,1,.8.15,1.848,1.848,0,0,1,.592.4,1.778,1.778,0,0,1,.375.586,2.063,2.063,0,0,1,.136.762v9.664h4.977v-9.664a2.216,2.216,0,0,1,.131-.781,1.585,1.585,0,0,1,.355-.569,1.808,1.808,0,0,1,.59-.4,1.975,1.975,0,0,1,.794-.149,1.984,1.984,0,0,1,.8.149,1.951,1.951,0,0,1,.611.41,1.655,1.655,0,0,1,.376.575,2.032,2.032,0,0,1,.137.764v9.664h4.977v-9.622A6.982,6.982,0,0,0-367.084,2794.253Z" transform="translate(-184.342 -71.543)"/>
    <path id="패스_66" data-name="패스 66" class="cls-2" d="M-178.781,2769.664a2.488,2.488,0,0,0-2.485-2.445,2.488,2.488,0,0,0-2.487,2.488v18.728h4.975v-18.771Z" transform="translate(-346.81 -53.468)"/>
    <path id="패스_67" data-name="패스 67" class="cls-2" d="M-143.2,2769.664a2.488,2.488,0,0,0-2.485-2.445,2.488,2.488,0,0,0-2.487,2.488v18.728h4.976v-18.771Z" transform="translate(-374.956 -53.468)"/>
    <g id="그룹_43" data-name="그룹 43" transform="translate(-549.354 2718.44)">
      <path id="패스_68" data-name="패스 68" class="cls-3" d="M-264.19,2789.73a8.239,8.239,0,0,1,2.966.91,8.366,8.366,0,0,1,2.386,1.872,8.836,8.836,0,0,1,1.579,2.589,8.19,8.19,0,0,1,.58,3.06v6.192a2.133,2.133,0,0,1-.706,1.609,2.25,2.25,0,0,1-1.585.664,2.274,2.274,0,0,1-1.974-1.1,1.9,1.9,0,0,0-.318.158c-.093.059-.187.11-.281.158a9.3,9.3,0,0,1-1.716.6,9.509,9.509,0,0,1-1.928.187,8.1,8.1,0,0,1-4.7-1.418,8.756,8.756,0,0,1-3.083-3.662,9.458,9.458,0,0,1-.543-1.647,7.836,7.836,0,0,1-.192-1.753,7.839,7.839,0,0,1,.192-1.752,9.342,9.342,0,0,1,.545-1.647,8.592,8.592,0,0,1,3.087-3.678,8.2,8.2,0,0,1,4.7-1.4h.508A1.958,1.958,0,0,1-264.19,2789.73Zm-1.015,11.889a3.458,3.458,0,0,0,1.343-.263,3.358,3.358,0,0,0,1.1-.729,3.586,3.586,0,0,0,.74-1.1,3.4,3.4,0,0,0,.279-1.38,3.25,3.25,0,0,0-.279-1.316,3.617,3.617,0,0,0-.756-1.117,3.629,3.629,0,0,0-1.113-.759,3.206,3.206,0,0,0-1.312-.279,3.1,3.1,0,0,0-1.3.279,3.652,3.652,0,0,0-1.1.759,3.6,3.6,0,0,0-.757,1.117,3.226,3.226,0,0,0-.279,1.316,3.159,3.159,0,0,0,.295,1.349,3.629,3.629,0,0,0,.773,1.1,3.792,3.792,0,0,0,1.1.744A3.048,3.048,0,0,0-265.2,2801.619Z" transform="translate(273.7 -2789.667)"/>
    </g>
    <path id="패스_69" data-name="패스 69" class="cls-2" d="M-561.353,2763.572h0c-7.075,0-12.235,5.591-12.235,12.669s5.16,12.5,12.235,12.5a12.928,12.928,0,0,0,10.108-4.833,3.641,3.641,0,0,0-3.226-1.7c-2.147,0-2.631,2.15-6.883,2.15a7.844,7.844,0,0,1-7.617-8.118c0-4.587,3.454-8.282,7.617-8.282,3.795,0,4.707,2.255,6.659,2.255a4.642,4.642,0,0,0,3.358-1.807,12.738,12.738,0,0,0-10.017-4.835" transform="translate(-38.415 -50.583)"/>
    <path id="패스_70" data-name="패스 70" class="cls-2" d="M-459.75,2767.084a2.589,2.589,0,0,0-2.858,2.613v1.467h4.433s.168,14.98-.022,16.6l0,.005a6.381,6.381,0,0,1-3.444,5.53c-2.339,1.1-2.363,2.144-2.482,3.77.034.117.083.19.149.193h.013a.051.051,0,0,0,.027-.005c.084-.023,2.321-.572,2.648-.708l-.009-.008c2.1-.653,5.318-2.092,6.852-5.073,0,0,1.438-2.211,1.407-6.952v-13.349h.21a2.735,2.735,0,0,0,3.026-2.614v-1.466Z" transform="translate(-125.009 -53.361)"/>
    <g id="그룹_45" data-name="그룹 45" transform="translate(-622.148 2699.631)">
      <g id="그룹_44" data-name="그룹 44">
        <path id="패스_71" data-name="패스 71" class="cls-3" d="M-622.148,2705.038a5.414,5.414,0,0,0,5.408,5.408,5.414,5.414,0,0,0,5.408-5.408,5.414,5.414,0,0,0-5.408-5.407A5.414,5.414,0,0,0-622.148,2705.038Zm2.761,0a2.65,2.65,0,0,1,2.647-2.646,2.65,2.65,0,0,1,2.647,2.646,2.65,2.65,0,0,1-2.647,2.647A2.65,2.65,0,0,1-619.387,2705.038Z" transform="translate(622.148 -2699.631)"/>
      </g>
    </g>
  </g>
</svg>
