<svg xmlns="http://www.w3.org/2000/svg" width="117.223" height="28.744" viewBox="0 0 117.223 28.744">
  <defs>
    <style>
      .cls-1 {
        fill: #00a63c;
      }

      .cls-2 {
        fill: #0c3e7a;
      }
    </style>
  </defs>
  <g id="img_mall_01" transform="translate(600.065 -2526.367)">
    <g id="그룹_40" data-name="그룹 40" transform="translate(-600.065 2526.367)">
      <g id="그룹_39" data-name="그룹 39" transform="translate(0 0)">
        <path id="패스_44" data-name="패스 44" class="cls-1" d="M-575.723,2537.647h-8.925a3.029,3.029,0,0,0-3.029,3.029,3.029,3.029,0,0,0,3.029,3.029h6.154v4.32a10.684,10.684,0,0,1-5.591,1.579c-5.471,0-9.37-3.977-9.37-8.864s3.9-8.865,9.37-8.865a10.614,10.614,0,0,1,6.535,2.2,3.03,3.03,0,0,0,4.253-.514,3.029,3.029,0,0,0-.514-4.253c-2.87-2.251-6.518-2.94-10.274-2.94-8.811,0-15.979,6.143-15.979,14.372s7.169,14.372,15.979,14.372c3.883,0,7.627-.765,10.541-3.154.7-.575,1.659-1.435,1.659-2.342v-8.576C-571.885,2537.587-575.723,2537.647-575.723,2537.647Z" transform="translate(600.065 -2526.367)"/>
        <path id="패스_45" data-name="패스 45" class="cls-2" d="M-546.271,2572.863a3.03,3.03,0,0,1-3.03,3.03,3.029,3.029,0,0,1-3.029-3.03,3.03,3.03,0,0,1,3.029-3.03A3.03,3.03,0,0,1-546.271,2572.863Z" transform="translate(564.717 -2558.553)"/>
      </g>
      <path id="패스_46" data-name="패스 46" class="cls-2" d="M-382.944,2573.662a3.545,3.545,0,0,0-3.545-3.545h-8.84v2.824h6.786a1.586,1.586,0,0,1,1.586,1.586v.528h-5.636a3.99,3.99,0,0,0-3.99,3.99v1.542a3.99,3.99,0,0,0,3.99,3.99h9.648Zm-9.72,6.3v-.258a1.783,1.783,0,0,1,1.784-1.784h3.924v3.826h-3.924A1.783,1.783,0,0,1-392.664,2579.962Z" transform="translate(449.386 -2558.764)"/>
      <path id="패스_47" data-name="패스 47" class="cls-2" d="M-240.17,2579.073a3.877,3.877,0,0,0,3.99-3.753v-1.45a3.876,3.876,0,0,0-3.99-3.753h-5.989a3.545,3.545,0,0,0-3.545,3.545v6.511h0v.858a3.545,3.545,0,0,0,3.545,3.545h8.84v-2.824h-6.786a1.586,1.586,0,0,1-1.586-1.586v-1.094Zm.072-4.615v.242a1.733,1.733,0,0,1-1.784,1.678h-3.81v-3.6h3.81A1.732,1.732,0,0,1-240.1,2574.458Z" transform="translate(340.624 -2558.764)"/>
      <path id="패스_48" data-name="패스 48" class="cls-2" d="M-473.382,2574.528a1.586,1.586,0,0,1,1.586-1.586h2.212v11.636h4.012v-11.636h2.172a1.586,1.586,0,0,1,1.586,1.586v10.049h4.012v-10.915a3.545,3.545,0,0,0-3.545-3.545h-12.5a3.545,3.545,0,0,0-3.546,3.545v10.915h4.012Z" transform="translate(509.228 -2558.764)"/>
      <path id="패스_49" data-name="패스 49" class="cls-2" d="M-330.466,2572.942h3.461v-2.824h-5.514a3.546,3.546,0,0,0-3.546,3.545v10.915h4.012v-10.049A1.586,1.586,0,0,1-330.466,2572.942Z" transform="translate(404.574 -2558.764)"/>
      <path id="패스_50" data-name="패스 50" class="cls-2" d="M-196.168,2570.117v2.824h4.245v11.636h4.012v-11.635h4.152v-2.824Z" transform="translate(300.981 -2558.764)"/>
      <path id="패스_51" data-name="패스 51" class="cls-2" d="M-284.878,2584.575l-6.875-7.956,6.288-6.505h-4.012l-4.253,4.55v-4.55h-4.012v14.461h4.012v-5.491l4.613,5.491Z" transform="translate(376.196 -2558.761)"/>
    </g>
  </g>
</svg>
