<svg xmlns="http://www.w3.org/2000/svg" width="143.598" height="25.176" viewBox="0 0 143.598 25.176">
  <defs>
    <style>
      .cls-1 {
        fill: #ec1b23;
      }
    </style>
  </defs>
  <g id="img_mall_05" transform="translate(550.693 -4257.695)">
    <g id="그룹_53" data-name="그룹 53" transform="translate(-543.998 4257.695)">
      <path id="패스_125" data-name="패스 125" class="cls-1" d="M-487.238,4286.3a.776.776,0,0,1-.433-.091.434.434,0,0,1-.126-.366v-16.6c0-.3.186-.454.559-.454h2.679c.371,0,.558.152.558.454v6.641h7.676v-6.641c0-.3.186-.454.559-.454h2.679c.373,0,.559.152.559.454v16.6a.429.429,0,0,1-.127.366.771.771,0,0,1-.432.091h-2.679a.775.775,0,0,1-.433-.091.434.434,0,0,1-.126-.366v-7.091H-484v7.091a.44.44,0,0,1-.124.366.783.783,0,0,1-.433.091Z" transform="translate(487.797 -4267.609)"/>
      <path id="패스_126" data-name="패스 126" class="cls-1" d="M-302.941,4321.364a6.6,6.6,0,0,1-2.469,1.6,9.066,9.066,0,0,1-3.2.536,8.734,8.734,0,0,1-3.224-.546,6.818,6.818,0,0,1-2.317-1.465,6.047,6.047,0,0,1-1.41-2.148,7.147,7.147,0,0,1-.473-2.592,7.319,7.319,0,0,1,.459-2.59,5.866,5.866,0,0,1,1.4-2.149,6.691,6.691,0,0,1,2.331-1.458,9.047,9.047,0,0,1,3.237-.532,8.9,8.9,0,0,1,3.238.543,6.823,6.823,0,0,1,2.331,1.47,6.017,6.017,0,0,1,1.409,2.135,7.043,7.043,0,0,1,.475,2.581,6.965,6.965,0,0,1-.461,2.533A6.065,6.065,0,0,1-302.941,4321.364Zm-5.666-8.687a3.571,3.571,0,0,0-1.618.351,3.527,3.527,0,0,0-1.159.922,4.049,4.049,0,0,0-.7,1.3,4.794,4.794,0,0,0-.237,1.5,4.8,4.8,0,0,0,.237,1.5,4.137,4.137,0,0,0,.7,1.306,3.43,3.43,0,0,0,1.159.933,3.515,3.515,0,0,0,1.618.354,3.592,3.592,0,0,0,1.648-.354,3.444,3.444,0,0,0,1.159-.933,3.93,3.93,0,0,0,.683-1.306,5.086,5.086,0,0,0,.223-1.5,5.008,5.008,0,0,0-.223-1.478,3.956,3.956,0,0,0-.683-1.308,3.47,3.47,0,0,0-1.159-.934A3.649,3.649,0,0,0-308.608,4312.678Z" transform="translate(334.314 -4304.449)"/>
      <path id="패스_127" data-name="패스 127" class="cls-1" d="M-137.3,4324.079a.738.738,0,0,1-.446-.1.434.434,0,0,1-.14-.375v-7.639a1.891,1.891,0,0,0-.614-1.465,2.2,2.2,0,0,0-1.535-.558,2.931,2.931,0,0,0-1.257.262,2.817,2.817,0,0,0-.949.717,3.256,3.256,0,0,0-.6,1.044,3.681,3.681,0,0,0-.208,1.229v6.433c0,.3-.177.457-.531.457H-146.2a.737.737,0,0,1-.446-.1.433.433,0,0,1-.14-.375v-7.639a2.022,2.022,0,0,0-.517-1.544,2.118,2.118,0,0,0-1.493-.479,2.975,2.975,0,0,0-2.122.738,2.349,2.349,0,0,0-.782,1.765v7.182a.471.471,0,0,1-.111.367.711.711,0,0,1-.419.09h-2.6a.639.639,0,0,1-.446-.114.507.507,0,0,1-.113-.366V4313a11.793,11.793,0,0,0-.055-1.308.331.331,0,0,1,.069-.353.97.97,0,0,1,.545-.1h2.6a.989.989,0,0,1,.391.047c.055.031.084.111.084.248v.934a6.282,6.282,0,0,1,1.494-.921,4.23,4.23,0,0,1,1.772-.4,5.812,5.812,0,0,1,2.526.567,4.452,4.452,0,0,1,1.828,1.524,6.085,6.085,0,0,1,.837-.819,6.466,6.466,0,0,1,1.019-.681,5.948,5.948,0,0,1,1.173-.478,4.64,4.64,0,0,1,1.3-.183,8.294,8.294,0,0,1,2.289.3,5.235,5.235,0,0,1,1.772.862,3.868,3.868,0,0,1,1.145,1.4,4.282,4.282,0,0,1,.4,1.9v8.091a.439.439,0,0,1-.125.367.786.786,0,0,1-.433.09Z" transform="translate(190.834 -4305.392)"/>
      <path id="패스_128" data-name="패스 128" class="cls-1" d="M83.889,4316.82a.783.783,0,0,1-.155.423.582.582,0,0,1-.462.148H74.536a3.128,3.128,0,0,0,1.186,2.249,4.1,4.1,0,0,0,2.358.775,7.842,7.842,0,0,0,2.248-.207,8.96,8.96,0,0,0,1.855-.705c.26-.134.436-.174.53-.11s.141.218.141.475v1.706a.6.6,0,0,1-.07.341,1.34,1.34,0,0,1-.321.252,6.709,6.709,0,0,1-2.053.683,13.637,13.637,0,0,1-2.441.228,7.6,7.6,0,0,1-5.289-1.751,6.367,6.367,0,0,1-1.94-4.982,7.761,7.761,0,0,1,.39-2.409,5.985,5.985,0,0,1,1.257-2.17,6.7,6.7,0,0,1,2.121-1.57,6.835,6.835,0,0,1,2.987-.6,7.49,7.49,0,0,1,2.973.522,5.239,5.239,0,0,1,3.086,3.467,9.07,9.07,0,0,1,.335,2.49Zm-6.31-4.592a2.609,2.609,0,0,0-1.089.228,3.053,3.053,0,0,0-.88.594,3.779,3.779,0,0,0-.656.839,2.845,2.845,0,0,0-.362,1h5.666a2.668,2.668,0,0,0-.18-.934,2.86,2.86,0,0,0-.5-.851,2.565,2.565,0,0,0-.822-.626A2.618,2.618,0,0,0,77.579,4312.228Z" transform="translate(-11.288 -4304.068)"/>
      <path id="패스_129" data-name="패스 129" class="cls-1" d="M291.455,4325.385a5.2,5.2,0,0,1-1.77-.32,4.232,4.232,0,0,1-1.579-.972v3.886a.5.5,0,0,1-.1.352.631.631,0,0,1-.431.1h-2.6a.651.651,0,0,1-.42-.1.47.47,0,0,1-.112-.352v-15.417a.478.478,0,0,1,.153-.419.853.853,0,0,1,.462-.1h2.513a.918.918,0,0,1,.462.078.365.365,0,0,1,.124.329v.884a3.727,3.727,0,0,1,.642-.532,4.768,4.768,0,0,1,.864-.454,5.719,5.719,0,0,1,1.02-.306,5.144,5.144,0,0,1,1.075-.117,6.49,6.49,0,0,1,2.555.479,5.471,5.471,0,0,1,1.94,1.365,6.091,6.091,0,0,1,1.242,2.137,8.677,8.677,0,0,1,.431,2.817,7.851,7.851,0,0,1-.445,2.707,5.967,5.967,0,0,1-1.284,2.1,5.834,5.834,0,0,1-2.039,1.363A7.092,7.092,0,0,1,291.455,4325.385Zm-.334-10.686a2.8,2.8,0,0,0-1.132.24,2.708,2.708,0,0,0-.959.727,3.888,3.888,0,0,0-.687,1.241,5.369,5.369,0,0,0-.263,1.772,5.99,5.99,0,0,0,.238,1.819,3.505,3.505,0,0,0,.638,1.227,2.4,2.4,0,0,0,.966.7,3.288,3.288,0,0,0,1.2.214,2.871,2.871,0,0,0,2.248-.953,4.441,4.441,0,0,0,.851-3,4.39,4.39,0,0,0-.867-3.059A2.93,2.93,0,0,0,291.122,4314.7Z" transform="translate(-202.249 -4306.153)"/>
      <path id="패스_130" data-name="패스 130" class="cls-1" d="M436.216,4276.358a.367.367,0,0,1-.445-.457v-17.754a.556.556,0,0,1,.083-.364.5.5,0,0,1,.362-.09h2.766a.568.568,0,0,1,.377.09.506.506,0,0,1,.1.364V4275.9a.511.511,0,0,1-.1.366.571.571,0,0,1-.377.09Z" transform="translate(-337.464 -4257.694)"/>
      <path id="패스_131" data-name="패스 131" class="cls-1" d="M508.383,4325.861a.791.791,0,0,1-.408-.068.286.286,0,0,1-.1-.25v-.865a2.554,2.554,0,0,1-.656.579,4.588,4.588,0,0,1-.876.445,7.6,7.6,0,0,1-.977.3,4.417,4.417,0,0,1-.95.114,5.705,5.705,0,0,1-4.105-1.319,4.98,4.98,0,0,1-1.367-3.75v-7.548a.5.5,0,0,1,.114-.364.572.572,0,0,1,.416-.112h2.571a.528.528,0,0,1,.444.146.552.552,0,0,1,.113.352v7.14a4.522,4.522,0,0,0,.155,1.3,2.086,2.086,0,0,0,.431.822,1.493,1.493,0,0,0,.683.431,3.078,3.078,0,0,0,.909.127,2.956,2.956,0,0,0,2.079-.787,3.17,3.17,0,0,0,.851-2.444v-6.614a.5.5,0,0,1,.112-.364.581.581,0,0,1,.418-.112h2.6c.222,0,.366.053.431.158a.7.7,0,0,1,.1.362v9.12c0,.453.007.926.029,1.42s.025.927.025,1.306a.719.719,0,0,1-.067.388c-.047.059-.2.09-.462.09Z" transform="translate(-393.916 -4307.128)"/>
      <path id="패스_132" data-name="패스 132" class="cls-1" d="M648.916,4322.656a4.736,4.736,0,0,1-1.646.639,11.308,11.308,0,0,1-1.952.2c-.353,0-.736-.02-1.143-.055s-.8-.085-1.174-.138-.717-.118-1.035-.192a7.4,7.4,0,0,1-.723-.205,1.7,1.7,0,0,1-.408-.193c-.065-.051-.088-.162-.067-.327l.222-1.663c.018-.181.065-.295.139-.338a.565.565,0,0,1,.418.022c.579.166,1.177.309,1.8.432a10.11,10.11,0,0,0,1.94.183,2.241,2.241,0,0,0,1.48-.412,1.292,1.292,0,0,0,.476-1.02,1.176,1.176,0,0,0-.49-.855,6.689,6.689,0,0,0-1.159-.783c-.445-.241-.9-.467-1.367-.67s-.838-.374-1.118-.512a4.943,4.943,0,0,1-1.547-1.17,2.466,2.466,0,0,1-.629-1.671,3.434,3.434,0,0,1,.433-1.764,3.713,3.713,0,0,1,1.145-1.217,5.205,5.205,0,0,1,1.646-.705,8.163,8.163,0,0,1,1.913-.225c.335,0,.694.02,1.074.056s.745.088,1.089.147.664.13.961.208a6.47,6.47,0,0,1,.7.2.635.635,0,0,1,.323.2.513.513,0,0,1,.014.273l-.251,1.728c-.04.179-.1.286-.2.307a.845.845,0,0,1-.447-.081,7.792,7.792,0,0,0-3.1-.522,2.131,2.131,0,0,0-1.3.353,1.124,1.124,0,0,0-.406.922.985.985,0,0,0,.362.611,4.412,4.412,0,0,0,1.284.776c.579.256,1.1.5,1.563.737s.82.421,1.062.556a6.268,6.268,0,0,1,1.522,1.276,2.634,2.634,0,0,1,.516,1.7,3.477,3.477,0,0,1-.474,1.806A3.878,3.878,0,0,1,648.916,4322.656Z" transform="translate(-520.634 -4304.449)"/>
    </g>
    <rect id="사각형_43" data-name="사각형 43" class="cls-1" width="143.598" height="3.311" transform="translate(-550.693 4279.56)"/>
  </g>
</svg>
