<svg xmlns="http://www.w3.org/2000/svg" width="116.44" height="30.536" viewBox="0 0 116.44 30.536">
  <g id="img_mall_10" transform="translate(-1801.594 -3661.17)">
    <g id="그룹_64" data-name="그룹 64" transform="translate(1801.594 3661.17)">
      <path id="패스_182" data-name="패스 182" d="M1818.571,3691.706v-12.983h-10.409v12.983h-6.568V3661.17h6.568v12.253h10.409V3661.17h6.645v30.536Z" transform="translate(-1801.594 -3661.17)"/>
    </g>
    <g id="그룹_65" data-name="그룹 65" transform="translate(1834.46 3662.441)">
      <path id="패스_183" data-name="패스 183" d="M2162.261,3695.388q-1.052.093-2.628.155-2.226.093-6.183.093h-4.236v-1.948h3.339l-.525-12.832h2.319l.433,12.832q1.267,0,1.963-.015t1.623-.047l.433-12.77h2.319l-.526,12.708q1.36-.062,2.149-.155t1.716-.186v1.948Q2163.311,3695.3,2162.261,3695.388Zm-12.461-15.3v-1.948h13.573v1.948Zm21.922,21.736v-14.285H2167.8v13.048h-2.257v-25.354h2.257v10.234h3.927v-10.852h2.257v27.209Z" transform="translate(-2149.213 -3674.611)"/>
      <path id="패스_184" data-name="패스 184" d="M2467.977,3690.967a20.083,20.083,0,0,1-2.211-1.422,18.235,18.235,0,0,1-2.705-2.319,15.069,15.069,0,0,1-1.67-2.041,8.981,8.981,0,0,1-1.051-2.01,10.938,10.938,0,0,1-.928,2.087,14.11,14.11,0,0,1-1.669,2.3,16.268,16.268,0,0,1-2.582,2.365,15.671,15.671,0,0,1-2.489,1.531l-1.608-1.484a16.442,16.442,0,0,0,2.829-1.716,13.94,13.94,0,0,0,2.8-2.705,12.183,12.183,0,0,0,2.473-7.2v-2.906h2.381v2.906a10.972,10.972,0,0,0,.7,3.788,9.521,9.521,0,0,0,1.809,3.138,19.631,19.631,0,0,0,2.906,2.535,11.725,11.725,0,0,0,2.628,1.546Zm-11.162,10.234v-8.41h2.319v6.524h17.129v1.886Zm16.48-6.833v-8.534h-6.153v-1.886h6.153v-3.618h-6.153v-1.886h6.153v-3.834h2.288v19.757Z" transform="translate(-2422.526 -3674.611)"/>
      <path id="패스_185" data-name="패스 185" d="M2745.39,3698.375v-1.886h12.4v-2.845H2749.1v-7.916h19.789v7.916H2760.2v2.845h12.4v1.886Zm3.71,13.2v-6.308h17.315v-2.628H2749.1v-1.855h19.819v6.276h-17.345v2.659h17.995v1.855Zm17.5-23.963h-15.212v4.143H2766.6Z" transform="translate(-2689.024 -3684.678)"/>
    </g>
  </g>
</svg>
