<svg xmlns="http://www.w3.org/2000/svg" width="122.464" height="31.765" viewBox="0 0 122.464 31.765">
  <g id="img_man_07" transform="translate(-1917.425 -2263.826)">
    <path id="패스_241" data-name="패스 241" d="M1938.915,2285.364H1955.3c.712,0,1.907-.346,1.907-2.665,0-1.354-.959-1.46-1.253-1.46h-15.628c-.314,0-.33-.076-.33-.3v-2.361h13.961c.712,0,1.907-.347,1.907-2.665,0-.893-.469-1.426-1.254-1.426H1940v-2.518h14.683c.713,0,1.907-.35,1.907-2.7,0-.893-.469-1.426-1.254-1.426h-20.151V2281.7C1935.183,2284.1,1936.474,2285.364,1938.915,2285.364Z" transform="translate(-13.352 -3.025)"/>
    <path id="패스_242" data-name="패스 242" d="M1946.422,2343.044h-11.448v-4.165h-4.848v4.165h-12.7v4.263h28.343c.712,0,1.908-.351,1.908-2.7C1947.676,2343.2,1946.8,2343.044,1946.422,2343.044Z" transform="translate(0 -56.431)"/>
    <path id="패스_243" data-name="패스 243" d="M2065.47,2283.512h14.939c2.156,0,3.25-1.986,3.25-5.9v-6.85a1.909,1.909,0,0,0-2.114-2.079H2061.7v11.2C2061.7,2282.257,2063.006,2283.512,2065.47,2283.512Zm13.341-10.671v5.321c0,.592-.1,1.224-.364,1.224h-11.325c-.459,0-.536-.155-.536-.5v-6.044Z" transform="translate(-108.481 -3.651)"/>
    <path id="패스_244" data-name="패스 244" d="M2074.053,2330.083H2062.6v-7.527h-4.847v7.527h-12.7v4.262H2073.4c.712,0,1.908-.351,1.908-2.7C2075.307,2330.235,2074.43,2330.083,2074.053,2330.083Z" transform="translate(-95.964 -44.158)"/>
    <path id="패스_245" data-name="패스 245" d="M2269.645,2273.4h-3.565v-9.569H2261.2V2294.1a1.406,1.406,0,0,0,1.563,1.494h.516c1.279,0,2.8-.767,2.8-4.42v-13.479h2.911c.713,0,1.908-.355,1.908-2.734C2270.9,2273.547,2270.022,2273.4,2269.645,2273.4Z" transform="translate(-258.478)"/>
    <path id="패스_246" data-name="패스 246" d="M2200.463,2286.521h-10.911c-.459,0-.536-.155-.536-.5v-15.951H2184.2v16.95c0,2.374,1.291,3.629,3.732,3.629h11.875c.7,0,1.873-.342,1.873-2.631C2201.682,2286.63,2200.75,2286.521,2200.463,2286.521Z" transform="translate(-200.586 -4.693)"/>
    <path id="패스_247" data-name="패스 247" d="M2391.326,2263.826V2294.1a1.389,1.389,0,0,0,1.529,1.494h.585c1.263,0,2.768-.767,2.768-4.42v-27.344Z" transform="translate(-356.319)"/>
    <path id="패스_248" data-name="패스 248" d="M2328.193,2287.761h-11.841c-.207,0-.227-.019-.227-.227V2283h7.765c2,0,3.009-1.8,3.009-5.35v-5.507a1.909,1.909,0,0,0-2.114-2.08h-13.508v4.159h10.74v4.185a1.1,1.1,0,0,1-.068.468h-10.672v9.376c0,2.374,1.29,3.629,3.732,3.629H2327.5c.713,0,1.908-.346,1.908-2.665C2329.412,2287.866,2328.479,2287.761,2328.193,2287.761Z" transform="translate(-296.132 -4.693)"/>
  </g>
</svg>
