<svg xmlns="http://www.w3.org/2000/svg" width="129.093" height="28.395" viewBox="0 0 129.093 28.395">
  <g id="img_man_02" transform="translate(-1914.616 -1740.66)">
    <path id="패스_219" data-name="패스 219" d="M1914.616,1769.532v-27.6h3.918c4.146,6.548,13.571,21.2,15.222,24.2h.046c-.25-3.785-.217-7.978-.217-12.479v-11.724h2.752v27.6h-3.655c-3.9-6.209-13.576-21.682-15.439-24.746h-.046c.2,3.409.177,7.728.177,12.725v12.021Z" transform="translate(0 -0.872)"/>
    <path id="패스_220" data-name="패스 220" d="M2005.782,1760.559l-3.266,8.974h-2.834l10-27.6h3.419l10.427,27.6h-3.037l-3.351-8.974Zm10.542-2.5c-2.875-7.775-4.394-11.679-4.966-13.645h-.04c-.672,2.2-2.376,6.993-4.7,13.645Z" transform="translate(-58.525 -0.872)"/>
    <path id="패스_221" data-name="패스 221" d="M2090.917,1741.928h10.061c5.533,0,8.317,2.922,8.317,6.833a6,6,0,0,1-4.125,6.025,6.9,6.9,0,0,1,5.075,6.727c0,5.378-4.063,8.02-9.065,8.02h-10.263Zm9.355,11.693c4.423,0,6.122-1.684,6.122-4.653,0-2.6-1.828-4.594-5.412-4.594h-7.3v9.247Zm-6.587,13.465h7.34c3.556,0,6.309-1.73,6.309-5.512,0-3.279-2.1-5.507-7.252-5.507h-6.4Z" transform="translate(-121.294 -0.872)"/>
    <path id="패스_222" data-name="패스 222" d="M2172.158,1741.928h10.061c5.534,0,8.317,2.922,8.317,6.833a6,6,0,0,1-4.125,6.025,6.9,6.9,0,0,1,5.075,6.727c0,5.378-4.063,8.02-9.064,8.02h-10.264Zm9.356,11.693c4.423,0,6.122-1.684,6.122-4.653,0-2.6-1.829-4.594-5.412-4.594h-7.3v9.247Zm-6.588,13.465h7.34c3.555,0,6.309-1.73,6.309-5.512,0-3.279-2.1-5.507-7.253-5.507h-6.4Z" transform="translate(-177.187 -0.872)"/>
    <path id="패스_223" data-name="패스 223" d="M2272.817,1754.679c0,7.559-4.128,14.376-12.727,14.376-7.929,0-12.464-6.275-12.464-14.2,0-7.848,4.491-14.2,12.76-14.2C2268.049,1740.66,2272.817,1746.561,2272.817,1754.679Zm-22.207.06c0,6.176,3.3,11.825,9.618,11.825,6.808,0,9.6-5.586,9.6-11.84,0-6.211-3.167-11.574-9.557-11.574C2253.557,1743.151,2250.611,1748.662,2250.611,1754.739Z" transform="translate(-229.109)"/>
  </g>
</svg>
