<svg xmlns="http://www.w3.org/2000/svg" width="184.754" height="22.053" viewBox="0 0 184.754 22.053">
  <g id="img_man_05" transform="translate(-1881.932 -2096.375)">
    <path id="패스_249" data-name="패스 249" d="M1898.844,2101.406l-4.263,1.426a3.5,3.5,0,0,0-3.643-2.539q-2.972,0-2.971,1.928a1.734,1.734,0,0,0,.555,1.3,5.576,5.576,0,0,0,2.512.925,24.9,24.9,0,0,1,4.79,1.334,6.119,6.119,0,0,1,2.559,2.17,5.723,5.723,0,0,1,1.041,3.346,6.683,6.683,0,0,1-2.231,5.014q-2.232,2.116-6.616,2.116a10.08,10.08,0,0,1-5.6-1.5,7.114,7.114,0,0,1-3.045-4.444l4.639-1.05q.782,2.993,4.349,2.993a4.1,4.1,0,0,0,2.565-.667,1.975,1.975,0,0,0,.845-1.591,1.657,1.657,0,0,0-.767-1.458,9.256,9.256,0,0,0-2.958-.972,13.476,13.476,0,0,1-5.823-2.312,5.292,5.292,0,0,1-1.737-4.286,6.36,6.36,0,0,1,2.075-4.811,7.867,7.867,0,0,1,5.629-1.959Q1897.043,2096.375,1898.844,2101.406Z" transform="translate(0)"/>
    <path id="패스_250" data-name="패스 250" d="M1949.317,2097.156v13.323a11.9,11.9,0,0,1-.737,4.8,5.687,5.687,0,0,1-2.719,2.586,13.462,13.462,0,0,1-9.984.1,6.1,6.1,0,0,1-2.735-2.586,10.536,10.536,0,0,1-.909-4.906v-13.323h5.439v13.323a8.153,8.153,0,0,0,.29,2.54,2.373,2.373,0,0,0,1.16,1.293,4.392,4.392,0,0,0,2.14.478,4.878,4.878,0,0,0,2.3-.47,2.357,2.357,0,0,0,1.176-1.246,8.17,8.17,0,0,0,.29-2.594v-13.323Z" transform="translate(-29.111 -0.452)"/>
    <path id="패스_251" data-name="패스 251" d="M1988.857,2110.6v7.947h-5.094v-21.394h8.432a12.031,12.031,0,0,1,4.318.6,6.372,6.372,0,0,1,2.672,2.155,6.125,6.125,0,0,1,1.175,3.809,7.958,7.958,0,0,1-.627,3.087,5.556,5.556,0,0,1-1.771,2.366,6.473,6.473,0,0,1-2.218,1.145,14.467,14.467,0,0,1-3.362.282Zm-.172-3.886h3.26a3.337,3.337,0,0,0,2.617-.863,2.913,2.913,0,0,0,.753-1.975,2.67,2.67,0,0,0-.839-2.069,3.667,3.667,0,0,0-2.547-.767h-3.244Z" transform="translate(-58.935 -0.452)"/>
    <path id="패스_252" data-name="패스 252" d="M2046.557,2101.231h-10.188v4.389h8.009v4.028h-8.009v4.67h10.188v4.232h-15.282v-21.394h15.282Z" transform="translate(-86.432 -0.452)"/>
    <path id="패스_253" data-name="패스 253" d="M2081.267,2110.071v8.479h-5.047v-21.394h9.4a11.933,11.933,0,0,1,4.177.6,5.366,5.366,0,0,1,2.609,2.217,6.5,6.5,0,0,1,1.034,3.586,5.7,5.7,0,0,1-3.714,5.529l3.949,9.459h-5.538l-3.285-8.479Zm0-9.106v5.455h3.072a8.1,8.1,0,0,0,2.187-.212,2.409,2.409,0,0,0,1.214-.941,2.752,2.752,0,0,0,.533-1.669,2.582,2.582,0,0,0-.533-1.6,2.2,2.2,0,0,0-1.159-.87,10.957,10.957,0,0,0-2.351-.165Z" transform="translate(-112.443 -0.452)"/>
    <path id="패스_254" data-name="패스 254" d="M2139.676,2101.406l-4.263,1.426a3.5,3.5,0,0,0-3.644-2.539q-2.972,0-2.97,1.928a1.735,1.735,0,0,0,.555,1.3,5.576,5.576,0,0,0,2.512.925,24.9,24.9,0,0,1,4.79,1.334,6.116,6.116,0,0,1,2.559,2.17,5.722,5.722,0,0,1,1.041,3.346,6.682,6.682,0,0,1-2.231,5.014q-2.232,2.116-6.616,2.116a10.08,10.08,0,0,1-5.6-1.5,7.113,7.113,0,0,1-3.045-4.444l4.639-1.05q.782,2.993,4.348,2.993a4.1,4.1,0,0,0,2.565-.667,1.975,1.975,0,0,0,.845-1.591,1.657,1.657,0,0,0-.767-1.458,9.252,9.252,0,0,0-2.958-.972,13.479,13.479,0,0,1-5.823-2.312,5.293,5.293,0,0,1-1.737-4.286,6.359,6.359,0,0,1,2.075-4.811,7.866,7.866,0,0,1,5.629-1.959Q2137.875,2096.375,2139.676,2101.406Z" transform="translate(-139.38)"/>
    <path id="패스_255" data-name="패스 255" d="M2184.566,2097.156v4.232h-5.3v17.162h-5.078v-17.162h-5.329v-4.232Z" transform="translate(-166.059 -0.452)"/>
    <path id="패스_256" data-name="패스 256" d="M2216.755,2097.156l6.7,21.394h-5.386l-1.318-4.4h-6.917l-1.341,4.4h-4.394l6.857-21.394Zm-5.722,13.04h4.533l-2.246-7.508Z" transform="translate(-186.45 -0.452)"/>
    <path id="패스_257" data-name="패스 257" d="M2262.086,2110.071v8.479h-5.047v-21.394h9.4a11.93,11.93,0,0,1,4.177.6,5.371,5.371,0,0,1,2.61,2.217,6.51,6.51,0,0,1,1.034,3.586,5.7,5.7,0,0,1-3.715,5.529l3.95,9.459h-5.538l-3.286-8.479Zm0-9.106v5.455h3.072a8.094,8.094,0,0,0,2.186-.212,2.414,2.414,0,0,0,1.215-.941,2.754,2.754,0,0,0,.532-1.669,2.584,2.584,0,0,0-.532-1.6,2.2,2.2,0,0,0-1.16-.87,10.955,10.955,0,0,0-2.351-.165Z" transform="translate(-217.092 -0.452)"/>
    <path id="패스_258" data-name="패스 258" d="M2313.643,2097.156v21.394h-5v-21.394Z" transform="translate(-246.958 -0.452)"/>
  </g>
</svg>
