<svg xmlns="http://www.w3.org/2000/svg" width="136.153" height="25.242" viewBox="0 0 136.153 25.242">
  <g id="img_man_01" transform="translate(-1851.645 -1463.935)">
    <path id="패스_213" data-name="패스 213" d="M1861.1,1491.545h-9.454v-24.008h9.454a10.24,10.24,0,0,1,2.661.37,11.019,11.019,0,0,1,2.864,1.281,11.41,11.41,0,0,1,2.645,2.237,10.56,10.56,0,0,1,1.909,3.441,13.879,13.879,0,0,1,.751,4.675,14.436,14.436,0,0,1-.72,4.675,10.314,10.314,0,0,1-1.863,3.441,11.225,11.225,0,0,1-2.614,2.237,10.658,10.658,0,0,1-2.88,1.281A10.812,10.812,0,0,1,1861.1,1491.545Zm-1.44-19.934h-3.005v15.861h3.005a6.723,6.723,0,0,0,5.353-2.191,8.377,8.377,0,0,0,1.909-5.709,8.494,8.494,0,0,0-1.909-5.739A6.678,6.678,0,0,0,1859.659,1471.611Z" transform="translate(0 -2.955)"/>
    <path id="패스_214" data-name="패스 214" d="M1995.773,1491.576v-24.038h4.977v24.038Z" transform="translate(-118.208 -2.955)"/>
    <path id="패스_215" data-name="패스 215" d="M2064.611,1489.146a9.98,9.98,0,0,1-9.829-8.979h5.04a4.857,4.857,0,0,0,4.758,4.783,5.357,5.357,0,0,0,3.193-.895,2.73,2.73,0,0,0,1.252-2.315q0-1.944-4.915-3.425-.094-.03-1.1-.4-.72-.278-1.456-.525a12.55,12.55,0,0,1-1.471-.6q-.736-.354-1.424-.71a6.58,6.58,0,0,1-1.268-.849,6.4,6.4,0,0,1-1-1.065,4.736,4.736,0,0,1-.673-1.311,4.965,4.965,0,0,1-.25-1.6,6.3,6.3,0,0,1,2.692-5.308,10.439,10.439,0,0,1,6.417-2.006,8.738,8.738,0,0,1,6.152,2.469,9.084,9.084,0,0,1,3.021,5.678h-4.946a5.69,5.69,0,0,0-1.44-2.669,3.62,3.62,0,0,0-2.786-1.342,5.369,5.369,0,0,0-2.943.741,2.435,2.435,0,0,0-1.158,2.191,1.469,1.469,0,0,0,.517,1.034,4.98,4.98,0,0,0,1.5.941q.986.433,1.675.679t1.784.586a3.513,3.513,0,0,1,.72.154,28.615,28.615,0,0,1,2.77,1.142,13.865,13.865,0,0,1,2.27,1.4,5.594,5.594,0,0,1,2.317,4.675,6.514,6.514,0,0,1-2.755,5.446A10.737,10.737,0,0,1,2064.611,1489.146Z" transform="translate(-166.605 0)"/>
    <path id="패스_216" data-name="패스 216" d="M2208.741,1473.086h-5.134a8.4,8.4,0,0,0-.735-1.42,9.911,9.911,0,0,0-1.174-1.466,5.655,5.655,0,0,0-1.769-1.234,5.333,5.333,0,0,0-2.238-.478,5.561,5.561,0,0,0-4.7,2.422,10.272,10.272,0,0,0,0,11.571,5.56,5.56,0,0,0,4.7,2.423,5.485,5.485,0,0,0,2.238-.463,5.329,5.329,0,0,0,1.769-1.234,11.674,11.674,0,0,0,1.174-1.45,10.632,10.632,0,0,0,.8-1.419h5.04a13.475,13.475,0,0,1-4.195,6.526,10.342,10.342,0,0,1-6.824,2.422,10.648,10.648,0,0,1-8.233-3.579,14.075,14.075,0,0,1,0-18.006,10.628,10.628,0,0,1,8.233-3.595,10.343,10.343,0,0,1,6.824,2.422A13.675,13.675,0,0,1,2208.741,1473.086Z" transform="translate(-274.391 -0.14)"/>
    <path id="패스_217" data-name="패스 217" d="M2347.387,1489.286a10.629,10.629,0,0,1-8.139-3.657,13.587,13.587,0,0,1,0-17.867,10.63,10.63,0,0,1,8.139-3.657,10.516,10.516,0,0,1,8.061,3.657,13.635,13.635,0,0,1,0,17.867A10.516,10.516,0,0,1,2347.387,1489.286Zm0-20.8a5.592,5.592,0,0,0-4.633,2.376,10.275,10.275,0,0,0,0,11.664,5.644,5.644,0,0,0,9.2,0,10.276,10.276,0,0,0,0-11.664A5.537,5.537,0,0,0,2347.387,1468.488Z" transform="translate(-397.167 -0.14)"/>
    <path id="패스_218" data-name="패스 218" d="M2522.874,1492.132a7.975,7.975,0,0,1-5.838-2.592,9.092,9.092,0,0,1-2.645-6.388h5.072a5.58,5.58,0,0,0,.955,3.363,2.937,2.937,0,0,0,2.489,1.419,3.07,3.07,0,0,0,2.473-1.172,3.787,3.787,0,0,0,.97-2.438v-16.787h5.009v16.2a7.907,7.907,0,0,1-2.551,5.971A8.35,8.35,0,0,1,2522.874,1492.132Z" transform="translate(-543.56 -2.955)"/>
    <circle id="타원_11" data-name="타원 11" cx="2.564" cy="2.564" r="2.564" transform="translate(1963.979 1471.991)"/>
  </g>
</svg>
