<svg xmlns="http://www.w3.org/2000/svg" width="127.177" height="60.059" viewBox="0 0 127.177 60.059">
  <defs>
    <style>
      .cls-1 {
        fill: #282828;
      }
    </style>
  </defs>
  <g id="img_man_08" transform="translate(-2055.837 -2482.011)">
    <g id="그룹_160" data-name="그룹 160" transform="translate(2075.016 2482.011)">
      <path id="패스_259" data-name="패스 259" class="cls-1" d="M2182.87,2512.972a13.978,13.978,0,0,0-4.893-2.361c-2.41-.736-4.865-.1-7.234-.288a19.3,19.3,0,0,0-7.873,1.134,10.8,10.8,0,0,1-11.325-3.141c-2.088-2.6-4.555-4.656-7.945-5.277-.8-.146-1.363-.332-1.3-1.29.05-.772-.171-1.633.854-1.985a10.018,10.018,0,0,0,3.077-1.776c3.138-2.565,3.961-6.967,2.24-11.068-1.482-3.53-5.754-5.464-9.855-4.768a8.118,8.118,0,0,0-7.224,7.661c-.108,1.172-.263,2.715,1.248,2.924,1.466.2,1.5-1.287,1.687-2.377.424-2.441,1.551-4.373,4.117-4.992,2.461-.594,4.808-.257,6.5,1.806a6.484,6.484,0,0,1,.787,6.757c-.927,2.422-3.118,3.092-5.451,3-1.6-.063-2.188.444-2.019,2,.069.627-.036,1.272.019,1.9.11,1.267-.192,1.973-1.665,2.276a9.273,9.273,0,0,0-6.005,4.384,8.565,8.565,0,0,1-5.614,3.98l-5.967.032a52.913,52.913,0,0,0-11.2-1.214,18.689,18.689,0,0,0-9.4,2.471,4.816,4.816,0,0,0-2.186,3c-.443,1.513-.052,2.179,1.652,2.158a10.93,10.93,0,0,0,5.488-1.151,20.7,20.7,0,0,1,8.153-2.4,51.981,51.981,0,0,1,13.746.672c5.155.845,5.152.868,6.979-3.745,2-5.041,5.96-7.239,10.449-5.713a8.715,8.715,0,0,1,6.1,7.018c.418,2.427,1.656,2.938,3.721,2.885,3.666-.094,7.19-1.165,10.819-1.493h4.1a30.34,30.34,0,0,1,12.7,3.543c1.258.692,3.422,1.068,4.355-.34C2185.581,2515.559,2184.248,2514.09,2182.87,2512.972Z" transform="translate(-2096.075 -2482.011)"/>
      <path id="패스_260" data-name="패스 260" class="cls-1" d="M2184.8,2500.419a3.61,3.61,0,0,0,3.874-3.835c.014-2.384-1.378-4.018-3.407-4-2.679.027-4.349,1.515-4.348,3.875A3.84,3.84,0,0,0,2184.8,2500.419Z" transform="translate(-2140.479 -2487.546)"/>
    </g>
    <g id="그룹_161" data-name="그룹 161" transform="translate(2055.837 2523.542)">
      <path id="패스_261" data-name="패스 261" d="M2065.756,2578.078c2.785.437,5.047,1.692,5.047,4.338a4.7,4.7,0,0,1-2.813,4.2,10.077,10.077,0,0,1-5.018,1.064h-7.135v-.764c2.466-.219,2.61-.464,2.61-2.62v-10.943c0-2.265-.261-2.456-2.61-2.647v-.764h7.6a8.1,8.1,0,0,1,4.466.956,3.512,3.512,0,0,1,1.711,3.056C2069.614,2576.522,2067.381,2577.7,2065.756,2578.078Zm-3.335-.327c3.19,0,4.5-1.2,4.5-3.438,0-1.91-1.247-3.384-4.031-3.384a3.181,3.181,0,0,0-1.624.273c-.232.163-.319.463-.319,1.337v5.212Zm-1.479,6.494c0,1.965.493,2.456,2.552,2.456,2.262,0,4.467-1.146,4.467-4.011,0-2.784-2.088-3.985-5.626-3.985h-1.392Z" transform="translate(-2055.837 -2569.564)"/>
      <path id="패스_262" data-name="패스 262" d="M2107.871,2570.71c-2.03.218-2.378.519-3.539,2.265-1.3,1.992-2.378,3.875-3.8,6.3a2.768,2.768,0,0,0-.435,1.61v3.356c0,2.265.261,2.429,2.959,2.675v.764h-8.324v-.764c2.639-.328,2.842-.382,2.842-2.675v-3.52a2.689,2.689,0,0,0-.58-1.583c-1.015-1.773-2-3.493-3.568-6.058-1.131-1.855-1.421-2.183-3.394-2.374v-.764h7.135v.764c-2.088.273-1.972.628-1.45,1.556,1.218,2.1,2.581,4.557,3.8,6.6,1.044-1.829,2.7-4.8,3.509-6.3.667-1.364.581-1.637-1.711-1.855v-.764h6.555Z" transform="translate(-2073.734 -2569.564)"/>
      <path id="패스_263" data-name="패스 263" d="M2146.6,2587.683v-.764c2.378-.219,2.466-.382,2.436-3.3l.03-11.133c-2.378,4.993-6.207,12.8-7.222,15.2h-.754c-.986-2.483-4.263-9.987-6.468-14.927-.493,9.551-.522,11.707-.522,12.225.029,1.528.754,1.747,2.727,1.938v.764h-6.874v-.764c1.682-.164,2.378-.492,2.61-1.965.174-1.2.2-2.183.957-12.143.115-1.419-.175-1.883-2.726-2.1v-.764h5.046l6.41,13.835,6.874-13.835h5.075v.764c-2.494.273-2.813.519-2.755,2.429l.116,10.479c.116,2.92.2,3.056,2.755,3.3v.764Z" transform="translate(-2094.625 -2569.564)"/>
      <path id="패스_264" data-name="패스 264" d="M2196.769,2569.145c4.959,0,9.4,3.575,9.4,9,0,5.867-4.235,9.523-9.571,9.523-5.569,0-9.63-3.984-9.63-9.114A9.371,9.371,0,0,1,2196.769,2569.145Zm-.58,1.01c-3.248,0-6.207,2.565-6.207,7.668,0,5.076,2.959,8.814,7.077,8.814,3.509,0,6.148-2.457,6.148-7.723C2203.208,2573.183,2199.988,2570.155,2196.188,2570.155Z" transform="translate(-2124.465 -2569.145)"/>
      <path id="패스_265" data-name="패스 265" d="M2253.8,2570.71c-1.856.191-2.466.464-2.552,1.719-.029.874-.087,2.02-.087,4.557v10.942h-1.1l-12.413-14.272v6.822c0,2.456.087,3.684.145,4.475.058,1.392.783,1.8,2.871,1.965v.764h-7.048v-.764c1.8-.137,2.494-.546,2.611-1.884.087-.873.145-2.1.145-4.584v-6.958a2.282,2.282,0,0,0-.58-1.8c-.551-.682-1.161-.846-2.581-.982v-.764h4.351l12.3,13.726v-6.685a44.312,44.312,0,0,0-.145-4.53c-.087-1.228-.754-1.61-3.074-1.746v-.764h7.164Z" transform="translate(-2148.668 -2569.564)"/>
      <path id="패스_266" data-name="패스 266" d="M2292.179,2569.145c4.96,0,9.4,3.575,9.4,9,0,5.867-4.234,9.523-9.571,9.523-5.569,0-9.63-3.984-9.63-9.114A9.371,9.371,0,0,1,2292.179,2569.145Zm-.58,1.01c-3.249,0-6.207,2.565-6.207,7.668,0,5.076,2.958,8.814,7.077,8.814,3.51,0,6.149-2.457,6.149-7.723C2298.618,2573.183,2295.4,2570.155,2291.6,2570.155Z" transform="translate(-2174.4 -2569.145)"/>
    </g>
  </g>
</svg>
