<svg xmlns="http://www.w3.org/2000/svg" width="207.811" height="21.501" viewBox="0 0 207.811 21.501">
  <g id="img_man_04" transform="translate(-1888.12 -1982.439)">
    <path id="패스_233" data-name="패스 233" d="M1906.971,2004.253h-1.578v-18.523l-7.713,12.805h-.268l-7.713-12.805v18.523h-1.579v-20.847h1.966l7.445,12.329,7.445-12.329h2Z" transform="translate(0 -0.64)"/>
    <path id="패스_234" data-name="패스 234" d="M1997.486,2002.763v1.489h-12v-20.847h11.853v1.489h-10.274v8.1h9.53v1.489h-9.53v8.279Z" transform="translate(-64.397 -0.64)"/>
    <path id="패스_235" data-name="패스 235" d="M2054.792,1993.189a10.751,10.751,0,1,1,10.751,10.751A10.689,10.689,0,0,1,2054.792,1993.189Zm19.923,0a9.173,9.173,0,1,0-9.172,9.232A9.133,9.133,0,0,0,2074.715,1993.189Z" transform="translate(-110.237)"/>
    <path id="패스_236" data-name="패스 236" d="M2150.573,1999.027l1.37-.8c.714,2.5,2.83,4.2,6.254,4.2,3.484,0,5.241-1.787,5.241-4.169,0-2.5-2.2-3.455-5.391-4.467-3.484-1.132-6.611-2.114-6.611-5.748,0-3.425,2.77-5.6,6.313-5.6a7,7,0,0,1,6.7,4.378l-1.34.744a5.48,5.48,0,0,0-5.361-3.6c-2.889,0-4.705,1.7-4.705,4.02,0,2.5,2.114,3.276,5.092,4.259,3.692,1.221,6.909,2.382,6.909,5.986,0,3.455-2.71,5.718-6.849,5.718C2154.3,2003.94,2151.526,2001.975,2150.573,1999.027Z" transform="translate(-173.587)"/>
    <path id="패스_237" data-name="패스 237" d="M2232.277,1983.406v20.847H2230.7v-20.847Z" transform="translate(-226.581 -0.64)"/>
    <path id="패스_238" data-name="패스 238" d="M2294.71,1993.829c0,5.748-4.08,10.424-9.827,10.424h-7.833v-20.847h7.833C2290.63,1983.406,2294.71,1988.082,2294.71,1993.829Zm-1.548,0c0-4.943-3.365-8.934-8.279-8.934h-6.254v17.868h6.254C2289.8,2002.763,2293.161,1998.773,2293.161,1993.829Z" transform="translate(-257.239 -0.64)"/>
    <path id="패스_239" data-name="패스 239" d="M2385.037,1993.829c0,5.748-4.08,10.424-9.827,10.424h-7.833v-20.847h7.833C2380.957,1983.406,2385.037,1988.082,2385.037,1993.829Zm-1.549,0c0-4.943-3.365-8.934-8.279-8.934h-6.254v17.868h6.254C2380.123,2002.763,2383.488,1998.773,2383.488,1993.829Z" transform="translate(-316.981 -0.64)"/>
    <path id="패스_240" data-name="패스 240" d="M2463.32,1998.951h-10.453l-2.025,5.3h-1.667l8.1-20.847h1.667l8.071,20.847h-1.667Zm-.566-1.489-4.645-12.121-4.646,12.121Z" transform="translate(-371.082 -0.64)"/>
  </g>
</svg>
