<svg xmlns="http://www.w3.org/2000/svg" width="155.425" height="26.566" viewBox="0 0 155.425 26.566">
  <g id="img_man_09" transform="translate(-1884.798 -2597.625)">
    <path id="패스_267" data-name="패스 267" d="M1905.17,2603.686l-5.136,1.718a4.21,4.21,0,0,0-4.389-3.059q-3.579,0-3.579,2.322a2.087,2.087,0,0,0,.669,1.567,6.718,6.718,0,0,0,3.026,1.115,30.025,30.025,0,0,1,5.77,1.607,7.384,7.384,0,0,1,3.083,2.615,6.893,6.893,0,0,1,1.254,4.03,8.052,8.052,0,0,1-2.688,6.041q-2.689,2.549-7.971,2.548a12.135,12.135,0,0,1-6.744-1.8,8.562,8.562,0,0,1-3.669-5.353l5.589-1.265q.942,3.607,5.238,3.606a4.941,4.941,0,0,0,3.09-.8,2.378,2.378,0,0,0,1.017-1.917,2,2,0,0,0-.924-1.756,11.152,11.152,0,0,0-3.563-1.171q-4.921-1.021-7.014-2.786a6.373,6.373,0,0,1-2.093-5.163,7.66,7.66,0,0,1,2.5-5.8,9.473,9.473,0,0,1,6.781-2.36Q1903,2597.625,1905.17,2603.686Z"/>
    <path id="패스_268" data-name="패스 268" d="M1974.965,2598.707v25.773h-5.151l-10.087-17.408q.019.661.038.868a10.11,10.11,0,0,1,.076,1.114v15.426h-4.7v-25.773h6.507l8.768,15.2q-.113-1.133-.113-1.718v-13.481Z" transform="translate(-44.551 -0.685)"/>
    <path id="패스_269" data-name="패스 269" d="M2031.454,2598.707v25.773h-6.023v-25.773Z" transform="translate(-89.07 -0.685)"/>
    <path id="패스_270" data-name="패스 270" d="M2064.215,2614.907v9.572h-6.137v-25.773h10.158a14.5,14.5,0,0,1,5.2.727,7.676,7.676,0,0,1,3.219,2.6,7.379,7.379,0,0,1,1.416,4.588,9.591,9.591,0,0,1-.755,3.72,6.7,6.7,0,0,1-2.134,2.851,7.791,7.791,0,0,1-2.671,1.378,17.419,17.419,0,0,1-4.05.34Zm-.208-4.683h3.927a4.024,4.024,0,0,0,3.153-1.038,3.515,3.515,0,0,0,.906-2.379,3.217,3.217,0,0,0-1.01-2.492,4.417,4.417,0,0,0-3.068-.925h-3.908Z" transform="translate(-109.747 -0.685)"/>
    <path id="패스_271" data-name="패스 271" d="M2142.247,2603.616h-12.273v5.287h9.648v4.852h-9.648v5.626h12.273v5.1h-18.41v-25.773h18.41Z" transform="translate(-151.396 -0.685)"/>
    <path id="패스_272" data-name="패스 272" d="M2192.123,2614.265v10.214h-6.08v-25.773h11.329a14.373,14.373,0,0,1,5.032.726,6.466,6.466,0,0,1,3.144,2.67,7.838,7.838,0,0,1,1.247,4.321,6.864,6.864,0,0,1-4.475,6.661l4.758,11.395h-6.671l-3.958-10.214Zm0-10.97v6.571h3.7a9.729,9.729,0,0,0,2.634-.255,2.909,2.909,0,0,0,1.464-1.133,3.322,3.322,0,0,0,.642-2.011,3.117,3.117,0,0,0-.642-1.926,2.647,2.647,0,0,0-1.4-1.048,13.194,13.194,0,0,0-2.832-.2Z" transform="translate(-190.794 -0.685)"/>
    <path id="패스_273" data-name="패스 273" d="M2272.955,2612.773l-.661,3.758h-3.642l-1.4,7.949h-3.815l1.4-7.949h-2.964l-1.4,7.949h-3.738l1.4-7.949h-4.117l.661-3.758h4.116l.511-2.907h-4.042l.642-3.739h4.057l1.3-7.42h3.757l-1.309,7.42h2.964l1.31-7.42h3.8l-1.3,7.42h3.588l-.661,3.739h-3.584l-.511,2.907Zm-6.935-2.907h-2.964l-.514,2.907h2.964Z" transform="translate(-233.846 -0.685)"/>
  </g>
</svg>
