<svg xmlns="http://www.w3.org/2000/svg" width="164.359" height="26.287" viewBox="0 0 164.359 26.287">
    <g>
        <path d="M2239.539 2740.75c3.833 0 7.556-.279 11.219.071a9.639 9.639 0 0 1 8.619 8.55 36.5 36.5 0 0 1-.066 9.161 9.8 9.8 0 0 1-9.124 8.288c-3.476.222-6.978.044-10.438.044-.457-1.674-.615-22.029-.21-26.114zm5.317 4.005v17.982c1.166 0 2.217.013 3.268 0 3.426-.05 5.669-1.958 5.962-5.4a42.8 42.8 0 0 0 0-7.254c-.278-3.247-2.591-5.215-5.874-5.316-1.06-.038-2.119-.011-3.356-.011z" transform="translate(-1935.183 -2740.645) translate(-221.088)"/>
        <path d="M2367.337 2767.039h-5.6c-.6-1.82-1.187-3.573-1.8-5.41h-8.377l-1.771 5.381h-5.586l8.77-26.064h5.584zm-8.777-9.9l-2.575-8.3-.426-.031-2.6 8.335z" transform="translate(-1935.183 -2740.645) translate(-297.347 -.218)"/>
        <path d="M1935.183 2740.737h17.017v4.057h-11.662v7.053h9.709v4.185h-9.747v10.789h-5.32z" transform="translate(-1935.183 -2740.645) translate(0 -.067)"/>
        <path d="M2131.87 2766.9c0-2.423-.067-4.7.023-6.981a7.945 7.945 0 0 0-1.041-4.28c-2.262-4.135-4.431-8.322-6.631-12.491-.357-.676-.683-1.368-1.131-2.27h5.816l5.73 11.9 5.652-11.864h5.8c-.323.694-.563 1.274-.855 1.827-2.4 4.549-4.844 9.074-7.184 13.653a7.611 7.611 0 0 0-.775 3.037c-.111 2.422-.035 4.853-.035 7.465z" transform="translate(-1935.183 -2740.645) translate(-136.602 -.166)"/>
        <path d="M2453.452 2740.893h5.731l5.7 11.879 5.695-11.912h5.734c-.278.636-.463 1.144-.712 1.62-2.354 4.491-4.675 9-7.109 13.45a8.122 8.122 0 0 0-1.024 4.292c.062 2.2.016 4.4.016 6.721h-5.356c0-1.829-.147-3.67.034-5.477a12.3 12.3 0 0 0-1.924-7.5c-2.144-3.791-4.1-7.686-6.13-11.542-.229-.424-.385-.889-.655-1.531z" transform="translate(-1935.183 -2740.645) translate(-376.765 -.156)"/>
        <path d="M2033.4 2740.842h5.217v22.017h11.639v4.079H2033.4z" transform="translate(-1935.183 -2740.645) translate(-71.398 -.143)"/>
    </g>
</svg>
