<svg xmlns="http://www.w3.org/2000/svg" width="100.28" height="66.639" viewBox="0 0 100.28 66.639">
  <defs>
    <style>
      .cls-1 {
        fill: #fff;
      }
    </style>
  </defs>
  <g id="img_man_03" transform="translate(-2002.98 -1906.515)">
    <path id="패스_224" data-name="패스 224" d="M2103.081,1939.5c-.3-1.044-.626-2.076-.943-3.075-.355-1.121-.692-2.18-.991-3.256-.225-.81-.416-1.641-.617-2.52-.258-1.129-.525-2.3-.884-3.471a5.013,5.013,0,0,0-1.2-2.058c.021-.038.044-.075.065-.113a4.657,4.657,0,0,0-.528-4.911,3.78,3.78,0,0,0-.568-.545,2.93,2.93,0,0,0-1.208-1.923c-.1-.069-.2-.14-.292-.211a10.782,10.782,0,0,0-1.176-.778,3.555,3.555,0,0,0-2.153-.381h0c-.192,0-.381.013-.569.025.031-.028.063-.054.094-.083a7.354,7.354,0,0,0,2.145-3.416,4.779,4.779,0,0,0-2.522-5.788,5.338,5.338,0,0,0-5.948,1.079,65.54,65.54,0,0,1-12.406,8.15c-3.393-1.189-6.453-2.285-9.333-3.344-3.12-1.148-5.514-.264-7.117,2.629l-.787,1.423c-1.406,2.542-2.859,5.167-4.329,7.72-3.224.827-6.413,1.606-9.783,2.429l-.448.11c-.081-.261-.16-.52-.239-.779q-.6-2-1.2-4.006c-.747-2.493-1.518-5.071-2.3-7.605a4.673,4.673,0,0,0-8.264-1.922,7.753,7.753,0,0,0-1.607,2.657c-.9,2.548-1.806,5.14-2.68,7.646-.824,2.364-1.674,4.8-2.523,7.2a30.789,30.789,0,0,1-12.47.328,8.974,8.974,0,0,0-2.705-.089,4.933,4.933,0,0,0-2.867,8.675,11.981,11.981,0,0,0,2.108,1.418c3.753,1.932,7.7,3.948,11.763,6-.435,2.766-.82,5.552-1.194,8.258l-.21,1.516q-.084.608-.172,1.216c-.247,1.737-.5,3.534-.65,5.353a28.206,28.206,0,0,0,0,5.615,4.774,4.774,0,0,0,4.895,4.477q.287,0,.585-.028a5.2,5.2,0,0,0,4.641-5.047c.074-1.162.138-2.339.2-3.476.125-2.31.255-4.7.474-7.008.167-1.758.405-3.5.666-5.319l2.193,1.211c3.4,1.878,6.919,3.82,10.387,5.72a21.328,21.328,0,0,0,3.271,1.516,4.361,4.361,0,0,0,4.193-.6,4.312,4.312,0,0,0,1.58-3.878c-.009-.094-.021-.187-.031-.281a5.5,5.5,0,0,0,3.222.884h.047a8.138,8.138,0,0,0,1.245-.121l.137-.021a15.453,15.453,0,0,0,6.694-3.179,14.469,14.469,0,0,0,3.787-3.719l.307,1.015a2.925,2.925,0,0,0,3.641,1.958l9.742-2.909a2.908,2.908,0,0,0,1.951-1.916,5.086,5.086,0,0,0,3.6-.038,4.3,4.3,0,0,0,2.547-2.645,9.383,9.383,0,0,0,5.5,4.349,5.63,5.63,0,0,0,1.4.182,4.566,4.566,0,0,0,4.1-2.448,4.622,4.622,0,0,0,.449-1.142,4.307,4.307,0,0,0,.457.026,4.424,4.424,0,0,0,.965-.107,5.2,5.2,0,0,0,3.249-2.484A5.323,5.323,0,0,0,2103.081,1939.5Z"/>
    <g id="그룹_155" data-name="그룹 155" transform="translate(2005.911 1909.443)">
      <path id="패스_225" data-name="패스 225" class="cls-1" d="M2052.681,1943.746c4.506-1.106,8.878-2.156,13.231-3.277a2.384,2.384,0,0,0,1.338-1c1.813-3.136,3.556-6.312,5.312-9.481.9-1.627,1.81-1.937,3.543-1.3q4.99,1.835,10.011,3.582a1.49,1.49,0,0,0,1.075-.06,70.544,70.544,0,0,0,13.6-8.88,2.469,2.469,0,0,1,2.778-.619,1.9,1.9,0,0,1,.917,2.41,4.415,4.415,0,0,1-1.3,1.988,18.224,18.224,0,0,1-2.629,1.87c-3.786,2.414-7.595,4.791-11.372,7.219a3.663,3.663,0,0,1-3.568.336c-3.068-1.194-6.166-2.314-9.237-3.5-.942-.364-1.405.085-1.8.825-1.512,2.853-3.066,5.684-4.524,8.564a2.84,2.84,0,0,1-1.963,1.52q-6.736,1.776-13.488,3.49c-.821.207-.663.654-.511,1.205,1.592,5.752,3.188,11.5,4.752,17.263a21.567,21.567,0,0,1,.749,3.661,1.322,1.322,0,0,1-1.9,1.449,18.651,18.651,0,0,1-2.821-1.317q-7.7-4.217-15.374-8.473c-.245-.135-.507-.239-.923-.433-.443,3.271-.971,6.417-1.272,9.585-.334,3.515-.456,7.05-.681,10.575a2.313,2.313,0,0,1-1.991,2.318,1.911,1.911,0,0,1-2.3-1.882,25.328,25.328,0,0,1,.016-5.029c.174-2.143.508-4.273.8-6.4.512-3.687,1.006-7.377,1.609-11.049.111-.678-.059-.868-.571-1.127q-6.491-3.279-12.958-6.606a9.177,9.177,0,0,1-1.591-1.078,1.894,1.894,0,0,1-.542-2.171,1.928,1.928,0,0,1,1.808-1.322,6.28,6.28,0,0,1,1.836.036c4.969,1.064,9.877.492,14.759-.546.353-.075.72-.638.866-1.05,1.825-5.15,3.6-10.318,5.422-15.468a4.789,4.789,0,0,1,.984-1.633c1.318-1.408,2.755-1.07,3.328.785,1.191,3.857,2.332,7.73,3.5,11.595C2051.949,1941.438,2052.308,1942.555,2052.681,1943.746Zm-3.832,4.48c-2.567.466-5.065.906-7.552,1.4-.214.042-.462.385-.528.632-.444,1.66-.881,3.324-1.226,5.005a1.3,1.3,0,0,0,.431,1.116c4.465,2.591,8.961,5.13,13.556,7.74Zm-1.015-4.042-2.667-9.443-3.566,10.578Zm-18.162,6.633,6.009,3.3,1.21-4.342Z" transform="translate(-2018.981 -1922.5)"/>
      <path id="패스_226" data-name="패스 226" class="cls-1" d="M2256.075,2042.019c1.117,4.376.182,6.752-3.621,9.459a12.751,12.751,0,0,1-5.432,2.669,6.773,6.773,0,0,1-.963.109c-1.906.01-2.531-.893-1.806-2.687-2.115-.59-2.953-2.309-3.629-4.167-1.285-3.537-1.342-6.91,1.062-10.1a7.963,7.963,0,0,1,5.738-3.207c3.441-.383,4.538,2.375,3.722,5.182a7.053,7.053,0,0,1-.279.706l3.823.568a19.474,19.474,0,0,1-.615-3.01c-.18-2.991,1.631-4.934,3.759-6.66,2.958-2.4,7.325-1.7,9.811.24a5.3,5.3,0,0,1,1.789,3.576c.712,4.829-3.128,7.929-6.593,8.484C2260.662,2043.535,2260.534,2043.846,2256.075,2042.019Zm-9.454,8.555a6.332,6.332,0,0,0,.84-.241,9.675,9.675,0,0,0,4.3-3.48c.745-1.064.8-1.888.162-2.64a3.379,3.379,0,0,0-3.188-.737c-1.513.777-3.014,1.576-4.616,2.416Zm16.188-16.92-.12-.27a17.748,17.748,0,0,0-3.515,1.619,2.248,2.248,0,0,0,.583,3.98,4.211,4.211,0,0,0,4.718-.585c1.1-.881,1.523-1.863,1.189-2.871A2.851,2.851,0,0,0,2262.809,2033.654Zm-19.527,8.124c1.137-.3,1.973-.606,2.834-.741,1.335-.209,1.568-.991,1.627-2.116.051-.971-.578-1.448-1.521-1.2C2244.263,2038.237,2243.927,2039.941,2243.282,2041.778Z" transform="translate(-2199.302 -2009.783)"/>
      <path id="패스_227" data-name="패스 227" class="cls-1" d="M2404.855,2015.514c3.311.258,5.039,2.356,6.688,4.67,1.032,1.448,2.312,2.72,3.486,4.066.556.637,1.132,1.277.627,2.2a1.767,1.767,0,0,1-2.206.839c-2.016-.516-3.147-2.06-4.136-3.7a10.719,10.719,0,0,0-4.58-4.292,2.4,2.4,0,0,0-.917-.267,1.331,1.331,0,0,0-.852.24c-.1.087.022.5.107.744.411,1.171.875,2.325,1.257,3.5.284.877.292,1.779-.733,2.186a2.145,2.145,0,0,1-2.776-1.221c-.554-1.47-.951-3-1.495-4.474-1-2.716-2.079-5.4-3.082-8.119a5.886,5.886,0,0,1-.4-1.972c0-1.278,1.056-1.847,2.256-1.335,1.216.519,1.517,1.651,1.885,2.729.354,1.037.645,2.1,1.044,3.409a7.078,7.078,0,0,0,.7-1.088q1.326-3.511,2.6-7.041c.4-1.113,1.122-1.668,2.158-1.473,1.079.2,1.254,1.093,1.072,1.916-.383,1.735-.889,3.447-1.418,5.145C2405.8,2013.255,2405.329,2014.294,2404.855,2015.514Z" transform="translate(-2326.801 -1989.947)"/>
      <path id="패스_228" data-name="패스 228" class="cls-1" d="M2331,1994.661c-.32-.059-.705-.133-1.091-.2a3.247,3.247,0,0,0-3.348.925,2.5,2.5,0,0,1-2.689.79c-3.159-.623-6.14-.283-8.658,2.047a3.547,3.547,0,0,1-1.752.7c-1.2.208-1.746-.361-1.593-1.583a8.32,8.32,0,0,1,3.272-5.854,3.557,3.557,0,0,1,2.713-.422,20.146,20.146,0,0,1,4.94,2.018c2.275,1.353,4.3.884,6.375-.289,1.465-.828,2.929-1.655,4.408-2.457a1.791,1.791,0,0,1,1.01-.292c.521.083,1.252.216,1.448.573a1.679,1.679,0,0,1-.37,1.479A7.174,7.174,0,0,1,2331,1994.661Z" transform="translate(-2258.197 -1977.666)"/>
      <path id="패스_229" data-name="패스 229" class="cls-1" d="M2482.931,2021.706a18.05,18.05,0,0,1-2.1.526,1.215,1.215,0,0,1-1.488-1.073,2.548,2.548,0,0,1,.743-1.727c.863-.824,1.922-1.438,2.851-2.2a1.758,1.758,0,0,1,3,.793c.594,1.943.935,3.962,1.481,5.921.594,2.132,1.331,4.223,1.94,6.351a2.632,2.632,0,0,1-1.7,2.965c-.933.209-1.9-.557-2.237-1.858-.774-3.009-1.51-6.027-2.267-9.04A6.694,6.694,0,0,0,2482.931,2021.706Z" transform="translate(-2395.006 -1999.434)"/>
      <path id="패스_230" data-name="패스 230" class="cls-1" d="M2466.082,1975.555c.217,0,.476-.077.642.015a13.827,13.827,0,0,1,1.2.824,4.72,4.72,0,0,1-.89.893c-.833.478-1.74.829-2.564,1.32-.224.133-.259.582-.381.886a3.276,3.276,0,0,0,1.012-.17,20.592,20.592,0,0,1,2.485-1.4,1.743,1.743,0,0,1,1.553.425,1.789,1.789,0,0,1,.2,1.625c-.984,1.8-2.78,2.473-4.647,2.98a3.826,3.826,0,0,1-3.372-.6,2.785,2.785,0,0,1-.886-3.528A6.017,6.017,0,0,1,2466.082,1975.555Z" transform="translate(-2379.314 -1965.811)"/>
      <path id="패스_231" data-name="패스 231" class="cls-1" d="M2350.031,2111.116l-1.346-4.448,9.744-2.867,1.345,4.406Z" transform="translate(-2288.283 -2070.588)"/>
      <path id="패스_232" data-name="패스 232" class="cls-1" d="M2144.709,2080.337a9.432,9.432,0,0,1-6.281-4.128,3.9,3.9,0,0,1,.725-4.82,4.416,4.416,0,0,1,5.383-.3,6.4,6.4,0,0,1,1.8,2.218,22.869,22.869,0,0,1,1.362,4.045C2148.21,2079.342,2147.329,2080.373,2144.709,2080.337Z" transform="translate(-2116.109 -2043.232)"/>
    </g>
  </g>
</svg>
