<svg xmlns="http://www.w3.org/2000/svg" width="133.028" height="23.543" viewBox="0 0 133.028 23.543">
  <path id="img_woman_02" d="M84.81,11.844A11.889,11.889,0,0,1,96.738,0C103.672-.033,108.971,5.025,109,11.708A11.8,11.8,0,0,1,97.116,23.543h-.07C90.207,23.543,84.789,18.37,84.81,11.844Zm3.98.017a8.147,8.147,0,0,0,16.286-.113c0-4.52-3.53-7.9-8.267-7.922h-.042A7.925,7.925,0,0,0,88.79,11.861Zm-52.2,11.126V.731c3.25,0,6.386-.145,9.5.039a6.093,6.093,0,0,1,5.771,6.125,6.115,6.115,0,0,1-5.23,6.469,35.183,35.183,0,0,1-4.04.3c-.705.038-1.414.007-2.262.007v9.317Zm3.793-18.44c0,1.531-.028,3.085.031,4.634a.941.941,0,0,0,.652.65,41.365,41.365,0,0,0,4.905-.247,2.38,2.38,0,0,0,1.955-2.529A2.33,2.33,0,0,0,45.91,4.586c-.715-.062-1.434-.081-2.164-.081C42.657,4.5,41.544,4.547,40.381,4.547ZM0,22.985V.557H3.767v18.7h9.279v3.732Zm117.738-.007V.512c1.079.028,2.162,0,3.241-.023a26.437,26.437,0,0,1,7.7.568,6.117,6.117,0,0,1,4.33,6.645,6.058,6.058,0,0,1-5.279,5.658c-1.987.3-4.019.31-6.18.46v9.159Zm3.891-18.44V9.968c1.89-.113,3.623-.133,5.332-.343a2.428,2.428,0,0,0,2.125-2.552,2.351,2.351,0,0,0-2.017-2.495c-.716-.062-1.437-.081-2.162-.081C123.825,4.5,122.734,4.539,121.629,4.539ZM23.252,22.977V.6h3.742V22.977ZM72.36,22.96v-9.2H64.4v9.189H60.614V.577h3.741V9.816h7.927V.573H76.1V22.96Z"/>
</svg>
