<svg xmlns="http://www.w3.org/2000/svg" width="133" height="23" viewBox="0 0 133 23">
  <path id="img_woman_04" d="M110.494,11.686C110.494,5.623,114.812,0,121.985,0A10.909,10.909,0,0,1,133,11.178C133,18.461,128.036,23,121.78,23A11.046,11.046,0,0,1,110.494,11.686Zm3.536-.915c0,6.3,3.468,10.941,8.295,10.941,4.114,0,7.208-3.049,7.208-9.586,0-7.113-3.774-10.873-8.227-10.873C117.5,1.253,114.03,4.437,114.03,10.771ZM94.208,21.882a46.034,46.034,0,0,1-.917-5.081l1.053-.27c.681,2.269,2.176,5.216,5.712,5.216a3.731,3.731,0,0,0,3.943-3.9c0-2.608-1.394-3.658-4.385-5.284-3.57-1.93-5.575-3.556-5.575-6.707,0-3.015,2.516-5.86,7-5.86a21.825,21.825,0,0,1,4.487.644c.136,1.219.272,2.574.544,4.776l-1.054.2c-.578-2.236-1.53-4.438-4.725-4.438a3.383,3.383,0,0,0-3.57,3.693c0,2.337,1.5,3.522,4.318,4.979,4.08,2.1,5.847,3.659,5.847,6.876C106.889,20.29,103.8,23,99.41,23A14.237,14.237,0,0,1,94.208,21.882ZM0,11.415C0,4.268,5.848,0,12.647,0a34.9,34.9,0,0,1,7.071.847c.068,1.253.238,3.319.51,5.453l-1.02.2c-.816-2.879-1.8-4.1-3.944-4.81a11.484,11.484,0,0,0-3.161-.44c-5.2,0-8.567,3.556-8.567,9.756,0,5.386,2.788,10.738,9.383,10.738a6.808,6.808,0,0,0,2.89-.576A2.008,2.008,0,0,0,16.964,19V16.225c0-2.473-.272-2.744-3.536-2.981v-.983h8.737v.983c-2.108.271-2.244.474-2.244,2.473v2.845a18.5,18.5,0,0,0,.2,3.218A34.756,34.756,0,0,1,12.409,23C4.692,23,0,18.224,0,11.415ZM86.558,22.8,72.008,5.081v8.468c0,3.049.1,4.573.17,5.556.068,1.727.918,2.236,3.366,2.439v.949H67.282v-.949c2.108-.169,2.923-.677,3.06-2.337.1-1.084.169-2.608.169-5.69V4.878a2.941,2.941,0,0,0-.68-2.236c-.646-.847-1.36-1.05-3.025-1.22V.474h5.1L86.32,17.513v-8.3c0-3.15-.069-4.607-.17-5.623-.1-1.524-.884-2-3.6-2.168V.474h8.4v.948c-2.176.238-2.89.576-2.992,2.134-.034,1.084-.1,2.507-.1,5.657V22.8Zm-39.471-.3v-.949c3.162-.237,3.4-.542,3.4-3.319V4.844c0-3.015-.375-3.184-2.924-3.421V.474h10.4c3.2,0,4.521-.034,4.929-.068.034.847.17,3.387.306,5.183l-1.02.17a11.243,11.243,0,0,0-1.019-2.575c-.544-1.118-1.326-1.355-3.366-1.355h-3.23c-1.054,0-1.122.1-1.122,1.084V10.4h3.774c2.549,0,2.719-.508,3.127-2.812H61.4v6.978H60.346c-.442-2.439-.713-2.778-3.161-2.778h-3.74v6.741c0,2.371.748,2.574,2.448,2.608h3.161c2.074,0,2.414-.305,3.162-1.186a14.5,14.5,0,0,0,1.836-3.116l1.02.271c-.2.881-1.122,4.37-1.462,5.386Zm-9.418,0v-.949c2.21-.271,2.481-.61,2.006-1.9-.442-1.321-1.122-3.014-1.836-5.148H30.5c-.544,1.524-1.054,2.845-1.53,4.234-.748,2.2-.272,2.473,2.516,2.811v.949H23.629v-.949c2.142-.271,2.686-.507,3.875-3.556L34.541.2,35.63,0c2.142,5.792,4.487,12.194,6.629,18.054,1.088,2.947,1.394,3.218,3.808,3.489v.949Zm-6.664-9.383h6.358L34.269,4.437C33.181,7.35,32.026,10.433,31.006,13.109Z"/>
</svg>
