<svg xmlns="http://www.w3.org/2000/svg" width="136.718" height="23.561" viewBox="0 0 136.718 23.561">
  <path id="img_woman_01" d="M115.111,17.054a11.892,11.892,0,0,1-.629-8.87A11.07,11.07,0,0,1,123.418.217,10.8,10.8,0,0,1,131.4,1.644a11.284,11.284,0,0,1,4.251,5.183c-1.6,0-2.98.072-4.341-.04a2.5,2.5,0,0,1-1.28-.849,7,7,0,0,0-8.788-.453,7.679,7.679,0,0,0-2.994,7.712,7.156,7.156,0,0,0,5.068,5.917,6.633,6.633,0,0,0,8.027-3.2,4.836,4.836,0,0,0,.182-.622,10.013,10.013,0,0,0-2.384-.136c-.343.009-.685.017-1.024.009-1.125-.027-2.251-.006-3.418-.006V11.35a85.276,85.276,0,0,1,11.9-.134,1.422,1.422,0,0,1,.117.418c-.124,4.638-2.623,9.217-7.022,11.078a10.818,10.818,0,0,1-4.224.849A11.492,11.492,0,0,1,115.111,17.054ZM20.095,11.933C19.619,5.6,25.206.075,31.266.014a11.772,11.772,0,0,1,.426,23.53c-.108,0-.217.005-.325.005C25.262,23.549,19.742,18.008,20.095,11.933Zm6.181-5.522a8.158,8.158,0,0,0-1.871,7.306,7.253,7.253,0,0,0,9.865,5.152c3.052-1.341,4.35-3.89,4.48-7.128a7.154,7.154,0,0,0-1.535-4.577,7,7,0,0,0-5.784-3A6.828,6.828,0,0,0,26.276,6.411ZM62.738,23.018c-.019-7.509,0-14.934-.006-22.415A9.421,9.421,0,0,1,63.68.5c2.2,0,4.393.009,6.589.012,4.262.005,6.763,4.066,6.481,7.367-.319,3.724-3.326,6.314-7.189,6.5-.845.04-1.693.006-2.736.006v8.532a8.756,8.756,0,0,1-1.906.184C64.218,23.1,63.5,23.048,62.738,23.018ZM66.771,5.235c.01.733,0,1.468,0,2.2h.009c0,.775.007,1.55,0,2.325-.008.567.264.828.815.8.847-.047,1.695-.08,2.539-.16,2.582-.242,2.876-2.784,2.22-4.43a2.051,2.051,0,0,0-1.6-1.365c-1.037-.159-2.09-.205-3.137-.28q-.053,0-.1,0C66.961,4.321,66.763,4.679,66.771,5.235ZM92.371,23V.5c1.207,0,2.263-.064,3.3.036a1.674,1.674,0,0,1,1,.745c1.254,1.867,2.459,3.765,3.675,5.656q2.323,3.61,4.644,7.223a9.756,9.756,0,0,0,.756.86c.123-1.824.063-3.357.073-4.886.011-1.6,0-3.2,0-4.8V.591h4.014c.034,7.439.023,14.868.009,22.466-1.222,0-2.31.058-3.386-.036-.31-.028-.654-.446-.861-.766-1.727-2.678-3.425-5.378-5.134-8.068q-1.611-2.534-3.236-5.059a8.7,8.7,0,0,0-.567-.7c-.459.382-.32.858-.322,1.266-.012,3.977-.007,7.953-.007,11.93v1.328a11.9,11.9,0,0,1-1.943.149C93.728,23.1,93.062,23.052,92.371,23Zm-42.134.082c-.032-.487-.09-.957-.09-1.426q-.01-7.744-.008-15.487c0-.522-.051-1.045-.086-1.714H46.158V.794A79.531,79.531,0,0,1,58.107.715V4.429H54.174c-.155,2.155-.061,4.193-.076,6.227s0,4.1,0,6.145v6.277ZM.3,23.047C-.007,22.242-.133,2.9.187.673H4.153V9.186h7.795V.632h4.059V23.022H11.937V13.628a28.717,28.717,0,0,0-7.749-.14c-.071,1.532-.028,3.114-.036,4.694s0,3.18,0,4.865Zm81.836-.075V.57C82.83.544,83.464.511,84.1.5c.606-.012,1.213,0,1.982,0V22.972Z"/>
</svg>
