<svg xmlns="http://www.w3.org/2000/svg" width="178.443" height="23.879" viewBox="0 0 178.443 23.879">
  <path id="img_woman_07" d="M167.312,23.879V19.928h0V.338h3.951V19.928h7.179v3.951ZM2.479,22.851A4.455,4.455,0,0,1,.308,20.1a8.934,8.934,0,0,1-.229-3.609,36.566,36.566,0,0,1,3.978-.012c0,.716-.046,1.4.01,2.069.1,1.212.8,1.777,2.112,1.784,1.284.008,1.993-.52,2.148-1.642A4.216,4.216,0,0,0,6.9,14.99c-.738-.719-1.565-1.368-2.353-2.048-.674-.583-1.379-1.144-2.017-1.756A7.171,7.171,0,0,1,.469,3.681,4.759,4.759,0,0,1,4.535.185a9.335,9.335,0,0,1,3.89.047,4.855,4.855,0,0,1,3.6,2.762,6.579,6.579,0,0,1,.516,3.572H8.63c-.158-.715.066-1.455-.266-2.135A1.976,1.976,0,0,0,6.388,3.358a1.752,1.752,0,0,0-1.83,1.224,4.132,4.132,0,0,0-.135,1.425A5.4,5.4,0,0,0,6.566,9.481c1.061.929,2.207,1.786,3.264,2.718a7.318,7.318,0,0,1,2.77,6.358c-.176,1.947-.865,3.7-3.054,4.589a8.68,8.68,0,0,1-3.274.667A8.094,8.094,0,0,1,2.479,22.851Zm35.216.86c-3.089-.337-4.935-2.116-5.18-4.964-.05-.583-.032-1.171-.032-1.756,0-3.652,0-7.3-.005-10.957a7.591,7.591,0,0,1,.4-2.546A4.956,4.956,0,0,1,36.9.19,9.233,9.233,0,0,1,40.448.154a5.075,5.075,0,0,1,4.56,4.78c.1,1.024.015,2.061.015,3.191h-3.99c0-.762,0-1.479,0-2.194A3.743,3.743,0,0,0,40.892,4.7a1.772,1.772,0,0,0-2-1.288,1.764,1.764,0,0,0-2,1.282,3.031,3.031,0,0,0-.157,1.019q0,6.149,0,12.3a3.738,3.738,0,0,0,.031.619c.2,1.216.877,1.731,2.214,1.7,1.236-.027,1.918-.568,2.017-1.764.085-1.028.027-2.066.032-3.1,0-.17,0-.34,0-.64,1.323-.087,2.6-.046,4.016-.016-.053,1.8.238,3.551-.294,5.267a5.029,5.029,0,0,1-4.333,3.541,9.7,9.7,0,0,1-2.727.087Zm48.182-.218V3.682H81.488a21.407,21.407,0,0,1-.01-3.362H94.415V3.6a14.487,14.487,0,0,1-2.163.077,17.5,17.5,0,0,0-2.1.059V23.476c-.732.042-1.429.058-2.125.058S86.615,23.517,85.877,23.493Zm-25.961.034c-.5,0-.992-.006-1.483,0a1.673,1.673,0,0,1-.473-1.383c-.035-1.238-.039-2.479-.051-3.718,0-.447.008-.9,0-1.343-.051-2.24-.728-3.42-4.206-2.905v9.294H49.527V.393A.855.855,0,0,1,50.2.261c.074.005.148.011.221.011q2.8-.014,5.6,0a10.345,10.345,0,0,1,1.306.067c3.011.388,4.561,1.861,4.708,4.5.053.962.034,1.928.027,2.892a4.587,4.587,0,0,1-2.552,4.4,4.375,4.375,0,0,1,2.558,4.192c.031,1.687.034,3.374.024,5.062a3.226,3.226,0,0,0,.461,2.1c-.6.033-1.184.041-1.763.041C60.5,23.531,60.206,23.529,59.917,23.527ZM53.741,3.677V10.7c.8,0,1.481.053,2.144-.013a1.854,1.854,0,0,0,1.828-1.4,11.261,11.261,0,0,0,.015-4.315,1.636,1.636,0,0,0-1.6-1.328A10.5,10.5,0,0,0,55,3.574,7.429,7.429,0,0,0,53.741,3.677Zm80.653,19.8V.381c2.632,0,5.212-.113,7.773.031,2.668.149,4.118,1.472,4.6,3.765a10.638,10.638,0,0,1,.084,3.394,4.37,4.37,0,0,1-2.529,3.592,4.357,4.357,0,0,1,2.918,4.143c.044,1.168.064,2.342-.005,3.508-.159,2.678-2.076,4.477-5.156,4.638-.976.051-1.954.066-2.938.066C137.577,23.518,136,23.478,134.393,23.478Zm4.231-10.238v6.944c.895,0,1.645.026,2.392-.005,1.168-.049,1.767-.465,1.948-1.457a10.818,10.818,0,0,0-.07-4.2,1.642,1.642,0,0,0-1.48-1.319,10.559,10.559,0,0,0-1.409-.105A6.3,6.3,0,0,0,138.624,13.24Zm-.051-9.473c0,1.914,0,3.8.007,5.679a1.7,1.7,0,0,0,.164.49c.811.235,1.478-.2,2.2-.277a1.646,1.646,0,0,0,1.533-1.26,6.96,6.96,0,0,0-.014-3.563,1.521,1.521,0,0,0-1.486-1.148c-.372-.023-.747-.049-1.13-.049A5.834,5.834,0,0,0,138.573,3.766ZM126.279,23.48c-.457-1.338-.407-2.734-.863-4.093H120.38l-.73,4.073h-3.9c1.427-7.725,2.841-15.384,4.262-23.078h6.216c1.419,7.68,2.834,15.339,4.268,23.1ZM122.8,5.081c-.621,3.644-1.241,7.288-1.874,11a39.337,39.337,0,0,0,3.964-.015c-.637-3.719-1.26-7.358-1.884-11Zm-105.9,18.4V.349H28.274v3.3H21.241v6.3a25.308,25.308,0,0,0,2.9.075,27.1,27.1,0,0,1,2.714.056v3.328H21.226v6.68h7.061a31.1,31.1,0,0,1,.089,3.383Zm49.856-.03V.345H78.184V3.66H71.1v6.362h5.62a25.5,25.5,0,0,1,0,3.4H71.08V20.1h7.08v3.345Zm35.361-.009V.376h4.067v19.8h6.891v3.259Zm49.69,0V.374h11.31c.157,1.083.025,2.131.093,3.281h-7.16v6.38h5.592v3.371h-5.6v6.78h7.088v3.25Z" transform="translate(0 0)"/>
</svg>
