<svg xmlns="http://www.w3.org/2000/svg" width="220.6" height="17.531" viewBox="0 0 220.6 17.531">
  <path id="img_woman_10" d="M206.136,8.688c0-5.466,2.985-8.688,7.232-8.688S220.6,3.223,220.6,8.688c0,5.543-2.985,8.843-7.231,8.843S206.136,14.231,206.136,8.688Zm2.5,0c0,4.331,1.894,6.935,4.735,6.935s4.735-2.6,4.735-6.935c0-4.254-1.894-6.781-4.735-6.781S208.633,4.434,208.633,8.688Zm-48.413,0C160.22,3.223,163.2,0,167.452,0s7.232,3.223,7.232,8.688c0,5.543-2.985,8.843-7.232,8.843S160.22,14.231,160.22,8.688Zm2.5,0c0,4.331,1.894,6.935,4.735,6.935s4.735-2.6,4.735-6.935c0-4.254-1.894-6.781-4.735-6.781S162.717,4.434,162.717,8.688ZM0,8.765C0,3.326,3.529,0,8.437,0A7.419,7.419,0,0,1,13.6,2.062L12.225,3.429A5.31,5.31,0,0,0,8.437,1.908c-3.587,0-5.94,2.6-5.94,6.806,0,4.255,2.353,6.91,5.94,6.91a5.668,5.668,0,0,0,4.218-1.857l1.378,1.315a7.617,7.617,0,0,1-5.825,2.45C3.558,17.531,0,14.283,0,8.765Zm195.719,8.456-5.45-8.872-3.245,3.484v5.388h-2.439V.31h2.439V8.765h.086L195,.31h2.755l-5.969,6.409,6.658,10.5Zm-45.916,0L144.352,8.35l-3.244,3.484v5.388h-2.439V.31h2.439V8.765h.086L149.085.31h2.755l-5.969,6.409,6.657,10.5Zm-29.473,0V11.189L114.017.31h2.554l2.813,5c.717,1.316,1.377,2.6,2.152,3.945h.115c.746-1.341,1.492-2.629,2.21-3.945l2.726-5h2.468l-6.313,10.88v6.033Zm-17.219,0L98.58,10.08H95.248v7.142H92.809V.31h5.883c3.817,0,6.6,1.237,6.6,4.77,0,2.628-1.69,4.19-4.236,4.755l4.781,7.388ZM95.248,8.327h3.1c2.927,0,4.534-1.083,4.534-3.248,0-2.218-1.607-3.017-4.534-3.017h-3.1Zm-15.1,8.895L75.621,10.08H72.29v7.142H69.851V.31h5.883c3.817,0,6.6,1.237,6.6,4.77,0,2.628-1.689,4.19-4.235,4.755l4.781,7.388ZM72.29,8.327h3.1c2.927,0,4.534-1.083,4.534-3.248,0-2.218-1.607-3.017-4.534-3.017h-3.1ZM47.323,17.222V.31H58.974V2.14h-9.24V7.425h7.806V9.255H49.733v6.136h9.528v1.831Zm-13.718,0V9.281H25.8v7.941H23.36V.31H25.8V7.374H33.6V.31h2.439V17.222Z"/>
</svg>
