<svg xmlns="http://www.w3.org/2000/svg" width="149.717" height="35.015" viewBox="0 0 149.717 35.015">
  <path id="img_woman_05" d="M38.049,33.833c-.059-.9.234-1.765,1.4-1.69a2.246,2.246,0,0,0,2.282-1.317c.815-1.624,1.548-3.294,2.2-4.988a2.535,2.535,0,0,0-.113-1.594C42.678,20.963,41.481,17.7,40.3,14.43a2.394,2.394,0,0,0-1.9-1.844c-.212-.034-.379-.359-.566-.55.248-.163.493-.462.746-.468,1.732-.042,3.466-.021,5.2-.021l.221.333c-.226.231-.411.57-.685.672a.982.982,0,0,0-.613,1.431c.834,2.473,1.69,4.938,2.662,7.766.366-.867.618-1.414.831-1.975.632-1.661,1.218-3.34,1.882-4.988.442-1.1.713-2.056-.82-2.477-.118-.032-.185-.247-.424-.59h5.48c-.3.346-.462.734-.707.792a2.8,2.8,0,0,0-1.934,2.021c-1.8,4.709-3.543,9.435-5.362,14.134A21.961,21.961,0,0,1,42.3,32.9a6.063,6.063,0,0,1-2.483,1.99,1.359,1.359,0,0,1-.562.122A1.177,1.177,0,0,1,38.049,33.833Zm97.619.125a1.4,1.4,0,0,1,1.4-1.8,2.507,2.507,0,0,0,2.363-1.45q1.149-2.4,2.127-4.88a2.12,2.12,0,0,0-.06-1.35c-1.173-3.356-2.388-6.7-3.591-10.044a2.376,2.376,0,0,0-1.9-1.842c-.211-.034-.361-.45-.539-.689.242-.121.482-.344.726-.349,1.528-.029,3.057-.023,4.586.007a2.369,2.369,0,0,1,.742.291c-.157.217-.272.562-.479.63-.876.29-.95.885-.7,1.612.829,2.436,1.675,4.867,2.514,7.3l.343.013c.939-2.527,1.908-5.043,2.775-7.594.107-.314-.269-.859-.536-1.21-.2-.259-.581-.378-1.157-.725a5.414,5.414,0,0,1,1.079-.323q1.844-.027,3.69.015a2.35,2.35,0,0,1,.665.227c-.088.211-.134.573-.27.609-2.109.575-2.376,2.533-3,4.12-1.86,4.727-3.564,9.514-5.4,14.251a11.183,11.183,0,0,1-1.65,2.847,4.254,4.254,0,0,1-1.842,1.258,1.949,1.949,0,0,1-.654.122A1.22,1.22,0,0,1,135.668,33.958ZM111.59,22.469c-2.269-4.292-.338-10.593,5.586-11.308a16.919,16.919,0,0,1,2.63.1c0-2.725.043-5.423-.048-8.115-.013-.379-.65-.776-1.057-1.088a6.981,6.981,0,0,0-1.139-.59c.013-.115.027-.23.041-.345l4.654-1.1c0,1.14.005,2.139,0,3.139q-.055,9.033-.121,18.067c-.009,1.024.327,1.718,1.421,1.917a3.88,3.88,0,0,1,.856.38c0,.123,0,.245.007.368l-4.365,1.064-.272-1.258a17.608,17.608,0,0,1-2.694,1.233,4.875,4.875,0,0,1-1.283.174A4.744,4.744,0,0,1,111.59,22.469Zm2.924-8.768a6.645,6.645,0,0,0-.871,6.29,6.188,6.188,0,0,0,1.741,2.549c1.046.943,2.361.719,3.6.215,1.157-.472.894-1.49.9-2.4.008-.805,0-1.611,0-2.417,0-1.1.041-2.208-.021-3.307a2.076,2.076,0,0,0-.45-1.236,3.169,3.169,0,0,0-2.312-.987A3.227,3.227,0,0,0,114.514,13.7ZM83.2,22.3a8.1,8.1,0,0,1,.4-8.658,5.6,5.6,0,0,1,5.651-2.44,5.832,5.832,0,0,1,4.872,4.306,16.138,16.138,0,0,1,.415,2.113c-.1,2.752-.874,4.782-2.768,6.3a5.51,5.51,0,0,1-3.461,1.174A5.96,5.96,0,0,1,83.2,22.3Zm2.483-8.526c-1.441,2.17-1.177,6.809.5,8.8,1.617,1.916,3.938,1.693,5.015-.588a18.287,18.287,0,0,0,.878-3.269c-.215-2.609-.7-4.125-1.88-5.34a3.037,3.037,0,0,0-2.159-1.024A2.852,2.852,0,0,0,85.683,13.771Zm39.87,9.865c-.975-1.591-.777-3.8.73-4.651a17.875,17.875,0,0,1,4.618-1.637c.881-.211,1.132-.559,1.049-1.347a4.662,4.662,0,0,0-.225-1.745,3.452,3.452,0,0,0-1.571-1.556,1.718,1.718,0,0,0-2.072,1.067,4.812,4.812,0,0,0-.35,1.077c-.192.9-.843.89-1.478.689a1,1,0,0,1-.65-1.516c.785-1.847,4.793-3.471,6.638-2.672a3.008,3.008,0,0,1,1.938,3.006c-.018,2.418-.05,4.836-.057,7.254,0,1.157.257,2.072,1.769,1.741.184-.04.6.175.6.265a1.055,1.055,0,0,1-.3.714,2.711,2.711,0,0,1-4.293-.951c-.839.469-1.582.957-2.381,1.317a3.97,3.97,0,0,1-1.619.39A2.693,2.693,0,0,1,125.553,23.636Zm4.8-5.006a4.881,4.881,0,0,0-1.732.733,6.22,6.22,0,0,0-1.063,1.376c.03,2,.971,2.679,2.449,2.335,1.812-.422,1.817-1.755,1.849-3.216.023-1.04-.012-1.435-.522-1.435A3.9,3.9,0,0,0,130.357,18.631ZM.212,20.674C-.958,15.421,2.8,10.121,9.2,11.3c0-1.076,0-2.112,0-3.148,0-1.36-.017-2.719.006-4.078.018-1.092-.286-1.907-1.5-2.165A5.172,5.172,0,0,1,6.561,1.2L11.593.021c0,1.076.005,2.028,0,2.98q-.063,8.981-.139,17.96c-.011,1.136.2,2.025,1.548,2.2.267.035.5.3.7.774L9.308,24.945c-.072-.489-.125-.854-.2-1.353a15.712,15.712,0,0,1-1.524.918,5.764,5.764,0,0,1-2.393.546A5.157,5.157,0,0,1,.212,20.674ZM3.6,14.013a7.072,7.072,0,0,0-.164,7.152,3.408,3.408,0,0,0,4.16,1.841c1.056-.263,1.735-.772,1.627-2.023-.087-1.01-.017-2.034-.02-3.051a28.236,28.236,0,0,0-.038-3.3,2.472,2.472,0,0,0-.831-1.551A3.317,3.317,0,0,0,6.34,12.4,3.155,3.155,0,0,0,3.6,14.013Zm10.98,9.176a3.632,3.632,0,0,1,1.651-4.678,24.1,24.1,0,0,1,4.143-1.2c.685-.148.974-.364.888-1.061a6.262,6.262,0,0,0-.2-1.879A3.343,3.343,0,0,0,19.6,12.734a1.767,1.767,0,0,0-2.2,1.057,2.19,2.19,0,0,0-.249.584c-.131.632-.187,1.368-1.095,1.218-.406-.067-1.089-.4-1.087-.608a2.62,2.62,0,0,1,.519-1.66,6.8,6.8,0,0,1,4.346-2.178,3.051,3.051,0,0,1,3.655,3.227c.028,2.377-.055,4.755-.035,7.132.015,1.661.168,1.773,1.8,1.83,2.2.077,2.326-.052,2.331-2.341,0-1.826-.053-3.654.019-5.478.049-1.246-.181-2.19-1.58-2.465-.135-.026-.24-.211-.649-.595l4.538-1.293c0,1.669-.005,3.257,0,4.845.009,2.076.042,4.153.038,6.229,0,1.639,1.383,1.455,2.294,1.575a1.625,1.625,0,0,0,1.971-1.386,14.024,14.024,0,0,0,.116-1.9q.013-7.454,0-14.907c0-2.674,0-2.674-2.316-4C33.531.619,35.2.583,36.843,0c-.095,1.837-.241,3.469-.249,5.1-.029,5.309.024,10.617-.028,15.925-.014,1.475.168,2.632,1.942,2.79.08.007.144.179.4.514a9.742,9.742,0,0,1-1.447.241c-3.776.016-7.552,0-11.327.015a4.582,4.582,0,0,0-1.36.2c-1.749.562-2.556.278-3.546-1.385-.753.418-1.485.9-2.274,1.248a4.28,4.28,0,0,1-1.726.407A2.831,2.831,0,0,1,14.579,23.189Zm2.849-3.346a3.1,3.1,0,0,0-.221,2.436c.137.439,1.14.882,1.723.846.94-.058,2.007-.408,2.166-1.584a24.4,24.4,0,0,0,.026-3.094C19.68,18.485,18.266,18.7,17.428,19.843Zm86.644,4.367c.005-.042,0-.116.017-.121,2.052-.642,2.009-2.273,1.934-3.966-.06-1.356.03-2.72-.031-4.076-.056-1.234-.388-2.373-1.728-2.85a4.38,4.38,0,0,0-3.787,1.022,1.887,1.887,0,0,0-.253,1.067c-.019,2.166.04,4.334-.022,6.5-.03,1.045.223,1.73,1.343,1.926.23.04.425.278.7.47-1.316.652-5.887.532-6.394-.03.595-.467,1.414-.823,1.726-1.437a5.686,5.686,0,0,0,.256-2.359c.03-1.572-.052-3.146.026-4.714.066-1.3-.2-2.27-1.639-2.573-.127-.027-.219-.225-.5-.534L100.2,11.1c.03.64.052,1.091.078,1.633,1.035-.475,1.983-1.006,2.994-1.355,2.5-.862,4.535.253,4.868,2.87a49.745,49.745,0,0,1,.22,6.732c-.014,1.452-.114,2.815,1.94,2.823-.314.536-2.031.819-3.619.819A6.052,6.052,0,0,1,104.072,24.21ZM67.24,24c2.556-.352,2.061-2.217,2.082-3.818.019-1.443.023-2.888-.022-4.33A2.622,2.622,0,0,0,67.682,13.2a3.832,3.832,0,0,0-3.533.978,2.108,2.108,0,0,0-.266,1.189c-.023,2.081.038,4.163-.021,6.242-.032,1.1.113,1.942,1.411,2.122.184.026.335.292.731.658H59.374c.076-.275.084-.415.123-.424,1.675-.4,2.113-1.505,2.009-3.119-.117-1.818-.076-3.652-.01-5.476.043-1.177-.259-1.991-1.522-2.241-.169-.033-.3-.247-.661-.559l4.534-1.474c.044.641.077,1.118.111,1.621,4.969-2.2,5.162-2.184,7.434.388A22.846,22.846,0,0,1,74.361,11.5c2.863-1.059,5.016.439,5.094,3.5.054,2.122.02,4.247,0,6.37-.009,1.185.14,2.225,1.628,2.4.142.017.255.271.584.644H75.385l-.521-.534c.3-.041.591-.088.888-.122a1.5,1.5,0,0,0,1.387-1.686c.008-2.329.016-4.664-.145-6.984a2.115,2.115,0,0,0-2.579-1.99,2.678,2.678,0,0,0-2.731,2.976c.016,1.826.04,3.653-.013,5.478-.032,1.083.1,1.948,1.393,2.156.2.031.355.29.554.463a7.21,7.21,0,0,1-2.9.423A7.442,7.442,0,0,1,67.24,24ZM28.7,7.454c-1-.017-1.57-.74-1.517-1.9A1.471,1.471,0,0,1,28.8,4.009c.9-.022,1.475.768,1.413,2.323-.033.486-.413,1.122-1.46,1.122Z"/>
</svg>
