<svg xmlns="http://www.w3.org/2000/svg" width="155" height="24" viewBox="0 0 155 24">
  <path id="img_woman_08" d="M18.842,20.4A11.444,11.444,0,0,1,20.459,4.076,9.44,9.44,0,0,1,33.643,5.521a11.548,11.548,0,0,1,2.767,8.011,10.929,10.929,0,0,1-5.787,9.343A8.976,8.976,0,0,1,26.282,24,9.8,9.8,0,0,1,18.842,20.4ZM24.188,3.187a7.212,7.212,0,0,0-5.1,4.846,12.037,12.037,0,0,0-.557,6.393,12.822,12.822,0,0,0,2.5,5.9A7.149,7.149,0,0,0,33.3,18.559a12.48,12.48,0,0,0,.88-4.718A12.705,12.705,0,0,0,31.36,5.524a6.7,6.7,0,0,0-5.249-2.579A8.113,8.113,0,0,0,24.188,3.187ZM144.614,23.3c-.321-.121-.547-.253-.6-.661-.16-1.323-.365-2.64-.559-4a1.028,1.028,0,0,1,.768-.012c.1.352.211.732.318,1.113.788,2.818,2.534,3.836,5.629,3.032a3.792,3.792,0,0,0,2.962-2.973,4.127,4.127,0,0,0-1.4-4.139,12.973,12.973,0,0,0-2.762-1.77,14.2,14.2,0,0,1-3.1-2.077,5.476,5.476,0,0,1-1.638-5.7,5.008,5.008,0,0,1,3.673-3.792,11.037,11.037,0,0,1,5.463.09c.162,1.286.318,2.531.473,3.762a.672.672,0,0,1-.689.072c-.06-.231-.129-.469-.184-.71-.461-2.014-1.478-2.637-3.5-2.6a5.93,5.93,0,0,0-.814.092,3.821,3.821,0,0,0-2.632,5.84,6.463,6.463,0,0,0,1.9,1.894,25.524,25.524,0,0,0,2.854,1.621,16.123,16.123,0,0,1,2.029,1.26,5.545,5.545,0,0,1-.08,8.882,7,7,0,0,1-3.427,1.358,10.853,10.853,0,0,1-1.172.064A9.859,9.859,0,0,1,144.614,23.3Zm-97.539.637c-.38-.019-.355-.375-.446-.61q-3.346-8.639-6.681-17.284c-.163-.421-.351-.832-.535-1.245a2.4,2.4,0,0,0-2.194-1.547c-.148-.007-.3-.024-.44-.036-.194-.207-.1-.423-.082-.689q3.407.072,6.749-.012c.19.243.107.459.091.666a2.245,2.245,0,0,1-.9.153c-.928.123-1.205.511-.981,1.445a11.8,11.8,0,0,0,.4,1.3q2.609,7.108,5.233,14.209a.824.824,0,0,0,.27.485c.2-.124.217-.363.287-.554q2.6-7.069,5.2-14.143a11.4,11.4,0,0,0,.372-1.225c.249-1.025-.026-1.417-1.038-1.525-.245-.026-.491-.049-.8-.08a3.5,3.5,0,0,1-.042-.355,3.175,3.175,0,0,1,.038-.344c6.057.022,12.1.074,18.176.008v4.36c-.157.171-.343.114-.551.041-.069-.44-.123-.889-.211-1.33A2.293,2.293,0,0,0,66.654,3.5c-1.21-.105-2.421-.093-3.648-.081-.657.006-1.319.013-1.987,0v8.506c.035.068.135.081.233.081q.6,0,1.2,0c.989,0,1.98,0,2.969-.022,1.216-.033,1.685-.51,1.827-1.732.029-.248.06-.5.087-.711.21-.187.393-.1.608-.093V16c-.158.165-.351.1-.57.053a4.547,4.547,0,0,1-.135-1.175c-.13-1.11-.5-1.581-1.581-1.629-1.531-.069-3.068-.018-4.578-.018-.177.207-.114.418-.114.61q-.008,3.1,0,6.2c0,.126,0,.252.005.378.061,1.338.5,1.927,1.8,2.068a25.487,25.487,0,0,0,5.2.005,3.185,3.185,0,0,0,2.745-2.139c.192-.462.374-.928.556-1.381A1.434,1.434,0,0,1,72,18.927c-.453,1.517-.922,2.968-1.244,4.512H56.371a.754.754,0,0,1-.038-.572c.068-.043.105-.087.148-.091.321-.031.646-.034.964-.083a1.663,1.663,0,0,0,1.569-1.634,13.008,13.008,0,0,0,.078-1.509q.008-6.656,0-13.311a11.216,11.216,0,0,0-.085-1.509,1.459,1.459,0,0,0-1.355-1.378c-.025,0-.05,0-.074-.007-1.96-.276-2.528.011-3.247,1.9-1.835,4.836-3.625,9.69-5.433,14.536-.439,1.177-.87,2.356-1.323,3.526-.095.245-.062.633-.466.633Zm63.171-.213c-.239-.01-.318-.224-.39-.409a11.432,11.432,0,0,0-1.312-2.189,3.591,3.591,0,0,0-2.675-1.588,6.848,6.848,0,0,0-2.809.167,3.611,3.611,0,0,0-2.7,2.921c-.146.745-.184.811-.9.818a10.771,10.771,0,0,1-2.277-.038c-.261-.967-.237-1.036.631-1.335a1.977,1.977,0,0,0,1.086-.858c1.451-2.322,2.766-4.723,4.066-7.132a5.315,5.315,0,0,0,.507-2.118,60.583,60.583,0,0,0,.081-8.01,1.526,1.526,0,0,0-.5-1.189A1.544,1.544,0,0,1,102.79.889a1.621,1.621,0,0,1,3.03.383,1.508,1.508,0,0,1-.375,1.47,1.16,1.16,0,0,0-.337.946c.122,2.619.313,5.231.619,7.834a7.636,7.636,0,0,0,.779,2.436,40.873,40.873,0,0,0,4.579,7.418,2.3,2.3,0,0,0,1.7,1.075,1.352,1.352,0,0,1-.012,1.191,7.352,7.352,0,0,1-1.414.116C110.989,23.759,110.617,23.743,110.246,23.729Zm-7.5-5.72c1.389-.055,2.617.015,3.983-.15l-2.063-3.1ZM74.29,22.15a1.565,1.565,0,1,1,1.565,1.56A1.563,1.563,0,0,1,74.29,22.15ZM.043,22.867a3.637,3.637,0,0,1,1-.153,1.589,1.589,0,0,0,1.533-1.478,7.177,7.177,0,0,0,.113-1.5q0-6.845,0-13.69a6.817,6.817,0,0,0-.133-1.5A1.41,1.41,0,0,0,1.293,3.344C.9,3.287.5,3.25.068,3.2A.761.761,0,0,1,.09,2.527c2.35.07,4.72.061,7.047,0,.2.238.1.428.109.652-.455.057-.871.094-1.282.163A1.431,1.431,0,0,0,4.65,4.676a8.408,8.408,0,0,0-.087,1.28q-.009,6.845,0,13.691c0,2.027.427,2.568,2.39,2.818a18.966,18.966,0,0,0,4.679.007,3.274,3.274,0,0,0,2.8-2.281,5.734,5.734,0,0,0,.3-.853c.092-.441.331-.508.757-.353l-1.078,4.5c-4.783-.058-9.542-.067-14.277,0C-.062,23.285.005,23.09.043,22.867Zm128.736-.713c-1.769-2.648-3.57-5.274-5.288-7.957a1.257,1.257,0,0,0-1.266-.669c-.913.045-1.829.011-2.68.011a.719.719,0,0,0-.178.635q-.007,2.95,0,5.9c0,.276.025.554.054.83a1.7,1.7,0,0,0,1.807,1.791,2.2,2.2,0,0,0,.3.017c.462-.02.646.182.486.728-.852,0-1.707,0-2.563-.007-1.5-.011-3-.022-4.489.03-.252-.188-.105-.393-.14-.563a.856.856,0,0,1,.593-.153,1.984,1.984,0,0,0,.221-.007c1.207-.135,1.6-.488,1.787-1.72a8.591,8.591,0,0,0,.076-1.281q.008-6.884,0-13.768a6.461,6.461,0,0,0-.134-1.426A1.461,1.461,0,0,0,116.1,3.332c-.39-.069-.787-.1-1.221-.154a.806.806,0,0,1-.013-.648,6.178,6.178,0,0,1,1.323-.038c2.185.045,4.369.031,6.554-.011a7.9,7.9,0,0,1,3.137.529,5.134,5.134,0,0,1,1.969,8.176,6.808,6.808,0,0,1-2.763,1.873c-.053.223.115.367.214.524a78.707,78.707,0,0,0,5.069,7.188,6.874,6.874,0,0,0,1.394,1.355,6.048,6.048,0,0,0,1.177.668.572.572,0,0,0,.106.043.454.454,0,0,0,.1.016.548.548,0,0,0,.131.179.72.72,0,0,0-.017.126.581.581,0,0,0-.072.13.51.51,0,0,0-.172.14c-.724.005-.907.019-1.72.049q-.088,0-.172,0A2.528,2.528,0,0,1,128.779,22.154Zm-9.372-18.63v8.993a14.014,14.014,0,0,0,4.167-.169,4.908,4.908,0,0,0,1.805-.855,4.463,4.463,0,0,0,1.6-4.511,3.8,3.8,0,0,0-2.9-3.273,8.575,8.575,0,0,0-2.45-.318C120.9,3.391,120.157,3.454,119.407,3.524Zm15.609,19.263c.263-.032.53-.061.8-.095a.077.077,0,0,1,0-.012,4.46,4.46,0,0,0,.5-.107,1.562,1.562,0,0,0,1.141-1.178,4.683,4.683,0,0,0,.163-1.27q0-7.107,0-14.213-.016-.372-.048-.743a1.8,1.8,0,0,0-1.884-1.91,1.928,1.928,0,0,1-.588-.068l-.075-.007a.473.473,0,0,1-.1-.319.714.714,0,0,1,.007-.092c.009-.079.025-.163.039-.257h.123a.9.9,0,0,1,.3-.016c1.458,0,2.917.025,4.375.033.761-.006,1.521-.017,2.278-.038a.534.534,0,0,1,.056.677c-.262.032-.529.061-.8.1a.057.057,0,0,1,0,.011,4.393,4.393,0,0,0-.5.107,1.562,1.562,0,0,0-1.141,1.178,4.713,4.713,0,0,0-.164,1.271q0,7.106,0,14.213.016.373.049.743a1.8,1.8,0,0,0,1.884,1.91,1.931,1.931,0,0,1,.588.068l.075.007a.472.472,0,0,1,.1.319.706.706,0,0,1-.007.093c-.009.079-.024.163-.038.256h-.123a.916.916,0,0,1-.3.017c-1.459,0-2.917-.025-4.375-.034-.761.007-1.521.017-2.278.038A.537.537,0,0,1,135.016,22.788Zm-50.97.634c-.155-.179-.1-.391-.027-.61a2.767,2.767,0,0,1,.952-.124,1.593,1.593,0,0,0,1.567-1.444,5.013,5.013,0,0,0,.113-1.126V5.592c0-.126,0-.252,0-.379-.062-1.39-.463-1.817-1.828-1.976a1.956,1.956,0,0,0-.227-.009.88.88,0,0,1-.493-.1c-.131-.165-.065-.333-.058-.482.069-.046.11-.1.15-.1,1.108.019,2.217,0,3.325-.017,1.5-.024,2.993-.048,4.489.019a6.515,6.515,0,0,1,2.435.643,5.642,5.642,0,0,1,3.239,6.262,5.863,5.863,0,0,1-4.737,4.9,10.98,10.98,0,0,1-2.076.157c-.742,0-1.484,0-2.133,0-.2.1-.206.206-.206.3,0,1.916-.054,3.833.037,5.748a4.631,4.631,0,0,0,.054.6,1.628,1.628,0,0,0,1.6,1.514,3.307,3.307,0,0,1,.948.113.671.671,0,0,1,.026.622ZM88.56,3.577v9.841a16.824,16.824,0,0,0,3.736,0,3.847,3.847,0,0,0,2.993-2.444,6.1,6.1,0,0,0,.4-1.6,5.05,5.05,0,0,0-3.541-5.726A6.185,6.185,0,0,0,90.36,3.4,10.367,10.367,0,0,0,88.56,3.577Z"/>
</svg>
