<svg xmlns="http://www.w3.org/2000/svg" width="190" height="21.111" viewBox="0 0 190 21.111">
  <path id="img_woman_09" d="M119.029,19.263a6.064,6.064,0,0,1-1.588-1.384c.655-.815,1.3-1.574,1.9-2.37.47-.626.9-.657,1.51-.158a6.29,6.29,0,0,0,4.273,1.618,3.263,3.263,0,0,0,1.623-.375,1.618,1.618,0,0,0,.224-2.736,6.049,6.049,0,0,0-1.485-.79c-1.3-.588-2.641-1.1-3.907-1.751a5.443,5.443,0,0,1-3.224-5.27A5.591,5.591,0,0,1,121.96.888c3.155-1.436,7.684-.478,9.72,2.23a26.489,26.489,0,0,1-2.211,2.647c-.631,0-.97-.465-1.414-.709a4.878,4.878,0,0,0-3.981-.59,1.485,1.485,0,0,0-.355,2.788,24.077,24.077,0,0,0,3.07,1.388c.741.355,1.513.644,2.249,1.009a5.3,5.3,0,0,1,3.188,5,5.574,5.574,0,0,1-3.113,5.358,9.338,9.338,0,0,1-4.321,1.1A10.785,10.785,0,0,1,119.029,19.263Zm44.051,1.793a8.431,8.431,0,0,1-8-6.495,14.143,14.143,0,0,1-.531-4.03,11.763,11.763,0,0,1,2.29-7.37c3.429-4.346,12.263-4.282,14.747,2.7a13.755,13.755,0,0,1,.081,9.164,8.264,8.264,0,0,1-8.314,6.03C163.26,21.06,163.17,21.059,163.08,21.057Zm.373-16.786a3.746,3.746,0,0,0-3.493,2.294,8.555,8.555,0,0,0-.781,3.95,8.763,8.763,0,0,0,.968,4.431,3.622,3.622,0,0,0,3.379,2.024,3.438,3.438,0,0,0,3.226-2.04,9.612,9.612,0,0,0,.176-8.366A3.561,3.561,0,0,0,163.5,4.27ZM60.142,17.656c-2.8-3.627-2.918-10.577-.2-14.261C62.044.54,64.973-.347,68.316.126c3.5.5,5.743,2.62,6.865,5.987a13.256,13.256,0,0,1,.587,4.28,11.262,11.262,0,0,1-2.335,7.479,8.637,8.637,0,0,1-13.291-.216ZM63.73,5.8a8.437,8.437,0,0,0-1.11,4.955,8.737,8.737,0,0,0,.684,3.431,3.771,3.771,0,0,0,3.574,2.585,3.721,3.721,0,0,0,3.628-2.688,10.58,10.58,0,0,0,.048-7.343A4.046,4.046,0,0,0,69.993,5.7,3.731,3.731,0,0,0,63.73,5.8Zm33.89,6.84a12.126,12.126,0,0,1,1.864-8.916c2.9-4.213,10.018-5.262,13.738-.972a9.562,9.562,0,0,1-2.238,2.787c-.508.087-.775-.324-1.119-.566a4.636,4.636,0,0,0-7.078,1.963,8.57,8.57,0,0,0,.148,7.39,4.665,4.665,0,0,0,6.4,1.861V12.94H106.18a15.555,15.555,0,0,1-.134-3.569,24.406,24.406,0,0,1,7.259-.162c.306.263.241.63.242.975,0,2.416-.027,4.832.02,7.246a1.834,1.834,0,0,1-.867,1.629,9.672,9.672,0,0,1-5.8,1.823A9.016,9.016,0,0,1,97.62,12.636ZM148.983,20.7c-.479-.016-.967-.031-1.466-.015-.332-2.806.018-5.515-.222-8.275h-6.389v8.162a21.354,21.354,0,0,1-4.463.048V.659a30.58,30.58,0,0,1,4.35.006c.263,2.5-.013,4.955.173,7.544h6.383V.735a15.505,15.505,0,0,1,4.517,0V20.532a7.863,7.863,0,0,1-1.878.192C149.655,20.724,149.321,20.712,148.983,20.7ZM175.6,20.6V.9a.838.838,0,0,1,.628-.294c.888.015,1.777,0,2.666-.019a35.857,35.857,0,0,1,5.49.177c3.438.463,5.4,2.468,5.6,5.664a6.366,6.366,0,0,1-4.936,7.04,14.733,14.733,0,0,1-3.733.324h-.152a2.224,2.224,0,0,0-.99.159c-.242,2.1.06,4.291-.179,6.638a18.171,18.171,0,0,1-2.178.131A20.013,20.013,0,0,1,175.6,20.6Zm4.558-16.132v5.48a8.447,8.447,0,0,0,3.727-.229,2.69,2.69,0,0,0,1.651-2.961,2.2,2.2,0,0,0-2-2.216,9.214,9.214,0,0,0-1.789-.162C181.223,4.376,180.695,4.41,180.153,4.464ZM50.369,20.4l-3.858-7.155a6.488,6.488,0,0,0-2.05-.016v7.1a14.4,14.4,0,0,1-4.525.051V.741a.744.744,0,0,1,.717-.364c.873.011,1.747,0,2.62-.009a51.832,51.832,0,0,1,5.415.128,8.281,8.281,0,0,1,2.141.5A5.146,5.146,0,0,1,54.275,5.09c.606,3.176-.3,5.257-3.289,7.356L55.159,19.9a2.993,2.993,0,0,1-2.346.665A23.341,23.341,0,0,1,50.369,20.4ZM44.49,4.212V9.263A8.319,8.319,0,0,0,48.4,9.051a2.455,2.455,0,0,0,1.559-2.6,2.011,2.011,0,0,0-1.776-2.09,7.9,7.9,0,0,0-1.935-.2C45.676,4.154,45.093,4.188,44.49,4.212ZM82.779,8.178l-.281.06c.449,3.984.183,7.966.266,12.059a11.954,11.954,0,0,1-4.193.1V.457a18.242,18.242,0,0,1,2.546-.1C81.7.367,82.295.372,82.913.34l6.5,12.124V.573A15.14,15.14,0,0,1,93.456.4c.4,1.024.492,18.468.1,20a11.312,11.312,0,0,1-2.426.116,17.115,17.115,0,0,0-1.8.024ZM13.792,20.438V9.7l-.284-.031c-1.08,2.982-2.16,5.964-3.253,8.98a14.626,14.626,0,0,1-2.725.02L4.35,10.008l-.3.044V20.36A19.7,19.7,0,0,1,0,20.47V.446H4.747C6.124,4.31,7.512,8.2,8.951,12.237L13.034.465H17.81V20.34a8.021,8.021,0,0,1-1.85.189C15.268,20.529,14.556,20.475,13.792,20.438Zm8.368-.017C21.8,19.371,21.754,1.788,22.1.464H34.234a18.767,18.767,0,0,1,0,3.764,27.287,27.287,0,0,1-4.034.137,30.152,30.152,0,0,0-3.709.094V8.073H33a13.881,13.881,0,0,1,.042,3.895,30.469,30.469,0,0,1-3.625.107c-.961-.009-1.929-.019-2.911.044-.153,1.451-.05,2.836-.066,4.381h8.031a22.564,22.564,0,0,1,.074,3.92Z"/>
</svg>
